<?xml version="1.0" encoding="iso-8859-1"?>
<!-- Generator: Adobe Illustrator 19.0.0, SVG Export Plug-In . SVG Version: 6.00 Build 0)  -->
<svg version="1.1" id="Layer_1" xmlns="http://www.w3.org/2000/svg" xmlns:xlink="http://www.w3.org/1999/xlink" x="0px" y="0px"
	 viewBox="0 0 512 512" style="enable-background:new 0 0 512 512;" xml:space="preserve">
<path style="fill:#FFFFFF;" d="M384,512H128c-8.448,0-15.36-6.912-15.36-15.36V15.36C112.64,6.912,119.552,0,128,0h256
	c8.448,0,15.36,6.912,15.36,15.36v481.28C399.36,505.088,392.448,512,384,512z"/>
<rect x="128" y="40.96" width="256" height="409.6"/>
<g>
	<path style="fill:#999999;" d="M286.456,25.6h-61.44c-2.816,0-5.12-2.304-5.12-5.12l0,0c0-2.816,2.304-5.12,5.12-5.12h61.44
		c2.816,0,5.12,2.304,5.12,5.12l0,0C291.576,23.296,289.272,25.6,286.456,25.6z"/>
	<path style="fill:#999999;" d="M286.72,481.28h-61.44c-2.816,0-5.12-2.304-5.12-5.12l0,0c0-2.816,2.304-5.12,5.12-5.12h61.44
		c2.816,0,5.12,2.304,5.12,5.12l0,0C291.84,478.976,289.536,481.28,286.72,481.28z"/>
</g>
<g>
	<rect x="158.736" y="77.552" style="fill:#E50914;" width="194.56" height="99.28"/>
	<rect x="158.736" y="223.776" style="fill:#E50914;" width="194.56" height="10.24"/>
</g>
<rect x="158.736" y="257.68" style="fill:#FFFFFF;" width="156.216" height="10.24"/>
<rect x="158.736" y="291.616" style="fill:#E50914;" width="194.56" height="10.24"/>
<rect x="158.736" y="325.536" style="fill:#FFFFFF;" width="156.216" height="10.24"/>
<rect x="158.736" y="359.456" style="fill:#E50914;" width="194.56" height="10.24"/>
<rect x="158.736" y="393.36" style="fill:#FFFFFF;" width="156.216" height="10.24"/>
<g>
</g>
<g>
</g>
<g>
</g>
<g>
</g>
<g>
</g>
<g>
</g>
<g>
</g>
<g>
</g>
<g>
</g>
<g>
</g>
<g>
</g>
<g>
</g>
<g>
</g>
<g>
</g>
<g>
</g>
</svg>
