<svg xmlns="http://www.w3.org/2000/svg" style="enable-background:new 0 0 512 512" viewBox="0 0 512 512">
  <path d="M384 512H128c-8.448 0-15.36-6.912-15.36-15.36V15.36C112.64 6.912 119.552 0 128 0h256c8.448 0 15.36 6.912 15.36 15.36v481.28c0 8.448-6.912 15.36-15.36 15.36z" style="fill:#fff"/>
  <path d="M128 40.96h256v409.6H128z"/><path d="M286.456 25.6h-61.44c-2.816 0-5.12-2.304-5.12-5.12 0-2.816 2.304-5.12 5.12-5.12h61.44c2.816 0 5.12 2.304 5.12 5.12 0 2.816-2.304 5.12-5.12 5.12zM286.72 481.28h-61.44c-2.816 0-5.12-2.304-5.12-5.12 0-2.816 2.304-5.12 5.12-5.12h61.44c2.816 0 5.12 2.304 5.12 5.12 0 2.816-2.304 5.12-5.12 5.12z" style="fill:#999"/>
  <path d="M158.736 77.552h194.56v99.28h-194.56zM158.736 223.776h194.56v10.24h-194.56z" style="fill:#e50914"/>
  <path d="M158.736 257.68h156.216v10.24H158.736z" style="fill:#fff"/>
  <path d="M158.736 291.616h194.56v10.24h-194.56z" style="fill:#e50914"/>
  <path d="M158.736 325.536h156.216v10.24H158.736z" style="fill:#fff"/>
  <path d="M158.736 359.456h194.56v10.24h-194.56z" style="fill:#e50914"/>
  <path d="M158.736 393.36h156.216v10.24H158.736z" style="fill:#fff"/>
  </svg>
