<?xml version="1.0" encoding="UTF-8" standalone="no"?>
<svg width="1024px" height="1024px" viewBox="0 0 1024 1024" version="1.1" xmlns="http://www.w3.org/2000/svg" xmlns:xlink="http://www.w3.org/1999/xlink" style="background: #464A5B;">
    <!-- Generator: Sketch 39.1 (31720) - http://www.bohemiancoding.com/sketch -->
    <title>bp-logo-dark Rendered</title>
    <desc>Created with Sketch.</desc>
    <defs></defs>
    <g id="Page-1" stroke="none" stroke-width="1" fill="none" fill-rule="evenodd">
        <g id="bp-logo-dark-Rendered">
            <g id="bp">
                <rect id="Rectangle" fill="#464A5B" x="0" y="0" width="1024" height="1024"></rect>
                <path d="M398.82151,509.504582 C398.82151,464.125022 389.834134,428.17552 371.859113,401.654997 C353.884093,375.134475 325.448626,361.874412 286.551859,361.874412 C268.871511,361.874412 252.222766,364.526425 236.605125,369.830529 C220.987484,375.134634 208.464092,381.027995 199.034573,387.510789 L199.034573,653.598701 C206.696057,655.366735 216.567437,656.98741 228.649008,658.460772 C240.73058,659.934134 255.316648,660.670805 272.407651,660.670805 C311.893763,660.670805 342.833908,647.263408 365.229016,620.448213 C387.624124,593.633018 398.82151,556.652178 398.82151,509.504582 L398.82151,509.504582 Z M508.439121,511.272608 C508.439121,548.40134 502.987762,581.846164 492.084881,611.608083 C481.181999,641.370003 465.564592,666.858789 445.232192,688.075207 C424.899791,709.291625 400.295009,725.498368 371.417107,736.695922 C342.539205,747.893476 309.831051,753.492169 273.291664,753.492169 C237.930968,753.492169 204.191476,750.840156 172.072177,745.536052 C139.952877,740.231947 113.285419,734.338586 92.0690006,727.855792 L92.0690006,73.6861762 L199.034573,56.0059163 L199.034573,295.573438 C211.410817,289.090643 226.586221,283.197282 244.561242,277.893178 C262.536263,272.589073 282.426356,269.937061 304.232119,269.937061 C336.646091,269.937061 365.670894,275.683088 391.307399,287.175314 C416.943904,298.667541 438.307338,315.021618 455.398341,336.238036 C472.489345,357.454454 485.602073,382.94324 494.73692,412.70516 C503.871766,442.467079 508.439121,475.322567 508.439121,511.272608 L508.439121,511.272608 Z" id="b" fill="#CCE3F2"></path>
                <path d="M846.82151,731.504582 C846.82151,686.125022 837.834134,650.17552 819.859113,623.654997 C801.884093,597.134475 773.448626,583.874412 734.551859,583.874412 C716.871511,583.874412 700.222766,586.526425 684.605125,591.830529 C668.987484,597.134634 656.464092,603.027995 647.034573,609.510789 L647.034573,875.598701 C654.696057,877.366735 664.567437,878.98741 676.649008,880.460772 C688.73058,881.934134 703.316648,882.670805 720.407651,882.670805 C759.893763,882.670805 790.833908,869.263408 813.229016,842.448213 C835.624124,815.633018 846.82151,778.652178 846.82151,731.504582 L846.82151,731.504582 Z M956.439121,733.272608 C956.439121,770.40134 950.987762,803.846164 940.084881,833.608083 C929.181999,863.370003 913.564592,888.858789 893.232192,910.075207 C872.899791,931.291625 848.295009,947.498368 819.417107,958.695922 C790.539205,969.893476 757.831051,975.492169 721.291664,975.492169 C685.930968,975.492169 652.191476,972.840156 620.072177,967.536052 C587.952877,962.231947 561.285419,956.338586 540.069001,949.855792 L540.069001,295.686176 L647.034573,278.005916 L647.034573,517.573438 C659.410817,511.090643 674.586221,505.197282 692.561242,499.893178 C710.536263,494.589073 730.426356,491.937061 752.232119,491.937061 C784.646091,491.937061 813.670894,497.683088 839.307399,509.175314 C864.943904,520.667541 886.307338,537.021618 903.398341,558.238036 C920.489345,579.454454 933.602073,604.94324 942.73692,634.70516 C951.871766,664.467079 956.439121,697.322567 956.439121,733.272608 L956.439121,733.272608 Z" id="p" fill="#6D91A9" transform="translate(769.470373, 626.749043) scale(1, -1) translate(-769.470373, -626.749043) "></path>
            </g>
        </g>
    </g>
</svg>