---
title: Bash
---
<svg xmlns="http://www.w3.org/2000/svg" viewBox="0 0 513 513">
  <g fill="none" fill-rule="evenodd">
    <rect width="512" height="512" x=".3" y=".3"/>
    <g fill-rule="nonzero" transform="translate(32)">
      <path fill="#FFF" d="M417.1,104.9 L255.5,8.9 C236.2,-2.6 212.4,-2.6 193.1,8.9 L31.5,104.9 C12.2,116.3 0.3,137.5 0.3,160.4 L0.3,352.3 C0.3,375.2 12.2,396.4 31.5,407.8 L193.1,503.7 C202.7,509.4 213.5,512.3 224.3,512.3 C235.1,512.3 245.8,509.4 255.5,503.7 L417.1,407.8 C436.4,396.3 448.3,375.2 448.3,352.3 L448.3,160.4 C448.3,137.5 436.4,116.3 417.1,104.9 Z"/>
      <path fill="#283037" d="M417.1,104.9 L255.5,8.9 C245.9,3.2 235.1,0.3 224.3,0.3 C213.5,0.3 202.8,3.2 193.1,8.9 L31.5,104.9 C12.2,116.3 0.3,137.5 0.3,160.4 L0.3,352.3 C0.3,375.2 12.2,396.4 31.5,407.8 L193.1,503.7 C202.7,509.4 213.5,512.3 224.3,512.3 C235.1,512.3 245.8,509.4 255.5,503.7 L417.1,407.8 C436.4,396.3 448.3,375.2 448.3,352.3 L448.3,160.4 C448.3,137.5 436.4,116.3 417.1,104.9 Z M198.8,493.9 L37.2,398 C21.4,388.6 11.6,371.1 11.6,352.3 L11.6,160.4 C11.6,141.6 21.4,124.1 37.2,114.7 L198.8,18.8 C206.6,14.2 215.4,11.8 224.3,11.8 C233.2,11.8 242.1,14.2 249.8,18.8 L411.4,114.7 C424.7,122.6 433.7,136.3 436.2,151.7 C430.8,140.3 418.8,137.1 404.7,145.4 L251.8,239.9 C232.7,251 218.7,263.6 218.7,286.5 L218.7,474.9 C218.7,488.7 224.2,497.6 232.8,500.2 C230,500.7 227.2,501 224.3,501 C215.4,500.9 206.5,498.5 198.8,493.9 Z"/>
      <path fill="#4DA825" d="M374.8,370.8 L334.5,394.9 C333.4,395.5 332.6,396.2 332.6,397.5 L332.6,408 C332.6,409.3 333.5,409.8 334.5,409.2 L375.4,384.4 C376.5,383.8 376.6,382.6 376.6,381.3 L376.6,372 C376.7,370.7 375.8,370.2 374.8,370.8 Z"/>
      <path fill="#FFF" d="M289.1,282.2 C290.4,281.5 291.5,282.4 291.5,284.1 L291.6,298 C297.4,295.7 302.5,295.1 307.1,296.1 C308.1,296.4 308.5,297.7 308.1,299.3 L305,311.6 C304.8,312.5 304.2,313.5 303.6,314.1 C303.3,314.4 303.1,314.6 302.8,314.7 C302.4,314.9 302,315 301.6,314.9 C299.5,314.4 294.5,313.3 286.7,317.3 C278.5,321.5 275.6,328.6 275.7,333.9 C275.8,340.2 279,342.2 290.2,342.3 C305.1,342.5 311.6,349.1 311.7,364.1 C311.9,378.9 304,394.7 291.9,404.5 L292.2,418.3 C292.2,420 291.1,421.9 289.8,422.5 L281.6,427.2 C280.3,427.9 279.2,427.1 279.2,425.4 L279.1,411.8 C272.1,414.7 265,415.4 260.5,413.6 C259.6,413.3 259.3,412 259.6,410.6 L262.6,398.1 C262.8,397.1 263.4,396.1 264.1,395.5 C264.4,395.3 264.6,395.1 264.9,394.9 C265.4,394.7 265.8,394.6 266.2,394.8 C271.1,396.4 277.3,395.7 283.3,392.6 C290.9,388.7 296,381 295.9,373.2 C295.8,366.2 292,363.3 282.8,363.2 C271.1,363.2 260.1,360.9 259.9,343.6 C259.8,329.4 267.2,314.6 278.9,305.2 L278.8,291.3 C278.8,289.6 279.8,287.7 281.2,287 L289.1,282.2 Z"/>
    </g>
  </g>
</svg>
