<svg xmlns="http://www.w3.org/2000/svg" viewBox="0 0 32 32">
  <title>Firefish</title>
  <path d="M16.571 13.715H1.714C.767 13.715 0 14.483 0 15.43v14.856C0 31.232.767 32 1.714 32h14.857c.947 0 1.715-.768 1.715-1.714V15.43c0-.947-.768-1.715-1.715-1.715Zm-12 13.714a2.286 2.286 0 1 1 0-4.572 2.286 2.286 0 0 1 0 4.572Zm5.715 0a2.286 2.286 0 1 1 0-4.572 2.286 2.286 0 0 1 0 4.572Z"/>
  <path d="M16.571 13.716H1.714C.767 13.716 0 14.483 0 15.43v14.856C0 31.233.767 32 1.714 32h14.857c.947 0 1.715-.767 1.715-1.714V15.43c0-.947-.768-1.714-1.715-1.714Zm-12 13.713a2.286 2.286 0 1 1 0-4.571 2.286 2.286 0 0 1 0 4.57Zm5.715 0a2.286 2.286 0 1 1 0-4.571 2.286 2.286 0 0 1 0 4.57Z"/>
  <path d="M16.565 11.424H8.71a1.713 1.713 0 0 1-1.713-1.713V1.856c0-1.527 1.845-2.29 2.925-1.212L17.777 8.5c1.079 1.079.314 2.924-1.212 2.924Z"/>
  <path d="M30.262 25.143h-7.956a1.735 1.735 0 0 1-1.735-1.735v-7.955c0-1.545 1.869-2.319 2.962-1.226l7.955 7.955c1.093 1.093.32 2.961-1.226 2.961Z"/>
  <path d="M30.262 11.428h-7.956a1.735 1.735 0 0 1-1.735-1.735V1.738c0-1.545 1.869-2.32 2.962-1.226l7.955 7.954c1.093 1.093.32 2.962-1.226 2.962Z"/>
</svg>

