---
title: GitLab
---
<svg viewBox="0 0 500 500">
  <g fill="none" fill-rule="evenodd">
    <path fill="#FC6D26" d="M495.2 280.225l-27.56-84.815-54.617-168.097c-2.81-8.648-15.046-8.648-17.856 0l-54.62 168.097H159.182L104.56 27.313c-2.808-8.648-15.044-8.648-17.855 0L32.088 195.41 4.53 280.225c-2.514 7.736.24 16.21 6.82 20.992l238.514 173.29 238.515-173.29c6.58-4.78 9.33-13.256 6.82-20.992"/>
    <path fill="#E24329" d="M249.865 474.506L340.55 195.41H159.18l90.685 279.096z"/>
    <path fill="#FC6D26" d="M249.865 474.506L159.18 195.41H32.09l217.775 279.096z"/>
    <path fill="#FCA326" d="M32.09 195.41L4.53 280.226c-2.513 7.736.24 16.21 6.82 20.99l238.515 173.29L32.09 195.41z"/>
    <path fill="#E24329" d="M32.09 195.41h127.09L104.563 27.315c-2.81-8.65-15.047-8.65-17.856 0L32.09 195.41z"/>
    <path fill="#FC6D26" d="M249.865 474.506L340.55 195.41h127.09L249.866 474.507z"/>
    <path fill="#FCA326" d="M467.64 195.41l27.56 84.815c2.512 7.736-.24 16.21-6.822 20.99l-238.514 173.29L467.64 195.41z"/>
    <path fill="#E24329" d="M467.64 195.41H340.548l54.62-168.096c2.81-8.65 15.046-8.65 17.855 0L467.64 195.41z"/>
  </g>
</svg>

