<svg xmlns="http://www.w3.org/2000/svg" viewBox="0 0 400 400">
  <title>GraphQL</title>
  <path transform="rotate(-150 130.337 159.778)" fill="#E535AB" d="M122-.4h16.6v320.3H122z"/>
  <path fill="#E535AB" d="M39.8 272.2h320.3v16.6H39.8z"/>
  <path transform="rotate(-150 130.408 320.545)" fill="#E535AB" d="M37.9 312.2h185v16.6h-185z"/>
  <path transform="rotate(-150 269.598 79.459)" fill="#E535AB" d="M177.1 71.1h185v16.6h-185z"/>
  <path transform="rotate(-120 130.403 79.462)" fill="#E535AB" d="M122.1-13h16.6v185h-16.6z"/>
  <path transform="rotate(-120 269.693 159.881)" fill="#E535AB" d="M109.6 151.6h320.3v16.6H109.6z"/>
  <path fill="#E535AB" d="M52.5 107.5h16.6v185H52.5zM330.9 107.5h16.6v185h-16.6z"/>
  <path transform="rotate(-120 269.593 320.547)" fill="#E535AB" d="M262.4 240.1h14.5V401h-14.5z"/>
  <path fill="#E535AB" d="M369.5 297.9c-9.6 16.7-31 22.4-47.7 12.8-16.7-9.6-22.4-31-12.8-47.7 9.6-16.7 31-22.4 47.7-12.8 16.8 9.7 22.5 31 12.8 47.7M90.9 137c-9.6 16.7-31 22.4-47.7 12.8-16.7-9.6-22.4-31-12.8-47.7 9.6-16.7 31-22.4 47.7-12.8 16.7 9.7 22.4 31 12.8 47.7M30.5 297.9c-9.6-16.7-3.9-38 12.8-47.7 16.7-9.6 38-3.9 47.7 12.8 9.6 16.7 3.9 38-12.8 47.7-16.8 9.6-38.1 3.9-47.7-12.8M309.1 137c-9.6-16.7-3.9-38 12.8-47.7 16.7-9.6 38-3.9 47.7 12.8 9.6 16.7 3.9 38-12.8 47.7-16.7 9.6-38.1 3.9-47.7-12.8M200 395.8c-19.3 0-34.9-15.6-34.9-34.9 0-19.3 15.6-34.9 34.9-34.9 19.3 0 34.9 15.6 34.9 34.9 0 19.2-15.6 34.9-34.9 34.9M200 74c-19.3 0-34.9-15.6-34.9-34.9 0-19.3 15.6-34.9 34.9-34.9 19.3 0 34.9 15.6 34.9 34.9 0 19.3-15.6 34.9-34.9 34.9"/>
</svg>

