<svg viewBox="0 0 175 387">
  <title>Gulp</title>
  <g fill="#DA4648" fill-rule="evenodd">
    <path d="M86.72 304.74c-22.574 0-40.017-3.392-48.405-5.413-5.736-1.382-10.342-2.812-13.84-4.28L35.66 314.16l4.378 59.717c0 6.695 21.268 12.122 47.503 12.122s47.51-5.43 47.51-12.13l3.47-60.37 10.59-18.52c-3.51 1.49-8.16 2.93-13.97 4.33-8.38 2.02-25.83 5.41-48.4 5.41zm62.736-194.33C132.888 112.726 110.9 114 87.54 114s-45.348-1.275-61.916-3.59c-8.207-1.145-14.7-2.497-19.3-4.015-1.096-.363-2.955-.982-4.744-1.968L11.845 198.9c.477-1.627 1.008-3.252 1.597-4.87 1.205-3.32 2.6-6.563 4.18-9.732 1.584-3.168 3.307-6.163 5.17-8.984 1.862-2.82 3.845-5.417 5.946-7.79 2.102-2.372 4.258-4.412 6.472-6.122 2.213-1.708 4.447-3.044 6.702-4.006 2.256-.962 4.49-1.444 6.703-1.444 2.55 0 5.015.697 7.397 2.09 2.38 1.394 4.607 3.65 6.68 6.77.477.697.78 1.402.904 2.115.127.714.19 1.386.19 2.016 0 1.493-.358 2.672-1.072 3.534-.714.863-1.562 1.294-2.542 1.294-.898 0-1.73-.47-2.5-1.41-.772-.94-1.633-2.3-2.586-4.05-.897-1.59-1.884-2.74-2.962-3.46-1.08-.71-2.248-1.07-3.51-1.07-1.96 0-4.054.82-6.28 2.44-2.23 1.63-4.435 3.78-6.62 6.45-2.185 2.68-4.28 5.73-6.282 9.16-2.003 3.44-3.776 6.95-5.317 10.55-1.54 3.61-2.765 7.16-3.676 10.66-.92 3.5-1.37 6.65-1.37 9.43 0 .93.06 1.89.19 2.87.12.98.36 1.87.71 2.67.35.8.82 1.46 1.43 1.97.6.52 1.36.77 2.29.77 1.03 0 2.21-.34 3.53-1.04 1.31-.69 2.68-1.61 4.09-2.73 1.41-1.13 2.83-2.41 4.26-3.83 1.43-1.42 2.76-2.87 3.99-4.33 1.23-1.46 2.32-2.86 3.27-4.2.95-1.35 1.67-2.52 2.14-3.51l3.91-11.7c.47-1.26 1.09-2.16 1.87-2.69.77-.53 1.56-.79 2.37-.79.39 0 .78.07 1.17.2.39.13.74.34 1.05.62.31.28.55.65.73 1.1.18.45.27.97.27 1.57 0 1.59-.14 3.087-.42 4.48-.28 1.397-.64 2.756-1.08 4.08-.44 1.328-.92 2.66-1.45 4.008-.54 1.34-1.05 2.746-1.56 4.207-.11.17-.32.69-.61 1.57-.3.88-.65 1.985-1.07 3.31-.42 1.326-.88 2.81-1.37 4.453-.49 1.64-.99 3.32-1.51 5.03-.52 1.71-1.02 3.38-1.49 5.03-.48 1.64-.91 3.12-1.28 4.45-.38 1.32-.7 2.44-.95 3.33-.25.896-.41 1.426-.46 1.594-.14.53-.37 1.12-.67 1.763-.31.64-.68 1.26-1.1 1.84-.42.58-.89 1.06-1.39 1.44-.51.38-1.03.57-1.56.57-.9 0-1.55-.3-1.96-.9-.41-.6-.61-1.695-.61-3.287v-.696c0-.234.01-.484.04-.75.02-.53.23-1.52.63-2.99.39-1.45.86-3.1 1.41-4.95.54-1.84 1.13-3.75 1.76-5.72.63-1.97 1.19-3.74 1.7-5.3-1.49 1.66-3.1 3.31-4.84 4.954-1.74 1.64-3.52 3.12-5.34 4.43-1.825 1.31-3.66 2.38-5.508 3.21-1.85.83-3.63 1.24-5.336 1.24-1.96 0-3.65-.43-5.068-1.298-.26-.16-.5-.337-.74-.51l5.71 59.885c1.49 3.73 29.48 12.88 66.39 12.88 36.93 0 64.94-9.163 66.4-12.89l8.21-71.2c-.68.62-1.34 1.23-1.98 1.82-2.36 2.19-4.58 4.07-6.666 5.65-2.086 1.577-4.125 2.8-6.114 3.66-1.99.86-4.12 1.29-6.386 1.29-2.13 0-3.78-.462-4.94-1.39-1.16-.93-1.745-2.21-1.745-3.834v-.374c0-.116.01-.26.04-.424.11-.997.55-2.14 1.302-3.437.76-1.3 1.67-2.64 2.73-4.03 1.07-1.4 2.2-2.81 3.41-4.236 1.2-1.43 2.32-2.78 3.34-4.06 1.02-1.274 1.87-2.444 2.54-3.507.67-1.06 1.01-1.923 1.01-2.59 0-.395-.14-.71-.42-.944-.28-.23-.74-.35-1.39-.35-1.12 0-2.27.29-3.46.87-1.196.58-2.37 1.36-3.536 2.34-1.16.98-2.29 2.1-3.4 3.36-1.105 1.26-2.14 2.57-3.11 3.93-.966 1.36-1.847 2.73-2.646 4.11-.8 1.38-1.48 2.65-2.04 3.81-.166.37-.404.88-.713 1.544-.31.666-.65 1.414-1.01 2.24-.37.83-.75 1.687-1.16 2.56-.405.88-.78 1.71-1.11 2.49l-.905 2.09c-.27.617-.46 1.04-.57 1.27-.14.3-.37.86-.69 1.69-.32.83-.69 1.806-1.11 2.917-.42 1.11-.867 2.28-1.33 3.51-.46 1.226-.894 2.39-1.3 3.48l-1.05 2.9c-.31.83-.503 1.39-.59 1.69-.28.86-.61 1.67-.983 2.44-.38.76-.81 1.43-1.3 2.017-.49.58-1.05 1.04-1.68 1.39-.63.35-1.34.52-2.12.52-1.01 0-1.84-.24-2.5-.72-.66-.49-.99-1.41-.99-2.77 0-.664.09-1.344.26-2.04.17-.697.38-1.387.63-2.066.253-.68.513-1.35.78-1.99.264-.65.51-1.27.733-1.87 1.514-3.32 3.06-6.645 4.62-9.98 1.57-3.335 3.08-6.64 4.52-9.905.3-.69.58-1.35.87-2.03-.09.08-.176.17-.26.26-1.82 1.76-3.637 3.31-5.44 4.65-1.81 1.343-3.6 2.413-5.38 3.21-1.78.795-3.51 1.194-5.19 1.194-1.15 0-2.11-.18-2.88-.55-.77-.366-1.39-.86-1.85-1.49-.467-.63-.797-1.38-.99-2.24-.07-.3-.11-.606-.15-.91-.496.38-.99.75-1.49 1.11-1.74 1.22-3.448 2.21-5.13 2.96-1.68.744-3.19 1.12-4.53 1.12-1.35 0-2.44-.45-3.28-1.35-.84-.9-1.26-2.42-1.26-4.58 0-1.53.22-3.3.67-5.32-.73 1.293-1.64 2.604-2.73 3.93-1.1 1.33-2.34 2.54-3.74 3.635-1.41 1.1-2.97 1.98-4.71 2.66-1.74.68-3.63 1.02-5.678 1.02-.928 0-1.817-.11-2.67-.35-.857-.23-1.606-.63-2.25-1.19-.645-.56-1.16-1.32-1.555-2.265-.39-.95-.59-2.135-.59-3.56 0-.03.05-.54.16-1.52s.47-2.523 1.07-4.63c.6-2.106 1.537-4.836 2.796-8.19 1.26-3.35 3.04-7.42 5.34-12.195.59-1.26 1.27-2.165 2.04-2.71.77-.55 1.605-.824 2.5-.824.394 0 .8.06 1.22.178.42.11.81.3 1.18.55.364.25.66.56.884.94.22.38.34.82.34 1.317 0 .33-.04.65-.125.942-.14.57-.44 1.306-.9 2.218-.47.918-1.01 1.96-1.62 3.14-.62 1.18-1.27 2.45-1.96 3.81-.69 1.36-1.327 2.77-1.915 4.23-.59 1.46-1.09 2.947-1.51 4.457-.42 1.51-.66 2.98-.72 4.41 0 .6.14 1.148.42 1.64.28.5.74.75 1.384.75 1.82 0 3.56-.6 5.21-1.79 1.658-1.19 3.18-2.68 4.58-4.45 1.407-1.772 2.67-3.68 3.81-5.722 1.136-2.04 2.08-3.91 2.837-5.6.534-1.13 1.003-2.34 1.41-3.632.407-1.294.85-2.49 1.325-3.583.47-1.094 1.02-2.006 1.64-2.736.61-.73 1.38-1.09 2.31-1.09 1.01 0 1.8.384 2.39 1.147.59.76.88 1.678.88 2.74 0 .595-.19 1.42-.57 2.463-.38 1.04-.86 2.24-1.43 3.58-.58 1.34-1.2 2.78-1.87 4.3-.67 1.53-1.3 3.08-1.87 4.66-.58 1.57-1.05 3.12-1.43 4.63-.38 1.505-.57 2.91-.57 4.2 0 1.196.62 1.794 1.85 1.794.87 0 1.94-.3 3.23-.9 1.29-.6 2.64-1.44 4.058-2.52.35-.27.71-.55 1.06-.847.392-1.63.855-3.134 1.394-4.503.98-2.59 1.975-5.16 2.984-7.72 1.01-2.55 1.93-4.89 2.775-7.02l12.75-32.09c.508-1.293 1.188-2.21 2.04-2.74.86-.53 1.72-.793 2.59-.793.87 0 1.66.287 2.37.85.72.567 1.078 1.48 1.078 2.74 0 .597-.12 1.228-.356 1.89-.24.665-.54 1.378-.9 2.14-.7 1.56-1.537 3.47-2.5 5.725-.97 2.256-2.01 4.71-3.11 7.366-1.11 2.66-2.24 5.42-3.41 8.29-1.17 2.87-2.3 5.67-3.41 8.39-1.104 2.72-2.14 5.3-3.11 7.74-.965 2.44-1.8 4.55-2.5 6.343-.31.77-.61 1.66-.9 2.67-.296 1.01-.44 1.916-.44 2.71 0 .495.08.89.25 1.19.17.3.49.45.966.45.587 0 1.32-.205 2.205-.62.88-.416 1.83-.965 2.85-1.645s2.09-1.46 3.2-2.34c1.104-.88 2.203-1.79 3.3-2.738 1.09-.95 2.13-1.89 3.13-2.84.99-.95 1.88-1.82 2.67-2.62.18-.19.4-.324.64-.425.47-1.41.9-2.8 1.28-4.15.22-.6.53-1.443.924-2.54.39-1.1.84-2.173 1.34-3.24.506-1.06 1.07-1.98 1.7-2.76.63-.78 1.31-1.17 2.04-1.17 1.12 0 1.936.26 2.44.77.5.517.755 1.27.755 2.267 0 .2-.03.52-.08.95-.06.43-.13.89-.21 1.37-.084.48-.18.938-.274 1.37-.1.43-.19.746-.27.945 1.04-1.13 2.16-2.25 3.36-3.36 1.21-1.11 2.45-2.115 3.74-3.01 1.29-.9 2.61-1.624 3.96-2.19 1.34-.563 2.69-.85 4.03-.85.924 0 1.84.13 2.75.4.91.26 1.72.65 2.43 1.17.72.517 1.3 1.16 1.75 1.94.44.78.67 1.685.67 2.71 0 1.366-.34 2.817-1.03 4.36-.69 1.54-1.55 3.095-2.58 4.65-1.04 1.56-2.16 3.08-3.36 4.56-1.21 1.474-2.34 2.82-3.39 4.03-1.05 1.21-1.935 2.24-2.65 3.084-.71.85-1.086 1.42-1.11 1.72 0 .4.124.72.38.97.25.25.67.38 1.26.38.47 0 1.174-.27 2.1-.8.92-.53 2.22-1.45 3.884-2.76 1.664-1.31 3.78-3.07 6.344-5.28 1.76-1.51 3.81-3.315 6.13-5.366l11.15-102.96c-1.79.99-3.655 1.61-4.75 1.97-4.6 1.52-11.09 2.87-19.3 4.02zM87.474 85.99c-48.05 0-87 5.372-87 12s38.95 12 87 12 87-5.372 87-12-38.95-12-87-12zm34.738 15.507c0 1.555-4.63 2.816-10.34 2.816s-10.34-1.26-10.34-2.816c0-1.556 4.63-2.817 10.34-2.817s10.34 1.26 10.34 2.817z"/>
    <path d="M103.627 100.252c-.052.082-.078.165-.078.25 0 1.007 3.72 1.822 8.32 1.822 4.59 0 8.32-.815 8.32-1.822l10.87-44.078L174.3 10.78l.04-.044c.915-1.035-.942-4.238-4.023-6.985-3.08-2.74-6.408-3.67-7.442-2.63l-.023.03-46.127 48.54-13.098 50.57z"/>
  </g>
</svg>
