<svg xmlns="http://www.w3.org/2000/svg" viewBox="0 0 168.166 192.07">
  <title>Municipal Coat of Arms of Jerusalem</title>
  <path fill="#0086be" d="M61.607 179.88c-27.13-15.15-40.065-22.51-43.265-24.618-7.078-4.663-12.117-11.764-14.685-20.692l-.95-3.295-.126-62.336-.125-62.335-1.227-.908C.112 4.872 0 4.572 0 2.395V0h168.166v2.292c0 2.043-.137 2.406-1.236 3.336l-1.239 1.037v60.5c0 66.375.086 63.97-2.472 70.977-2.57 7.042-7.19 12.93-13.36 17.018-5.698 3.778-64.775 36.91-65.81 36.91-.337 0-10.434-5.487-22.442-12.19z"/>
  <path fill="#f1d360" d="M99.478 179.228c47.486-26.475 48.315-26.968 52.841-31.467 3.154-3.134 4.03-4.317 5.658-7.623 1.058-2.155 2.34-5.494 2.853-7.421l.928-3.503.123-62.753.12-62.754h-32.578v7.833h2.06c1.546 0 2.06.152 2.06.611 0 .52-1.624.627-11.231.721l-11.233.11-.116 4.843-.115 4.842h11.117c6.115 0 11.209.149 11.322.33.751 1.22-.546 1.33-14.397 1.222-12.937-.1-13.99-.164-14.12-.83-.122-.623.2-.722 2.363-.722h2.505v-9.894h-5.36c-4.486 0-5.357-.1-5.357-.616 0-.433.435-.617 1.44-.617h1.446V3.707H70.893v7.833h1.854c1.364 0 1.856.16 1.856.611 0 .519-1.512.625-10.203.72l-10.2.11-.114 4.83-.117 4.83 5.267.117c4.357.095 5.268.222 5.268.733 0 .42-.504.658-1.546.748l-1.544.127v5.95c0 5.016-.098 5.952-.62 5.952-.519 0-.619-.937-.619-5.962v-5.96l-4.631-.12c-4.028-.1-4.65-.21-4.77-.837-.102-.54.134-.722.936-.722h1.075l-.118-4.842-.115-4.844-9.172-.111c-7.641-.09-9.17-.209-9.17-.7 0-.447.697-.624 2.782-.715l2.784-.123.115-3.813.12-3.812H6.163l.127 63.164c.12 62.723.13 63.188.986 66.05 2.565 8.578 6.875 14.796 13.149 18.96 4.988 3.311 62.657 35.638 63.594 35.647.305.005 7.26-3.73 15.456-8.3h.002z"/>
  <path fill="#0086be" d="M74.302 179.204c-.842-.407-.483-.69 4.16-3.307l5.084-2.862.487-2.109c.269-1.16.602-3.467.741-5.125.234-2.758.175-3.103-.676-4.01-1.117-1.191-1.626-4.427-.841-5.37.283-.343 1.037-.623 1.676-.623 2.107 0 3.103 2.649 1.88 4.992-.405.775-.51 2.212-.38 5.15.101 2.245.255 4.307.345 4.587.106.34 1.268-.135 3.424-1.396l3.266-1.907 1.916-5.77c1.84-5.54 2.2-7.449.94-4.971-.327.643-1.208 3.045-1.953 5.338-.847 2.604-1.657 4.359-2.155 4.667-.437.272-.874.415-.975.316-.32-.319 3.121-10.272 4.173-12.067.997-1.704 2.308-2.703 9.321-7.116 2.654-1.672 4.078-2.129 4.078-1.312 0 .221-1.926 1.697-4.282 3.276l-4.281 2.872-2.122 6.462c-1.169 3.555-2.073 6.516-2.006 6.58.065.063 1.82-.903 3.902-2.145 3.732-2.235 3.795-2.303 4.868-4.974.936-2.344 1.016-2.868.587-3.903-.61-1.474.016-3.93 1.298-5.09.78-.707.953-.72 1.96-.157.683.382 1.157 1.038 1.234 1.711.155 1.315-.87 3.439-1.934 4.008-.606.325-2.11 3.688-2.11 4.725 0 .12 1.525-.698 3.386-1.816l3.382-2.035 1.955-5.886c1.075-3.235 1.963-5.956 1.974-6.039.013-.084-.248.068-.572.341-.33.27-1.273 2.567-2.104 5.099-1.306 3.996-2.747 6.515-3.363 5.894-.31-.306 1.988-7.38 3.363-10.356.734-1.585 1.686-3.19 2.119-3.566 1.423-1.236 10.593-6.944 11.155-6.944 1.404 0 .2 1.248-3.568 3.71l-4.107 2.678-2.084 6.343c-1.146 3.489-2.033 6.491-1.967 6.67.065.181 1.44-.5 3.06-1.514 2.644-1.655 3.048-2.094 4.003-4.295.903-2.08 1.028-2.84.827-5.034-.205-2.243-.118-2.73.663-3.716 1.043-1.313 2.077-1.443 3.042-.379 1.161 1.283.868 3.3-.69 4.772-.753.712-1.676 2.187-2.047 3.282-.84 2.462-.987 2.502 5.337-1.444l4.677-2.923-.005-5c-.004-3.384-.138-4.805-.407-4.386-.221.339-.403 1.285-.406 2.103-.015 3.634-.548 6.59-1.25 6.968-.655.352-.698.082-.527-3.417.3-6.174.73-7.893 2.665-10.652 1.1-1.571 1.821-3.108 1.967-4.201.302-2.264 1.409-2.397 1.595-.189.088 1.072-.192 2.073-.928 3.333-1.006 1.716-1.055 2.086-1.055 8.069v6.27l1.776-1.223c2.452-1.687 2.752-2.136 3.04-4.583.235-1.987.172-2.209-.88-3.046-1.318-1.053-1.956-4.317-1.054-5.406.64-.771 2.628-.812 3.249-.068.841 1.016.997 3.034.336 4.36-.48.964-.536 1.609-.233 2.71.22.794.475 1.444.57 1.444.332 0 2.359-3.75 3.147-5.823.861-2.272.77-2.869-.304-1.976-.81.674-1.04.419-5.945-6.596l-3.29-4.708v-6.935c0-4.18.157-6.934.398-6.934.851 0 1.345 1.8 1.09 3.975-.14 1.206-.133 3.808.018 5.78l.276 3.59 3.517 5.279c3.203 4.813 4.18 5.96 4.18 4.903 0-.207-1.493-2.638-3.319-5.403-2.636-3.983-3.294-5.285-3.196-6.285.116-1.158.448-.78 3.936 4.473l3.814 5.739-.014-4.121-.011-4.123-1.737-2.448c-1.253-1.758-2.105-2.542-3.044-2.785-1.715-.445-3.516-2.586-3.353-3.986.148-1.27 1.708-2.184 2.965-1.736 1.01.358 2.301 2.663 2.327 4.155.013.568.656 1.752 1.443 2.644l1.427 1.615v-11.378l-.856 1.087c-.468.596-1.008 1.085-1.197 1.085-.186 0-2.167-2.55-4.4-5.668l-4.059-5.668-.128-7.11c-.125-6.758.083-8.095 1.02-6.593.177.28.353 3.171.39 6.416l.07 5.898 3.551 5.331c3.094 4.647 4.371 6.12 4.371 5.039 0-.16-1.499-2.555-3.326-5.318-2.52-3.803-3.299-5.301-3.196-6.161.118-.996.59-.456 3.843 4.391l3.71 5.527.12-3.683.12-3.682-1.741-2.566c-1.287-1.9-2.052-2.63-2.94-2.808-1.502-.299-3.596-2.49-3.596-3.761 0-1.313 1.12-2.326 2.41-2.173 1.245.146 2.95 2.409 2.95 3.92 0 .548.645 1.845 1.441 2.885l1.443 1.888v-8.902l-.848.768c-.63.57-1.022.66-1.513.35-.363-.23-2.394-2.886-4.51-5.903l-3.846-5.486v-6.96c0-6.46.23-7.842 1.075-6.473.167.268.343 3.207.394 6.534l.094 6.046 3.61 5.42c3.277 4.919 4.306 6.126 4.306 5.043 0-.207-1.483-2.624-3.295-5.367-2.416-3.655-3.3-5.35-3.296-6.32 0-1.188.392-.739 3.605 4.12 1.983 3 3.743 5.456 3.915 5.46.168.008.309-1.597.309-3.566 0-3.495-.042-3.64-1.699-6.185-.93-1.432-1.962-2.604-2.288-2.604-2.106 0-4.558-2.87-4.079-4.78.293-1.16 1.846-1.672 3.076-1.011.993.53 2.106 2.486 2.106 3.704 0 .862 2.02 4.103 2.575 4.132.168.01.309-2.05.309-4.581v-4.597l-.848.767c-.63.568-1.022.661-1.513.351-.363-.23-2.394-2.888-4.51-5.904l-3.846-5.486v-6.946c0-6.007.084-6.915.617-6.71.74.282.684-.204.82 7.057l.11 5.878 3.593 5.353c3.24 4.83 4.34 6.091 4.34 4.977 0-.206-1.484-2.622-3.296-5.368-2.416-3.652-3.3-5.346-3.297-6.318 0-1.189.393-.739 3.606 4.12 1.983 3 3.743 5.457 3.915 5.462.168.004.308-1.405.308-3.133 0-3.07-.044-3.203-1.876-5.77-1.39-1.95-2.124-2.63-2.84-2.63-1.23 0-3.528-2.551-3.528-3.914 0-1.052 1.032-1.854 2.374-1.854 1.184 0 2.614 1.787 2.852 3.564.128.954.744 2.217 1.54 3.165l1.327 1.58-.185-4.826-.185-4.825-3.885-5.72c-2.138-3.143-4.066-5.717-4.285-5.717-.58 0 .4 1.695 3.918 6.786 2.177 3.149 3.124 4.89 3.124 5.745 0 1.051-.586.4-4.142-4.625-2.277-3.218-4.41-6.614-4.738-7.548-.735-2.08-.868-14.569-.16-15.008.243-.147.504-.207.582-.128.078.083.278 2.538.444 5.464l.3 5.318 4.373 6.18c4.286 6.06 4.374 6.15 4.499 4.716.067-.807-.165-3.406-.518-5.781-.821-5.536-.826-14.087-.01-17.552.93-3.946 1.184-4.214 2.152-2.292.448.89 1.06 2.64 1.362 3.887.767 3.194.673 11.336-.193 16.5-1.285 7.686-1.109 7.709 3.967.498l4.417-6.275.284-5.376c.19-3.611.432-5.324.736-5.223.62.206.847 12.78.266 14.77-.24.824-2.383 4.247-4.762 7.603-3.666 5.17-4.324 5.916-4.321 4.89.007-.833.982-2.622 3.112-5.698 3.416-4.939 4.518-6.85 3.951-6.85-.205 0-2.156 2.602-4.339 5.781l-3.965 5.782.014 4.626.014 4.625 1.286-1.575c.708-.867 1.329-2.141 1.385-2.832.134-1.71 1.474-3.396 2.829-3.555 1.39-.167 2.302.55 2.302 1.815 0 1.332-2.313 3.88-3.522 3.88-.703 0-1.422.636-2.637 2.334-1.532 2.139-1.67 2.55-1.67 4.945 0 1.438.138 2.608.309 2.6.168-.008 1.606-1.9 3.192-4.207 1.59-2.31 3.48-4.977 4.2-5.934 1.262-1.671 1.323-1.931 1.577-6.817.302-5.784.455-6.616 1.04-5.686.212.333.384 3.574.382 7.202-.002 7.91.036 7.797-5.437 15.582-3.133 4.46-3.847 5.26-3.96 4.457-.099-.694.962-2.61 3.622-6.543 2.07-3.06 3.642-5.679 3.492-5.822-.307-.29-.526-.006-5.097 6.545l-3.305 4.739-.008 4.432c-.003 2.436.098 4.43.226 4.43.567 0 2.427-2.699 2.316-3.365-.2-1.173 1.102-3.482 2.262-4.01 1.384-.632 3.018.337 3.018 1.79 0 1.363-1.858 3.45-3.433 3.857-.922.236-1.76.986-2.853 2.547-1.442 2.063-1.544 2.405-1.544 5.228 0 1.66.14 3.014.31 3.007.168-.007 1.329-1.521 2.575-3.365 1.247-1.844 3.14-4.527 4.21-5.961l1.943-2.61.284-5.375c.19-3.61.432-5.322.736-5.221.298.1.492 2.504.566 7.075.133 8.208.325 7.66-5.374 15.677-3.328 4.686-3.822 5.22-3.935 4.252-.098-.837.734-2.341 3.4-6.165 3.077-4.412 4.012-6.124 3.35-6.124-.093 0-1.93 2.569-4.08 5.71l-3.901 5.71.222 4.352.22 4.35.975-1.155c.536-.636.974-1.553.974-2.038 0-1.631 1.158-3.733 2.3-4.167 1.442-.546 3.056.427 3.056 1.848 0 1.36-1.857 3.448-3.421 3.855-.859.221-1.757.98-2.664 2.24-1.32 1.835-1.364 2.028-1.247 5.29l.12 3.386 4.193-5.978 4.192-5.976.342-5.313c.49-7.613 1.14-6.792 1.279 1.611.134 8.35.16 8.274-5.366 16.055-3.26 4.588-3.832 5.219-3.944 4.31-.092-.774.819-2.453 3.402-6.243 3.264-4.8 4.143-6.431 3.117-5.798-.22.14-1.985 2.588-3.913 5.438l-3.507 5.187.001 5.2.003 5.197.987-1.234c.542-.677 1.083-1.947 1.2-2.823.504-3.761 5.226-5.12 5.226-1.503 0 1.38-2.229 3.708-3.547 3.708-.725 0-1.354.569-2.441 2.205-1.434 2.158-1.46 2.276-1.344 5.835l.12 3.63 4.19-5.95 4.19-5.95.346-5.347c.195-3.06.518-5.345.756-5.345.657 0 .749 13.297.1 15.168-.291.847-2.383 4.164-4.643 7.374-3.518 4.99-4.131 5.68-4.244 4.76-.091-.794.8-2.434 3.403-6.258 1.94-2.85 3.526-5.406 3.526-5.676 0-.754-.47-.165-4.514 5.658-2.042 2.942-3.718 5.752-3.723 6.241-.001.49-.368 2.059-.813 3.486-.445 1.426-.748 2.655-.675 2.727.338.336 2.306-.76 2.306-1.286 0-.958 2.421-2.728 3.735-2.728 1.57 0 2.724 1.602 2.053 2.856-.68 1.273-2.78 2.2-4.502 1.982-2.18-.27-4.141.895-7.848 4.663-1.774 1.801-3.081 3.278-2.905 3.278.177 0 2.915-.834 6.082-1.856 3.168-1.02 5.885-1.851 6.04-1.851.152 0-.003.397-.344.885-.447.64-2.676 1.56-7.907 3.269-4.005 1.306-7.493 2.6-7.746 2.874-.716.77 1.384.266 8.924-2.135 5.058-1.608 6.915-2.39 7.71-3.239 1.747-1.872 3.278-5.411 3.92-9.071.702-3.988 1.857-5.883 1.857-3.043 0 2.04-1.314 7.317-2.482 9.956-.952 2.154-2.53 3.994-4.141 4.838-1.327.693-15.07 4.732-16.108 4.732-.54 0-.763-.303-.763-1.032 0-.566-.14-1.027-.308-1.026-.17.003-2.03 1.095-4.132 2.425l-3.822 2.421 1.762.265c1.338.197 2.154.062 3.393-.572 1.896-.968 2.282-1.003 3.716-.352 1.245.57 1.713 1.974 1.06 3.19-.72 1.348-4.069 1.218-5.783-.224-1.21-1.018-1.473-1.07-4.123-.825-2.232.208-3.367.58-5.343 1.761-1.38.82-2.597 1.632-2.703 1.8-.24.39 1.795.702 6.964 1.067 3.942.282 4.04.311 2.902.908-1.002.524-2.02.55-6.945.172-3.29-.25-6.047-.29-6.406-.085-.974.547-.147.709 6.393 1.26l5.788.487 2.044-1.039c1.12-.568 3.955-2.168 6.3-3.551 4.23-2.503 5.837-3.037 5.837-1.947 0 .926-12.805 8.085-14.467 8.09-2.32.006-12.894-1.257-13.574-1.624-.431-.23-1.458.143-3.186 1.157-1.404.82-2.558 1.632-2.561 1.802-.014.558 3.114.322 3.932-.295 1.955-1.478 5.54-.386 5.54 1.688 0 1.311-.848 1.801-3.111 1.801-1.598 0-2.303-.202-2.864-.825-.607-.67-1.271-.823-3.534-.823-2.521 0-3.069.166-5.81 1.746l-3.024 1.742 1.65.275c.906.15 3.492.409 5.747.571 4.005.294 4.07.315 2.89.934-1.045.545-1.967.567-6.933.163-3.241-.263-6.003-.313-6.36-.113-.941.528.066.725 6.545 1.284l5.6.484 2.513-1.268c1.382-.698 4.215-2.302 6.301-3.563 3.488-2.116 5.541-2.725 5.541-1.64 0 .224-2.96 2.124-6.578 4.223-5.395 3.13-6.879 3.815-8.245 3.804-1.743-.015-12.903-1.382-13.616-1.668-.412-.166-7.412 3.69-7.148 3.936.079.07 1.311.426 2.747.792 1.975.5 2.81.55 3.457.205.963-.516 3.402-.24 4.279.487.708.591.764 2.51.086 3.185-1.206 1.206-5.386.041-5.924-1.654-.128-.405-.36-.736-.514-.736-.154 0-1.63-.282-3.279-.624l-2.996-.627-4.298 2.479c-4.506 2.603-4.806 2.697-6.29 1.98v.002z"/>
  <g fill="#f1d360">
    <path d="M96.01 176.304c-1.055-.855-2.241-.803-2.241.097 0 .908 1.882 1.73 2.603 1.135.478-.397.418-.6-.361-1.232zM115.74 162.71c.17-.882-1.814-1.478-2.527-.753-.371.38-.294.632.33 1.096 1.013.744 2.017.59 2.196-.343zM85.903 159.656c.307-.798-.854-2.757-1.426-2.403-.554.343-.49 1.994.1 2.587.672.668 1.017.62 1.326-.184zM108.42 152.259c.403-1.095-.148-2.016-1.008-1.687-.93.359-.919 2.863.015 2.68.37-.073.818-.521.994-.993zM135.528 150.955c-.173-.913-2.81-1.293-2.81-.404 0 .855.419 1.126 1.749 1.126.917 0 1.168-.17 1.061-.722zM126.142 141.752c.252-.473.356-1.122.233-1.441-.361-.942-1.45-.677-1.725.419-.449 1.801.664 2.566 1.492 1.022zM153.104 131.826c1.854-.845 1.02-2.258-.91-1.542-.897.334-1.217 1.183-.651 1.745.352.354.328.358 1.56-.203zM141.214 128.812c-.79-1.203-1.49-1.043-1.49.34 0 1.376.844 2.076 1.593 1.325.519-.52.507-.732-.103-1.665zM142.743 108.15c-.294-.767-1.677-1.513-2.201-1.187-.62.383-.487.943.448 1.874.658.658.98.746 1.42.382.31-.257.461-.738.333-1.068zM154.635 107.717c.964-.872.97-1.792.012-1.792-.95 0-1.73.782-1.73 1.732 0 .925.731.952 1.718.06zM142.775 85.795c.306-.494-.926-2.126-1.605-2.126-.958 0-1.153.833-.39 1.675.76.839 1.634 1.035 1.995.451zM155.023 84.402c.608-1.132-.088-1.784-1.239-1.168-.821.438-1.165 1.653-.624 2.194.403.401 1.394-.146 1.863-1.026zM142.775 64.364c.356-.577-.982-2.13-1.837-2.13-.98 0-1.029.714-.12 1.722.726.797 1.602.98 1.957.408zM155.186 62.427c0-1.1-.864-1.186-1.859-.19-.708.708-.781.994-.379 1.478.43.52.62.522 1.367.026.476-.316.87-.909.87-1.314zM142.834 43.25c.37-.598-1-2.037-1.935-2.037-.946 0-.98.729-.08 1.722.763.84 1.607.975 2.015.314zM154.758 42.88c.42-.462.62-1.099.47-1.488-.234-.61-.358-.619-1.182-.073-1.07.706-1.493 2.372-.606 2.372.324 0 .914-.367 1.318-.811zM148.336 19.783c.018-2.154-.093-4.657-.25-5.565l-.285-1.649-.28 1.239c-.64 2.837-.178 13.242.486 10.92.161-.566.31-2.792.329-4.945z"/>
  </g>
  <path fill="#0086be" d="M73.82 169.788c-1.908-1.146-3.579-1.913-3.712-1.7-.277.433-10.38 1.725-13.485 1.725-1.8 0-2.741-.413-8.393-3.668-3.503-2.016-6.434-3.872-6.517-4.122-.464-1.392 1.616-.663 6.86 2.41 3.148 1.841 6.388 3.462 7.205 3.593 1.494.243 12.13-.583 12.8-.99 1.072-.66-1.442-.778-6.747-.322-4.362.37-6.166.388-6.698.057-.4-.249-.727-.573-.727-.714 0-.142 2.073-.395 4.605-.558 6.633-.43 6.776-.536 3.457-2.617-2.554-1.603-2.957-1.726-5.655-1.726-2.497 0-3.078.146-4.13 1.032-1.346 1.131-4.3 1.437-5.201.536-.82-.82-.587-2.692.421-3.399 1.201-.84 2.284-.808 4.038.118 1.08.572 1.93.7 3.426.517l1.99-.244-3.205-1.95c-2.746-1.669-3.295-1.869-3.845-1.395-.702.61-12.486 2.101-14.389 1.821-1.521-.223-17.37-9.46-17.37-10.122 0-1.158 2.031-.317 8.373 3.464 9.229 5.507 8.42 5.256 15.094 4.692 6.162-.521 7.035-.684 7.035-1.336 0-.294-.866-.358-2.577-.19-7.69.754-10.049.793-11.2.19-1.089-.57-.821-.633 4.745-1.098 3.244-.273 5.974-.57 6.069-.662.091-.095-.917-.863-2.24-1.71-2.253-1.44-2.623-1.541-5.713-1.57-2.867-.024-3.479.102-4.617.955-.88.66-1.86.983-2.98.983-2.705 0-3.645-1.365-2.28-3.317.78-1.115 2.915-1.228 4.796-.256.96.494 1.833.588 3.544.377l2.27-.286-2.845-1.806c-1.562-.993-2.96-1.815-3.105-1.821-.14-.004-.356.363-.474.815-.12.454-.56.826-.982.826-1.72 0-16.038-4.62-17.3-5.584-2.376-1.81-5.266-9.705-5.012-13.679.115-1.795.169-1.887.638-1.07.282.49.7 2.226.93 3.856.469 3.294 2.386 7.6 4.13 9.268.752.724 3.259 1.733 8.186 3.3 3.907 1.242 7.474 2.26 7.93 2.26 1.986 0-.172-.964-6.972-3.114-4.775-1.511-7.552-2.604-8.03-3.16-.402-.468-.674-.906-.603-.977.067-.07 2.708.699 5.868 1.707 3.158 1.01 5.835 1.834 5.95 1.834.525 0-4.918-5.117-6.586-6.19-1.47-.946-2.176-1.155-3.296-.977-1.746.28-4.239-1.217-4.447-2.67-.154-1.078.968-2.53 1.954-2.527 1.177.003 3.306 1.594 3.578 2.68.149.595.81 1.338 1.514 1.703 1.184.612 1.23.604.929-.119-.175-.418-.724-1.934-1.222-3.368-.777-2.251-.975-2.517-1.439-1.96-.296.358-.749.643-1.004.634-.553-.022-7.164-9.267-8.182-11.447-.568-1.218-.712-2.723-.72-7.577-.01-5.657.269-7.192 1.15-6.318.156.153.375 3.116.488 6.579l.205 6.299 3.61 5.418c3.219 4.832 4.428 6.208 4.428 5.04 0-.206-1.573-2.756-3.5-5.668-2.39-3.618-3.499-5.679-3.5-6.514-.004-1.035.53-.433 3.6 4.06l3.606 5.274.12-3.98.115-3.982-1.49-2.034c-.933-1.268-1.806-2.033-2.325-2.033-1.31 0-3.632-2.583-3.632-4.04 0-1.013.231-1.32 1.275-1.682 1.153-.402 1.39-.328 2.474.751.849.853 1.196 1.602 1.196 2.594 0 1.017.338 1.724 1.235 2.584l1.239 1.184v-4.417c0-4.263-.03-4.406-.809-3.99-.89.479-1.257.05-6.639-7.746l-2.652-3.84v-6.67c0-5.655.095-6.67.618-6.67.516 0 .653 1.076.828 6.39l.209 6.388 3.451 5.15c4.006 5.984 3.998 5.971 4.328 5.437.138-.226-1.338-2.825-3.281-5.778-2.678-4.069-3.502-5.644-3.402-6.505.118-.995.569-.48 3.638 4.163l3.504 5.3.12-3.814c.115-3.736.09-3.85-1.239-5.702-.855-1.19-1.875-2.066-2.75-2.358-3.725-1.255-4.584-5.993-1.085-5.993 1.197 0 2.687 2.051 2.687 3.692 0 1.142.304 1.802 1.235 2.696l1.239 1.187v-3.586c0-3.498-.021-3.57-.838-3.066-.585.365-.925.39-1.132.075a916.057 916.057 0 0 0-3.703-5.212c-1.87-2.628-3.68-5.436-4.02-6.243-.69-1.65-.9-13.222-.246-13.628.874-.539 1.215 1.178 1.349 6.82l.139 6.023 3.61 5.414c1.984 2.979 3.813 5.416 4.06 5.416.68 0 .34-.637-3.302-6.149-2.41-3.645-3.336-5.411-3.334-6.353 0-1.15.439-.643 3.706 4.258l3.71 5.567v-4.026c0-3.848-.057-4.111-1.34-6.05-1.008-1.528-1.663-2.09-2.653-2.276-2.656-.502-4.56-4.531-2.629-5.564 1.26-.675 2.052-.51 3.137.663a3.699 3.699 0 0 1 1.025 2.577c.008 1.058.364 1.871 1.23 2.824.67.735 1.314 1.34 1.43 1.34.115 0 .212-1.857.212-4.122 0-2.268-.097-4.121-.211-4.121-.117 0-.585.232-1.043.513-.566.352-.926.38-1.127.087-.164-.238-1.931-2.71-3.929-5.494-1.994-2.788-3.804-5.526-4.015-6.089-.496-1.297-.517-13.21-.025-13.513.874-.54 1.214 1.177 1.348 6.818l.14 6.021 3.609 5.416c1.984 2.978 3.787 5.416 4.005 5.416.665 0 .005-1.232-3.36-6.274-2.39-3.58-3.22-5.18-3.22-6.182 0-1.214.362-.804 3.605 4.102 1.982 2.995 3.742 5.454 3.913 5.46.17.003.31-1.398.31-3.12 0-3.002-.07-3.228-1.71-5.564-1.294-1.85-1.952-2.437-2.719-2.437-2.187 0-4.318-3.865-2.907-5.274 1.533-1.533 4.434.39 4.465 2.96.012.856.491 1.834 1.438 2.934l1.421 1.648.002-4.535.004-4.533-4.017-5.87c-2.21-3.23-4.157-5.872-4.334-5.875-.525-.002.873 2.404 4.119 7.105 2.222 3.217 3.02 4.714 2.927 5.483-.112.904-.675.292-3.883-4.22-5.733-8.06-5.523-7.452-5.523-16.012 0-5.627.117-7.224.516-7.093.36.117.577 1.712.722 5.288l.207 5.12 4.068 5.768c5.155 7.314 5.204 7.366 5.204 5.65 0-.73-.266-3.043-.589-5.136-1.321-8.534-1.17-15.83.428-20.641l.688-2.065.767 1.495c2.17 4.229 2.615 12.738 1.144 21.841-.784 4.864-.797 6.533-.046 5.415 2.185-3.243 8.04-11.327 8.34-11.513.22-.133.398-2.506.404-5.27.006-5.106.394-6.874 1.243-5.644.262.382.379 3.227.307 7.421-.135 7.935.12 7.23-5.474 15.15-3.248 4.601-3.724 5.116-3.836 4.14-.097-.83.608-2.164 2.77-5.252 3.04-4.345 4.343-6.57 4.033-6.883-.103-.101-2.064 2.533-4.357 5.858l-4.174 6.04v4.281c0 2.356.097 4.282.211 4.282.69 0 2.652-2.84 2.663-3.853.015-1.599 1.237-3.548 2.408-3.843 1.468-.367 2.963.487 2.963 1.696 0 1.375-2.232 3.855-3.612 4.015-.807.094-1.57.79-2.851 2.604-1.605 2.26-1.755 2.69-1.768 5.048-.008 1.417.124 2.569.295 2.558.171-.007 2.306-2.878 4.74-6.377l4.432-6.362v-4.573c0-4.564.52-6.893 1.272-5.704.582.916.423 13.12-.193 14.84-.295.82-2.373 4.136-4.62 7.368-3.459 4.971-4.103 5.709-4.212 4.807-.096-.777.813-2.446 3.4-6.246 1.942-2.852 3.528-5.502 3.528-5.886 0-.46-.348-.205-1.008.737-.556.79-2.5 3.57-4.32 6.175l-3.311 4.742-.009 4.432c-.003 2.434.13 4.427.302 4.42.599-.017 2.576-3.224 2.577-4.179.002-1.326 1.478-3.631 2.362-3.692 2.19-.147 3.23.71 2.821 2.335-.378 1.508-2.424 3.485-3.61 3.485-.72 0-1.405.653-2.73 2.606-1.75 2.579-1.764 2.636-1.646 5.803l.123 3.199 4.637-6.621 4.637-6.618.007-4.646c.006-4.762.411-6.475 1.243-5.266.262.382.38 3.227.308 7.422-.133 7.845.253 6.798-5.619 15.193-3.042 4.346-3.583 4.94-3.692 4.035-.096-.773.819-2.451 3.4-6.243 1.942-2.852 3.528-5.5 3.528-5.886 0-.459-.348-.204-1.009.736-.555.791-2.498 3.57-4.318 6.176l-3.313 4.74-.007 4.64c-.004 2.55.053 4.637.128 4.637.472 0 2.75-3.81 2.75-4.602.002-1.326 1.478-3.633 2.362-3.692 2.19-.147 3.23.712 2.822 2.335-.38 1.509-2.425 3.487-3.61 3.487-.72 0-1.406.651-2.73 2.603-1.761 2.6-1.764 2.61-1.647 5.953l.123 3.348 4.534-6.47 4.533-6.466.207-5.223c.204-5.167.508-6.45 1.252-5.275.658 1.042.483 12.827-.22 14.822-.341.961-2.473 4.358-4.74 7.541-3.535 4.97-4.123 5.621-4.123 4.575 0-.845.94-2.564 3.079-5.636 3.524-5.06 4.037-5.94 3.833-6.552-.08-.241-1.983 2.226-4.228 5.485-4.504 6.537-4.653 6.97-4.697 13.756l-.023 3.297 1.624-1.855c1.109-1.267 1.627-2.25 1.637-3.101.01-1.192.91-2.942 1.84-3.588 1.313-.911 3.53.194 3.53 1.76 0 1.179-2.35 3.622-3.626 3.771-.848.099-1.57.805-3.069 2.986-1.954 2.847-1.962 2.872-1.962 6.286 0 1.885.14 3.425.31 3.424.171-.004 2.395-2.978 4.945-6.61l4.638-6.604v-4.548c0-4.541.523-6.87 1.273-5.68.639 1.007.45 12.826-.235 14.77-.336.95-2.423 4.308-4.637 7.459-3.393 4.829-4.046 5.566-4.158 4.687-.094-.734.594-2.107 2.318-4.627 1.346-1.97 2.936-4.305 3.53-5.185.598-.884 1.082-1.903 1.077-2.268-.013-.848-.568-.137-5.163 6.631l-3.556 5.235.69 2.392c.773 2.677 2.638 6.178 3.898 7.32.83.751.834.738.776-1.882-.03-1.45-.306-3.137-.613-3.75-.734-1.466-.705-2.822.083-3.947.708-1.01 2.578-1.243 3.397-.423 1.036 1.036.361 4.356-1.146 5.628-.767.65-.777.818-.21 3.726.683 3.49 1.23 4.481 3.058 5.54l1.304.757-.072-6.516c-.065-6.079-.136-6.618-1.048-8.064-.929-1.47-1.338-4.362-.705-4.996.534-.535 1.377.675 1.377 1.974 0 .875.537 2.077 1.587 3.553 2.09 2.936 2.43 4.176 2.755 10.064.263 4.73.244 4.917-.458 4.24-.558-.536-.798-1.684-1.02-4.858-.159-2.286-.402-4.271-.546-4.413-.655-.656-.757.634-.418 5.282l.366 5.013 4.476 2.853c2.461 1.568 4.544 2.786 4.625 2.7.453-.451-.873-3.331-2.104-4.563-1.589-1.585-1.907-3.455-.785-4.577.815-.815 2.393-.834 3.052-.04.818.988 1.198 3.42.758 4.865-.322 1.055-.23 1.8.445 3.596.75 1.996 1.154 2.457 3.375 3.841 1.387.864 2.576 1.512 2.64 1.443.067-.072-.803-2.963-1.933-6.423l-2.052-6.292-3.26-2.357c-2.886-2.086-4.005-3.401-2.894-3.401.55 0 7.904 4.868 9.254 6.124.645.598 1.557 1.83 2.027 2.737.906 1.75 4.055 11.02 3.821 11.253-.076.076-.495-.085-.932-.36-.499-.307-1.309-2.062-2.155-4.662-1.47-4.512-2.318-6.438-2.844-6.438-.184 0 .517 2.577 1.555 5.725l1.892 5.724 3.702 2.284c2.037 1.26 3.765 2.225 3.84 2.15.419-.42-.98-3.503-1.78-3.933-2.671-1.43-2.499-5.766.229-5.766 1.519 0 2.25 1.568 2.278 4.886.034 4.33.952 6.036 4.333 8.049 1.403.838 2.614 1.454 2.693 1.375.08-.08-.744-2.916-1.832-6.3l-1.973-6.155-4.097-2.792c-2.255-1.535-4.156-3.065-4.23-3.4-.073-.336-.019-.608.122-.608.525 0 2.937 1.403 7.389 4.291 3.898 2.535 4.735 3.276 5.657 5.009 1.314 2.463 4.257 11.255 3.896 11.62-.622.623-1.9-1.673-3.306-5.95-.831-2.533-1.783-4.827-2.11-5.1-.323-.27-.593-.382-.593-.249s.858 2.756 1.905 5.828l1.906 5.588 4.765 2.857c4.643 2.784 4.737 2.868 3.634 3.29-1.551.588-1.295.67-5.163-1.656z"/>
  <g fill="#f1d360">
    <path d="M51.064 161.419c.745-.9-.403-1.621-1.758-1.105-1.071.405-1.335.863-.807 1.393.478.478 2.08.297 2.565-.288zM59.676 152.672c.153-1.023-.88-2.445-1.496-2.064-.626.384-.61 2.008.025 2.642.664.664 1.326.405 1.47-.578zM31.72 150.252c.662-.796.2-1.459-1.01-1.459-1.116 0-1.626.58-1.29 1.462.298.77 1.66.769 2.3-.003zM42.373 141.72c.165-1.393-.936-2.355-1.49-1.3-.486.927.13 2.737.851 2.502.282-.095.57-.636.64-1.202zM17.038 132.03c.415-.415-.987-1.787-1.826-1.787-.997 0-1.379.73-.772 1.464.513.615 2.105.816 2.598.323zM27.946 127.838c-.172-1.418-1.043-1.59-1.623-.317-.37.819-.36 1.191.049 1.684.733.885 1.74.01 1.574-1.367zM14.838 108.717c0-.662-1.27-1.968-1.918-1.968-.878 0-.644 1.541.336 2.229.921.644 1.582.537 1.582-.261zM27.058 107.332c.569-.866.597-1.128.15-1.404-.724-.446-1.578-.089-2.098.88-.921 1.722.849 2.2 1.948.524zM14.838 85.4c0-.947-.78-1.729-1.732-1.729-.849 0-1.003 1.222-.245 1.98.755.752 1.977.6 1.977-.25zM27.234 84.438c.921-1.726-.847-2.204-1.945-.529-.57.867-.596 1.131-.152 1.407.725.448 1.578.088 2.097-.878zM14.838 63.966c0-.95-.78-1.732-1.732-1.732-.849 0-1.003 1.224-.245 1.981.755.754 1.977.6 1.977-.25zM27.234 63.002c.921-1.723-.847-2.202-1.945-.523-.57.866-.596 1.129-.152 1.403.725.448 1.578.09 2.097-.88zM14.631 42.675c0-.406-.415-1.016-.922-1.353-.828-.55-.948-.543-1.184.068-.292.762.964 2.403 1.664 2.172.242-.083.443-.482.443-.887zM26.832 42.822c.577-.578.73-1.004.454-1.28-.892-.891-2.987.701-2.327 1.769.367.593.94.443 1.873-.489zM20.412 16.26c-.192-2.342-.429-3.403-.664-3.03-.44.697-.495 9.19-.074 11.137.518 2.372 1.09-3.91.738-8.106z"/>
  </g>
  <path fill="#0086be" d="M72.621 151.781c.123-.641.81-.736 6.212-.837l6.073-.113v-24.709H83.43c-.998 0-1.42-.167-1.304-.515.129-.388 2.65-.54 10.338-.624 8.803-.095 10.166-.029 10.166.505 0 .524-1.236.633-8.137.73l-8.143.111-.11 12.247-.108 12.25 4.433.117c3.838.101 4.448.213 4.569.838.13.671-.627.72-11.256.72-10.632 0-11.387-.049-11.257-.72z"/>
  <path fill="#0086be" d="M57.527 134.882c.322-2.207 1.358-4.503 2.512-5.542 1.36-1.232 4.41-2.375 6.359-2.385 1.36-.005 2.104-.238 2.637-.83.722-.797.686-.998-1.194-6.648-2.424-7.296-2.774-10.264-1.514-12.865 1.477-3.05 10.865-11.392 18.333-16.288 4.712-3.092 4.877-2.37-1.476-6.426-4.878-3.11-9.575-7.794-11.382-11.348l-1.358-2.668 1.67-1.384c.915-.762 1.664-1.647 1.664-1.967 0-.792.038-.806-3.101 1.1-2.84 1.727-11.491 6.079-15.324 7.713-1.247.531-2.59 1.496-3.205 2.3-.884 1.159-1.385 1.42-3.034 1.579-1.207.117-2.502.578-3.323 1.185-1.092.809-1.993 1.032-4.813 1.2l-3.472.206.001-1.248c0-1.19.894-2.935 1.832-3.59.24-.165 1.054-.304 1.81-.307.912-.005 1.314-.179 1.204-.523-.219-.662-2.752-.918-3.331-.338-.788.787-1.515.479-1.515-.643 0-1.658 1.509-3.758 3.118-4.34 1.606-.579 1.667-1.312.12-1.497-.677-.084-1.401.251-2.13.981l-1.108 1.109V69.33c0-1.774.188-2.272 1.253-3.337 2.158-2.157 7.326-2.303 9.452-.266 1.27 1.22 2.04 1.291 3.845.363 3.671-1.889 15.538-10.397 15.538-11.139 0-.781-.734-.679-1.948.278-.577.453-1.287.824-1.576.824-.76 0-6.272-4.207-11.519-8.793-4.293-3.753-4.633-3.963-6.411-3.972-1.606-.012-2.082-.227-3.297-1.484-1.462-1.516-2.189-1.635-4.821-.79-.797.256-.929.147-.929-.75 0-1.309 1.788-3.487 3.001-3.66.504-.069.824-.315.709-.54-.237-.478-1.935-.49-2.987-.026-.58.255-.723.117-.723-.7 0-1.116 1.422-3.189 2.195-3.196.267-.005.764-.19 1.103-.413.535-.353.538-.457.024-.789-.388-.25-.987-.178-1.73.207-1.568.811-1.592.792-1.592-1.028 0-3.274 3.06-5.289 7.35-4.847 3.148.326 4.324 1.287 4.684 3.83.193 1.342.574 2.22 1.147 2.633.475.338 2.942 2.27 5.486 4.294 5.542 4.408 7.69 5.818 10.292 6.743l1.96.699-.27 3.8c-.22 3.165-.152 3.973.42 4.848.38.576.823 1.048.988 1.047.164 0 .586-1.2.934-2.666.615-2.584.614-2.643-.128-1.97-.66.595-.815.608-1.145.087-.207-.332-.278-1.253-.156-2.044.432-2.768 1.085-5.362 1.403-5.557.173-.11.553.638.838 1.661.287 1.02.688 1.961.894 2.088.505.311 1.438-.509 1.695-1.492.162-.618.012-.776-.665-.705-.714.072-.94-.224-1.256-1.671-.354-1.632-.287-1.883.902-3.362 1.771-2.205 1.784-2.644.074-2.902-1.266-.193-1.49-.411-1.83-1.795-.48-1.938.074-2.424 2.064-1.813 1.877.578 3.91-.05 4.696-1.45.568-1.012.55-1.192-.245-2.252-.75-.996-1.137-1.149-2.877-1.122-1.108.017-2.616.181-3.35.36-1.192.293-1.344.234-1.344-.527 0-1.023-.826-2.955-1.265-2.955-.496 0-1.745-3.613-1.485-4.289.128-.338.848-.704 1.596-.822.747-.113 2.102-.325 3.004-.47 1.174-.186 2.058-.709 3.09-1.822 1.365-1.464 1.79-1.634 7.22-2.877 3.175-.726 6.348-1.68 7.056-2.114 2.89-1.787 6.34-.542 6.34 2.288 0 1.097.455 1.922 2.101 3.796 2.552 2.913 5.903 9.638 6.586 13.226.627 3.291.264 11.372-.662 14.724-.373 1.357-1.407 4.18-2.295 6.268-2.213 5.211-2.948 8.6-2.932 13.515.026 7.361 2.232 12.096 7.206 15.456 1.51 1.02 3.65 2.748 4.756 3.838l2.012 1.981 2.84-.659c3.215-.744 4.812-1.973 5.599-4.3.664-1.967.57-7.373-.236-13.414-.743-5.582-.85-14.747-.236-20.119.36-3.133.322-3.794-.284-4.945-.919-1.747-.917-6.048.002-8.781.825-2.453 2.848-4.584 4.698-4.955 1.095-.22 1.516-.06 2.536.96 2.739 2.739 2.06 9.193-1.62 15.36-.816 1.37-.851 1.882-.673 9.894.128 5.89.41 9.573.932 12.157 1.042 5.162 1.088 16.63.072 18.812-1.471 3.158-4.689 5.279-9.522 6.278l-2.538.523.096 1.573c.053.867-.356 3.321-.91 5.457-.816 3.138-.939 4.258-.644 5.819.487 2.565 1.53 5.6 2.775 8.06.96 1.902 1.02 2.44 1.13 10.098.104 7.387.043 8.207-.684 9.43-1.097 1.84-2.28 2.577-4.136 2.577-.864 0-2.213.268-2.998.598-1.64.684-1.635.69-.81-1.279.73-1.75.735-1.79.214-1.79-.22 0-.688.555-1.039 1.234-.542 1.044-.882 1.237-2.199 1.237-.86 0-1.919.272-2.358.603-1.468 1.113-1.58.756-.737-2.353.29-1.068-.63-.88-1.135.234-.31.68-1.208 1.208-3.083 1.817-1.457.475-2.648.798-2.648.72 0-1.047 1.384-6.223 1.858-6.941.746-1.14 2.29-1.911 3.83-1.913 1.677-.003 4.091-.767 4.863-1.54.58-.577.644-1.23.422-4.141-.148-1.903-.442-3.782-.651-4.179-.212-.397-1.64-1.446-3.175-2.335-3.798-2.195-7.725-6.1-8.938-8.879a244.218 244.218 0 0 0-1.53-3.448l-.566-1.236-.149 1.404c-.08.774.164 2.216.54 3.206.38.991.599 2.043.488 2.331-.113.29-1.011.768-1.999 1.065-4.46 1.333-8.005 3.888-9.36 6.749-.693 1.462-.765 2.085-.451 3.999.202 1.247.678 2.959 1.057 3.804.647 1.442.647 1.687-.021 3.916-1.16 3.89-1.516 4.61-2.79 5.682-.88.741-1.702 1.022-2.984 1.022-.976 0-2.538.271-3.474.6-1.929.68-1.91.702-1.103-1.23.488-1.167.495-1.43.048-1.43-.301 0-.855.464-1.224 1.031-.443.671-1.064 1.034-1.801 1.045-.617.007-1.586.28-2.154.605-1.82 1.04-2.195.817-1.907-1.135l.262-1.753-1.135 1.345c-.623.738-1.426 1.34-1.78 1.34-.353-.002-1.001.267-1.44.598-1.51 1.14-1.908.81-1.596-1.324z"/>
  <g fill="#e9cc7a">
    <path d="M87.923 67.282c.116-.848.342-2.1.496-2.78l.282-1.236-.706.962c-1.095 1.482-1.599.51-1.506-2.897.084-3.075-.266-3.321-1.114-.787-.895 2.683-.444 5.894 1.067 7.564.956 1.056 1.238.9 1.48-.826zM83.642 62.558c.017-.444-.188-.628-.547-.488-.897.343-1.897-1.48-1.897-3.455 0-1.086-.163-1.686-.413-1.533-1.15.713-.045 7.654 1.358 8.525.505.312 1.43-1.575 1.499-3.05zM95.134 61.818c1.063-2.432 1.108-2.74.302-2.073-1.16.961-1.545.06-1.296-3.02l.236-2.942-.673 1.445c-.904 1.93-1.17 5.333-.565 7.165.267.818.626 1.491.795 1.491.164 0 .709-.93 1.2-2.066zM90.46 59.043c.235-1.112.174-1.297-.362-1.09-.761.288-1.466-1.244-1.508-3.264-.026-1.296-.032-1.298-.443-.285-.492 1.212-.272 2.886.67 5.104.74 1.742 1.206 1.61 1.643-.465zM78.823 58.628c.63-1.944.587-2.86-.078-1.783-1.12 1.809-2.314-1.575-1.698-4.812.418-2.212-.089-2.261-.956-.093-1.116 2.787-.748 6.135.873 7.925.958 1.062 1.164.923 1.86-1.237zM85.563 56.777c.51-1.468.498-1.5-.584-1.625-1.074-.124-1.103-.2-1.103-2.896 0-2.462-.07-2.7-.617-2.148-1.332 1.328-.163 8.816 1.3 8.33.267-.09.72-.838 1.004-1.661zM73.636 55.743c.237-1.076.583-2.327.766-2.782.293-.732.21-.713-.754.165-.959.875-1.117.91-1.35.3-.298-.776.005-5.28.46-6.853.292-1.003.28-1.01-.359-.207-1.918 2.409-2.329 6.566-.964 9.79.892 2.112 1.675 1.966 2.2-.413zM98.65 53.993c.718-1.213.714-1.235-.146-1.235-.64 0-.818-.194-.661-.723.601-2.018.718-2.989.366-2.989-.686 0-1.472 3.135-1.175 4.703.337 1.806.665 1.853 1.616.244zM93.27 52.795c.865-1.466.89-1.847.101-1.544-.917.35-1.158-.413-.628-2.01.654-1.982.277-2.752-.556-1.142-.942 1.813-.876 5.892.094 5.892.154 0 .597-.538.99-1.196zM81.6 51.028c.945-1.95 1.083-2.964.261-1.881-1.21 1.596-2.16.117-1.815-2.835l.176-1.496-.795.979c-.846 1.048-.814 3.48.08 5.827.6 1.569 1.12 1.42 2.093-.594zM88.813 50.177c.447-.734.872-1.452.944-1.59.072-.143-.323-.17-.878-.065-1.292.247-1.744-.987-1.085-2.98.26-.79.393-1.76.296-2.158-.255-1.056-1.533 1.987-1.533 3.643 0 1.443.814 4.494 1.197 4.49.134-.001.611-.604 1.059-1.34zM76.977 47.603c.235-.679.57-1.609.744-2.062.312-.808.304-.808-.566-.045-.844.74-.898.742-1.17.04-.155-.407-.085-1.684.153-2.839.543-2.622.336-2.912-.59-.826-.875 1.978-.966 5.951-.157 6.921.663.8.983.559 1.586-1.19zM97.684 45.764c0-.192-.37-.254-.82-.134-.763.198-.808.06-.6-1.792l.227-2.005-.827 1.442c-.959 1.668-1.035 2.387-.42 3.992l.444 1.16.999-1.156c.55-.636.997-1.314.997-1.507zM101.057 45.293c-.595-.701-.711-.723-.83-.156-.077.365-.027.949.107 1.304.194.5.373.535.833.153.502-.418.487-.605-.11-1.3zM85.423 44.477c.903-1.591.934-2.307.07-1.591-.85.707-1.384-.07-1.434-2.086-.028-1.18-.098-1.294-.388-.616-.533 1.239-.48 4.507.082 5.068.708.71.865.636 1.67-.775zM92.312 44.76c.207-.545.574-1.113.812-1.262.84-.52.49-1.733-.487-1.7-.754.028-.908-.161-.82-.996.06-.566.2-1.957.314-3.089l.204-2.061-.886 1.854c-.508 1.065-.903 2.732-.924 3.915-.074 3.693.937 5.574 1.787 3.339zM81.484 40.575c1.029-1.824.921-2.307-.274-1.227-.792.718-.83.707-1.24-.374-.233-.613-.318-1.61-.189-2.218.228-1.06.21-1.073-.409-.305-1.133 1.4-.554 6.309.693 5.9.284-.095.921-.892 1.42-1.776zM100.57 41.421c.41-.494.41-.62-.008-.62-.286 0-.767-.322-1.067-.719-.499-.66-.549-.63-.56.341-.02 1.654.715 2.105 1.635.998zM89.834 36.528c.01-.197-.251-.135-.583.14-.952.79-1.46.114-1.46-1.948 0-1.514-.104-1.808-.506-1.405-.728.728-.677 5.527.07 6.427.545.657.666.573 1.526-1.068.515-.982.943-1.948.953-2.146zM77.04 37.482c.996-1.774.679-1.853-1.076-.275-.501.45-1.196.706-1.547.57-.468-.18-.639.018-.639.737 0 2.12 1.812 1.546 3.262-1.032zM96.793 38.93c.685-1.502.64-2.483-.086-1.88-1.241 1.028-1.966-1.441-1.303-4.44.456-2.058-.39-1.261-1.01.955-1.073 3.834.992 8.454 2.399 5.365zM85.203 35.589c.559-1.204.287-2.13-.415-1.428-.676.676-1.53-.262-1.53-1.676 0-.702-.174-1.104-.414-.957-.648.404-.48 2.642.296 3.957.873 1.479 1.413 1.51 2.063.104zM103.204 34.79c.353-.916.326-.995-.348-.995-.329 0-.787-.325-1.018-.72-.54-.926-.567-.066-.043 1.31.458 1.2 1.043 1.368 1.41.405zM93.15 32.041c0-.34-.136-.334-.493.024-.87.87-1.474.536-1.897-1.051l-.41-1.547-.042 2.084c-.057 2.75.652 3.503 1.916 2.038.51-.59.926-1.288.926-1.548zM99.849 31.51c.15-.77.052-1.001-.352-.847-.826.317-1.812-1.378-1.812-3.116 0-.847-.185-1.65-.413-1.789-.254-.158-.41.581-.41 1.942 0 1.673.25 2.561 1.051 3.744 1.146 1.685 1.625 1.704 1.936.066zM84.165 28.059c.844-1.298 1.448-4.568.843-4.568-.229 0-.62.81-.868 1.802-.251.99-1.2 2.701-2.11 3.803-.91 1.104-1.657 2.169-1.657 2.364 0 .526 2.972-2.141 3.792-3.401zM88.205 28.72c0-.314-.14-.307-.464.015-.638.64-1.595.19-1.595-.753 0-.43-.21-.78-.466-.78-.62 0-.176 2.154.723 3.529l.7 1.061.55-1.311c.303-.725.552-1.516.552-1.761zM95.212 27.853c0-.323.114-.878.252-1.237.187-.49-.016-.653-.824-.653-.726 0-1.096-.233-1.138-.72a10.241 10.241 0 0 0-.16-1.133 8.473 8.473 0 0 1-.143-.953c-.083-.965-.87-.06-.87 1.004 0 1.12.567 2.421 1.558 3.554.76.873 1.325.93 1.325.138zM100.98 25.446c0-.285-.37-.75-.824-1.036-.666-.414-.823-.41-.823.025 0 .598.806 1.529 1.32 1.529.18 0 .328-.233.328-.518zM90.588 23.857c.07-.368-.211-.6-.722-.6-.462 0-.838.039-.838.083 0 1.246 1.334 1.687 1.56.517z"/>
  </g>
  <g fill="#f1d360">
    <path d="M96.45 20.814c0-.357-.376-.618-.878-.618-.728 0-.789.101-.361.618.66.79 1.238.79 1.238 0zM77.154 19.47c1.304-1.513 1.268-1.75-.26-1.75-1.262 0-1.468.135-1.468.96 0 1.623.73 1.956 1.728.79zM89.256 18.189c.216-.199 1.271-.688 2.349-1.087 1.078-.4 1.975-.935 1.999-1.188.2-2.235.092-3.297-.349-3.448-.348-.113-.516.3-.516 1.28 0 1.324-.186 1.551-2.137 2.609-1.174.638-2.21 1.391-2.301 1.677-.188.59.377.684.955.157z"/>
  </g>
  <g fill="#0086be">
    <path d="M118.094 126.132c-.59-.952.437-1.247 4.345-1.247h4.096V98.119l-5.016-.114c-3.558-.084-5.063-.266-5.184-.632-.133-.401 1.709-.514 8.312-.514 7.267 0 8.483.088 8.483.619 0 .48-.548.616-2.472.616h-2.474v26.752l2.576.124c1.96.094 2.579.27 2.579.74 0 .524-1.158.636-7.494.733-4.78.07-7.587-.043-7.751-.311zM34.21 125.527c0-.474.736-.634 3.4-.728l3.4-.117.11-13.073.108-13.069-3.612-.12c-2.884-.094-3.612-.243-3.612-.736 0-.534 1.57-.635 11.231-.728l11.232-.112v-9.266c0-7.962.088-9.267.619-9.267.53 0 .617 1.305.617 9.263v9.262l5.875.114c4.895.096 5.871.218 5.871.734 0 .534-1.821.632-13.497.727l-13.498.108v26.354l11.643.112c7.415.069 11.644.257 11.644.52 0 .264-5.601.45-15.766.519-13.652.094-15.766.028-15.766-.497zM101.806 72.334c0-.509.732-.62 4.122-.62h4.12V47.4h-2.883c-2.29 0-2.888-.128-2.888-.62 0-.524 1.01-.618 6.596-.618 5.588 0 6.596.094 6.596.618 0 .492-.596.62-2.886.62h-2.886v24.316h3.092c2.472 0 3.09.124 3.09.62 0 .526-1.165.618-8.036.618-6.87 0-8.037-.092-8.037-.619zM128.596 72.334c0-.546.442-.637 2.578-.535 1.417.067 2.576.31 2.576.535 0 .228-1.16.468-2.576.534-2.136.103-2.578.011-2.578-.534zM42.454 54.436v-6.628H38.33c-3.846 0-4.121-.053-4.121-.822 0-.795.275-.825 7.45-.825 6.871 0 7.439.056 7.312.722-.108.566-.635.745-2.493.843l-2.355.125-.114 6.466c-.102 5.778-.189 6.481-.835 6.603-.663.128-.72-.396-.72-6.484zM127.772 46.571c0-.802.196-.852 2.783-.738 2.143.093 2.784.262 2.784.738 0 .479-.64.646-2.784.74-2.587.113-2.783.061-2.783-.74z"/>
  </g>
  <path fill="#f1d360" d="M69.656 7.621V3.706h-28.44v7.832h28.44zM127.772 7.621V3.706h-24.73v7.832h24.73z"/>
</svg>
