---
title: Linux
---
<svg xmlns="http://www.w3.org/2000/svg" viewBox="0 0 712 860">
  <defs>
    <linearGradient id="linearGradient28799-5-5">
      <stop id="stop28801-1-9" offset="0" stop-color="#fefefc"/>
      <stop offset=".757" id="stop28807-2-6" stop-color="#fefefc"/>
      <stop id="stop28803-6-3" offset="1" stop-color="#d4d4d4"/>
    </linearGradient>
    <linearGradient id="linearGradient28853-5">
      <stop id="stop28855-3" offset="0" stop-color="#020204"/>
      <stop offset=".734" id="stop28865-0" stop-color="#020204"/>
      <stop id="stop28857-9" offset="1" stop-color="#5c5c5c"/>
    </linearGradient>
    <linearGradient id="linearGradient28935-8">
      <stop id="stop28937-7" offset="0" stop-color="#949494" stop-opacity=".392"/>
      <stop offset=".5" id="stop28943-3" stop-color="#949494"/>
      <stop id="stop28939-8" offset="1" stop-color="#949494" stop-opacity=".392"/>
    </linearGradient>
    <linearGradient id="linearGradient28976-3">
      <stop id="stop28978-7" offset="0" stop-color="#747474"/>
      <stop offset=".125" id="stop29259-5" stop-color="#8c8c8c"/>
      <stop offset=".25" id="stop29257-0" stop-color="#a4a4a4"/>
      <stop offset=".5" id="stop28984-4" stop-color="#d4d4d4"/>
      <stop id="stop28986-0" offset=".619" stop-color="#d4d4d4"/>
      <stop id="stop28980-2" offset="1" stop-color="#7c7c7c"/>
    </linearGradient>
    <clipPath id="clipPath29028-5">
      <path id="path29030-7" d="M85.75 122.362c-2.78 1.91-5.11 4.575-6.25 7.75-1.436 4.002-.886 8.48.5 12.5 1.42 4.117 3.794 8.041 7.38 10.513 1.792 1.235 3.867 2.083 6.03 2.338 2.162.256 4.409-.095 6.34-1.1 2.353-1.227 4.148-3.374 5.262-5.782 1.115-2.408 1.589-5.07 1.738-7.719.19-3.375-.14-6.806-1.25-10-1.205-3.469-3.39-6.67-6.473-8.666-1.541-.998-3.292-1.684-5.11-1.936-1.82-.251-3.705-.063-5.417.602-.975.38-1.887.908-2.75 1.5" fill="url(#radialGradient29032)"/>
    </clipPath>
    <linearGradient id="linearGradient29336-6">
      <stop id="stop29338-1" offset="0" stop-color="#646464" stop-opacity="0"/>
      <stop offset=".306" id="stop29344-7" stop-color="#646464" stop-opacity=".583"/>
      <stop id="stop29354-5" offset=".47" stop-color="#646464"/>
      <stop offset=".728" id="stop29356-3" stop-color="#646464" stop-opacity=".257"/>
      <stop id="stop29340-6" offset="1" stop-color="#646464" stop-opacity="0"/>
    </linearGradient>
    <linearGradient id="linearGradient29477-3">
      <stop id="stop29479-5" offset="0" stop-color="#757574" stop-opacity="0"/>
      <stop offset=".263" id="stop29487-5" stop-color="#757574"/>
      <stop offset=".5" id="stop29485-0" stop-color="#757574"/>
      <stop id="stop29481-3" offset="1" stop-color="#757574" stop-opacity="0"/>
    </linearGradient>
    <linearGradient id="linearGradient28469-0">
      <stop offset="0" id="stop28479-4" stop-color="#d2940a"/>
      <stop offset=".751" id="stop28477-2" stop-color="#d89c08"/>
      <stop id="stop28485-7" offset=".866" stop-color="#b67e07"/>
      <stop id="stop28473-1" offset="1" stop-color="#946106"/>
    </linearGradient>
    <linearGradient id="linearGradient28275-8">
      <stop id="stop28277-1" offset="0" stop-color="#ad780a"/>
      <stop offset=".12" id="stop28291-9" stop-color="#d89e08"/>
      <stop offset=".255" id="stop28289-6" stop-color="#edb80b"/>
      <stop offset=".392" id="stop28287-6" stop-color="#ebc80d"/>
      <stop offset=".527" id="stop28285-7" stop-color="#f5d838"/>
      <stop offset=".769" id="stop28283-7" stop-color="#f6d811"/>
      <stop id="stop28279-5" offset="1" stop-color="#f5cd31"/>
    </linearGradient>
    <linearGradient id="linearGradient29529-6">
      <stop id="stop29531-0" offset="0" stop-color="#3a2903"/>
      <stop offset=".555" id="stop29539-7" stop-color="#735208"/>
      <stop id="stop29533-8" offset="1" stop-color="#ac8c04"/>
    </linearGradient>
    <clipPath id="clipPath29644-8">
      <path id="path29646-8" d="M54.232 122.362c-1.78.097-3.484.92-4.787 2.137-1.304 1.218-2.222 2.812-2.787 4.503-1.13 3.384-.875 7.052-.618 10.61.232 3.222.47 6.506 1.676 9.502.604 1.498 1.45 2.91 2.58 4.064 1.13 1.153 2.553 2.042 4.12 2.434 1.468.368 3.037.292 4.482-.162 1.445-.454 2.764-1.279 3.846-2.338 1.58-1.545 2.643-3.566 3.254-5.69.61-2.123.784-4.35.752-6.56-.04-2.764-.4-5.538-1.266-8.164-.865-2.626-2.245-5.103-4.173-7.086-.933-.96-1.997-1.805-3.198-2.397-1.201-.593-2.544-.926-3.88-.853" fill="url(#radialGradient29648)"/>
    </clipPath>
    <clipPath id="clipPath14656-7">
      <path d="M304.847 225.45c6.017 4.923 9.777 12.317 10.943 20.003 1.826 12.031-2.346 24.074-6.445 35.532-.818 2.285-1.64 4.59-1.965 6.995-.325 2.405-.12 4.949 1.03 7.086 1.302 2.425 3.732 4.125 6.366 4.923 2.589.785 5.394.761 8.015.092 2.62-.668 5.06-1.967 7.187-3.64 5.48-4.31 8.758-10.985 10.01-17.843 1.253-6.859.64-13.93-.55-20.799-1.624-9.369-4.31-18.54-7.74-27.407-2.518-6.508-5.469-12.911-9.618-18.52-4.046-5.47-9.162-10.09-13.104-15.636-2.732-3.844-4.9-8.13-8.191-11.508-1.646-1.688-3.577-3.135-5.77-4.001-2.193-.866-4.664-1.125-6.933-.483-1.504.426-2.892 1.238-4.038 2.302-1.145 1.064-2.052 2.376-2.692 3.803-1.28 2.853-1.477 6.112-.965 9.198.66 3.983 2.444 7.693 4.465 11.188 2.274 3.932 4.918 7.72 8.385 10.654 3.598 3.047 7.961 5.074 11.61 8.06" id="path14658-9" fill="none" stroke="#c17d11"/>
    </clipPath>
    <clipPath id="clipPath14489-3">
      <path d="M516.006 331.876a16.933 16.933 0 0 1-2.816 4.738c-2.624 3.115-6.268 5.17-9.897 7.02-6.188 3.154-12.601 5.921-18.42 9.716-3.897 2.543-7.495 5.527-10.86 8.743-2.877 2.75-5.605 5.687-8.832 8.017-3.256 2.352-7.02 4.055-10.99 4.65-4.83.725-9.822-.212-14.3-2.164-3.137-1.367-6.155-3.323-7.963-6.229-1.814-2.917-2.228-6.488-2.232-9.924-.008-6.076 1.118-12.09 2.178-18.073.881-4.972 1.72-9.955 2.26-14.975.984-9.131.977-18.353.32-27.513-.11-1.535-.237-3.084-.008-4.605.23-1.52.855-3.036 2.021-4.04 1.077-.926 2.521-1.335 3.94-1.414 1.418-.078 2.834.147 4.24.352 3.312.484 6.65.865 9.888 1.717 2.043.537 4.034 1.259 6.073 1.81 3.402.92 6.966 1.362 10.467.952 3.77-.44 7.43-1.856 11.224-1.764 1.556.037 3.101.331 4.586.8 1.516.477 3.01 1.161 4.123 2.295.846.86 1.436 1.945 1.879 3.068.66 1.674 1.015 3.457 1.167 5.25.135 1.588.113 3.194.414 4.76.495 2.574 1.848 4.922 3.529 6.934 1.68 2.012 3.69 3.72 5.696 5.408 2 1.68 4.01 3.355 6.167 4.828 1.012.692 2.056 1.34 3.017 2.1.961.762 1.845 1.648 2.446 2.716a6.785 6.785 0 0 1 .683 4.827" id="path14491-6" fill="url(#linearGradient14493)"/>
    </clipPath>
    <clipPath id="clipPath14481-1">
      <path d="M516.006 331.876a16.933 16.933 0 0 1-2.816 4.738c-2.624 3.115-6.268 5.17-9.897 7.02-6.188 3.154-12.601 5.921-18.42 9.716-3.897 2.543-7.495 5.527-10.86 8.743-2.877 2.75-5.605 5.687-8.832 8.017-3.256 2.352-7.02 4.055-10.99 4.65-4.83.725-9.822-.212-14.3-2.164-3.137-1.367-6.155-3.323-7.963-6.229-1.814-2.917-2.228-6.488-2.232-9.924-.008-6.076 1.118-12.09 2.178-18.073.881-4.972 1.72-9.955 2.26-14.975.984-9.131.977-18.353.32-27.513-.11-1.535-.237-3.084-.008-4.605.23-1.52.855-3.036 2.021-4.04 1.077-.926 2.521-1.335 3.94-1.414 1.418-.078 2.834.147 4.24.352 3.312.484 6.65.865 9.888 1.717 2.043.537 4.034 1.259 6.073 1.81 3.402.92 6.966 1.362 10.467.952 3.77-.44 7.43-1.856 11.224-1.764 1.556.037 3.101.331 4.586.8 1.516.477 3.01 1.161 4.123 2.295.846.86 1.436 1.945 1.879 3.068.66 1.674 1.015 3.457 1.167 5.25.135 1.588.113 3.194.414 4.76.495 2.574 1.848 4.922 3.529 6.934 1.68 2.012 3.69 3.72 5.696 5.408 2 1.68 4.01 3.355 6.167 4.828 1.012.692 2.056 1.34 3.017 2.1.961.762 1.845 1.648 2.446 2.716a6.785 6.785 0 0 1 .683 4.827" id="path14483-3" fill="url(#linearGradient14485)"/>
    </clipPath>
    <clipPath id="clipPath14473-5">
      <path d="M511.827 331.9a14.175 14.175 0 0 1-2.464 3.845c-2.325 2.588-5.507 4.222-8.658 5.696-5.42 2.536-11.001 4.78-16.116 7.885-3.383 2.055-6.537 4.472-9.502 7.095-2.524 2.232-4.93 4.627-7.727 6.506-2.883 1.936-6.176 3.299-9.616 3.773-4.218.582-8.553-.183-12.51-1.756-2.71-1.077-5.367-2.618-6.967-5.055-1.539-2.341-1.934-5.251-1.954-8.053-.035-4.938.965-9.818 1.906-14.666.782-4.03 1.527-8.072 1.978-12.152.817-7.406.66-14.886.28-22.327-.065-1.249-.134-2.51.078-3.743.213-1.232.737-2.452 1.682-3.271.94-.814 2.21-1.16 3.451-1.212 1.242-.052 2.477.164 3.705.35 2.89.436 5.811.709 8.652 1.392 1.787.43 3.531 1.02 5.313 1.47 2.986.753 6.097 1.107 9.158.772 3.294-.36 6.507-1.51 9.82-1.432 1.358.032 2.707.272 4.013.65 1.312.38 2.617.92 3.607 1.862.725.69 1.25 1.57 1.643 2.49.577 1.348.887 2.8 1.021 4.26.12 1.288.105 2.594.363 3.862.437 2.149 1.64 4.081 3.115 5.704 1.475 1.622 3.224 2.967 4.956 4.312 1.756 1.364 3.51 2.74 5.396 3.918.882.552 1.793 1.06 2.634 1.672.842.612 1.62 1.339 2.145 2.236a5.42 5.42 0 0 1 .598 3.917" id="path14475-9" fill="url(#linearGradient14477)"/>
    </clipPath>
    <linearGradient id="linearGradient14518-6">
      <stop id="stop14540-0" offset="0" stop-color="#110800"/>
      <stop offset=".591" id="stop14542-5" stop-color="#a65a00" stop-opacity=".8"/>
      <stop offset="1" id="stop14522-4" stop-color="#ff921e" stop-opacity="0"/>
    </linearGradient>
    <clipPath id="clipPath14822-9">
      <path d="M386.188 285.328c-.406-1.104-1.119-2.082-1.991-2.87-.872-.788-1.9-1.392-2.983-1.852-2.165-.918-4.52-1.261-6.831-1.695-2.18-.41-4.342-.907-6.528-1.278-2.272-.385-4.618-.632-6.866-.125-1.965.443-3.784 1.459-5.271 2.819-1.488 1.36-2.65 3.056-3.485 4.89-1.473 3.23-1.935 6.865-1.654 10.403.209 2.633.875 5.346 2.608 7.34 1.401 1.61 3.388 2.614 5.434 3.22a18.392 18.392 0 0 0 10.86-.155 28.586 28.586 0 0 0 14.331-10.78c1.139-1.649 2.112-3.447 2.553-5.403.336-1.49.349-3.08-.177-4.514" id="path14824-1" fill="none" stroke="#ce5c00"/>
    </clipPath>
    <clipPath id="clipPath14822-2-4">
      <path d="M386.188 285.328c-.406-1.104-1.119-2.082-1.991-2.87-.872-.788-1.9-1.392-2.983-1.852-2.165-.918-4.52-1.261-6.831-1.695-2.18-.41-4.342-.907-6.528-1.278-2.272-.385-4.618-.632-6.866-.125-1.965.443-3.784 1.459-5.271 2.819-1.488 1.36-2.65 3.056-3.485 4.89-1.473 3.23-1.935 6.865-1.654 10.403.209 2.633.875 5.346 2.608 7.34 1.401 1.61 3.388 2.614 5.434 3.22a18.392 18.392 0 0 0 10.86-.155 28.586 28.586 0 0 0 14.331-10.78c1.139-1.649 2.112-3.447 2.553-5.403.336-1.49.349-3.08-.177-4.514" id="path14824-6-5" fill="none" stroke="#ce5c00"/>
    </clipPath>
    <clipPath id="clipPath15031-3">
      <path d="M248.06 184.612c-2.6 3.44-5.233 6.856-7.896 10.247a928.914 928.914 0 0 1-8.588 10.752c-3.54 4.374-7.151 8.792-9.449 13.93-1.974 4.414-2.91 9.207-4.265 13.85-1.538 5.27-3.626 10.37-5.97 15.335-2.165 4.586-4.55 9.063-6.94 13.536-1.738 3.254-3.504 6.581-4.107 10.22-.476 2.877-.199 5.845.534 8.667.732 2.822 1.91 5.51 3.237 8.106 5.668 11.075 14.17 20.622 24.242 27.925a85.153 85.153 0 0 0 14.603 8.526c2.782 1.27 5.713 2.404 8.771 2.457 1.53.027 3.075-.225 4.475-.84 1.4-.616 2.65-1.604 3.482-2.888 1.023-1.577 1.37-3.538 1.165-5.407-.205-1.87-.935-3.653-1.913-5.259-2.39-3.922-6.165-6.76-9.797-9.573-7.84-6.074-15.424-12.48-22.682-19.24-2.049-1.909-4.098-3.878-5.53-6.284-1.394-2.344-2.148-5.014-2.658-7.693-1.4-7.349-1.04-15.082 1.46-22.133.978-2.759 2.27-5.392 3.518-8.04 2.162-4.588 4.211-9.263 7.05-13.467 3.532-5.233 8.244-9.673 11.15-15.278 2.455-4.734 3.494-10.058 4.363-15.318.665-4.031 1.247-8.076 1.746-12.13" id="path15033-2" fill="none" stroke="#729fcf" stroke-width=".125"/>
    </clipPath>
    <clipPath id="clipPath14186-9">
      <path id="path14188-1" d="M137.577 281.02c1.6-.664 3.398-.785 5.1-.47 1.703.313 3.312 1.049 4.744 2.022 2.864 1.946 4.988 4.778 7.023 7.58 4.672 6.433 9.169 13.002 13.245 19.829 3.306 5.537 6.343 11.257 10.164 16.453 2.494 3.392 5.306 6.54 7.813 9.922 2.506 3.383 4.728 7.056 5.84 11.117 1.443 5.276.884 11.092-1.627 15.953-1.767 3.419-4.477 6.352-7.773 8.339-3.296 1.986-7.17 3.014-11.016 2.87-6.114-.23-11.7-3.285-17.384-5.55-11.58-4.612-24.16-6.059-36.097-9.651-3.668-1.104-7.275-2.41-10.97-3.426-1.64-.452-3.308-.849-4.858-1.552-1.55-.703-3-1.749-3.862-3.217-.666-1.134-.948-2.47-.93-3.785.018-1.316.326-2.615.774-3.852.896-2.474 2.343-4.713 3.32-7.157 1.595-3.989 1.882-8.388 1.666-12.679-.215-4.291-.91-8.545-1.204-12.831-.131-1.914-.18-3.853.185-5.736.365-1.884 1.175-3.725 2.557-5.056 1.274-1.226 2.965-1.955 4.697-2.316 1.731-.361 3.515-.378 5.284-.338 1.768.04 3.54.135 5.303-.01 1.763-.145 3.534-.54 5.07-1.419 1.46-.834 2.653-2.074 3.643-3.434.99-1.36 1.789-2.846 2.609-4.314.82-1.468 1.668-2.931 2.741-4.226 1.074-1.294 2.39-2.423 3.943-3.067" fill="#402c07"/>
    </clipPath>
  </defs>
  <path d="M683.91 677.74c-.01-.01-.021-.021-.021-.03-6.069-6.85-8.96-19.55-12.069-33.08-3.101-13.52-6.57-28.1-17.67-37.55-.021-.021-.051-.04-.07-.061a46.067 46.067 0 0 0-6.73-4.89 43.926 43.926 0 0 0-6.899-3.32c15.43-45.76 9.38-91.329-6.2-132.5-19.11-50.54-52.48-94.569-77.97-124.689-28.53-35.99-56.431-70.15-55.88-120.61C501.25 144 508.87 1.19 373.35 1c-5.51-.01-11.26.22-17.25.7-151.44 12.19-111.27 172.19-113.52 225.76-2.77 39.18-10.71 70.06-37.66 108.36-31.65 37.64-76.23 98.57-97.34 162-9.96 29.93-14.7 60.439-10.33 89.319a67.741 67.741 0 0 0-3.92 3.841c-9.29 9.93-16.16 21.949-23.81 30.039-7.15 7.141-17.33 9.851-28.53 13.86-11.2 4.021-23.49 9.94-30.95 24.26 0 0 0 .011-.01.011-.01.02-.02.05-.04.069-3.51 6.55-4.65 13.62-4.65 20.79 0 6.63.98 13.351 1.97 19.82 2.06 13.46 4.15 26.189 1.38 34.81-8.86 24.23-10 40.98-3.76 53.141 6.26 12.18 19.11 17.55 33.64 20.59 29.06 6.06 68.41 4.56 99.42 21l2.67-5.03-2.64 5.04c33.2 17.36 66.86 23.521 93.71 17.39 19.48-4.439 35.28-16.039 43.4-33.88 21-.1 44.05-9 80.97-11.029 25.05-2.021 56.34 8.899 92.33 6.899.94 3.9 2.301 7.66 4.16 11.23.021.029.04.069.061.1 13.949 27.9 39.869 40.66 67.5 38.48 27.659-2.181 57.069-18.49 80.85-46.78l-4.36-3.66 4.391 3.62c22.66-27.48 60.27-38.87 85.22-53.91 12.47-7.52 22.58-16.939 23.37-30.62.778-13.67-7.252-28.99-25.712-49.48z" id="path3" fill="#202020"/>
  <path fill="#fff" d="M698.24 726.57c-.48 8.439-6.59 14.71-17.88 21.51-22.561 13.61-62.551 25.45-88.08 56.38-22.181 26.39-49.221 40.88-73.03 42.76s-44.35-8-56.47-32.31l-.021-.05-.029-.061c-7.521-14.3-4.391-36.85 1.939-60.649 6.33-23.79 15.43-48.23 16.65-68.08v-.061c1.279-25.439 2.71-47.66 6.979-64.81 4.28-17.15 11.01-28.75 22.931-35.28.56-.3 1.109-.59 1.659-.86 1.351 22.03 12.261 44.511 31.54 49.37 21.101 5.561 51.511-12.54 64.351-27.31 2.569-.101 5.069-.23 7.5-.29 11.27-.271 20.71.38 30.37 8.82l.029.029.03.021c7.42 6.29 10.95 18.17 14.01 31.47 3.061 13.311 5.5 27.8 14.681 38.13l.01.01.01.021c17.641 19.57 23.311 32.79 22.821 41.24z" id="path5"/>
  <path d="M269.49 788.95l-.01.06v.07c-2.04 26.74-17.12 41.3-40.28 46.59-23.14 5.29-54.53.021-85.87-16.37-.01 0-.02-.01-.03-.01-34.68-18.37-75.93-16.54-102.4-22.07-13.23-2.76-21.87-6.92-25.83-14.64-3.96-7.73-4.05-21.2 4.37-44.17l.04-.101.03-.1c4.17-12.85 1.08-26.91-.94-40.11-2.02-13.189-3.01-25.199 1.5-33.56l.04-.08c5.77-11.12 14.23-15.1 24.73-18.86 10.51-3.77 22.96-6.729 32.79-16.59l.06-.05.05-.05c9.09-9.59 15.92-21.62 23.91-30.15 6.74-7.2 13.49-11.97 23.66-12.04.12.011.23.011.35 0 1.78.011 3.67.16 5.67.471 13.5 2.04 25.27 11.479 36.61 26.859l32.74 59.67.01.03.02.02c8.71 18.19 27.11 38.2 42.7 58.61 15.59 20.401 27.65 40.891 26.08 56.571z" id="path7" fill="#fff"/>
  <path d="M432.77 232.69c-2.63-5.15-8-10.05-17.14-13.8l-.02-.01-.03-.01c-19.01-8.14-27.26-8.72-37.87-15.62-17.27-11.1-31.54-14.99-43.4-14.94-6.21.02-11.76 1.12-16.73 2.84-14.45 4.97-24.04 15.34-30.05 21.03l-.01.01c0 .01-.01.01-.01.02-1.18 1.12-2.7 2.14-6.38 4.84-3.71 2.71-9.27 6.79-17.27 12.79-7.11 5.33-9.42 12.27-6.96 20.4 2.45 8.13 10.29 17.51 24.63 25.62l.02.02.03.01c8.9 5.23 14.98 12.28 21.96 17.89 3.49 2.8 7.16 5.3 11.58 7.19 4.42 1.89 9.58 3.17 16.04 3.55 15.16.88 26.32-3.67 36.17-9.31 9.87-5.63 18.229-12.52 27.82-15.63l.02-.01.021-.01c19.659-6.14 33.68-18.51 38.069-30.26 2.2-5.88 2.13-11.46-.49-16.61z" id="path9" fill="#fff"/>
  <path d="M382.89 261.71c-15.64 8.153-33.91 18.04-53.35 18.04-19.43 0-34.78-8.98-45.82-17.73-5.52-4.37-10-8.72-13.38-11.88-5.864-4.629-5.162-11.122-2.752-10.93 4.038.504 4.649 5.822 7.192 8.2 3.44 3.22 7.75 7.39 12.97 11.53 10.44 8.27 24.36 16.32 41.79 16.32 17.4 0 37.712-10.215 50.11-17.17 7.024-3.94 15.962-11.003 23.257-16.357 5.58-4.097 5.377-9.03 9.985-8.493 4.608.537 1.199 5.46-5.254 11.092-6.453 5.632-16.548 13.104-24.748 17.378z" id="path11" fill="#202020"/>
  <path d="M622.39 595.47c-2.17-.08-4.31-.069-6.39-.02-.19.01-.38.01-.58.01 5.37-16.96-6.51-29.47-38.17-43.79-32.83-14.439-58.99-13.01-63.41 16.29-.28 1.53-.51 3.1-.68 4.68a49.79 49.79 0 0 0-7.4 3.29c-15.41 8.44-23.83 23.74-28.51 42.521-4.67 18.76-6.02 41.43-7.3 66.92v.02c-.79 12.811-6.07 30.15-11.41 48.511-53.78 38.369-128.42 54.989-191.8 11.729-4.29-6.79-9.22-13.52-14.29-20.16-3.24-4.239-6.57-8.45-9.87-12.609 6.5.01 12.03-1.061 16.5-3.08 5.56-2.53 9.46-6.57 11.4-11.771 3.86-10.39-.02-25.05-12.39-41.8-12.37-16.74-33.32-35.63-64.1-54.51v-.01c-22.62-14.07-35.26-31.311-41.18-50.03-5.93-18.73-5.1-38.98-.53-58.97 8.76-38.37 31.26-75.69 45.62-99.11 3.86-2.84 1.38 5.28-14.54 34.84-14.26 27.021-40.93 89.38-4.42 138.061.98-34.641 9.25-69.971 23.14-103.021 20.23-45.85 62.54-125.38 65.9-188.76 1.74 1.26 7.69 5.28 10.34 6.79.01.01.01.01.02.01 7.76 4.57 13.59 11.25 21.14 17.32 7.57 6.08 17.02 11.33 31.3 12.16 1.37.08 2.71.12 4.02.12 14.72 0 26.2-4.8 35.76-10.27 10.391-5.94 18.69-12.52 26.561-15.08.01-.01.02-.01.03-.01 16.63-5.2 29.84-14.4 37.359-25.12 12.92 50.92 42.96 124.47 62.271 160.36 10.27 19.04 30.689 59.5 39.51 108.25 5.59-.171 11.75.64 18.34 2.329 23.07-59.81-19.56-124.22-39.06-142.16-7.87-7.64-8.25-11.06-4.34-10.9 21.14 18.71 48.909 56.32 59.01 98.78 4.609 19.359 5.59 39.72.649 59.81 2.41 1 4.87 2.09 7.36 3.271 37.03 18.029 50.72 33.709 44.14 55.109z" id="path13" fill="#FFF"/>
  <path d="M434.51 174.03c.08 10.09-1.66 18.68-5.49 27.45-2.18 5-4.689 9.2-7.699 12.84-1.021-.49-2.08-.96-3.181-1.41-3.81-1.63-7.18-2.97-10.199-4.11-3.021-1.14-5.378-1.919-7.809-2.759 1.761-2.13 5.23-4.64 6.521-7.79 1.96-4.75 2.92-9.39 3.1-14.92 0-.22.07-.41.07-.67.11-5.3-.59-9.83-2.14-14.47-1.62-4.87-3.68-8.37-6.66-11.28-2.99-2.91-5.97-4.23-9.55-4.35-.17-.01-.33-.01-.5-.01-3.36.01-6.28 1.17-9.3 3.69-3.17 2.65-5.52 6.04-7.48 10.76-1.95 4.72-2.91 9.4-3.1 14.96-.03.22-.03.41-.03.63-.07 3.06.13 5.86.6 8.58-6.88-3.43-15.682-5.931-21.762-7.381-.35-2.63-.55-5.34-.61-8.18v-.77c-.11-10.06 1.54-18.69 5.41-27.45 3.87-8.77 8.66-15.07 15.399-20.2 6.75-5.12 13.381-7.47 21.23-7.55h.37c7.68 0 14.25 2.26 21 7.15 6.85 4.98 11.79 11.2 15.77 19.9 3.9 8.48 5.78 16.77 5.971 26.6-.001.26-.001.48.069.74z" id="path15" fill="#fff"/>
  <path d="M318.43 184.08c-1.01.29-1.99.6-2.96.93-5.5 1.9-9.867 3.997-14.087 6.787.41-2.92.47-5.88.15-9.19-.03-.18-.03-.33-.03-.51-.44-4.39-1.37-8.07-2.92-11.79-1.65-3.87-3.5-6.6-5.93-8.7-2.2-1.9-4.28-2.78-6.58-2.76-.23 0-.47.01-.71.03-2.58.22-4.72 1.48-6.75 3.95-2.02 2.46-3.35 5.52-4.31 9.58-.96 4.05-1.21 8.03-.81 12.6 0 .18.04.33.04.51.44 4.43 1.33 8.11 2.91 11.83 1.62 3.83 3.5 6.56 5.93 8.66.41.35.81.67 1.21.95-2.52 1.95-4.213 3.333-6.293 4.853-1.33.97-2.91 2.13-4.75 3.49-4.01-3.76-7.14-8.48-9.88-14.71-3.24-7.36-4.97-14.73-5.49-23.43v-.07c-.48-8.7.37-16.18 2.76-23.92 2.4-7.74 5.6-13.34 10.25-17.94 4.64-4.61 9.32-6.93 14.96-7.22.44-.02.87-.03 1.3-.03 5.11.01 9.67 1.71 14.39 5.48 5.12 4.09 8.99 9.32 12.23 16.69 3.25 7.37 4.98 14.74 5.46 23.44v.07c.23 3.65.2 7.09-.09 10.42z" id="path17" fill="#fff"/>
  <path id="path28396-7" d="M344.087 204.89c.646 2.076 3.993 1.732 5.926 2.728 1.696.873 3.06 2.789 4.968 2.844 1.82.052 4.654-.63 4.89-2.437.313-2.385-3.17-3.901-5.412-4.775-2.885-1.125-6.58-1.696-9.287-.19-.62.344-1.296 1.152-1.085 1.83z" fill="#202020"/>
  <path d="M324.322 204.89c-.647 2.076-3.993 1.732-5.926 2.728-1.696.873-3.06 2.789-4.968 2.844-1.82.052-4.654-.63-4.89-2.437-.314-2.385 3.17-3.901 5.412-4.775 2.885-1.125 6.58-1.696 9.286-.19.62.344 1.297 1.152 1.086 1.83z" id="path5461" fill="#202020"/>
</svg>
