<svg xmlns="http://www.w5.org/2000/svg" viewBox="0 0 280 260">
  <title>Mastodon</title>
  <defs>
    <clipPath id="mastodon-icon-a" clipPathUnits="userSpaceOnUse">
      <path d="M-5-5h226.415v242.01H-5ZM65.687 96.46c0-9.014-7.307-16.323-16.322-16.323-9.014 0-16.32 7.309-16.32 16.322 0 9.014 7.306 16.322 16.32 16.322 9.015 0 16.322-7.308 16.322-16.322m58.842 0c0-9.013-7.309-16.322-16.323-16.322-9.013 0-16.32 7.309-16.32 16.322 0 9.014 7.307 16.322 16.32 16.322 9.014 0 16.323-7.308 16.323-16.322m58.84 0c0-9.013-7.307-16.322-16.32-16.322-9.015 0-16.322 7.309-16.322 16.322 0 9.014 7.307 16.322 16.321 16.322 9.014 0 16.321-7.308 16.321-16.322" class="powerclip" style="fill-rule:evenodd"/>
    </clipPath>
  </defs>
  <path d="M211.807 139.088c-3.183 16.366-28.493 34.277-57.563 37.748-15.16 1.809-30.082 3.471-45.998 2.741-26.028-1.192-46.565-6.212-46.565-6.212 0 2.534.156 4.946.468 7.202 3.384 25.687 25.47 27.225 46.393 27.943 21.115.723 39.916-5.206 39.916-5.206l.869 19.09s-14.77 7.931-41.081 9.39c-14.51.797-32.524-.365-53.507-5.919C9.232 213.82 1.406 165.311.21 116.091c-.365-14.613-.14-28.393-.14-39.918 0-50.33 32.975-65.083 32.975-65.083C49.671 3.454 78.204.242 107.864 0h.73c29.66.242 58.21 3.454 74.837 11.09 0 0 32.976 14.752 32.976 65.082 0 0 .412 37.134-4.6 62.916" clip-path="url(#mastodon-icon-a)"/>
</svg>


