<svg viewBox="0 0 602 734" xmlns="http://www.w3.org/2000/svg">
  <title>neovim</title>
  <defs>
    <linearGradient id="a" x1="50%" x2="50%" y1="0%" y2="100%">
      <stop offset="0%" stop-color="#16B0ED" stop-opacity=".8"/>
      <stop offset="100%" stop-color="#0F59B2" stop-opacity=".837"/>
    </linearGradient>
    <linearGradient id="b" x1="50%" x2="50%" y1="0%" y2="100%">
      <stop offset="0%" stop-color="#7DB643"/>
      <stop offset="100%" stop-color="#367533"/>
    </linearGradient>
    <linearGradient id="c" x1="50%" x2="50%" y1="0%" y2="100%">
      <stop offset="0%" stop-color="#88C649" stop-opacity=".8"/>
      <stop offset="100%" stop-color="#439240" stop-opacity=".84"/>
    </linearGradient>
  </defs>
  <g fill="none" fill-rule="evenodd">
    <path fill="url(#a)" d="M0 155.57 155-1v728L0 572.238V155.57Z" transform="translate(2 3)"/>
    <path fill="url(#b)" d="M443.06 156.982 600-1l-3.181 728L442 572.22l1.06-415.238Z" transform="matrix(-1 0 0 1 1044 3)"/>
    <path fill="url(#c)" d="M154.986 0 558 615.19 445.225 728 42 114.172 154.986 0Z" transform="translate(2 3)"/>
    <path fill="#000" fill-opacity=".13" d="M157 286.832 156.787 311 33 127.71 44.462 116 157 286.832Z"/>
  </g>
</svg>

