<svg xmlns="http://www.w3.org/2000/svg" viewBox="0 0 20 20">
  <g style="display:inline">
    <path d="M7 0h7v1H7z" style="fill:#302020;fill-opacity:1;stroke:#000;stroke-width:0"/>
    <path d="M8 1h1v1H8zM10 1h1v1h-1zM13 1h1v1h-1zM6 7h2v2H6zM5 8h1v1H5zM9 7h3v3H9zM8 9h1v1H8zM12 9h1v1h-1zM13 7h2v2h-2zM15 8h1v1h-1zM16 7h1v2h-1zM4 11h1v2H4zM5 12h1v2H5zM7 12h2v1H7zM10 12h2v1h-2zM12 11h1v1h-1zM3 14h2v1H3zM5 15h1v2H5zM4 16h1v1H4zM7 14h2v1H7zM15 17h1v2h-1zM14 18h1v1h-1z" style="fill:#f0b090;fill-opacity:1;stroke:#000;stroke-width:0"/>
    <path d="M4 7h1v2H4zM6 6h3v1H6zM7 5h1v1H7zM12 5h2v2h-2zM11 6h1v1h-1zM15 9h1v1h-1zM12 12h1v1h-1zM5 9h1v1H5zM10 13h1v1h-1zM8 15h1v1H8zM6 16h2v1H6zM3 15h1v1H3z" style="fill:#c89878;fill-opacity:1;stroke:#000;stroke-width:0"/>
    <path d="M3 2h1v2H3zM4 2h3v1H4zM6 1h1v1H6zM9 1h1v1H9zM11 1h2v1h-2zM14 1h2v1h-2zM8 2h1v2H8zM13 2h1v1h-1zM14 3h1v2h-1zM16 2h1v1h-1zM17 3h1v2h-1zM14 5h3v2h-3zM15 7h1v1h-1zM17 6h1v3h-1zM4 4h1v1H4zM4 5h3v1H4zM8 5h4v1H8zM9 6h2v1H9zM3 6h1v3H3zM4 6h2v1H4zM5 7h1v1H5zM8 7h1v2H8zM12 7h1v2h-1zM4 9h1v1H4zM4 10h2v1H4zM5 11h3v1H5zM3 11h1v3H3zM4 13h1v1H4zM8 10h5v1H8zM11 11h1v1h-1zM9 11h1v1H9zM16 9h1v1h-1zM15 10h1v1h-1zM14 11h1v1h-1zM13 12h1v1h-1zM14 13h1v2h-1zM15 14h1v2h-1zM16 16h1v2h-1zM16 18h1v1h-1zM4 17h4v1H4zM5 18h1v1H5zM2 14h1v2H2zM3 16h1v1H3zM4 15h1v1H4zM5 14h2v1H5zM6 15h2v1H6zM8 16h1v1H8zM9 15h1v1H9zM9 14h1v1H9zM11 13h2v1h-2zM9 12h1v2H9zM6 13h3v1H6zM6 12h1v1H6z" style="opacity:1;fill:#302020;fill-opacity:1;stroke:#000;stroke-width:0"/><path d="M13 16h1v1h-1z" style="opacity:1;fill:#7171f0;fill-opacity:1;stroke:#000;stroke-width:0"/>
    <path d="M13 16h1v1h-1z" style="display:inline;fill:#302020;fill-opacity:1;stroke:#000;stroke-width:0"/><path d="M9 16h4v1H9zM13 15h2v1h-2zM15 16h1v1h-1zM10 14h3v1h-3zM13 13h1v1h-1zM6 18h7v1H6zM5 3h3v1H5zM6 4h5v1H6z" style="opacity:1;fill:#7171f0;fill-opacity:1;stroke:#000;stroke-width:0"/>
    <path d="M8 17h6v1H8zM10 15h3v1h-3zM13 14h1v1h-1zM14 16h1v1h-1z" style="opacity:1;fill:#e0d020;fill-opacity:1;stroke:#000;stroke-width:0"/><path d="M6 9h2v2H6zM13 9h2v2h-2zM13 11h1v1h-1z" style="opacity:1;fill:#f09090;fill-opacity:1;stroke:#000;stroke-width:0"/>
    <path d="M10 11h1v1h-1zM7 1h1v2H7zM14 2h2v1h-2zM15 3h2v2h-2zM11 4h3v1h-3zM9 3h5v1H9zM10 2h3v1h-3z" style="opacity:1;fill:#f00060;fill-opacity:1;stroke:#000;stroke-width:0"/><path d="M8 11h1v1H8zM14 17h1v1h-1z" style="opacity:1;fill:#f0f0f0;fill-opacity:1;stroke:#000;stroke-width:0"/>
    <path d="M13 18h1v1h-1z" style="opacity:1;fill:#302020;fill-opacity:1;stroke:#000;stroke-width:0"/><path d="M4 3h1v1H4z" style="opacity:1;fill:#c8c8c8;fill-opacity:1;stroke:#000;stroke-width:0"/>
    <path d="M5 4h1v1H5z" style="opacity:1;fill:#507060;fill-opacity:1;stroke:#000;stroke-width:0"/><path d="M9 2h1v1H9z" style="opacity:1;fill:#f0b090;fill-opacity:1;stroke:#000;stroke-width:0"/>
  </g>
</svg>

