---
title: NoSQL
---
<svg xmlns="http://www.w3.org/2000/svg" viewBox="0 0 1000 1000">
  <path d="M500 10C255.3 10 63.6 138 63.6 301.4v385.9c0 1.3.6 1.9.6 3.2 0 2.5-.6 5.7-.6 8.2C63.6 862 255.3 990 500 990s436.4-128 436.4-291.4c0-2.5-.6-5.7-.6-8.2 0-1.3.6-1.9.6-2.5V302c0-164-191.7-292-436.4-292zM160.1 500c0-3.8 1.3-7.6 1.9-11.4 79.5 64.3 199.9 104.7 337.4 104.7 137.5 0 258.6-40.4 338-105.3.6 3.8 1.3 8.2 1.3 12 0 105.3-155.1 194.2-339.3 194.2-183.5.7-339.3-88.9-339.3-194.2zM500 107.1c184.2 0 339.3 88.9 339.3 194.2 0 105.3-155.1 194.2-339.3 194.2-184.2 0-339.3-88.9-339.3-194.2 0-105.3 155.2-194.2 339.3-194.2zm0 785.8c-184.2 0-339.3-88.9-339.3-194.2 0-3.8 1.3-7.6 1.9-11.4 79.5 64.3 199.9 104.7 338 104.7 137.5 0 258.6-40.4 338-104.7.6 3.8 1.9 7.6 1.9 12-1.2 104.7-157 193.6-340.5 193.6z"/>
</svg>

