<svg xmlns="http://www.w3.org/2000/svg" viewBox="0 0 512.001 512.001">
  <title>Print</title>
  <path d="M462.184 105.966h-32.378V49.771c0-10.345-8.387-18.732-18.732-18.732H100.925c-10.345 0-18.732 8.387-18.732 18.732v56.195H49.816C22.348 105.966 0 128.315 0 155.783v214.924c0 27.468 22.348 49.816 49.816 49.816h32.382v41.707c0 10.345 8.387 18.732 18.732 18.732h310.141c10.345 0 18.732-8.387 18.732-18.732v-41.707h32.382c27.468 0 49.816-22.348 49.816-49.816V155.783c-.001-27.468-22.349-49.817-49.817-49.817zM119.657 68.503h272.685v37.463H119.657V68.503zm.004 374.996V306.45h272.677l.001 137.049H119.661zm354.877-72.792h-.001c0 6.811-5.542 12.353-12.353 12.353h-32.382v-76.61h.056c10.345 0 18.732-8.387 18.732-18.732s-8.387-18.732-18.732-18.732H82.141c-10.345 0-18.732 8.387-18.732 18.732s8.387 18.732 18.732 18.732h.056v76.61H49.816c-6.811 0-12.353-5.542-12.353-12.353V155.783c0-6.811 5.542-12.353 12.353-12.353h412.369c6.811 0 12.353 5.542 12.353 12.353v214.924z"/>
  <circle cx="89.188" cy="195.161" r="20.729"/>
  <circle cx="143.085" cy="195.161" r="20.729"/>
  <path d="M303.089 382.548h-93.155c-10.345 0-18.732 8.387-18.732 18.732s8.387 18.732 18.732 18.732h93.155c10.345 0 18.732-8.387 18.732-18.732s-8.387-18.732-18.732-18.732zM349.109 325.767H163.915c-10.345 0-18.732 8.387-18.732 18.732 0 10.345 8.387 18.732 18.732 18.732h185.194c10.345 0 18.732-8.387 18.732-18.732 0-10.345-8.387-18.732-18.732-18.732z"/>
</svg>

