---
title: REST
---
<svg xmlns="http://www.w3.org/2000/svg" viewBox="0 0 50 50">
  <path d="M21.813 2c-.95 0-1.782.662-1.97 1.594l-.437 2.219c-3.1.9-5.93 2.526-8.25 4.75l-2.125-.72a2.017 2.017 0 0 0-2.375.907L3.5 16.25a2.002 2.002 0 0 0 .406 2.5l1.688 1.5A19.84 19.84 0 0 0 5 25c0 1.572.202 3.16.594 4.75l-1.688 1.5a2.003 2.003 0 0 0-.406 2.5l3.156 5.5a2.01 2.01 0 0 0 2.375.906l2.125-.718a19.955 19.955 0 0 0 8.25 4.75l.438 2.218A2.008 2.008 0 0 0 21.812 48h6.375c.95 0 1.782-.662 1.97-1.594l.437-2.218a19.932 19.932 0 0 0 8.25-4.75l2.125.718c.902.306 1.868-.084 2.343-.906l3.188-5.5a2 2 0 0 0-.406-2.5l-1.688-1.5c.392-1.588.594-3.176.594-4.75a19.79 19.79 0 0 0-.594-4.75l1.688-1.5a2.002 2.002 0 0 0 .406-2.5l-3.156-5.5a2.012 2.012 0 0 0-2.375-.906l-2.125.719a19.954 19.954 0 0 0-8.25-4.75l-.438-2.22A2.004 2.004 0 0 0 28.188 2h-6.375zM16.5 18c.439 0 .84.299.969.719l3.5 11.375c.029.095.031.212.031.312V31a1 1 0 1 1-2 0v-.469L18.531 29H14.47L14 30.531V31a1 1 0 1 1-2 0v-.594c0-.1.002-.216.031-.312l3.5-11.375c.13-.42.53-.719.969-.719zm7.5 0h4c1.654 0 3 1.346 3 3v3c0 1.654-1.346 3-3 3h-3v4a1 1 0 1 1-2 0V19a1 1 0 0 1 1-1zm10 0h2a1 1 0 1 1 0 2v10a1 1 0 1 1 0 2h-2a1 1 0 1 1 0-2V20a1 1 0 1 1 0-2zm-9 2v5h3c.552 0 1-.449 1-1v-3c0-.551-.448-1-1-1h-3zm-8.5 2.406L15.094 27h2.812L16.5 22.406z"/>
</svg>

