<svg xmlns="http://www.w3.org/2000/svg" xml:space="preserve" viewBox="0 0 1000 1000">
  <path d="M10 908.3c0 45.1 36.5 81.7 81.7 81.7h816.7c45.1 0 81.7-36.5 81.7-81.7V91.6c0-45.1-36.5-81.7-81.7-81.7H91.7C46.5 10 10 46.5 10 91.7v816.6zm796.2-173.5c0 28.2-22.9 51-51 51s-51-22.9-51-51c0-231.1-187.4-418.5-418.5-418.5-28.2 0-51-22.9-51-51s22.9-51 51-51c151.5 0 275.8 52.3 373.4 149.9 100 99.9 147.1 224 147.1 370.6zm-183.7 0c0 28.2-22.9 51-51 51-28.2 0-51-22.9-51-51 0-129.6-105.1-234.8-234.8-234.8-28.2 0-51-22.9-51-51 0-28.2 22.9-51 51-51 185.9-.1 336.8 150.8 336.8 336.8zM234.6 694c0-50.8 41-91.9 91.9-91.9s91.9 41 91.9 91.9c0 50.8-41 91.9-91.9 91.9s-91.9-41.1-91.9-91.9z"/>
</svg>
