<svg xmlns="http://www.w3.org/2000/svg" version="1.0" viewBox="0 0 402.73 383.32">
  <title>Scania</title>
  <path d="M-749.06 21.446c-11.115 10.475-19.78 24.692-22.782 39.735 24.768 25.884 42.555 56.31 52.45 90.774 14.765 4.704 30.9 4.615 45.74.177 9.496-34.044 27.801-65.638 52.452-90.95-3.37-15.083-11.368-29.12-22.782-39.56-34.337 8.686-70.788 8.677-105.079-.176" style="fill:#06185d;fill-opacity:1;fill-rule:evenodd;stroke:none" transform="matrix(2.392 0 0 2.392 1867.662 -8.768)"/>
  <path d="m-768.84 58.179 1.06 3.885c3.375-14.42 10.757-27.488 21.722-37.44l-5.828-6.357c-5.925 5.648-10.97 11.897-15.188 18.896-1.91 3.626-3.95 7.232-5.298 11.126l-1.06 2.826-.53 1.59-.53 1.412-.353 1.413-.53 1.59-.353 1.589-.353 1.413 1.06 3.885-1.06-3.885-.53 2.295 1.59 1.59" style="fill:#06185d;fill-opacity:1;fill-rule:nonzero;stroke:none" transform="matrix(2.392 0 0 2.392 1867.662 -8.768)"/>
  <path d="m-718.155 147.893 2.825 2.826c-10.013-35-28.224-66.37-53.51-92.54l-6.181 5.828c11.9 12.46 22.534 26.175 31.082 41.148 4.341 7.468 8.33 15.159 11.656 23.135l1.236 3.002 1.236 3.18 1.236 3.002 1.06 3.002 2.12 6.358.882 3.002.883 3.355 2.826 2.826-2.826-2.826.707 2.12 2.119.706" style="fill:#06185d;fill-opacity:1;fill-rule:nonzero;stroke:none" transform="matrix(2.392 0 0 2.392 1867.662 -8.768)"/>
  <path d="M-696.61 151.249c-8.05-.239-13.804-.978-21.545-3.356l-2.65 8.124c7.633 2.36 16.207 3.782 24.195 3.709M-677.713 150.895l2.826-3.002c-6.467 2.508-14.823 3.097-21.723 3.356v8.477c4.142.076 8.257-.354 12.363-.883l1.589-.177 1.59-.353 1.412-.353 1.413-.177 1.59-.353 1.412-.53 2.826-.707 2.826-3.002-2.826 3.002 2.296-.706.53-2.296" style="fill:#06185d;fill-opacity:1;fill-rule:nonzero;stroke:none" transform="matrix(2.392 0 0 2.392 1867.662 -8.768)"/>
  <path d="m-625.439 62.064 1.06-3.885c-25.198 26.131-43.497 57.76-53.334 92.716l8.124 2.296c5.106-17.498 11.361-32.177 20.309-48.036 4.37-7.435 9.172-14.614 14.305-21.545l1.942-2.473 2.12-2.649 1.942-2.472 2.12-2.473 2.119-2.295 2.119-2.473 2.296-2.296 2.119-2.472 1.06-3.885-1.06 3.885 1.59-1.59-.53-2.295" style="fill:#06185d;fill-opacity:1;fill-rule:nonzero;stroke:none" transform="matrix(2.392 0 0 2.392 1867.662 -8.768)"/>
  <path d="m-642.922 25.684-3.886-.883c10.361 9.104 18.64 23.78 21.37 37.263l8.3-1.942c-1.649-8.036-4.854-15.636-8.83-22.782-1.787-2.902-4.527-7.582-6.888-9.89l-.883-1.236-1.06-1.236-.883-1.06-1.06-1.236-4.238-4.239-4.062-.883 4.062.883-1.766-1.413-2.296.53" style="fill:#06185d;fill-opacity:1;fill-rule:nonzero;stroke:none" transform="matrix(2.392 0 0 2.392 1867.662 -8.768)"/>
  <path d="M-696.61 32.395c18.079-.035 36.19-2.12 53.688-6.711l-2.12-8.124c-17.348 4.256-33.74 6.14-51.568 6.358" style="fill:#06185d;fill-opacity:1;fill-rule:nonzero;stroke:none" transform="matrix(2.392 0 0 2.392 1867.662 -8.768)"/>
  <path d="m-746.058 24.624-3.886 1.06c17.46 4.194 35.356 6.8 53.334 6.71v-8.476c-8.965-.156-17.221-.648-26.137-1.766-4.241-.68-8.553-1.11-12.715-2.12l-1.59-.176-3.179-.706-1.412-.354-6.358-1.412-3.885.883 3.885-.883-2.12-.53-1.765 1.413" style="fill:#06185d;fill-opacity:1;fill-rule:nonzero;stroke:none" transform="matrix(2.392 0 0 2.392 1867.662 -8.768)"/>
  <path d="M-762.66 78.135c.13-36.616 29.432-65.835 66.05-66.05 36.336.006 66.359 29.658 66.05 66.05.515 36.31-29.875 66.258-66.05 66.226-36.427-.153-66.158-29.731-66.05-66.226" style="fill:#06185d;fill-opacity:1;fill-rule:evenodd;stroke:none" transform="matrix(2.392 0 0 2.392 1867.662 -8.768)"/>
  <path d="M-696.61 7.847c-38.776.009-70.308 31.524-70.288 70.288h8.477c.206-34.17 27.598-61.655 61.811-61.811M-626.145 78.135c-.362-38.97-31.415-70.22-70.465-70.288v8.477c34.008-.035 62.006 27.76 61.811 61.811" style="fill:#06185d;fill-opacity:1;fill-rule:nonzero;stroke:none" transform="matrix(2.392 0 0 2.392 1867.662 -8.768)"/>
  <path d="M-696.61 148.6c39.312-.28 70.07-31.27 70.465-70.465h-8.654c.38 33.967-27.83 62.188-61.81 61.811M-766.898 78.135c.003 38.914 31.28 70.28 70.288 70.465v-8.654c-34.049.297-61.875-27.868-61.81-61.811" style="fill:#06185d;fill-opacity:1;fill-rule:nonzero;stroke:none" transform="matrix(2.392 0 0 2.392 1867.662 -8.768)"/>
  <path d="M-771.136 61.358h-1.06 2.12-1.06M-749.414 22.858l.707.354h.176v-2.12h-.176l.883.354h-.177" style="fill:#000;fill-opacity:1;fill-rule:nonzero;stroke:none" transform="matrix(2.392 0 0 2.392 1867.662 -8.768)"/>
  <path d="m-770.253 59.592.53 1.942c3.385-15.031 11.12-27.97 22.252-38.5l-3.003-3.178c-5.995 5.551-10.652 11.344-14.834 18.367-2.11 3.867-3.538 6.731-5.298 10.773l-.53 1.412-.353 1.413-.53 1.413-.53 1.59-.353 1.412-.53 1.413-.353 1.59-.353 1.412.53 1.943-.53-1.943v1.06l.353.706.53.53.883.353h.883l.706-.176.53-.707.53-.883" style="fill:#cdcdcd;fill-opacity:1;fill-rule:nonzero;stroke:none" transform="matrix(2.392 0 0 2.392 1867.662 -8.768)"/>
  <path d="m-718.862 149.836 1.59 1.59c-9.964-34.86-27.865-65.706-52.981-91.834l-3.355 3.002c11.961 12.303 22.855 26.638 31.435 41.502 4.427 7.579 8.259 15.482 11.832 23.488l2.473 6.004 1.06 3.18 1.235 3.178 1.06 3.002 1.06 3.18 1.766 6.357 1.59 1.59-1.59-1.59c1.357 3.111 4.83 1.525 4.415-1.06" style="fill:#cdcdcd;fill-opacity:1;fill-rule:nonzero;stroke:none" transform="matrix(2.392 0 0 2.392 1867.662 -8.768)"/>
  <path d="M-696.61 153.191c-7.538.012-15.034-1.18-22.252-3.355l-1.236 4.238c7.573 2.408 15.538 3.653 23.488 3.532M-675.77 151.425l1.412-1.413c-7.232 2.096-14.705 3.353-22.252 3.18v4.414c3.55-.003 8.622.047 12.01-.883l1.589-.176 1.413-.177 1.412-.353 1.59-.353 5.651-1.413 1.413-1.59-1.413 1.59.883-.53.53-.706.177-.883-.177-.707-.353-.706-.53-.53-.883-.353-1.06.176" style="fill:#cdcdcd;fill-opacity:1;fill-rule:nonzero;stroke:none" transform="matrix(2.392 0 0 2.392 1867.662 -8.768)"/>
  <path d="m-623.32 61.534.53-1.942c-25.036 25.49-43.24 57.49-52.98 91.833l4.238 1.236c4.842-16.93 11.709-33.413 20.663-48.565 4.153-7.43 9.233-14.885 14.304-21.722l1.943-2.65 2.12-2.472 1.942-2.472 4.238-4.945 2.296-2.473 2.12-2.296 2.295-2.472.53-1.943-.53 1.943.53-.706.177-.883-.354-.707-.53-.706-.53-.53-.882-.177-.883.177-.707.53" style="fill:#cdcdcd;fill-opacity:1;fill-rule:nonzero;stroke:none" transform="matrix(2.392 0 0 2.392 1867.662 -8.768)"/>
  <path d="m-643.452 23.741-1.943-.53c11.356 10.797 18.305 23.118 22.076 38.323l4.238-.883c-1.716-7.808-4.603-15.352-8.654-22.252-1.857-3.496-4.27-6.613-6.71-9.713l-.883-1.236-.883-1.06-1.06-1.236-1.06-1.06-.883-1.06-2.119-2.118-1.06-.883-2.119-.53 2.12.53-.884-.53-.883-.177-.706.353-.706.53-.53.707-.177.706.177.883.706.707" style="fill:#cdcdcd;fill-opacity:1;fill-rule:nonzero;stroke:none" transform="matrix(2.392 0 0 2.392 1867.662 -8.768)"/>
  <path d="M-696.61 30.276c17.896.112 35.839-2.067 53.158-6.535l-1.06-4.238c-17.033 4.241-34.54 6.437-52.098 6.358M-747.471 23.035l-2.12.53c16.84 4.37 35.574 6.91 52.981 6.71v-4.414c-8.794.053-17.622-.492-26.313-1.766-4.292-.345-8.654-1.172-12.892-1.943-4.804-.536-9.931-3.34-14.659-2.296l1.943-.53h-.883l-.883.177-.53.706-.353.707v.883l.177.706.53.707.882.353" style="fill:#cdcdcd;fill-opacity:1;fill-rule:nonzero;stroke:none" transform="matrix(2.392 0 0 2.392 1867.662 -8.768)"/>
  <path d="M-696.61 9.966c-37.522-.306-68.274 30.7-68.345 68.169h4.592c-.312-34.932 28.839-64.057 63.753-63.754M-628.264 78.135c.238-37.37-30.944-68.634-68.346-68.169v4.415c35.094-.273 63.987 28.704 63.93 63.754" style="fill:#cdcdcd;fill-opacity:1;fill-rule:nonzero;stroke:none" transform="matrix(2.392 0 0 2.392 1867.662 -8.768)"/>
  <path d="M-696.61 146.48c37.652.174 68.531-30.67 68.346-68.345h-4.415c.17 35.1-28.872 64.192-63.93 63.93M-764.955 78.135c.183 37.92 30.579 68.313 68.345 68.345v-4.415c-34.988.221-64.11-28.883-63.753-63.93" style="fill:#cdcdcd;fill-opacity:1;fill-rule:nonzero;stroke:none" transform="matrix(2.392 0 0 2.392 1867.662 -8.768)"/>
  <path d="M-719.568 75.84c2.32-.275 3.426-.298 5.651.529 1.675.574 3.291 1.651 4.239 3.179-9.198-5.351-21.463 9.887-28.61-6.181 4.865 3.655 13.107 4.22 18.72 2.472" style="fill:#d90033;fill-opacity:1;fill-rule:evenodd;stroke:none" transform="matrix(2.392 0 0 2.392 1867.662 -8.768)"/>
  <path d="m-710.031 80.607 1.412-1.589c-2.457-3.706-6.902-4.865-11.126-4.238l.354 2.295c3.19-.677 7.064.245 8.83 3.18l1.413-1.59-1.413 1.59.353.352h.883l.353-.176.353-.177.177-.353v-.53l-.177-.353" style="fill:#cdcdcd;fill-opacity:1;fill-rule:nonzero;stroke:none" transform="matrix(2.392 0 0 2.392 1867.662 -8.768)"/>
  <path d="M-735.462 79.548v-.177c8.483 7.606 16.871-3.267 25.43 1.236l.884-1.942c-8.978-5.154-17.428 5.61-25.078-1.06l.177.177-.53-.353h-.353l-.354.176-.353.177-.176.353-.177.53.177.353.353.353" style="fill:#cdcdcd;fill-opacity:1;fill-rule:nonzero;stroke:none" transform="matrix(2.392 0 0 2.392 1867.662 -8.768)"/>
  <path d="m-737.582 72.484-1.766 1.413c1.684 2.772 1.087 3.09 3.886 5.65l1.236-1.942c-1.486-1.224-2.249-2.828-3.002-4.591l-1.766 1.236 1.766-1.236-.354-.53-.353-.177h-.353l-.53.177-.176.176-.354.354v.883" style="fill:#cdcdcd;fill-opacity:1;fill-rule:nonzero;stroke:none" transform="matrix(2.392 0 0 2.392 1867.662 -8.768)"/>
  <path d="M-719.745 74.78h-.176l-1.943.53-1.942.176-1.767.177h-1.766l-1.589-.177-2.826-.353-1.236-.353-1.06-.354-.882-.353-.883-.53-.53-.353-.707-.176-.353-.354h-.177v-.176l-1.412 1.766c5.207 3.856 13.477 4.62 19.603 2.649v.176-.176l.53-.177.176-.353.177-.353v-.353l-.177-.354-.353-.353-.353-.176h-.53" style="fill:#cdcdcd;fill-opacity:1;fill-rule:nonzero;stroke:none" transform="matrix(2.392 0 0 2.392 1867.662 -8.768)"/>
  <path d="M-708.795 59.768c-.869.783-1.955 2.07-2.296 3.18h-.177l-.353-.177-.53-.354-1.766-.706-1.236-.353-1.06-.177h-1.412c-5.528.086-8.442 6.902-9.184 11.48 3.214-2.09 7.9-4.333 11.48-1.767v.177h.176l.177.177.176.353.353.176.177.354c1.074 1.115 1.687 1.092 2.826 1.942 1.336.73 3.523.94 4.945 1.766 1.474.995 2.069.795 1.942 2.65-5.513 5.939-9.35 7.67-16.6 4.59v.354l.176.353v.354l.177.353c.073 1.41 1.104 2.59 2.296 3.355 1.827.977 3.567 1.378 5.65 1.236l.354.177h.707l.53-.177h1.236-.177l-.353.177-.353.177-.707.353-.706.53-.707.53-1.59 1.589c-2.698 3.455-3.154 6.993-1.589 11.126 1.908-2.367 4.257-4.218 7.241-5.122h-.176v.177l-.177.177-.177.176-.176.353-.353.354-.177.353-.353.53c-1.272 2.407-1.369 2.775-2.12 5.474-1.168 6.876 1.949 12.206 7.065 16.601.12-4.174.82-11.397 4.061-14.305v.177l.177.176v.53l.177.53.176.706.177.883.176.883c.686 3.515.798 5.09.707 8.654v1.06l-.177.353v1.413l-.176.53c-.07 1.498-.436 2.528-1.06 3.885 11.441-.872 14.735-10.367 12.01-20.663v.177c.859-.112 2.69 1.516 3.178 2.119 2.29 2.534 2.602 6.113 2.12 9.36l.176-.177.53-.176.706-.53.883-.53 3.002-3.002 1.06-1.413c3.82-5.486 2.455-12.206-1.06-17.484 3.977.639 6.276 2.89 7.418 6.888v-.177l.176-.176.177-.177.53-1.06.176-.53c.403-1.477 1.366-4.238 1.236-5.65.766-6.347-2.831-12.601-7.594-16.601l.177-.177h2.65c1.942.374 3.864 1.257 4.944 3.002-.327-5.742-4.132-11.635-9.36-14.128-3.305-1.61-3.59-6.676-6.004-8.124-5.248-2.599-20.575-4.223-24.548.883" style="fill:#d90033;fill-opacity:1;fill-rule:evenodd;stroke:none" transform="matrix(2.392 0 0 2.392 1867.662 -8.768)"/>
  <path d="m-711.62 64.007 1.589-.707.176-.353.177-.53.353-.353.353-.53.883-.883-1.413-1.59h-.176l-.177.178-.883.883-.353.53-.353.706-.353.53-.354.883 1.766-.707-1.236 1.943 1.236.883.354-1.59" style="fill:#cdcdcd;fill-opacity:1;fill-rule:nonzero;stroke:none" transform="matrix(2.392 0 0 2.392 1867.662 -8.768)"/>
  <path d="m-727.515 71.777 1.766 1.06c.853-4.403 3.037-10.272 8.3-10.596h1.06l1.06.176 1.06.354.882.353.706.353.53.177.354.176.176.177 1.236-1.943h-.176l-.53-.353-.706-.353-.884-.353-2.119-.707-1.413-.176h-1.412c-6.314.209-9.293 7.075-10.42 12.362l1.766 1.06-1.766-1.06-.53 2.825 2.296-1.766" style="fill:#cdcdcd;fill-opacity:1;fill-rule:nonzero;stroke:none" transform="matrix(2.392 0 0 2.392 1867.662 -8.768)"/>
  <path d="M-714.447 70.188c-1.877-1.751-5.295-2.102-7.593-1.06l-1.06.353-1.766.707-1.413.706-.53.354-.353.353h-.177l-.176.176 1.236 1.766h.177l.176-.176.353-.177 1.06-.706 2.12-1.06c1.954-.406 4.685-1.165 6.357.353l-.353-.353" style="fill:#cdcdcd;fill-opacity:1;fill-rule:nonzero;stroke:none" transform="matrix(2.392 0 0 2.392 1867.662 -8.768)"/>
  <path d="M-709.148 73.72c-2.729-.639-1.884-.93-3.71-1.766l-.352-.353-.177-.353-.353-.177-.177-.177-.176-.353-.177-.176h-.177v-.177l-1.942 1.236.176.177.177.353.177.177.353.176.176.353.354.354.353.353c1.651 1.154 2.952 2.01 4.945 2.472M-703.497 78.841l.176-.706-.176-.353v-.353l-.177-.883-.53-.707-.706-.53-1.06-.53-1.412-.53-1.766-.529-.53 2.12 1.59.529 1.235.53.707.353.53.53v.883l.176-.707 1.943.883.176-.353v-.353" style="fill:#cdcdcd;fill-opacity:1;fill-rule:nonzero;stroke:none" transform="matrix(2.392 0 0 2.392 1867.662 -8.768)"/>
  <path d="M-709.148 83.963c.994-.662 5.477-3.785 5.65-5.122l-1.942-.883h-.176l-.177.53-.353.353-.707.53-.883.707-1.06.883-1.589 1.06" style="fill:#cdcdcd;fill-opacity:1;fill-rule:nonzero;stroke:none" transform="matrix(2.392 0 0 2.392 1867.662 -8.768)"/>
  <path d="m-719.921 83.257-1.59.883c4.775 1.736 7.583 2.54 12.363-.177l-1.237-1.943c-3.564 2.47-6.714 1.28-10.42 0l-1.412 1.06 1.413-1.06-1.413-.353v1.413" style="fill:#cdcdcd;fill-opacity:1;fill-rule:nonzero;stroke:none" transform="matrix(2.392 0 0 2.392 1867.662 -8.768)"/>
  <path d="M-713.034 88.025c-3.167.188-6.908-1.166-6.887-4.768l-2.296-.177v.883l.177.353.176.53v.53l.707 1.413c1.957 2.92 4.88 3.234 8.123 3.532h-.176l.176-2.296" style="fill:#cdcdcd;fill-opacity:1;fill-rule:nonzero;stroke:none" transform="matrix(2.392 0 0 2.392 1867.662 -8.768)"/>
  <path d="m-709.678 90.144-.53-2.12h-2.826l-.176 2.297h2.649l.53-.177-.53-2.12.883 2.12 6.18-2.826-6.71.707" style="fill:#cdcdcd;fill-opacity:1;fill-rule:nonzero;stroke:none" transform="matrix(2.392 0 0 2.392 1867.662 -8.768)"/>
  <path d="m-717.096 102.86 1.943.353c-2.446-5.187.424-10.947 5.475-13.069l-.883-2.12h-.177l-.176.177-.53.354-.707.353-.706.53-1.766 1.412-.707.883c-3.14 3.194-3.5 8.139-1.942 12.186l1.942.353-1.942-.353.706 1.766 1.236-1.413" style="fill:#cdcdcd;fill-opacity:1;fill-rule:nonzero;stroke:none" transform="matrix(2.392 0 0 2.392 1867.662 -8.768)"/>
  <path d="m-708.265 99.15-1.06-1.765c-3.238.744-5.672 3.16-7.77 5.474l1.765 1.413.177-.176v-.177l.353-.177.177-.353 1.236-1.236.53-.353c1.472-1.213 2.266-1.63 4.062-2.296l-1.06-1.766 1.59 1.413 2.295-2.65-3.355.884" style="fill:#cdcdcd;fill-opacity:1;fill-rule:nonzero;stroke:none" transform="matrix(2.392 0 0 2.392 1867.662 -8.768)"/>
  <path d="m-706.676 122.639 1.766-.883c-5.074-4.46-7.68-8.715-6.71-15.541.97-2.222.517-2.62 2.118-5.122l.177-.53.53-.53.176-.352.177-.177.177-.177v-.176l-1.59-1.413c-6.9 8.6-4.986 18.761 3.532 25.784l1.943-.883-1.943.883 1.943 1.413v-2.296" style="fill:#cdcdcd;fill-opacity:1;fill-rule:nonzero;stroke:none" transform="matrix(2.392 0 0 2.392 1867.662 -8.768)"/>
  <path d="m-700.495 107.98-1.766-.529c-3.447 2.746-4.403 10.944-4.415 15.188h2.296c-.21-3.373.848-11.28 3.532-13.422l-1.766-.53 2.12-.706-.354-1.59-1.413 1.06" style="fill:#cdcdcd;fill-opacity:1;fill-rule:nonzero;stroke:none" transform="matrix(2.392 0 0 2.392 1867.662 -8.768)"/>
  <path d="M-698.905 121.933c.306-3.185.047-5.675-.53-8.83l-.177-1.06-.176-.883-.177-.883-.177-.883v-.53l-.353-.706v-.177l-2.12.706c.545 1.716.946 4.021 1.237 5.828l.177 1.06v1.06l.176 1.06v3.178l-.176.706v.177-.177.177" style="fill:#cdcdcd;fill-opacity:1;fill-rule:nonzero;stroke:none" transform="matrix(2.392 0 0 2.392 1867.662 -8.768)"/>
  <path d="m-701.378 127.054.883 1.59c1.124-1.325 1.466-4.969 1.59-6.711l-2.296-.177c.097 1.778-.31 4.3-1.237 5.828l1.06 1.766-1.06-1.766-.883 1.766h1.943" style="fill:#cdcdcd;fill-opacity:1;fill-rule:nonzero;stroke:none" transform="matrix(2.392 0 0 2.392 1867.662 -8.768)"/>
  <path d="m-689.016 106.391-1.413 1.413c2.667 9.749-.394 18.093-10.949 19.25v2.296c12.174-1.278 15.974-10.702 13.069-22.075l-1.413 1.236.706-2.12-1.942-.53.53 1.943" style="fill:#cdcdcd;fill-opacity:1;fill-rule:nonzero;stroke:none" transform="matrix(2.392 0 0 2.392 1867.662 -8.768)"/>
  <path d="m-684.6 118.047 1.589 1.237c.565-4.25.223-6.794-2.296-10.243l-.706-.53-.707-.707-1.06-.706-.353-.353-.53-.177h-.176l-.177-.177-.706 2.12c1.015.777 1.71.744 2.649 1.942 2.078 2.25 2.416 5.566 1.943 8.477l1.589 1.06-1.59-1.06-.353 2.12 1.943-1.06" style="fill:#cdcdcd;fill-opacity:1;fill-rule:nonzero;stroke:none" transform="matrix(2.392 0 0 2.392 1867.662 -8.768)"/>
  <path d="m-678.773 94.736-1.06 1.766c3.486 4.538 4.625 11.361 1.237 16.247l-.883 1.236-1.06 1.06-1.06.883-.882.883-.883.53-.707.353-.353.353h-.177l1.06 1.943h.177l.53-.353.706-.53 1.06-.53 1.059-.883 1.06-1.06 1.06-1.236 1.059-1.413c4.13-6.119 2.681-12.786-1.06-18.72l-.883 1.767v-2.296h-2.119l1.06 1.766" style="fill:#cdcdcd;fill-opacity:1;fill-rule:nonzero;stroke:none" transform="matrix(2.392 0 0 2.392 1867.662 -8.768)"/>
  <path d="m-672.238 102.153 1.942.177c-.274-2.102-2.484-5.016-4.238-6.181-1.148-.669-2.914-1.399-4.239-1.413v2.296c3.185.02 5.734 3.034 6.358 6.004l1.943.177-1.943-.177.53 2.296 1.413-2.12" style="fill:#cdcdcd;fill-opacity:1;fill-rule:nonzero;stroke:none" transform="matrix(2.392 0 0 2.392 1867.662 -8.768)"/>
  <path d="m-677.007 77.075-.353 1.943 1.06 1.236 1.06 1.06 1.765 2.12.707.882 1.06 2.12c1.16 2.319 1.8 4.98 1.589 7.593.185 1.955-.565 3.797-1.06 5.652l-.176.353-.177.53-.53 1.06v.176l-.176.176v.177l1.766 1.06h.176v-.354l.177-.176.353-.707.177-.53.353-.53c.78-2.292 1.015-3.614 1.413-6.004.465-7.07-3.023-12.856-8.124-17.483l-.53 1.942-.53-2.296-1.942.707 1.59 1.236" style="fill:#cdcdcd;fill-opacity:1;fill-rule:nonzero;stroke:none" transform="matrix(2.392 0 0 2.392 1867.662 -8.768)"/>
  <path d="m-669.943 81.137 1.943-.53c-1.804-3.214-5.619-4.04-9.007-3.532l.53 2.296h.177l.176-.176h2.12c2.157.703 2.825.632 4.238 2.649l1.943-.707-1.943.707 2.12 3.179-.177-3.886" style="fill:#cdcdcd;fill-opacity:1;fill-rule:nonzero;stroke:none" transform="matrix(2.392 0 0 2.392 1867.662 -8.768)"/>
  <path d="M-678.773 67.892c4.975 2.755 8.283 7.58 8.83 13.245h2.12c-.3-6.343-4.224-12.265-9.89-15.188M-684.777 59.945c2.293 1.913 2.552 6.552 6.004 7.947l1.06-1.943c-1.095-.232-2.452-2.516-2.826-3.532l-.353-.706-.177-.53-.706-1.06-.353-.706-.353-.53-.53-.53-.707-.353" style="fill:#cdcdcd;fill-opacity:1;fill-rule:nonzero;stroke:none" transform="matrix(2.392 0 0 2.392 1867.662 -8.768)"/>
  <path d="M-708.089 60.651c2.517-3.01 6.988-3.04 10.596-3.002 3.62-.07 9.52.51 12.716 2.296l1.06-1.943-.354-.353-1.06-.353-.706-.177-.706-.353-1.413-.353-.883-.177c-2.252-.418-5.325-.8-7.594-.883-3.52-.053-11.39.262-13.245 3.886l.176-.177 1.413 1.59.177-.177" style="fill:#cdcdcd;fill-opacity:1;fill-rule:nonzero;stroke:none" transform="matrix(2.392 0 0 2.392 1867.662 -8.768)"/>
  <path d="M-694.314 50.408c1.64 2.314 3.597 5.278 6.711 5.475 2.614-.035 4.824-1.342 6.005-3.709-7.409.489-4.195-11.705 2.295-6.534-.835-1.48-.447-1.268-.53-3.002.872-1.999 2.812-3.75 5.122-3.356l-8.124 20.31h-27.196l-8.3-19.427c2.216-.217 4.244 1.422 5.12 3.356-.09 1.666.327 1.374-.53 2.649l.354-.177.177-.176.176-.353.177-.177.176-.177.354-.353h.176l.177-.177c2.199-.647 4.256 1.207 4.945 3.18.265 1.73-.256 4.102-2.296 4.414h-.353l-.177.177h-.883l-.353-.177h-.53l.353.354.177.53 1.06 1.059.353.177.353.353.353.176.353.354.53.176.353.177h.53l.53.176h.353l.53.177h.53c3.073-.07 4.989-3.27 6.534-5.475l-.353.177h-.177l-.176.177-.353.176h-.53l-.354.177h-.353c-1.998-.215-3.926-1.71-3.708-3.885v-.707l.176-.883.353-.53.53-.706.53-.353 1.413-.707h1.413l.353.177h.177l.176.176h.353l.177.177c-1.392-1.28-.827-1.819-1.236-2.826.238-2.101 1.701-3.788 3.885-3.885l1.413.353.706.354.53.53.353.53.707 1.412v1.59l-.53 1.06-.177.352-.53.53h.354l.353-.353h.353l.177-.177h1.412l.883.353 1.06.707.53.706.353.53.177.883.176.707c-.341 2.257-1.569 3.64-3.885 3.885l-.353-.177h-.353l-.354-.176h-.353l-.353-.177-.177-.177h-.353" style="fill:#ccb233;fill-opacity:1;fill-rule:evenodd;stroke:none" transform="matrix(2.392 0 0 2.392 1867.662 -8.768)"/>
  <path d="M-687.603 63.83c3.4-3.806 8.436-6.808 13.775-6.004h-.176c-.18 1.875-1.284 3.682-2.12 5.298-1.866 3.105-5.365 6.125-9.006 6.71l-2.473-6.004" style="fill:#d90033;fill-opacity:1;fill-rule:evenodd;stroke:none" transform="matrix(2.392 0 0 2.392 1867.662 -8.768)"/>
  <path d="m-672.768 58.002-1.06-1.413h-3.179l-2.825.707-1.237.353-1.236.707-1.06.53a19.448 19.448 0 0 0-5.12 4.238l1.765 1.413v-.177l.353-.177.177-.353.883-.883.706-.53.53-.53.883-.53c2.92-1.995 5.657-2.692 9.184-2.472l-1.06-1.413 2.296.53.176-1.236-1.236-.177" style="fill:#cdcdcd;fill-opacity:1;fill-rule:nonzero;stroke:none" transform="matrix(2.392 0 0 2.392 1867.662 -8.768)"/>
  <path d="M-684.954 70.894c3.724-.356 8.05-3.953 9.713-7.24l.707-1.06.53-1.06.706-1.766.177-.706.176-.53.177-.353v-.177l-2.296-.53v.53l-.177.354-.176.706-.353.706-.707 1.766-.706 1.06-.53.883-.707 1.06-1.06.883-.882.883-1.06.883-1.236.706-1.236.53-1.59.353" style="fill:#cdcdcd;fill-opacity:1;fill-rule:nonzero;stroke:none" transform="matrix(2.392 0 0 2.392 1867.662 -8.768)"/>
  <path d="M-684.954 64.713h.177l.706-.706.353-.177.354-.353.53-.353c.67-.612 3.814-2.022 4.768-2.12v.177l-.177.353-.177.177-.176.353-.353.353-.177.53-.353.353-.353.53-.53.53-1.06.706-.53.53-.706.353-.706.177-.883.177-.707-1.59M-701.025 74.603c-1.436-.542-1.795-1.157-3.355-.353 1.271-.15 1.96.889 2.825 1.413.675.6 1.555 1.724 2.296 2.119l.354.176h1.766l.353-.176h.176l.177-.177h.353l.177-.176h.176l.177-.177.177-.177c-2.679.822-3.847-.939-5.652-2.472M-704.38 64.007c.123 1.271-.356 2.193-1.59 2.649h-.883l-.53-.177-.53-.53-.352-.176-.177-.353-.177-.53v-.707l.354.177h2.119l.353-.177h.353l.177-.176h.883" style="fill:#cdcdcd;fill-opacity:1;fill-rule:evenodd;stroke:none" transform="matrix(2.392 0 0 2.392 1867.662 -8.768)"/>
  <path d="M-705.263 64.713h-.177l1.06-.176h.883l.883.176.53.177.176.176h.353l.177.177v-.177l1.413-1.412c-1.245-1.295-4.189-1.446-5.828-1.06" style="fill:#cdcdcd;fill-opacity:1;fill-rule:nonzero;stroke:none" transform="matrix(2.392 0 0 2.392 1867.662 -8.768)"/>
  <path d="m-709.855 62.947-1.942.707c1.754 1.48 4.382 1.78 6.534 1.06l-.53-2.12-1.236.353h-.883l-.883-.176-.53-.177-.353-.177-.353-.176h-.177.177l-1.943.53 1.943-.53-1.766-1.766-.177 2.296" style="fill:#cdcdcd;fill-opacity:1;fill-rule:nonzero;stroke:none" transform="matrix(2.392 0 0 2.392 1867.662 -8.768)"/>
  <path d="M-707.03 67.715c-1.618-.347-1.621-.862-2.472-2.119-.109-.977-.459-1.51-.353-2.649l-2.12-.176c-.185 3.16 1.181 6.416 4.593 7.064l.353-2.12" style="fill:#cdcdcd;fill-opacity:1;fill-rule:nonzero;stroke:none" transform="matrix(2.392 0 0 2.392 1867.662 -8.768)"/>
  <path d="M-703.497 65.243c-.771 1.763-1.575 2.717-3.532 2.472l-.353 2.12h.353l.353.176.706-.176 1.06-.177.883-.353 1.06-.707.883-1.06.706-1.589M-698.376 64.713c-1.521-1.745-4.268-2.216-5.121.53l2.12.706.176-.353.176-.176h.177l.353.176.177.353.176.177h.177" style="fill:#cdcdcd;fill-opacity:1;fill-rule:nonzero;stroke:none" transform="matrix(2.392 0 0 2.392 1867.662 -8.768)"/>
  <path d="m-684.424 73.014-.706 2.472c2.734 3.317 4.212 8.074 2.472 12.186l-.177-.883-.353-.883-.353-.883-.353-.707-.353-.53-.707-1.06-.53-.352-.706-.707-.353-.177-.353-.176-.177-.177-.177-.176h-.176l-2.12-.883c1.025 3.723 1.363 5.065.883 8.83-.503 1.513-.4 1.463-1.236 2.825l-.353.354-.177.353-.353.176-.176.354-.354.176-.353.177-.176.353c.733-1.945.865-4.218.176-6.181-.8-2.75-1.092-1.59-3.002-4.238-.215 3.22-.212 6.29-3.002 8.3.691-1.425.577-3.712-.177-5.122l-1.942 1.06c1.392 2.946-1.207 5.725-3.356 7.417 2.911-.141 3.308.015 5.651-.883 1.699-1 3.397-2.52 4.062-4.415.106 2.97-1.55 5.713-3.355 7.947 2.019-.173 3.235-.647 4.945-1.412 1.627-.83 2.999-2.073 4.062-3.533.482-1.23 1.01-2.445 1.412-3.708.01-1.392.471-2.861 0-4.239.521.901 1.113 1.552 1.413 2.65.406 2.316.73 4.647.53 7.063 6.04-6.11 6.61-15.099 0-21.368" style="fill:#cdcdcd;fill-opacity:1;fill-rule:evenodd;stroke:none" transform="matrix(2.392 0 0 2.392 1867.662 -8.768)"/>
</svg>

