<svg xmlns="http://www.w3.org/2000/svg" viewBox="0 0 100 100">
  <title>Test-Driven Development</title>
  <path d="M51 5.125a40.845 40.845 0 0 0-31.312 15.281c-.244-.012-.474-.031-.719-.031C11.283 20.375 5 26.658 5 34.344c0 4.649 2.296 8.771 5.812 11.312-.096 13.406 6.225 26.59 18.219 34.469 2.869 1.885 5.917 3.249 9.032 4.281 1.568 5.997 7.028 10.469 13.5 10.469 6.508 0 11.997-4.515 13.531-10.562 8.078-2.819 15.362-8.077 20.438-15.719l5.594 3.687.656-12.781.687-12.75-11.375 5.813-11.375 5.781 6 3.937c-3.286 4.89-7.813 8.382-12.844 10.5-2.54-3.531-6.651-5.843-11.312-5.843a14 14 0 0 0-11.375 5.843c-1.613-.64-3.208-1.413-4.719-2.406-8.003-5.257-12.528-13.677-13.094-22.5 6.053-1.529 10.562-7.019 10.562-13.531 0-3.059-1.005-5.88-2.687-8.187 9.529-10.263 25.163-12.553 37.281-4.594.113.074.203.172.312.25a13.917 13.917 0 0 0-.781 4.594c0 7.686 6.283 13.969 13.969 13.969 7.687 0 13.97-6.283 13.97-13.969 0-7.686-6.283-13.968-13.969-13.968a13.91 13.91 0 0 0-5.031.937 23.513 23.513 0 0 0-2.062-1.531C66.883 7.21 58.881 5.018 51.001 5.126zm30.031 11.969a9.277 9.277 0 0 1 9.312 9.312 9.278 9.278 0 0 1-9.312 9.313 9.28 9.28 0 0 1-9.313-9.313 9.278 9.278 0 0 1 9.313-9.312zm-4.188 3.312l-1.656 1.625 4.125 4.125-4.125 4.125 1.656 1.625 4.125-4.125 4.094 4.125 1.656-1.625-4.125-4.125 4.125-4.125-1.656-1.625-4.094 4.125zm-57.875 4.625a9.28 9.28 0 0 1 9.313 9.313 9.28 9.28 0 0 1-9.313 9.313 9.278 9.278 0 0 1-9.312-9.313 9.278 9.278 0 0 1 9.312-9.313zm5.344 4.5l-6.5 6.501-3.844-3.844-1.656 1.656 5.5 5.469 1.313-1.281.344-.375 6.5-6.469zm27.25 42.062a9.28 9.28 0 0 1 9.313 9.313 9.278 9.278 0 0 1-9.313 9.312 9.278 9.278 0 0 1-9.312-9.312 9.279 9.279 0 0 1 9.312-9.313zm-7.094 5.063v1h11v-1zm2 2v1h9v-1zm9.486-.344c.322 1.37.543 2.204.875 3.531l.156-.563c.4.912.788 2.124.796 2.563.006.336-.085.511-.156.594-.071.084-.143.206-.344.21l.031 1c.409-.009.819-.262 1.094-.585.275-.323.384-.754.375-1.25-.013-.709-.464-2.083-.983-3.188l.781.219c-1.07-1.026-1.622-1.521-2.625-2.531zm-11.485 2.344v1h10v-1zm0 2v1h3v-1zm4 0v1h8v-1zm-2 2v1h10v-1zm2 2v1h8v-1z"/>
</svg>


