<svg xmlns="http://www.w3.org/2000/svg" viewBox="0 0 400 400">
  <title>Wordle</title>
  <g fill-rule="evenodd">
    <path fill="#fafbfa" d="M47.589 85.03c-.3.789-.152 1.957.625 4.903A538.26 538.26 0 0 1 49.97 96.8c.406 1.65.942 3.517 1.193 4.149.25.633.797 2.613 1.214 4.4a287.795 287.795 0 0 0 1.773 7.051c.558 2.09 1.307 4.97 1.666 6.4.358 1.43.923 3.41 1.254 4.4.332.99.849 3.092 1.15 4.672.3 1.58.795 3.47 1.1 4.2.305.73.676 2.048.824 2.928.148.88.701 3.04 1.229 4.8 1.237 4.127 2.896 10.41 3.22 12.2.14.77.6 2.48 1.023 3.8.423 1.32 1.133 3.84 1.578 5.6.445 1.76 1.716 6.62 2.825 10.8 1.108 4.18 2.373 9.107 2.811 10.95.437 1.842.973 3.682 1.191 4.088.217.406.736 2.319 1.152 4.25.832 3.856 1.643 6.94 2.869 10.912a75.908 75.908 0 0 1 1.333 5c.875 3.962 2.195 9.05 3.01 11.6.422 1.32.959 3.359 1.193 4.531.235 1.172.609 2.471.832 2.887.222.416.755 2.337 1.183 4.269 1.092 4.926 1.976 8.413 2.666 10.513.325.99.854 2.97 1.176 4.4.321 1.43.939 3.636 1.374 4.902.435 1.265.791 2.755.791 3.31 0 .555.435 2.4.966 4.099 1.276 4.083 3.577 12.573 5.445 20.089.41 1.65 1.295 4.98 1.966 7.4s1.509 5.57 1.862 7c.353 1.43.97 3.77 1.37 5.2.401 1.43.946 3.59 1.212 4.8.267 1.21.649 2.519.85 2.908.201.39.703 2.19 1.116 4 .826 3.626 1.925 7.018 2.524 7.792.302.391 5.876.5 25.468.5h25.082l.835-.9c.459-.495 1.103-1.8 1.431-2.9.862-2.891 3.073-12.335 3.073-13.125 0-.37.351-1.708.78-2.973.429-1.266.984-3.467 1.234-4.892.249-1.424.616-2.892.814-3.263.198-.37.818-2.715 1.377-5.21.56-2.495 1.359-6.067 1.777-7.937.418-1.87.966-3.94 1.218-4.6.252-.66.792-2.73 1.2-4.6.408-1.87 1.002-4.39 1.319-5.6.317-1.21.764-3.1.993-4.2.47-2.257 1.43-6.129 2.331-9.4.333-1.21.936-3.64 1.339-5.4l1.606-7c.479-2.09 1.211-4.97 1.625-6.4.415-1.43.962-3.68 1.215-5 .254-1.32.631-2.722.839-3.115.208-.393.636-2.103.951-3.8.316-1.697.924-4.435 1.352-6.085.77-2.967 2.251-8.751 3.431-13.4.336-1.32.882-3.75 1.215-5.4.333-1.65.954-4.17 1.381-5.6.427-1.43.887-3.32 1.023-4.2.135-.88.586-2.68 1.001-4 .771-2.453 1.268-4.57 2.942-12.525 1.085-5.152 1.09-5.162 2.414-4.558 1.042.474 1.324 1.227 2.432 6.483 1.431 6.794 2.158 9.864 2.604 11 .259.66.799 2.64 1.201 4.4a400.735 400.735 0 0 0 2.621 10.8c.341 1.32.943 3.878 1.338 5.685.394 1.806.918 3.786 1.163 4.4.432 1.079 1.24 4.421 2.883 11.915.434 1.98 1.036 4.23 1.337 5 .302.77.671 2.21.821 3.2.15.99.691 3.24 1.201 5 .51 1.76 1.51 5.72 2.223 8.8.712 3.08 1.621 6.68 2.02 8 .398 1.32.848 3.2 1 4.178.152.978.592 2.698.979 3.822s.823 2.844.97 3.822c.147.978.602 2.948 1.013 4.378.823 2.868 2.112 7.988 3.022 12 .324 1.43.944 3.95 1.377 5.6a350.104 350.104 0 0 1 2.863 11.6c.427 1.87 1.02 4.03 1.317 4.8.298.77.764 2.75 1.037 4.4.272 1.65.654 3.303.848 3.674.194.37.623 1.99.952 3.6.814 3.972 2.199 8.267 2.89 8.958.783.783 48.559.843 50.064.062.708-.367 1.127-1.161 1.636-3.094l1.366-5.2c.376-1.43.97-3.5 1.32-4.6.668-2.099 2.096-7.532 3.31-12.6.396-1.65.932-3.536 1.192-4.191.26-.655.731-2.421 1.048-3.926.316-1.505.749-3.061.962-3.459.213-.398.741-2.232 1.174-4.074.799-3.408 2.024-8.074 3.82-14.55.549-1.98 1.296-4.77 1.66-6.2.365-1.43 1.078-4.04 1.585-5.8.508-1.76 1.034-3.83 1.171-4.6.136-.77.582-2.39.99-3.6.761-2.258 1.476-4.954 2.825-10.651.424-1.787.975-3.767 1.225-4.4.251-.632.789-2.499 1.196-4.149.697-2.825 1.737-6.727 4.158-15.6 1.998-7.325 2.983-11.022 3.624-13.6.356-1.43.987-3.68 1.404-5a71.996 71.996 0 0 0 1.334-5c.317-1.43.847-3.41 1.177-4.4.33-.99.883-2.97 1.229-4.4 1.19-4.918 1.531-6.207 2.332-8.8.442-1.43 1.133-3.95 1.537-5.6 1.34-5.48 2.377-9.379 2.977-11.2.327-.99.791-2.876 1.032-4.192.241-1.315.67-2.845.954-3.4.284-.554.805-2.41 1.157-4.124.353-1.714.829-3.468 1.06-3.899.23-.43.599-1.818.82-3.084.221-1.265.738-3.291 1.15-4.501.411-1.21 1.06-3.46 1.441-5s1.133-4.42 1.671-6.4c.538-1.98 1.407-5.22 1.931-7.2.523-1.98 1.499-5.58 2.168-8 3.419-12.368 3.699-13.927 2.578-14.357-1.314-.504-47.931-.245-48.602.27-.975.748-1.446 1.885-1.767 4.264-.162 1.198-.611 3.098-.998 4.223-.387 1.124-.828 2.844-.981 3.822-.153.978-.706 3.398-1.229 5.378-.523 1.98-1.508 6.12-2.189 9.2-.682 3.08-1.516 6.503-1.854 7.607-.337 1.104-.942 3.534-1.343 5.4a221.952 221.952 0 0 1-1.328 5.793c-.33 1.32-.786 3.3-1.015 4.4-.387 1.865-.634 2.894-2.286 9.5-.344 1.375-.956 3.94-1.36 5.7-.729 3.18-1.424 6.131-2.661 11.3l-1.554 6.5c-.499 2.09-1.213 5.06-1.585 6.6-.373 1.54-1.134 4.78-1.692 7.2s-1.267 5.39-1.575 6.6c-.308 1.21-.916 3.873-1.35 5.919-.435 2.045-.967 4.049-1.183 4.453-.216.404-.589 2.061-.829 3.681-.239 1.621-.725 3.847-1.079 4.947s-.964 3.44-1.354 5.2c-.39 1.76-1.153 5.09-1.694 7.4l-1.64 7c-.361 1.54-1.087 4.42-1.614 6.4-.526 1.98-1.077 4.628-1.225 5.884-.63 5.362-2.708 4.575-4.045-1.531-1.257-5.741-2.115-9.224-2.963-12.024a46.245 46.245 0 0 1-1.159-5.048c-.226-1.417-.662-3.287-.969-4.156-.306-.868-.77-2.647-1.03-3.952a61.606 61.606 0 0 0-1.202-4.773c-.827-2.726-1.738-6.452-2.787-11.4-.396-1.87-.997-4.3-1.335-5.4-.864-2.814-3.387-13.061-5.072-20.6-.418-1.87-.968-3.94-1.222-4.6-.255-.66-.717-2.515-1.027-4.121-.31-1.607-.731-3.234-.935-3.615-.204-.381-.659-2.215-1.012-4.075-.353-1.859-.905-4.283-1.226-5.385-.866-2.971-2.119-7.944-3.001-11.917-.429-1.932-.941-3.822-1.138-4.2-.196-.378-.568-1.947-.827-3.487-.258-1.54-.805-3.88-1.215-5.2-.741-2.386-1.734-6.28-3.161-12.4-1.232-5.28-2.065-8.676-2.701-11-.331-1.21-.946-3.73-1.368-5.6-.421-1.87-1.032-4.12-1.358-5-.325-.88-.6-2.055-.609-2.611-.01-.556-.298-1.411-.641-1.9l-.622-.889h-46.31l-1.08.929c-.842.724-1.149 1.45-1.398 3.3-.175 1.304-.689 3.541-1.143 4.971-.453 1.43-1.205 4.13-1.671 6a1243.382 1243.382 0 0 0-2.986 12.2c-.366 1.54-1.079 4.24-1.583 6-1.212 4.228-1.922 7.047-4.785 19a86.64 86.64 0 0 1-1.385 5c-.42 1.32-.972 3.48-1.228 4.8a45.156 45.156 0 0 1-1.226 4.687c-.418 1.258-.76 2.732-.76 3.276 0 .543-.433 2.394-.963 4.112a138.69 138.69 0 0 0-1.619 5.725c-.361 1.43-1.098 4.355-1.637 6.5l-1.963 7.8a951.459 951.459 0 0 0-1.964 7.98c-.54 2.243-1.118 4.3-1.285 4.57-.167.27-.615 1.944-.996 3.72-.909 4.234-2.195 9.393-3.148 12.63a68.663 68.663 0 0 0-1.24 5c-.261 1.32-.638 2.71-.838 3.088-.199.379-.702 2.269-1.117 4.2-.416 1.932-1.334 5.672-2.041 8.312-.707 2.64-1.613 6.307-2.013 8.149-.932 4.288-1.002 4.451-1.914 4.451-1.22 0-1.572-.777-2.244-4.95-.348-2.161-.815-4.271-1.038-4.688-.224-.418-.591-1.795-.817-3.061-.486-2.726-2.144-10.115-3.031-13.501-.713-2.726-2.366-9.81-2.987-12.8-.228-1.1-.681-3.08-1.007-4.4-.326-1.32-.866-3.75-1.2-5.4-.333-1.65-.885-3.9-1.225-5-.339-1.1-.937-3.53-1.327-5.4-1.634-7.838-2.768-12.847-2.989-13.205-.13-.21-.687-2.409-1.238-4.888-.551-2.479-1.427-6.397-1.947-8.707-.521-2.31-1.324-5.951-1.785-8.09-.462-2.14-1.024-4.376-1.249-4.968-.225-.593-.751-2.837-1.168-4.987-.416-2.15-.939-4.249-1.161-4.663-.222-.415-.519-1.73-.66-2.923-.141-1.193-.535-3.159-.876-4.369-.341-1.21-1.053-4.09-1.584-6.4-.53-2.31-1.405-6.09-1.943-8.4-.538-2.31-1.255-5.55-1.593-7.2-.338-1.65-.967-4.26-1.397-5.8-.431-1.54-1.057-4.223-1.393-5.961-.336-1.739-1.017-3.899-1.515-4.8l-.904-1.639-24.7-.103-24.701-.103-.394 1.036"/>
    <path fill="#6bab63" d="M0 200v200h400V0H0v200M98.288 85.839c.498.901 1.179 3.061 1.515 4.8.336 1.738.962 4.421 1.393 5.961.43 1.54 1.059 4.15 1.397 5.8.338 1.65 1.055 4.89 1.593 7.2.538 2.31 1.413 6.09 1.943 8.4.531 2.31 1.243 5.19 1.584 6.4.341 1.21.735 3.176.876 4.369.141 1.193.438 2.508.66 2.923.222.414.745 2.513 1.161 4.663.417 2.15.943 4.394 1.168 4.987.225.592.787 2.828 1.249 4.968.461 2.139 1.264 5.78 1.785 8.09.52 2.31 1.396 6.228 1.947 8.707.551 2.479 1.108 4.678 1.238 4.888.221.358 1.355 5.367 2.989 13.205.39 1.87.988 4.3 1.327 5.4.34 1.1.892 3.35 1.225 5 .334 1.65.874 4.08 1.2 5.4.326 1.32.779 3.3 1.007 4.4.621 2.99 2.274 10.074 2.987 12.8.887 3.386 2.545 10.775 3.031 13.501.226 1.266.593 2.643.817 3.061.223.417.69 2.527 1.038 4.688.672 4.173 1.024 4.95 2.244 4.95.912 0 .982-.163 1.914-4.451.4-1.842 1.306-5.509 2.013-8.149.707-2.64 1.625-6.38 2.041-8.312.415-1.931.918-3.821 1.117-4.2.2-.378.577-1.768.838-3.088s.819-3.57 1.24-5c.953-3.237 2.239-8.396 3.148-12.63.381-1.776.829-3.45.996-3.72.167-.27.745-2.327 1.285-4.57.54-2.244 1.424-5.835 1.964-7.98l1.963-7.8c.539-2.145 1.276-5.07 1.637-6.5a138.69 138.69 0 0 1 1.619-5.725c.53-1.718.963-3.569.963-4.112 0-.544.342-2.018.76-3.276.419-1.258.97-3.367 1.226-4.687.256-1.32.808-3.48 1.228-4.8a86.64 86.64 0 0 0 1.385-5c2.863-11.953 3.573-14.772 4.785-19 .504-1.76 1.217-4.46 1.583-6 .728-3.063 1.679-6.946 2.986-12.2.466-1.87 1.218-4.57 1.671-6 .454-1.43.968-3.667 1.143-4.971.249-1.85.556-2.576 1.398-3.3l1.08-.929h46.31l.622.889c.343.489.631 1.344.641 1.9.009.556.284 1.731.609 2.611.326.88.937 3.13 1.358 5 .422 1.87 1.037 4.39 1.368 5.6.636 2.324 1.469 5.72 2.701 11 1.427 6.12 2.42 10.014 3.161 12.4.41 1.32.957 3.66 1.215 5.2.259 1.54.631 3.109.827 3.487.197.378.709 2.268 1.138 4.2.882 3.973 2.135 8.946 3.001 11.917.321 1.102.873 3.526 1.226 5.385.353 1.86.808 3.694 1.012 4.075.204.381.625 2.008.935 3.615.31 1.606.772 3.461 1.027 4.121.254.66.804 2.73 1.222 4.6 1.685 7.539 4.208 17.786 5.072 20.6.338 1.1.939 3.53 1.335 5.4 1.049 4.948 1.96 8.674 2.787 11.4.4 1.32.941 3.468 1.202 4.773.26 1.305.724 3.084 1.03 3.952.307.869.743 2.739.969 4.156a46.245 46.245 0 0 0 1.159 5.048c.848 2.8 1.706 6.283 2.963 12.024 1.337 6.106 3.415 6.893 4.045 1.531.148-1.256.699-3.904 1.225-5.884.527-1.98 1.253-4.86 1.614-6.4l1.64-7c.541-2.31 1.304-5.64 1.694-7.4.39-1.76 1-4.1 1.354-5.2.354-1.1.84-3.326 1.079-4.947.24-1.62.613-3.277.829-3.681.216-.404.748-2.408 1.183-4.453.434-2.046 1.042-4.709 1.35-5.919.308-1.21 1.017-4.18 1.575-6.6s1.319-5.66 1.692-7.2c.372-1.54 1.086-4.51 1.585-6.6l1.554-6.5c1.237-5.169 1.932-8.12 2.661-11.3.404-1.76 1.016-4.325 1.36-5.7 1.652-6.606 1.899-7.635 2.286-9.5.229-1.1.685-3.08 1.015-4.4.33-1.32.927-3.927 1.328-5.793s1.006-4.296 1.343-5.4c.338-1.104 1.172-4.527 1.854-7.607.681-3.08 1.666-7.22 2.189-9.2.523-1.98 1.076-4.4 1.229-5.378.153-.978.594-2.698.981-3.822.387-1.125.836-3.025.998-4.223.321-2.379.792-3.516 1.767-4.264.671-.515 47.288-.774 48.602-.27 1.121.43.841 1.989-2.578 14.357-.669 2.42-1.645 6.02-2.168 8-.524 1.98-1.393 5.22-1.931 7.2-.538 1.98-1.29 4.86-1.671 6.4s-1.03 3.79-1.441 5c-.412 1.21-.929 3.236-1.15 4.501-.221 1.266-.59 2.654-.82 3.084-.231.431-.707 2.185-1.06 3.899-.352 1.714-.873 3.57-1.157 4.124-.284.555-.713 2.085-.954 3.4-.241 1.316-.705 3.202-1.032 4.192-.6 1.821-1.637 5.72-2.977 11.2-.404 1.65-1.095 4.17-1.537 5.6-.801 2.593-1.142 3.882-2.332 8.8-.346 1.43-.899 3.41-1.229 4.4-.33.99-.86 2.97-1.177 4.4a71.996 71.996 0 0 1-1.334 5c-.417 1.32-1.048 3.57-1.404 5-.641 2.578-1.626 6.275-3.624 13.6-2.421 8.873-3.461 12.775-4.158 15.6-.407 1.65-.945 3.517-1.196 4.149-.25.633-.801 2.613-1.225 4.4-1.349 5.697-2.064 8.393-2.825 10.651-.408 1.21-.854 2.83-.99 3.6-.137.77-.663 2.84-1.171 4.6-.507 1.76-1.22 4.37-1.585 5.8-.364 1.43-1.111 4.22-1.66 6.2-1.796 6.476-3.021 11.142-3.82 14.55-.433 1.842-.961 3.676-1.174 4.074-.213.398-.646 1.954-.962 3.459-.317 1.505-.788 3.271-1.048 3.926-.26.655-.796 2.541-1.192 4.191-1.214 5.068-2.642 10.501-3.31 12.6-.35 1.1-.944 3.17-1.32 4.6l-1.366 5.2c-.509 1.933-.928 2.727-1.636 3.094-1.505.781-49.281.721-50.064-.062-.691-.691-2.076-4.986-2.89-8.958-.329-1.61-.758-3.23-.952-3.6-.194-.371-.576-2.024-.848-3.674-.273-1.65-.739-3.63-1.037-4.4-.297-.77-.89-2.93-1.317-4.8a350.104 350.104 0 0 0-2.863-11.6c-.433-1.65-1.053-4.17-1.377-5.6-.91-4.012-2.199-9.132-3.022-12-.411-1.43-.866-3.4-1.013-4.378-.147-.978-.583-2.698-.97-3.822s-.827-2.844-.979-3.822c-.152-.978-.602-2.858-1-4.178-.399-1.32-1.308-4.92-2.02-8-.713-3.08-1.713-7.04-2.223-8.8-.51-1.76-1.051-4.01-1.201-5-.15-.99-.519-2.43-.821-3.2-.301-.77-.903-3.02-1.337-5-1.643-7.494-2.451-10.836-2.883-11.915-.245-.614-.769-2.594-1.163-4.4a191.948 191.948 0 0 0-1.338-5.685 400.735 400.735 0 0 1-2.621-10.8c-.402-1.76-.942-3.74-1.201-4.4-.446-1.136-1.173-4.206-2.604-11-1.108-5.256-1.39-6.009-2.432-6.483-1.324-.604-1.329-.594-2.414 4.558-1.674 7.955-2.171 10.072-2.942 12.525-.415 1.32-.866 3.12-1.001 4-.136.88-.596 2.77-1.023 4.2-.427 1.43-1.048 3.95-1.381 5.6-.333 1.65-.879 4.08-1.215 5.4a3157.387 3157.387 0 0 1-3.431 13.4 108.379 108.379 0 0 0-1.352 6.085c-.315 1.697-.743 3.407-.951 3.8-.208.393-.585 1.795-.839 3.115-.253 1.32-.8 3.57-1.215 5-.414 1.43-1.146 4.31-1.625 6.4l-1.606 7a159.27 159.27 0 0 1-1.339 5.4c-.901 3.271-1.861 7.143-2.331 9.4-.229 1.1-.676 2.99-.993 4.2-.317 1.21-.911 3.73-1.319 5.6-.408 1.87-.948 3.94-1.2 4.6-.252.66-.8 2.73-1.218 4.6-.418 1.87-1.217 5.442-1.777 7.937-.559 2.495-1.179 4.84-1.377 5.21-.198.371-.565 1.839-.814 3.263-.25 1.425-.805 3.626-1.234 4.892-.429 1.265-.78 2.603-.78 2.973 0 .79-2.211 10.234-3.073 13.125-.328 1.1-.972 2.405-1.431 2.9l-.835.9h-25.082c-19.592 0-25.166-.109-25.468-.5-.599-.774-1.698-4.166-2.524-7.792-.413-1.81-.915-3.61-1.116-4-.201-.389-.583-1.698-.85-2.908-.266-1.21-.811-3.37-1.212-4.8-.4-1.43-1.017-3.77-1.37-5.2-.353-1.43-1.191-4.58-1.862-7s-1.556-5.75-1.966-7.4c-1.868-7.516-4.169-16.006-5.445-20.089-.531-1.699-.966-3.544-.966-4.099 0-.555-.356-2.045-.791-3.31-.435-1.266-1.053-3.472-1.374-4.902-.322-1.43-.851-3.41-1.176-4.4-.69-2.1-1.574-5.587-2.666-10.513-.428-1.932-.961-3.853-1.183-4.269-.223-.416-.597-1.715-.832-2.887-.234-1.172-.771-3.211-1.193-4.531-.815-2.55-2.135-7.638-3.01-11.6a75.908 75.908 0 0 0-1.333-5c-1.226-3.972-2.037-7.056-2.869-10.912-.416-1.931-.935-3.844-1.152-4.25-.218-.406-.754-2.246-1.191-4.088-.438-1.843-1.703-6.77-2.811-10.95-1.109-4.18-2.38-9.04-2.825-10.8-.445-1.76-1.155-4.28-1.578-5.6-.423-1.32-.883-3.03-1.023-3.8-.324-1.79-1.983-8.073-3.22-12.2-.528-1.76-1.081-3.92-1.229-4.8-.148-.88-.519-2.198-.824-2.928-.305-.73-.8-2.62-1.1-4.2-.301-1.58-.818-3.682-1.15-4.672-.331-.99-.896-2.97-1.254-4.4-.359-1.43-1.108-4.31-1.666-6.4a287.795 287.795 0 0 1-1.773-7.051c-.417-1.787-.964-3.767-1.214-4.4-.251-.632-.787-2.499-1.193-4.149s-1.196-4.74-1.756-6.867c-.777-2.946-.925-4.114-.625-4.903l.394-1.036 24.701.103 24.7.103.904 1.639"/>
  </g>
</svg>

