<svg version="1.1" viewBox="0 0 148.88 140.69" xmlns="http://www.w3.org/2000/svg">
 <g id="pfe-logo" transform="translate(-5.48,-10.52)">
  <path d="m80.09 10.8 0.01-0.13-0.06 0.08-0.03-0.02 0.02-0.21-0.12 0.11-0.12-0.11 0.02 0.21-0.02 0.02-0.06-0.08 0.01 0.13-74.26 72.6 29.41 41.67 22.72-5.22 22.31 31.36 22.31-31.36 22.72 5.22 18.22-25.81 11.19-15.86zm-2.43 8.52-10.15 95.07-19.82-27.04zm-30.94 66.7-12.48-17.01 43.31-52.97zm20.37 30.19-8.87 2.04-14.91-20.96 3.72-8.43zm12.59-101.48 0.23-0.53 0.23 0.53 10.49 102.21-0.03-0.02-10.28 15.19-11.11-15.21-0.01 0.01zm12.64 99.66-10.15-95.07 29.97 68.03zm20.49-25.54 3.72 8.43-14.91 20.96-8.87-2.04zm-30.53-72.82 43.31 52.97-12.48 17.02zm-46.78 107.43-28.16-39.89 65.53-64.06-40.43 49.45 13.62 18.57-4.37 9.93 15.03 21.14zm44.42 25.3-20.8-29.25 8.89-2.04 0.15 0.21-0.1 0.07 12.32 16.84 11.41-16.86-0.1-0.07 0.14-0.19 8.89 2.04zm62.08-50.33-17.67 25.03-21.21-4.87 15.03-21.14-4.37-9.93 13.62-18.57-40.44-49.44 65.53 64.06z" fill="#fff"/>
 </g>
</svg>
