<svg xmlns="http://www.w3.org/2000/svg"
    xmlns:xlink="http://www.w3.org/1999/xlink"
    version="1.1"
    x="0px"
    y="0px"
    viewBox="0 0 33 33"
    enable-background="new 0 0 33 33"
    xml:space="preserve">
  <path d="M19.01,7.684h-5.02L8.76,20.417l3.385,7.384c-1.039,0.064-1.865,0.921-1.865,1.975c0,1.096,0.891,1.987,1.986,1.987h8.469  c1.096,0,1.986-0.891,1.986-1.987c0-1.054-0.827-1.91-1.865-1.975l3.385-7.384L19.01,7.684z M16.5,18.122  c0.758,0,1.373,0.616,1.373,1.373s-0.615,1.373-1.373,1.373s-1.373-0.616-1.373-1.373S15.742,18.122,16.5,18.122z M14.64,8.653  h1.376v8.55c-1.061,0.225-1.857,1.165-1.857,2.291c0,1.292,1.051,2.342,2.342,2.342s2.342-1.051,2.342-2.342  c0-1.125-0.797-2.066-1.857-2.291v-8.55h1.376l4.822,11.743l-3.388,7.393h-6.59l-3.388-7.393L14.64,8.653z M20.734,28.758  c0.561,0,1.018,0.456,1.018,1.017s-0.457,1.017-1.018,1.017h-8.469c-0.561,0-1.018-0.456-1.018-1.017s0.457-1.017,1.018-1.017h0.318  h7.832H20.734z"/>
  <path d="M30.608,1.36c-0.874,0-1.605,0.6-1.821,1.407H18.514V1.238h-4.027v1.529H4.213C3.997,1.96,3.266,1.36,2.392,1.36  C1.349,1.36,0.5,2.209,0.5,3.252s0.849,1.892,1.892,1.892c0.874,0,1.605-0.6,1.821-1.407h7.539C7.518,5.548,4.572,9.698,4.407,14.46  C3.59,14.669,2.98,15.406,2.98,16.288c0,1.043,0.85,1.892,1.893,1.892s1.892-0.849,1.892-1.892c0-0.868-0.591-1.593-1.388-1.815  C5.568,9.265,9.38,4.865,14.486,3.93v1.336h4.027V3.93c5.105,0.935,8.918,5.334,9.109,10.542c-0.797,0.223-1.388,0.948-1.388,1.815  c0,1.043,0.849,1.892,1.892,1.892s1.893-0.849,1.893-1.892c0-0.882-0.609-1.619-1.427-1.827c-0.165-4.762-3.11-8.912-7.343-10.724  h7.537c0.216,0.807,0.947,1.407,1.821,1.407c1.043,0,1.892-0.849,1.892-1.892S31.651,1.36,30.608,1.36z M5.795,16.288  c0,0.508-0.414,0.922-0.922,0.922c-0.509,0-0.923-0.414-0.923-0.922c0-0.509,0.414-0.922,0.923-0.922  C5.381,15.365,5.795,15.779,5.795,16.288z M29.05,16.288c0,0.508-0.414,0.922-0.923,0.922c-0.508,0-0.922-0.414-0.922-0.922  c0-0.509,0.414-0.922,0.922-0.922C28.636,15.365,29.05,15.779,29.05,16.288z M2.392,4.174c-0.509,0-0.922-0.414-0.922-0.922  c0-0.509,0.413-0.922,0.922-0.922s0.923,0.414,0.923,0.922C3.314,3.76,2.9,4.174,2.392,4.174z M17.545,4.296h-2.09V2.208h2.09V4.296  z M30.608,4.174c-0.509,0-0.923-0.414-0.923-0.922c0-0.509,0.414-0.922,0.923-0.922s0.922,0.414,0.922,0.922  C31.53,3.76,31.117,4.174,30.608,4.174z"/>
</svg>
