<svg xmlns="http://www.w3.org/2000/svg"
    xmlns:xlink="http://www.w3.org/1999/xlink"
    version="1.1"
    x="0px"
    y="0px"
    viewBox="0 0 40 40"
    enable-background="new 0 0 40 40"
    xml:space="preserve">
  <path d="M13.354,23.615c-1.134,0-2.179,0.885-2.378,2.016c-0.102,0.574,0.04,1.143,0.389,1.559c0.349,0.415,0.858,0.645,1.436,0.645  c1.134,0,2.179-0.887,2.378-2.016c0.104-0.585-0.033-1.139-0.388-1.561C14.441,23.844,13.932,23.615,13.354,23.615z M14.115,25.631  c-0.107,0.608-0.71,1.123-1.315,1.123c-0.253,0-0.468-0.092-0.608-0.259c-0.145-0.173-0.199-0.413-0.152-0.677  c0.107-0.609,0.709-1.123,1.314-1.123c0.253,0,0.47,0.092,0.609,0.258C14.107,25.125,14.161,25.365,14.115,25.631z"/>
  <path d="M28.666,23.615c-1.135,0-2.18,0.885-2.379,2.016c-0.102,0.574,0.04,1.143,0.389,1.559c0.349,0.415,0.858,0.645,1.436,0.645  c1.135,0,2.179-0.887,2.379-2.016c0.103-0.585-0.035-1.139-0.389-1.561C29.753,23.844,29.242,23.615,28.666,23.615z M29.426,25.631  c-0.107,0.608-0.709,1.123-1.314,1.123c-0.252,0-0.469-0.092-0.608-0.259c-0.146-0.173-0.199-0.413-0.153-0.677  c0.108-0.609,0.711-1.123,1.316-1.123c0.252,0,0.469,0.092,0.607,0.258C29.419,25.125,29.473,25.365,29.426,25.631z"/>
  <path d="M31.562,15.395h-3.085c-0.262,0-0.486,0.188-0.531,0.446l-0.658,3.737c-0.029,0.157,0.015,0.318,0.117,0.441  c0.103,0.122,0.254,0.193,0.414,0.193h5.646c0.158,0,0.309-0.07,0.411-0.191s0.147-0.281,0.121-0.438  C33.834,18.602,33.174,15.395,31.562,15.395z M28.461,19.133l0.469-2.658h2.632c0.368,0,0.925,1.222,1.247,2.658H28.461z"/>
  <path d="M16.049,14.088c0.299,0,0.541-0.241,0.541-0.539c0-0.299-0.242-0.541-0.541-0.541H6.149c-0.298,0-0.54,0.242-0.54,0.541  c0,0.298,0.242,0.539,0.54,0.539H16.049z"/>
  <path d="M3.207,16.762h9.9c0.299,0,0.539-0.24,0.539-0.539s-0.24-0.541-0.539-0.541h-9.9c-0.299,0-0.539,0.242-0.539,0.541  S2.908,16.762,3.207,16.762z"/>
  <path d="M13.724,18.896c0-0.299-0.241-0.54-0.54-0.54h-9.9c-0.298,0-0.539,0.241-0.539,0.54s0.241,0.54,0.539,0.54h9.9  C13.482,19.437,13.724,19.195,13.724,18.896z"/>
  <path d="M37.02,23.293c-0.148-0.178-0.342-0.311-0.561-0.391l0.344-1.952c0.024-0.138,0.021-0.274-0.012-0.413l-1.102-4.557  c-0.006-0.029-0.016-0.057-0.027-0.084c-0.496-1.172-1.248-2.94-2.96-2.94h-3.993c-0.33,0-0.666,0.046-1.003,0.138l0.11-0.629  c0.099-0.556-0.039-1.105-0.377-1.508c-0.337-0.401-0.83-0.623-1.387-0.623H4.969c-0.299,0-0.54,0.242-0.54,0.54  s0.241,0.54,0.54,0.54h21.084c0.232,0,0.432,0.084,0.56,0.238c0.134,0.158,0.185,0.381,0.142,0.625l-2.298,13.031h-7.391  c0.043-0.888-0.217-1.711-0.759-2.358c-0.635-0.755-1.568-1.171-2.629-1.171c-2.02,0-3.951,1.557-4.464,3.529H7.289  c-0.232,0-0.431-0.084-0.561-0.238c-0.133-0.16-0.184-0.382-0.142-0.625l0.693-3.929H6.184l-0.66,3.741  c-0.098,0.555,0.041,1.104,0.379,1.508c0.338,0.401,0.83,0.623,1.387,0.623h1.793c0.013,0.791,0.273,1.521,0.765,2.106  c0.634,0.755,1.567,1.171,2.63,1.171c1.932,0,3.783-1.426,4.387-3.277h7.53c0.013,0.791,0.274,1.521,0.765,2.106  c0.635,0.755,1.568,1.171,2.631,1.171c1.932,0,3.783-1.426,4.387-3.277h3.34c0.813,0,1.563-0.635,1.705-1.443l0.088-0.5  C37.384,24.021,37.278,23.602,37.02,23.293z M15.949,25.631c-0.288,1.629-1.846,2.955-3.473,2.955c-0.737,0-1.377-0.278-1.803-0.785  c-0.437-0.52-0.604-1.225-0.47-1.982c0.288-1.631,1.846-2.959,3.474-2.959c0.736,0,1.376,0.279,1.801,0.785  C15.916,24.165,16.082,24.87,15.949,25.631z M31.26,25.631c-0.287,1.629-1.844,2.955-3.471,2.955c-0.738,0-1.378-0.278-1.803-0.785  c-0.438-0.52-0.604-1.225-0.471-1.982c0.289-1.631,1.846-2.959,3.474-2.959c0.737,0,1.376,0.279,1.801,0.785  C31.227,24.165,31.395,24.87,31.26,25.631z M36.246,24.257l-0.088,0.5c-0.053,0.294-0.353,0.552-0.643,0.552h-3.139  c0.043-0.888-0.217-1.711-0.76-2.358c-0.634-0.755-1.566-1.171-2.628-1.171c-1.11,0-2.194,0.474-3.03,1.227l1.53-8.685  c0.419-0.186,0.829-0.285,1.22-0.285h3.993c0.831,0,1.329,0.787,1.949,2.241l1.089,4.484l-0.441,2.498  c-0.027,0.156,0.016,0.318,0.119,0.44c0.102,0.122,0.254,0.192,0.413,0.192h0.124c0.104,0,0.186,0.033,0.237,0.094  C36.246,24.051,36.266,24.147,36.246,24.257z"/>
</svg>
