<svg xmlns="http://www.w3.org/2000/svg" xmlns:xlink="http://www.w3.org/1999/xlink" xmlns:sketch="http://www.bohemiancoding.com/sketch/ns" viewBox="0 0 60 28.75" version="1.1" x="0px" y="0px">
  <g stroke="none" stroke-width="1" fill="none" fill-rule="evenodd" sketch:type="MSPage"><g sketch:type="MSLayerGroup" fill="#000000"><path d="M59,5.112 L57.928,5.112 C57.586,3.519 56.424,2.183 54.493,1.217 C53.026,0.484 51.365,0.112 49.557,0.112 L38.046,0.112 C38.03,0.112 38.016,0.116 38,0.116 L38,0.112 L10.489,0.112 C8.681,0.112 7.02,0.484 5.553,1.217 C3.621,2.183 2.46,3.519 2.118,5.112 L1,5.112 C0.448,5.112 0,5.56 0,6.112 C0,6.664 0.448,7.112 1,7.112 L2,7.112 L2.001,15.166 C2.107,17.133 3.548,21.221 8.248,22.612 C9.119,22.87 10.038,23 10.978,23 L10.979,23 C12.134,23 13.303,22.806 14.455,22.424 C19.513,20.743 28,16.909 27.995,10.208 C28.005,10.109 28.104,9.018 27.998,7.588 C29.138,6.725 30.92,6.736 32.044,7.621 C31.943,9.012 32.038,10.055 32.046,10.112 C32.046,16.909 40.533,20.743 45.592,22.424 C46.743,22.806 47.912,23 49.067,23 C50.009,23 50.928,22.87 51.799,22.612 C56.498,21.221 57.94,17.133 58.046,15.112 L58.046,7.112 L59,7.112 C59.553,7.112 60,6.664 60,6.112 C60,5.56 59.553,5.112 59,5.112 L59,5.112 Z M7.707,9.819 C7.512,10.014 7.256,10.112 7,10.112 C6.744,10.112 6.488,10.014 6.293,9.819 C5.902,9.428 5.902,8.795 6.293,8.405 L10.293,4.405 C10.684,4.014 11.316,4.014 11.707,4.405 C12.098,4.795 12.098,5.428 11.707,5.819 L7.707,9.819 L7.707,9.819 Z M18.707,5.819 L11.707,12.819 C11.512,13.014 11.256,13.112 11,13.112 C10.744,13.112 10.488,13.014 10.293,12.819 C9.902,12.428 9.902,11.795 10.293,11.405 L17.293,4.405 C17.684,4.014 18.316,4.014 18.707,4.405 C19.098,4.795 19.098,5.428 18.707,5.819 L18.707,5.819 Z M27.689,5.468 C27.424,4.281 26.967,3.08 26.208,2.112 L33.838,2.112 C33.073,3.086 32.615,4.298 32.351,5.488 C30.902,4.806 29.144,4.799 27.689,5.468 L27.689,5.468 Z M37,10.112 C36.744,10.112 36.488,10.014 36.293,9.819 C35.902,9.428 35.902,8.795 36.293,8.405 L40.293,4.405 C40.684,4.014 41.316,4.014 41.707,4.405 C42.098,4.795 42.098,5.428 41.707,5.819 L37.707,9.819 C37.512,10.014 37.256,10.112 37,10.112 L37,10.112 Z M48.707,5.819 L41.707,12.819 C41.512,13.014 41.256,13.112 41,13.112 C40.744,13.112 40.488,13.014 40.293,12.819 C39.902,12.428 39.902,11.795 40.293,11.405 L47.293,4.405 C47.684,4.014 48.316,4.014 48.707,4.405 C49.098,4.795 49.098,5.428 48.707,5.819 L48.707,5.819 Z" sketch:type="MSShapeGroup"/></g></g>
</svg>
