<svg xmlns="http://www.w3.org/2000/svg"
    xmlns:xlink="http://www.w3.org/1999/xlink"
    version="1.1"
    x="0px"
    y="0px"
    viewBox="0 0 48 48"
    enable-background="new 0 0 48 48"
    xml:space="preserve">
  <path d="M33.942,27.104l-4.469-1.197c0.254-1.249,0.141-2.71-0.396-4.576c-0.543-1.898,1.607-3.948,3.687-5.931  c1.795-1.711,3.49-3.326,3.452-4.926c-0.072-2.95-1.998-5.081-5.424-6c-3.429-0.917-6.162-0.034-7.697,2.485  c-0.833,1.364-0.173,3.611,0.525,5.99c0.809,2.757,1.646,5.606,0.227,6.979c-1.396,1.349-2.247,2.556-2.653,3.759l-4.446-1.192  c-0.763-0.205-1.709,0.196-2.097,0.886l-2.681,4.79c-0.213,0.376-0.247,0.801-0.094,1.167c0.154,0.367,0.482,0.642,0.9,0.753  l0.989,0.266l0.384,2.094c0.142,0.753,0.83,1.498,1.567,1.697l13.291,3.561c0.153,0.041,0.318,0.063,0.491,0.063  c0.657,0,1.331-0.295,1.715-0.75l1.378-1.621l0.992,0.266c0.128,0.035,0.258,0.052,0.385,0.052c0.728,0,1.264-0.55,1.273-1.307  l0.073-5.495C35.324,28.108,34.721,27.313,33.942,27.104z M30.452,36.375c-0.241,0.284-0.82,0.463-1.185,0.368l-13.29-3.561  c-0.37-0.1-0.772-0.537-0.844-0.914l-0.298-1.623l16.687,4.471L30.452,36.375z M24.543,20.648c1.854-1.793,0.889-5.08,0.037-7.979  c-0.606-2.065-1.233-4.201-0.631-5.188c1.733-2.844,4.871-2.5,6.585-2.04s4.602,1.729,4.683,5.059  c0.027,1.156-1.584,2.692-3.142,4.178c-2.188,2.086-4.668,4.45-3.958,6.93c0.476,1.653,0.59,2.971,0.39,4.042l-6.322-1.695  C22.546,22.929,23.305,21.846,24.543,20.648z M34.243,34.397c-0.001,0.097-0.03,0.32-0.273,0.32c-0.039,0-0.081-0.006-0.126-0.018  l-20.809-5.574c-0.118-0.031-0.202-0.093-0.236-0.174c-0.033-0.079-0.019-0.182,0.043-0.289l2.683-4.793  c0.14-0.249,0.47-0.431,0.785-0.431c0.063,0,0.123,0.008,0.179,0.022l17.195,4.608c0.341,0.092,0.637,0.481,0.633,0.834  L34.243,34.397z"/>
  <path d="M22.012,39.196c-0.375,0-9.189,0.026-9.189,2.342c0,2.314,8.813,2.341,9.188,2.341s9.189-0.026,9.189-2.341  C31.2,39.223,22.387,39.196,22.012,39.196z M22.011,42.879c-5.061,0-7.98-0.878-8.193-1.313c0.213-0.492,3.132-1.37,8.194-1.37  c5.062,0,7.98,0.878,8.193,1.313C29.992,42.001,27.072,42.879,22.011,42.879z"/>
  <path d="M29.86,7.016c0.303,0.024,0.516-0.187,0.536-0.461s-0.185-0.515-0.459-0.536c-0.142-0.014-3.467-0.239-5.188,2.338  c-0.153,0.229-0.092,0.54,0.139,0.693c0.085,0.058,0.182,0.085,0.277,0.085c0.161,0,0.319-0.078,0.416-0.223  C26.974,6.829,29.837,7.016,29.86,7.016z"/>
</svg>
