<svg xmlns="http://www.w3.org/2000/svg"
    xmlns:xlink="http://www.w3.org/1999/xlink"
    version="1.1"
    x="0px"
    y="0px"
    viewBox="0 0 100 100"
    style="enable-background:new 0 0 100 100;"
    xml:space="preserve">
  <style type="text/css">
	.st0{fill:none;stroke:#000000;stroke-width:2;stroke-linecap:round;stroke-linejoin:round;stroke-miterlimit:10;}
	.st1{fill:none;stroke:#000000;stroke-width:2;stroke-miterlimit:10;}
  </style>
  <path d="M11.98,65.829v1.703c0,0.553,0.448,1,1,1s1-0.447,1-1v-1.703h1.988c0.552,0,1-0.447,1-1s-0.448-1-1-1H13.98v-1.702  c0-0.553-0.448-1-1-1s-1,0.447-1,1v1.702H9.992c-0.552,0-1,0.447-1,1s0.448,1,1,1H11.98z"/>
  <path d="M23.708,82.294c0.552,0,1-0.447,1-1v-0.992h1.202c0.552,0,1-0.447,1-1s-0.448-1-1-1h-1.202v-0.991c0-0.553-0.448-1-1-1  s-1,0.447-1,1v0.991h-1.202c-0.552,0-1,0.447-1,1s0.448,1,1,1h1.202v0.992C22.708,81.847,23.156,82.294,23.708,82.294z"/>
  <path d="M66.913,18.248c-0.552,0-1,0.447-1,1v0.991h-1.202c-0.552,0-1,0.447-1,1s0.448,1,1,1h1.202v0.992c0,0.553,0.448,1,1,1  s1-0.447,1-1v-0.992h1.202c0.552,0,1-0.447,1-1s-0.448-1-1-1h-1.202v-0.991C67.913,18.695,67.465,18.248,66.913,18.248z"/>
  <path d="M19.538,68.88c0,0.042,0.011,0.082,0.016,0.123c0.003,0.027,0.005,0.052,0.01,0.079c0.024,0.114,0.065,0.22,0.125,0.318  c0.004,0.007,0.004,0.016,0.009,0.023c0.017,0.027,0.041,0.047,0.061,0.072c0.026,0.033,0.051,0.066,0.081,0.095  c0.034,0.034,0.072,0.061,0.109,0.089c0.022,0.016,0.039,0.036,0.062,0.051l27.42,17.006c0.028,0.018,0.06,0.025,0.09,0.04  c0.031,0.015,0.06,0.029,0.093,0.041c0.112,0.041,0.226,0.069,0.344,0.069s0.232-0.028,0.344-0.069  c0.033-0.012,0.062-0.026,0.093-0.041c0.03-0.015,0.062-0.022,0.09-0.04l27.42-17.006c0.023-0.014,0.041-0.035,0.062-0.051  c0.038-0.028,0.076-0.056,0.11-0.089c0.03-0.029,0.055-0.062,0.08-0.095c0.02-0.025,0.043-0.045,0.061-0.072  c0.005-0.007,0.005-0.016,0.009-0.023c0.06-0.098,0.102-0.205,0.125-0.318c0.005-0.027,0.007-0.052,0.01-0.079  c0.005-0.041,0.016-0.081,0.016-0.123V35.543c0-0.042-0.011-0.082-0.016-0.123c-0.003-0.027-0.005-0.052-0.01-0.079  c-0.024-0.114-0.065-0.22-0.125-0.318c-0.004-0.007-0.004-0.016-0.009-0.023c-0.009-0.013-0.023-0.02-0.032-0.033  c-0.059-0.083-0.13-0.157-0.214-0.219c-0.017-0.013-0.031-0.028-0.049-0.04c-0.007-0.004-0.012-0.011-0.018-0.015l-27.42-17.006  c-0.029-0.018-0.061-0.025-0.09-0.04c-0.031-0.015-0.06-0.029-0.092-0.041c-0.223-0.083-0.465-0.083-0.688,0  c-0.032,0.012-0.062,0.026-0.092,0.041c-0.03,0.015-0.062,0.022-0.09,0.04l-27.42,17.006c-0.008,0.005-0.013,0.012-0.02,0.016  c-0.016,0.01-0.028,0.024-0.044,0.035c-0.085,0.063-0.157,0.138-0.217,0.222c-0.009,0.013-0.023,0.019-0.032,0.033  c-0.005,0.007-0.005,0.016-0.009,0.023c-0.06,0.098-0.102,0.205-0.125,0.318c-0.005,0.027-0.007,0.052-0.01,0.079  c-0.005,0.041-0.016,0.081-0.016,0.123V68.88z M74.379,67.042l-10.528-6.807V44.188l10.528-6.807V67.042z M33.096,61.951  l13.862,8.003v14.134L22.407,68.862L33.096,61.951z M47.958,36.2l13.892,8.021v15.981l-13.892,8.021l-13.892-8.021V44.221  L47.958,36.2z M48.958,69.955l13.863-8.003l10.689,6.911L48.958,84.089V69.955z M62.821,42.472l-13.863-8.003V20.334L73.51,35.561  L62.821,42.472z M46.958,34.468l-13.862,8.003l-10.689-6.911l24.551-15.227V34.468z M32.067,44.188v16.047l-10.529,6.807V37.38  L32.067,44.188z"/>
  <path d="M50.66,44.003l6.508,3.468v7.753c0,0.553,0.448,1,1,1s1-0.447,1-1V46.87c0-0.369-0.204-0.709-0.53-0.883l-7.038-3.75  c-0.487-0.256-1.093-0.074-1.353,0.412C49.988,43.138,50.173,43.743,50.66,44.003z"/>
</svg>
