<svg id="f79b6a97-73bc-4170-8d6a-bbfa8e47a66f" data-name="Icon" xmlns="http://www.w3.org/2000/svg" viewBox="0 0 36 36">
  <defs>
    <style>
      .fb2e8808-b095-4c4e-9e1b-8d4c0ee2173b {
        fill: #e00;
      }
    </style>
  </defs>
  <g>
    <path class="fb2e8808-b095-4c4e-9e1b-8d4c0ee2173b" d="M31,4.38H5A.62.62,0,0,0,4.38,5V31a.62.62,0,0,0,.62.62H31a.62.62,0,0,0,.62-.62V5A.62.62,0,0,0,31,4.38Zm-.62,26H5.62V5.62H30.38Z"/>
    <path class="fb2e8808-b095-4c4e-9e1b-8d4c0ee2173b" d="M17.24,21.54a.62.62,0,0,0,.74-.49l1.24-5.84a.64.64,0,0,0-.48-.75A.63.63,0,0,0,18,15l-1.25,5.84A.64.64,0,0,0,17.24,21.54Z"/>
    <path class="fb2e8808-b095-4c4e-9e1b-8d4c0ee2173b" d="M23.12,18,21,20.11a.63.63,0,1,0,.88.89l2.56-2.56a.62.62,0,0,0,0-.89L21.88,15a.63.63,0,1,0-.88.88Z"/>
    <path class="fb2e8808-b095-4c4e-9e1b-8d4c0ee2173b" d="M14.12,21a.63.63,0,0,0,.88-.89L12.88,18,15,15.87c.59-.56-.31-1.46-.88-.88l-2.56,2.56a.62.62,0,0,0,0,.89Z"/>
  </g>
</svg>
