<svg xml:space="preserve" viewBox="0 0 1326.134 1081.248" xmlns="http://www.w3.org/2000/svg">
  <defs>
    <clipPath id="a" clipPathUnits="userSpaceOnUse">
      <path d="M0 1080h1080V0H0Z"/>
    </clipPath>
    <clipPath id="b" clipPathUnits="userSpaceOnUse">
      <path d="M279.73 852.505c-8.178 4.253-17.588 6.658-27.757 6.658-35.039 0-65.722-28.405-68.531-63.443-2.811-35.039 23.315-63.443 58.354-63.443H557.24c18.194 0 31.94 14.749 30.702 32.943-1.238 18.193-16.99 32.941-35.184 32.941-1.55 0-3.066-.114-4.545-.322a46.08 46.08 0 0 1 1.131 10.118c0 25.379-20.574 45.954-45.953 45.954-8.4 0-16.267-2.265-23.042-6.201-12.392 41.761-51.777 72.053-99.274 72.053-45.659 0-85.333-27.994-101.345-67.258"/>
    </clipPath>
    <clipPath id="c" clipPathUnits="userSpaceOnUse">
      <path d="M0 1080h1080V0H0Z"/>
    </clipPath>
    <clipPath id="d" clipPathUnits="userSpaceOnUse">
      <path d="M568.466 878.906c-33.496-47.187-68.107-80.495-135.658-104.367-67.548-23.871-161.895-13.879-250.1-42.745-88.205-28.868-138.683-97.378-140.683-170.853-3.348-123.11 82.065-228.85 230.004-229.405 147.94-.555 187.018-62.731 319.884-134.9 32.81-17.821 68.562-30.189 105.556-35.741 30.088-4.515 60.864-4.578 91.012-.565 84.919 11.304 161.705 58.949 203.179 134.404 21.773 39.614 47.629 101.81 44.636 147.725-3.908 59.955-14.517 76.812-55.148 144.221-40.633 67.409-39.818 127.521-38.822 188.945 1.166 71.833-19.364 160.461-138.832 186.552-19.527 4.265-38.045 6.172-55.525 6.171-89.462-.004-151.482-49.968-179.503-89.442"/>
    </clipPath>
    <clipPath id="e" clipPathUnits="userSpaceOnUse">
      <path d="M205.865 582.116c.251-6.355-1.061-24.554-4.09-39.826-3.04-15.282-13.023-27.777-21.203-35.047-3.88-3.451-12.384-6.809-17.754-8.489 0 0 9.634-1.443 17.651-10.725 4.574-5.297 17.828-18.44 22.767-22.707 10.773-9.305 24.638-15.626 39.068-15.539 11.427.069 25.613 4.811 26.932 17.986.848 8.469-4.793 23.304-6.914 26.934-2.049 3.53-6.66 5.01-6.95 5.09-5.22-.06-7.885.755-10.957 2.319-8.01 4.077-7.707 8.738-7.707 8.738.61 5.76 4.26 14.72 4.26 14.72l-.93 19.52s-19.68 29.97-25.44 36.03c-3.137 3.306-5.526 5.193-7.007 5.193-1.235 0-1.84-1.309-1.726-4.197"/>
    </clipPath>
    <clipPath id="f" clipPathUnits="userSpaceOnUse">
      <path d="M568.466 878.906c-33.496-47.187-68.107-80.495-135.658-104.367-67.548-23.871-161.895-13.879-250.1-42.745-88.205-28.868-138.683-97.378-140.683-170.853-3.348-123.11 82.065-228.85 230.004-229.405 147.94-.555 187.018-62.731 319.884-134.9 32.81-17.821 68.562-30.189 105.556-35.741 30.088-4.515 60.864-4.578 91.012-.565 84.919 11.304 161.705 58.949 203.179 134.404 21.773 39.614 47.629 101.81 44.636 147.725-3.908 59.955-14.517 76.812-55.148 144.221-40.633 67.409-39.818 127.521-38.822 188.945 1.166 71.833-19.364 160.461-138.832 186.552-19.527 4.265-38.045 6.172-55.525 6.171-89.462-.004-151.482-49.968-179.503-89.442"/>
    </clipPath>
    <clipPath id="g" clipPathUnits="userSpaceOnUse">
      <path d="M849.261 478.973c-15.234-12.656-14.803-26.164-14.803-26.164s-1.369-7.116-4.506-13.443c-3.137-6.327-11.835-13.592-11.835-13.592l-11.978-21.327s-52.495-153.269-58.12-173.658c-5.624-20.389-14.062-38.903-14.062-38.903-7.499-4.219-24.842-19.92-32.575-29.764a24.62 24.62 0 0 1-1.173-1.626c29.215-4.116 59.038-4.057 88.272-.166 41.542 5.53 81.135 19.755 115.603 41.68l61.417 200.094s3.281 40.309 0 53.198c-3.28 12.89-10.081 22.181-22.971 26.4-12.889 4.219-23.42 6.865-40.54 14.613l-18.045 2.344s-19.451-7.031-34.684-19.686"/>
    </clipPath>
    <clipPath id="h" clipPathUnits="userSpaceOnUse">
      <path d="M568.466 878.906c-33.496-47.187-68.107-80.495-135.658-104.367-67.548-23.871-161.895-13.879-250.1-42.745-88.205-28.868-138.683-97.378-140.683-170.853-3.348-123.11 82.065-228.85 230.004-229.405 147.94-.555 187.018-62.731 319.884-134.9 32.81-17.821 68.562-30.189 105.556-35.741 30.088-4.515 60.864-4.578 91.012-.565 84.919 11.304 161.705 58.949 203.179 134.404 21.773 39.614 47.629 101.81 44.636 147.725-3.908 59.955-14.517 76.812-55.148 144.221-40.633 67.409-39.818 127.521-38.822 188.945 1.166 71.833-19.364 160.461-138.832 186.552-19.527 4.265-38.045 6.172-55.525 6.171-89.462-.004-151.482-49.968-179.503-89.442"/>
    </clipPath>
    <clipPath id="i" clipPathUnits="userSpaceOnUse">
      <path d="M991.601 444.566c-21.72-18.089-35.244-26.648-82.093-42.122-25.845-8.536-31.805-32.665-36.998-50.718-5.19-18.051-6.413-25.788-35.21-97.137-18.084-44.801-39.069-75.402-58.021-95.355 3.074.324 6.14.689 9.202 1.096 46.072 6.133 89.745 22.959 126.688 49.123 6.464 6.684 12.535 13.587 17.978 20.637 45.13 58.454 61.893 117.339 71.779 150.004 9.885 32.666 9.885 54.157 7.736 64.472-1.024 4.919-3.524 7.093-6.974 7.093-3.784 0-8.711-2.616-14.087-7.093"/>
    </clipPath>
    <clipPath id="j" clipPathUnits="userSpaceOnUse">
      <path d="M0 1080h1080V0H0Z"/>
    </clipPath>
    <clipPath id="k" clipPathUnits="userSpaceOnUse">
      <path d="M755.213 283.064s-27.516 6.77-57.172 16.656c-29.657 9.885-45.131 18.858-45.131 18.858l-14.184-17.999s27.938-21.061 43.841-33.095c15.904-12.035 64.569-40.832 72.042-43.841 7.474-3.009 13.882-2.255 19.9 3.868 5.295 5.385 57.203 70.38 67.088 96.008l-61.371 12.734s-9.38-33.273-25.013-53.189"/>
    </clipPath>
    <clipPath id="l" clipPathUnits="userSpaceOnUse">
      <path d="M0 1080h1080V0H0Z"/>
    </clipPath>
    <clipPath id="m" clipPathUnits="userSpaceOnUse">
      <path d="M270.42 560.708s-.011-3.859-.016-4.134c-.005-.272 2.233-2.142 4.822-2.008 2.59.133 5.919 4.177 5.919 4.177-1.339.051-2.632.672-2.441 1.312.191.639-.536 2.191-2.715 2.325a3.675 3.675 0 0 1-.236.007c-2.179 0-5.333-1.679-5.333-1.679"/>
    </clipPath>
    <clipPath id="n" clipPathUnits="userSpaceOnUse">
      <path d="M0 1080h1080V0H0Z"/>
    </clipPath>
    <clipPath id="o" clipPathUnits="userSpaceOnUse">
      <path d="M780.896 608.042s-3.002-2.205-5.2-13.783c-2.199-11.578-7.541-23.402-6.632-27.823.91-4.42 5.462-5.85 5.852-8.581.39-2.73-.521-4.337-.521-4.337-1.949-5.897-5.447-14.339-8.437-18.889-2.99-4.551-2.601-5.721-2.21-7.027.39-1.305 3.38-3.244 6.37-2.074 2.99 1.17 7.138 1.508 7.138 1.508.78-3.776.13-6.235.91-7.405s3.38-2.21 3.38-2.21 2.471 2.6 5.461 4.68c2.99 2.081 4.559 1.013 4.559 1.013 0-3.051-2.541-7.554-3.073-9.229-.531-1.674-1.525-5.447-1.307-6.101.218-.654 1.983-1.884 3.508-2.103 1.526-.217 3.487-1.96 4.14-6.972.654-5.011 2.18-13.292 5.666-15.907 3.486-2.614 7.408-2.832 11.984-.653s12.424 8.716 12.424 8.716c4.359-5.012 11.327-20.483 11.327-20.483l54.693 26.366c-2.615 3.486-6.607 9.542-9.005 14.772-2.395 5.229-6.608 14.03-6.637 20.332l-23.272 39.784s-39.525 30.684-49.146 39.264c-2.624 2.341-5.451 3.192-8.176 3.192-7.264 0-13.796-6.05-13.796-6.05"/>
    </clipPath>
    <clipPath id="p" clipPathUnits="userSpaceOnUse">
      <path d="M0 1080h1080V0H0Z"/>
    </clipPath>
    <clipPath id="q" clipPathUnits="userSpaceOnUse">
      <path d="M126.468 426.35c7.87-23.92 22.551-68.822 33.762-88.812 11.209-19.991 18.171-26.206 23.32-26.505 4.281-.26 23.872 8.998 48.61 23.926a213.223 213.223 0 0 1 15.288 10.104c29.912 21.695 51.35 24.957 51.35 24.957s1.7.33 3.32.44c.7.05 1.39.05 1.92-.03 0 0 2.82-2.28 6.98-3.75 4.159-1.48 22.225-3.085 27.725-7.245 0 0 2.403-1.704 4.019-3.582 0 0 .716-1.383 1.386-2.993.67-1.61 1.758-3.566 3.498-4.366 1.75-.81 3.626.269 3.626.269s2.806-3.543 5.616-4.083c2.82-.54 4.7.13 5.231 1.34 0 0 2.149-1.469 4.158-1.61 2.011-.129 3.646-.009 4.291 1.88.355 1.041-2.28 3.89-2.28 3.89s-2.54 2.95-5.49 8.04c.26-.21 4.361-3.63 6.43-4.15 2.15-.54 3.785-.024 4.023 1.408.238 1.431-3.784 4.628-6.573 8.112-2.78 3.496-6.557 6.211-8.27 7.498-2.148 1.613-32.626 11.399-39.286 13.519-.51.16-1.021.32-1.52.47-6.02 1.82-15.039 2.628-26.499.118-12.41-2.73-79.142-20.728-89.432-24.968-1.317-.542-5.537-1.724-6.668-2.119-7.268 13.023-21.289 61.885-21.895 65.823-.606 3.936.302 10.297.302 10.297z"/>
    </clipPath>
    <clipPath id="r" clipPathUnits="userSpaceOnUse">
      <path d="M0 1080h1080V0H0Z"/>
    </clipPath>
    <clipPath id="s" clipPathUnits="userSpaceOnUse">
      <path d="M119.734 466.405c-3.089-18.536 2.827-35.343 6.734-55.899 2.767-14.558 3.874-24.112 3.874-24.112s1.031 4.463 8.582 8.238c7.552 3.776 22.79 6.115 33.773 5.772 10.034-.314 11.694-3.263 11.906-3.772-.686 1.882-14.12 39.032-12.58 59.724l-20.117 39.657c-20.877-6.644-29.083-11.073-32.172-29.608m64.896-69.847"/>
    </clipPath>
    <clipPath id="t" clipPathUnits="userSpaceOnUse">
      <path d="M206.88 578.653c.25-6.356-2.498-22.671-5.532-37.946-3.034-15.275-7.013-24.651-15.19-31.919-8.178-7.269-34.252-12.775-34.252-12.775-13.629-10.297-.908-62.391 4.846-77.838 5.756-15.446 31.803-87.398 31.803-87.398h117.826c-6.663 7.4-12.787 21.264-15.209 31.864-1.799 7.868-.686 27.947-.675 36.006.004 2.8.933 5.504 2.585 7.763 6.917 9.458 7.163 17.466 4.927 23.859-2.604 7.442-12.893 20.825-12.893 20.825-5.361 11.925 3.298 20.828-1.893 36.039-3.561 10.434-14.177 12.618-22.354 12.618-2.495 0-3.784.042-5.497.042-1.811 0-4.501-.523-9.187 1.366-10.191 4.107-9.474 9.695-9.474 9.695.605 5.754 4.26 14.714 4.26 14.714l-.929 19.527s-19.687 29.967-25.441 36.025c-2.355 2.479-4.118 3.58-5.362 3.58-1.795 0-2.508-2.293-2.359-6.047"/>
    </clipPath>
    <clipPath id="u" clipPathUnits="userSpaceOnUse">
      <path d="M0 1080h1080V0H0Z"/>
    </clipPath>
  </defs>
  <g clip-path="url(#a)" transform="matrix(1.33333 0 0 -1.33333 -55.908 1291.126)">
    <path fill="#fddbdb" d="M42.026 560.94c2 73.476 52.477 141.985 140.682 170.853 88.205 28.867 182.551 18.875 250.101 42.746 67.55 23.871 102.161 57.179 135.657 104.366 33.496 47.187 115.56 109.363 235.028 83.271 119.468-26.091 143.633-125.308 138.832-186.552-4.8-61.244-1.81-121.535 38.822-188.944 40.631-67.409 51.241-84.267 55.148-144.222 2.993-45.914-22.862-108.11-44.637-147.726-41.473-75.455-118.259-123.1-203.177-134.402-30.149-4.014-60.924-3.952-91.012.564-36.995 5.552-72.746 17.92-105.557 35.742-132.866 72.168-171.944 134.344-319.884 134.899C124.09 332.09 38.676 437.83 42.026 560.94"/>
    <path fill="#fddbdb" d="M381.075 921.763c-22.514 0-44.268-6.656-62.91-19.248-17.631-11.909-31.235-28.218-39.454-47.27-8.257 3.928-17.241 5.918-26.738 5.918-36.001 0-67.638-29.286-70.525-65.283-1.408-17.548 4.123-34.044 15.574-46.45 11.4-12.351 27.301-19.153 44.773-19.153H557.24c9.345 0 17.895 3.642 24.074 10.256 6.198 6.634 9.261 15.45 8.623 24.822-1.305 19.193-17.984 34.807-37.179 34.807-.683 0-1.372-.022-2.067-.064.434 2.609.653 5.242.653 7.859 0 26.442-21.512 47.953-47.954 47.953a47.942 47.942 0 0 1-21.857-5.274c-6.463 19.915-19.342 37.729-36.469 50.37-18.398 13.579-40.525 20.757-63.989 20.757m0-2c47.497 0 86.882-30.292 99.273-72.053a45.726 45.726 0 0 0 23.042 6.2c25.38 0 45.954-20.574 45.954-45.953a46.08 46.08 0 0 0-1.131-10.118c1.479.208 2.994.323 4.545.323 18.193 0 33.946-14.749 35.184-32.943 1.237-18.193-12.508-32.942-30.702-32.942H241.795c-35.038 0-61.164 28.404-58.354 63.443 2.81 35.039 33.493 63.443 68.532 63.443 10.169 0 19.579-2.405 27.756-6.658 16.013 39.264 55.687 67.258 101.346 67.258"/>
    <path fill="#f56d6d" d="M460.565 503.143h62.683v74.735h-62.683ZM358.437 613.449h62.683v74.735h-62.683z"/>
    <path fill="none" stroke="#e00" stroke-miterlimit="10" stroke-width="2" d="M389.419 742.953V584.865c0-13.837 11.217-25.055 25.055-25.055h191.754c13.837 0 25.055-11.218 25.055-25.055v-36.13"/>
    <path fill="#fff" d="M587.942 765.22c-1.238 18.194-16.99 32.942-35.184 32.942-1.55 0-3.066-.114-4.545-.322a46.08 46.08 0 0 1 1.131 10.118c0 25.379-20.574 45.953-45.953 45.953a45.72 45.72 0 0 1-23.042-6.2c-12.392 41.76-51.777 72.053-99.274 72.053-45.659 0-85.333-27.994-101.345-67.258-8.178 4.252-17.588 6.658-27.757 6.658-35.038 0-65.721-28.404-68.531-63.444-2.811-35.038 23.315-63.442 58.354-63.442H557.24c18.194 0 31.94 14.749 30.702 32.942"/>
    <path fill="none" stroke="#fddbdb" stroke-linecap="round" stroke-linejoin="round" stroke-miterlimit="10" stroke-width="2" d="M319.704 877.065c16.424 14.847 38.318 23.698 61.372 23.698 17.698 0 34.203-5.067 47.845-13.996m-125.367-29.124a87.286 87.286 0 0 0 7.118 9.976"/>
    <path fill="#fff" d="M344.555 624.536c13.631 16.426 13.881 51.74 13.881 63.648h62.683c0-11.908-.25-47.222-13.881-63.648z"/>
    <path fill="#e00" d="M446.684 514.23c13.631 16.425 13.881 51.74 13.881 63.648h62.683c0-11.908-.25-47.223-13.881-63.648z"/>
    <path fill="#f56d6d" d="M600.181 433.334h62.683v74.735h-62.683z"/>
    <path fill="#fff" d="M586.3 444.421c13.631 16.426 13.881 51.74 13.881 63.648h62.683c0-11.908-.25-47.222-13.881-63.648z"/>
  </g>
  <g clip-path="url(#b)" transform="matrix(1.33333 0 0 -1.33333 -55.908 1291.126)">
    <path fill="#fddbdb" d="M247.853 588.041H122.609V762.15h125.244z"/>
  </g>
  <g clip-path="url(#c)" transform="matrix(1.33333 0 0 -1.33333 -55.908 1291.126)">
    <path fill="#fff" stroke="#f56d6d" stroke-miterlimit="10" stroke-width="2" d="M237.895 597.999H112.651v174.109h125.244z"/>
    <path fill="#c9c9c9" d="M218.39 734.33c0 6.917-5.607 12.524-12.524 12.524-6.917 0-12.524-5.607-12.524-12.524 0-6.917 5.607-12.524 12.524-12.524 6.917 0 12.524 5.607 12.524 12.524"/>
    <path fill="none" stroke="#e00" stroke-miterlimit="10" stroke-width="4" d="M179.174 734.33H131.13"/>
    <path fill="#c9c9c9" d="M218.39 689.622c0 6.917-5.607 12.524-12.524 12.524-6.917 0-12.524-5.607-12.524-12.524 0-6.917 5.607-12.524 12.524-12.524 6.917 0 12.524 5.607 12.524 12.524"/>
    <path fill="none" stroke="#e00" stroke-miterlimit="10" stroke-width="4" d="M179.174 689.622H131.13"/>
    <path fill="#c9c9c9" d="M218.39 644.914c0 6.917-5.607 12.524-12.524 12.524-6.917 0-12.524-5.607-12.524-12.524 0-6.917 5.607-12.524 12.524-12.524 6.917 0 12.524 5.607 12.524 12.524"/>
    <path fill="none" stroke="#e00" stroke-miterlimit="10" stroke-width="4" d="M179.174 644.914H131.13"/>
    <path fill="none" stroke="#e00" stroke-linecap="round" stroke-linejoin="round" stroke-miterlimit="10" stroke-width="4" d="m200.125 736.099 5.794-6.015 12.47 18.851"/>
    <path fill="#f56d6d" d="M866.27 604.671H635.621v193.331H866.27Z"/>
    <path fill="#fff" d="M855.231 615.708H624.582v193.331h230.649z"/>
    <path fill="#e00" d="M855.231 765.517H624.582v43.522h230.649z"/>
    <path fill="none" stroke="#fff" stroke-miterlimit="10" stroke-width="3" d="M649.53 787.278h95.547"/>
    <path fill="#fff" d="M837.366 787.278a4.937 4.937 0 1 1-9.873 0 4.937 4.937 0 0 1 9.873 0"/>
    <path fill="#c9c9c9" d="M830.635 726.512h-64.712v13.898h64.712z"/>
    <path fill="#e00" d="M802.839 698.476h-36.916v13.898h36.916z"/>
    <path fill="#fddbdb" d="M815.868 670.44h-49.945v13.897h49.945z"/>
    <path fill="#e00" d="M741.168 695.55c0 24.706-20.027 44.733-44.733 44.733-24.706 0-44.733-20.027-44.733-44.733 0-24.706 20.027-44.733 44.733-44.733 24.706 0 44.733 20.027 44.733 44.733"/>
    <path fill="#c9c9c9" d="m696.435 695.55 43.17 11.724a44.73 44.73 0 0 0 1.563-11.724c0-24.54-20.193-44.733-44.733-44.733-24.54 0-44.733 20.193-44.733 44.733 0 24.54 20.193 44.733 44.733 44.733z"/>
    <path fill="none" stroke="#fff" stroke-miterlimit="10" d="M741.168 695.55c0 24.706-20.027 44.733-44.733 44.733-24.706 0-44.733-20.027-44.733-44.733 0-24.706 20.027-44.733 44.733-44.733 24.706 0 44.733 20.027 44.733 44.733z"/>
    <path d="m501.089 287.042 4.161-10.468h110.398l2.495 10.468zm-295.47 294.072c-3.233-8.199-9.368-15.718-17.774-14.873-8.407.845-20.379-.756-23.836-11.117-3.457-10.362.228-16.788.228-16.788s-2.244-5.093-11.722-2.428c-9.478 2.664-18.556 2.777-23.485-6.92-4.93-9.697 4.321-17.477 4.321-17.477s-1.659-6.017-8.005-7.023c-6.346-1.006-20.354-3.076-21.732-14.457-.361-2.986.506-5.761 2.484-8.011 1.766-2.008 5.065-2.388 3.966-5.997-.566-1.859-2.101-3.23-3.54-4.536-6.726-6.11-13.236-14.602-11.089-23.432 2.131-8.766 11.85-13.394 20.762-14.798 12.762-2.013 25.821.067 38.376 3.116 8.722 2.118 14.317.928 22.806-.936 4.716-1.035 10.009-2.162 14.825-1.102 11.615 2.555 17.629 16.524 22.012 26.161 19.352 42.562 13.175 125.711 13.175 125.711l-9.952 8.658z"/>
    <path fill="none" stroke="#8b8b8b" stroke-miterlimit="10" d="M787.82 560.25c2.453-9.307-1.229-18.253-8.224-19.982-6.995-1.728-14.655 4.415-17.108 13.721-2.453 9.307 1.228 18.253 8.224 19.982 6.995 1.729 14.655-4.414 17.108-13.721z"/>
  </g>
  <g clip-path="url(#d)" transform="matrix(1.33333 0 0 -1.33333 -55.908 1291.126)">
    <path fill="#fff" d="M163.158 488.662s-56.508-5.972-72.817-18.146c-16.309-12.175-11.256-36.524-5.514-62.022 5.743-25.498 19.985-59.724 19.985-59.724l70.98-32.848-.689 115.313-11.026 56.968z"/>
    <path fill="#c9c9c9" d="M171.154 487.193c-21.685-1.205-70.115-12.288-79.512-23.854-9.397-11.565-6.746-22.167-3.614-41.442 3.132-19.276 20.48-76.38 32.769-96.378 12.288-19.998 57.586-25.299 57.586-25.299l2.409 140.23z"/>
    <path fill="#5f0000" d="M284.504 359.752s33.744-21.617 50.16-24.866l-27.761-8.332-36.5 27.042"/>
    <path fill="#6c6c6c" d="M240.97 525.569s-3.654-8.96-4.26-14.715c0 0-.716-5.587 9.474-9.695 4.687-1.889 7.376-1.366 9.188-1.366 1.712.001 3.001-.041 5.496-.041 8.177 0 18.794-2.185 22.354-12.619 5.191-15.211-3.467-24.113 1.894-36.039 0 0 10.289-13.383 12.892-20.825 2.236-6.393 1.99-14.4-4.926-23.858-1.653-2.26-2.581-4.964-2.585-7.764-.012-8.058-1.124-28.138.674-36.005 2.423-10.601 8.546-24.465 15.209-31.865H188.553s-26.046 71.952-31.801 87.398c-5.755 15.447-18.475 67.541-4.846 77.838 0 0 26.073 5.506 34.251 12.775 8.177 7.268 12.157 16.644 15.19 31.919 3.034 15.275 5.783 31.591 5.532 37.946-.251 6.355 1.966 8.524 7.721 2.467 5.755-6.057 25.441-36.025 25.441-36.025z"/>
    <path fill="#2e2e2e" d="m198.964 342.881-17.96 44.356-6.691 16.974"/>
    <path fill="#2e2e2e" d="M177.88 411.758s-3.646 15.517-5.612 23.521c-1.968 8.004-1.5 17.749-1.5 17.749s7.535-15.675 13.306-26.545c7.103-13.379 22.074-26.209 47.984-23.902 12.31 1.097-3.655-5.435-9.877-8.75-16.079-8.568-17.138-29.453-18.553-45.276-2.739.311-4.859 2.402-6.626 4.449a80.447 80.447 0 0 0-9.862 14.291 79.278 79.278 0 0 0-3.929 8.397c-.485 1.216-.757 2.998-1.491 4.071-.753 1.101-1.398.955-2.142 1.805-1.105 1.261-5.897 19.004-5.897 19.004l-2.937 13.583"/>
    <path fill="#fff" d="M478.245 334.369H366.182v8.783h112.063z"/>
    <path fill="#c9c9c9" d="M366.182 334.37h-81.225l-2.726 8.783h83.951z"/>
    <path fill="none" stroke="#e00" stroke-miterlimit="10" stroke-width="5.985" d="M549.28 331.542H170.375"/>
    <path fill="#8f0000" d="M269.236 467.769c-1.319-13.175-15.505-17.917-26.932-17.986-14.43-.087-28.295 6.234-39.068 15.539-4.939 4.267-18.193 17.41-22.767 22.707-8.017 9.282-17.65 10.725-17.65 10.725 5.369 1.681 13.873 5.039 17.753 8.489 8.18 7.27 18.164 19.766 21.203 35.048 3.029 15.271 4.341 33.471 4.09 39.826-.251 6.355 2.983 5.064 8.733-.996 5.76-6.06 25.44-36.03 25.44-36.03l.93-19.52s-3.65-8.961-4.26-14.72c0 0-.303-4.662 7.707-8.739 3.073-1.564 5.738-2.379 10.958-2.319.289-.08 4.9-1.56 6.949-5.089 2.121-3.63 7.762-18.466 6.914-26.935"/>
  </g>
  <g clip-path="url(#e)" transform="matrix(1.33333 0 0 -1.33333 -55.908 1291.126)">
    <path fill="#5f0000" d="M211.498 555.714c.205-7.168 3.823-38.879 17.477-52.076 6.824-6.596 30.85-5.897 33.062 1.035 2.096 6.571-17.565 19.706-17.565 19.706l-21.095 24.167z"/>
  </g>
  <g clip-path="url(#f)" transform="matrix(1.33333 0 0 -1.33333 -55.908 1291.126)">
    <path d="M205.794 576.858s.814-5.504.207-12.65c-.607-7.146-2.897-23.361-9.119-34.934-6.221-11.573-10.038-.599-10.038-.599l11.93 28.767 6.304 16.377"/>
    <path fill="#2e2e2e" d="M826.467 216.778s-88.671 7.411-114.932 8.262c-26.261.851-40.587.098-52.159-10.496-3.697-3.385-10.617-17.458-10.617-17.458s36.329-34.663 68.98-45.211c32.651-10.548 82.985-8.148 82.985-8.148z"/>
    <path d="M750.255 196.47s-88.671 7.411-114.932 8.262c-26.261.851-40.587.098-52.158-10.495-3.698-3.385-10.618-17.459-10.618-17.459s36.33-34.662 68.98-45.21c32.651-10.549 82.985-8.149 82.985-8.149z"/>
    <path fill="#e00" d="M901.99 496.315c17.119-7.748 27.65-10.395 40.54-14.613 12.89-4.219 19.69-13.51 22.971-26.4 3.281-12.889 0-53.198 0-53.198l-61.782-201.28-74.379-58.153-70.307-17.342-66.088 9.609s.703 17.342 8.437 27.185c7.733 9.843 25.076 25.545 32.575 29.763 0 0 8.437 18.514 14.061 38.903 5.625 20.389 58.12 173.658 58.12 173.658l11.979 21.326s8.697 7.266 11.835 13.593c3.138 6.328 4.506 13.443 4.506 13.443s-.431 13.508 14.803 26.164c15.233 12.655 34.684 19.685 34.684 19.685z"/>
  </g>
  <g clip-path="url(#g)" transform="matrix(1.33333 0 0 -1.33333 -55.908 1291.126)">
    <path fill="#8f0000" d="M949.799 480.49s11.283-9.421 10.832-28.395c-.736-30.89-33.832-63.25-33.832-63.25s48.036-24.248 52.882 19.363c4.846 43.612-14.537 75.109-14.537 75.109"/>
  </g>
  <g clip-path="url(#h)" transform="matrix(1.33333 0 0 -1.33333 -55.908 1291.126)">
    <path fill="#8f0000" d="M871.628 394.53s5.034-39.433-12.585-105.713c-17.619-66.281-26.849-57.891-26.849-57.891l-14.262-26.848s-5.034-7.551-17.619-1.678-41.95 29.365-41.95 29.365l57.891 117.459z"/>
    <path fill="#8f0000" d="M784.407 212.23c5.113-3.477 3.286-20.188-4.181-35.42-7.466-15.232-19.978-23.936-19.978-23.936l21.578 2.176 29.738 40.437 4.897 11.605-2.358 6.709"/>
    <path fill="#fff" d="M748.759 134.242c23.58 13.663 59.743 48.999 88.541 120.347 28.797 71.349 30.021 79.086 35.211 97.137 5.191 18.053 11.152 42.183 36.997 50.718 46.85 15.473 60.374 24.032 82.094 42.122 10.275 8.558 18.912 10.315 21.06 0 2.15-10.316 2.15-31.806-7.736-64.472-9.886-32.665-26.648-91.55-71.778-150.004-45.13-58.454-133.242-106.593-133.242-106.593Z"/>
  </g>
  <g clip-path="url(#i)" transform="matrix(1.33333 0 0 -1.33333 -55.908 1291.126)">
    <path fill="#c9c9c9" d="M793.71 149.258c1.896 0 29.059 13.897 68.856 118.129 39.797 104.231 34.113 110.548 51.168 118.129 17.056 7.58 41.83 15.741 66.601 33.693 17.6 12.756 30.05 31.373 32.577 21.897 2.527-9.475 8.212-42.956-1.264-79.595-9.475-36.639-105.494-195.829-105.494-195.829l-92.229-44.219"/>
    <path fill="none" stroke="#fff" stroke-linecap="round" stroke-linejoin="round" stroke-miterlimit="10" d="M863.674 319.668s48.831 6.2 100.343 35.42c47.479 26.934 48.022 44.148 48.022 44.148M835.515 247.713s50.83 6.2 102.342 35.42c47.479 26.934 55.49 55.754 55.49 55.754M805.36 191.208s51.49 3.537 103.513 31.838c42.602 23.178 55.048 52.319 55.048 52.319"/>
  </g>
  <g clip-path="url(#j)" transform="matrix(1.33333 0 0 -1.33333 -55.908 1291.126)">
    <path fill="#fff" d="M783.248 519.065s1.827-2.876 2.889-3.938c0 0 2.118 2.319 4.554 4.39 2.437 2.069 3.853 5.167 1.818 6.848-2.036 1.682-5.399-1.062-5.399-1.062z"/>
    <path fill="#fab6b6" d="M875.286 531.852c.608-8.389 4.241-15.103 6.638-20.333 2.397-5.229 6.389-11.285 9.004-14.771l-54.693-26.366s-6.968 15.471-11.328 20.483c0 0-7.847-6.537-12.423-8.716-4.576-2.179-8.498-1.962-11.984.653-3.486 2.615-5.012 10.895-5.666 15.907-.653 5.012-2.614 6.755-4.14 6.973-1.525.218-3.291 1.448-3.509 2.102-.217.653.777 4.426 1.308 6.101.531 1.675 3.073 6.178 3.073 9.229 0 0-1.569 1.068-4.559-1.013-2.991-2.08-5.461-4.68-5.461-4.68s-2.6 1.04-3.38 2.21c-.78 1.17-.13 3.629-.91 7.405 0 0-4.148-.338-7.138-1.508s-5.98.768-6.37 2.074c-.391 1.306-.78 2.477 2.21 7.027 2.99 4.55 6.487 12.993 8.437 18.889 0 0 .911 1.606.521 4.337-.391 2.73-4.942 4.161-5.852 8.581-.909 4.42 4.433 16.245 6.631 27.823 2.199 11.577 5.2 13.783 5.2 13.783s12.352 11.439 21.973 2.858c9.621-8.58 49.146-39.264 49.146-39.264z"/>
    <path fill="#f56d6d" d="M822.998 491.606s5.017-3.135 10.347-16.617c0 0-2.822 23.201-6.271 34.489"/>
    <path d="M788.298 590.009c-1.056 12.962-2.397 19.829-6.755 18.304-4.358-1.526-8.062-8.395-8.062-8.395s-1.09 2.947 0 5.998c0 0-5.884-3.704-10.677-4.358 0 0 6.353 4.284 8.575 11.505.538 1.751 4.972 1.081 6.241 2.658 2.072 2.574 2.313 7.376 5.733 9.875 13.057 9.542 30.523 15.141 42.49 15.399 28.441.613 41.222-15.968 41.222-15.968s10.895-3.705 15.688-13.51c4.794-9.805 5.343-23.033 3.381-35.889-1.961-12.856-12.155-27.651-10.848-43.776 0 0-13.992-.894-24.233-4.816 0 0-10.024 10.896-15.253 27.456-5.23 16.56-15.111 23.492-23.533 20.046-4.794-1.961-5.448-3.704-6.755-5.665-1.308-1.961-2.615-3.269-4.576-3.923-1.961-.653-11.113 6.32-12.638 25.059"/>
    <path fill="none" stroke="#000" stroke-linecap="round" stroke-miterlimit="10" stroke-width="2.158" d="M771.004 558.49s1.49-.486 3.046 1.128c0 0 .274.466 1.653.831 1.379.365 7.719-.92 7.719-.92"/>
    <path d="M775.703 560.449c1.136-2.862 1.54-5.387.904-5.639-.635-.253-2.072 1.863-3.207 4.725m-4.226 8.819c1.735 1.823 4.744 3.947 9.081 3.151 4.336-.797 4.247.619 2.389 1.947-1.859 1.327-5.585 2.812-8.86 1.75-3.274-1.062-3.441-3.697-3.618-5.556-.177-1.858.595-3.145.595-3.145z"/>
    <path fill="none" stroke="#8b8b8b" stroke-linecap="round" stroke-linejoin="round" stroke-miterlimit="10" stroke-width="2" d="M812.342 575.021s-4.304.86-7.746-.517a74169.97 74169.97 0 0 0-46.777-18.316m64.679 17.112s11.684-5.087 15.666-7.918"/>
    <path fill="#f56d6d" d="M901.99 496.315c-4.687 4.921-8.615 13.124-8.615 13.124s-6.149 3.75-32.631-11.718c-26.483-15.468-36.195-27.534-36.195-27.534 1.066-8.318 8.775-18.4 8.775-18.4 30.701 27.888 61.401 43.122 68.666 44.528"/>
    <path fill="none" stroke="#fff" stroke-linecap="round" stroke-linejoin="round" stroke-miterlimit="10" stroke-width="7" d="M638.957 238.525s-13.324-6.877-21.92-26.219c-8.597-19.341-3.869-39.972-3.869-39.972"/>
    <path fill="#fff" d="M816.04 251.419H644.115c-10.315 0-19.341-5.158-22.35-7.307-3.009-2.149-4.298-7.736 0-7.736h170.078c10.443 0 20.759 4.298 24.197 7.522 3.438 3.223 0 7.521 0 7.521"/>
    <path fill="#4d4d4d" d="M727.361 276.574H615.647l2.495 10.468h111.714z"/>
    <path fill="none" stroke="#fff" stroke-miterlimit="10" stroke-width="5" d="M449.64 274.274h251.624"/>
    <path fill="#fab6b6" d="M780.227 336.253s-9.594-33.702-25.013-53.189c0 0-27.516 6.77-57.173 16.655-29.657 9.886-45.13 18.859-45.13 18.859l-14.184-17.999s27.938-21.061 43.841-33.096c15.903-12.034 64.568-40.832 72.042-43.84 7.473-3.009 12.81-2.683 19.9 3.868 5.546 5.124 57.202 70.379 67.088 96.008z"/>
  </g>
  <g clip-path="url(#k)" transform="matrix(1.33333 0 0 -1.33333 -55.908 1291.126)">
    <path fill="#f56d6d" d="M770.588 323.326s29.744-24.187 67.007-20.592c37.262 3.595-3.923 19.938-3.923 19.938l-58.834 5.557z"/>
  </g>
  <g clip-path="url(#l)" transform="matrix(1.33333 0 0 -1.33333 -55.908 1291.126)">
    <path fill="none" stroke="#f56d6d" stroke-linecap="round" stroke-linejoin="round" stroke-miterlimit="10" d="M780.227 336.253s-9.38-33.273-25.013-53.189l-5.561-5.783"/>
    <path fill="#8f0000" d="M216.464 538.874s2.779-5.985 9.197-13.782c6.418-7.798 16.575-11.772 21.045-12.334 4.47-.561 6.516 2.019 8.179 5.509 1.664 3.49 4.93 7.407 8.859 12.295 3.929 4.889 9.714 8.251 11.753 14.774 2.039 6.523.736 14.615 3.651 15.934 5.483 2.481 5.565 2.985 7.325 8.321.792 2.403 3.775 15.802 3.506 23.962-.206 6.244-10.57 25.795-27.786 29.309-17.217 3.515-36.796-8.448-46.933-20.263-10.136-11.815-13.549-30.494 1.204-63.725"/>
    <path d="M289.887 588.883s.482 3.21-2.545 6.007c-3.038 2.808-12.438 8.661-25.299 5.211-12.86-3.44-11.475-4.159-20.106-7.841-8.621-3.681-13.402-.822-17.521-7.146-4.108-6.323-8.688-2.07-10.231.794-1.16 2.154-6.607-1.86-7.986-3.212-1.777-1.74-3.283-4.631-4.637-6.729.276 4.446.027 9.093-.445 13.521-.815 7.661.827 25.143 14.059 35.736 14.384 11.515 40.037 10.424 53.311 3.065 13.273-7.358 23.808-21.36 21.4-39.406"/>
    <path d="M238.072 581.2s4.922 1.962 9.124 1.541c4.202-.421 9.325-3.537 10.544-5.446 1.22-1.909 2.986-3.729 3.98-3.619.995.109 2.896 1.5 3.256 2.112.36.612-3.919 5.183-9.987 7.935-6.067 2.751-10.069 1.593-12.467.437-2.399-1.155-4.45-2.96-4.45-2.96m39.063-10.939c-1.067-.557-2.673-1.969-3.075-2.382-.402-.413 1.821-.442 5.051-.073 3.23.37 4.804-.372 5.061-1.759.256-1.388-.704-2.072-1.077-2.728 0 0 1.613.125 2.231 2.803.62 2.678.106 4.68-3.237 4.883-3.344.203-4.954-.744-4.954-.744"/>
    <path fill="none" stroke="#000" stroke-linecap="round" stroke-miterlimit="10" stroke-width="2" d="M270.42 560.708s3.389 1.805 5.568 1.672c2.18-.133 2.907-1.686 2.715-2.325-.191-.64 1.103-1.262 2.441-1.311"/>
    <path d="M251.945 563.438c-1.043-2.203-3.504-3.223-5.497-2.28-1.993.944-2.763 3.494-1.72 5.697s3.504 3.224 5.497 2.28c1.993-.944 2.763-3.494 1.72-5.697"/>
  </g>
  <g clip-path="url(#m)" transform="matrix(1.33333 0 0 -1.33333 -55.908 1291.126)">
    <path d="M276.802 558.344c-.684-1.798-2.353-2.833-3.726-2.311-1.374.522-1.932 2.403-1.248 4.201.684 1.798 2.352 2.833 3.726 2.311 1.373-.522 1.933-2.403 1.248-4.201"/>
  </g>
  <g clip-path="url(#n)" transform="matrix(1.33333 0 0 -1.33333 -55.908 1291.126)">
    <path fill="#8f0000" d="M270.7 566.638c-.842-.663-2.24-2.9-2.291-5.689-.051-2.79.111-8.006 3.64-15.375 1.157-2.415 1.353-4.398.123-5.658-1.229-1.259-5.833-.945-9.191.47-1.123.473-2.787.202-2.787.202"/>
    <path fill="none" stroke="#5f0000" stroke-linecap="round" stroke-linejoin="round" stroke-miterlimit="10" d="M271.963 565.538c-.842-.663-2.202-3.324-2.55-5.662-.411-2.759-1.049-5.61 2.635-14.302 1.046-2.465 1.353-4.398.123-5.658-1.229-1.259-5.833-.945-9.191.47-1.122.473-2.787.202-2.787.202"/>
    <path fill="none" stroke="#8f0000" stroke-linecap="round" stroke-linejoin="round" stroke-miterlimit="10" d="M256.556 541.544s-1.208 1.17-.937 2.558c.271 1.389 1.352 2.189 2.67 2.574"/>
    <path fill="#8f0000" d="M216.133 582.128c-1.756 1.259-2.058 6.3-4.561 8.766s-9.101 2.258-10.369-6.265c-1.268-8.523.628-15.684 4.987-17.307 4.358-1.622 4.301-2.593 4.301-2.593"/>
    <path fill="none" stroke="#5f0000" stroke-linecap="round" stroke-linejoin="round" stroke-miterlimit="10" d="M216.133 582.128c-1.756 1.259-2.058 6.3-4.561 8.766s-9.101 2.258-10.369-6.265c-1.268-8.523.628-15.684 4.987-17.307 4.358-1.622 4.569-2.205 4.569-2.205"/>
    <path fill="#fab6b6" stroke="#f56d6d" stroke-linecap="round" stroke-linejoin="round" stroke-miterlimit="10" d="M809.651 570.616s1.308 7.191 6.319 8.716c5.012 1.525 10.895-5.883 11.767-18.521.871-12.638-5.012-17.215-7.627-18.958"/>
    <path fill="#e00" d="M835.2 431.632c-9.818-1.361-13.54-3.046-17.082-5.859-3.541-2.812-9.4-3.749-19.946-27.654-10.546-23.904-14.417-35.856-17.052-45.934-2.634-10.077-12.789-26.325-12.789-26.325s7.499-5.625 37.028-9.14c29.529-3.515 45.934 1.406 45.934 1.406s15.779 31.013 20.232 58.432c4.453 27.42-7.03 44.762-17.108 49.918-10.077 5.156-15.781 5.633-19.217 5.156"/>
    <path fill="none" stroke="#be0000" stroke-linecap="round" stroke-linejoin="round" stroke-miterlimit="10" d="M803.834 332.013s20.719-3.878 48.005-1.921"/>
    <path d="M783.352 625.596c-4.628-3.518-18.454-9.201-21.972-1.61 0 0-1.728-5.61 3.333-9.073 3.518-2.406 8.331-3.517 13.33-1.481"/>
    <path fill="#f56d6d" d="M812.484 482.149c5.498 3.813 14.276 25.133 15.217 36.107 0 0 1.255-15.05 0-21.947-1.254-6.898-15.217-14.16-15.217-14.16"/>
  </g>
  <g clip-path="url(#o)" transform="matrix(1.33333 0 0 -1.33333 -55.908 1291.126)">
    <path fill="#f56d6d" d="M790.694 505.682s1.794 2.176 2.383 5.269c.59 3.093.958-.737.958-4.124 0-3.388.515-6.555.515-6.555l-3.241 1.252"/>
  </g>
  <g clip-path="url(#p)" transform="matrix(1.33333 0 0 -1.33333 -55.908 1291.126)">
    <path fill="#8f0000" d="M257.37 565.243s-1.426-.474-2.941.415c0 0-.948 1.902-3.952 3.357-3.004 1.455-7.641 1.679-9.208 1.309-1.567-.371-3.788 1.507-3.788 1.507s11.493 3.738 14.014 2.703c2.521-1.035 5.875-9.291 5.875-9.291"/>
    <path fill="none" stroke="#000" stroke-linecap="round" stroke-miterlimit="10" stroke-width="2.158" d="M257.37 565.243s-1.426-.474-2.941.415c0 0-.948 1.902-3.952 3.357-3.004 1.455-7.641 1.679-9.208 1.309-1.567-.371-3.788 1.507-3.788 1.507"/>
    <path d="M130.343 386.394c.574-2.248 13.446-.781 13.446-.781l-4.073 13.034s-6.518-2.607-7.984-5.377c-1.467-2.77-1.389-6.876-1.389-6.876m54.287 10.164c.594-1.855-3.251-3.535-4.975-4.663l-1.776 8.026s5.78-.329 6.751-3.363"/>
    <path fill="#8f0000" d="M173.41 434.228s-.909-6.36-.303-10.297c.606-3.938 14.627-52.799 21.895-65.823 1.132.395 5.352 1.577 6.669 2.119 10.289 4.24 77.022 22.238 89.431 24.968 11.46 2.511 20.479 1.702 26.499-.117.5-.15 1.01-.31 1.52-.471 6.66-2.119 37.139-11.905 39.287-13.519 1.713-1.286 5.489-4.002 8.269-7.497 2.79-3.485 6.811-6.681 6.573-8.113-.237-1.431-1.873-1.947-4.023-1.407-2.069.52-6.17 3.94-6.43 4.15 2.95-5.091 5.49-8.04 5.49-8.04s2.636-2.85 2.28-3.891c-.644-1.888-2.28-2.009-4.29-1.879-2.01.14-4.159 1.609-4.159 1.609-.531-1.209-2.411-1.879-5.23-1.339-2.811.54-5.617 4.083-5.617 4.083s-1.876-1.079-3.626-.269c-1.739.8-2.828 2.755-3.498 4.365a44.62 44.62 0 0 1-1.385 2.993c-1.617 1.878-4.019 3.583-4.019 3.583-5.5 4.16-23.566 5.765-27.726 7.245-4.16 1.469-6.98 3.75-6.98 3.75-.53.08-1.22.08-1.919.029a31.003 31.003 0 0 1-3.321-.44s-21.438-3.262-51.35-24.957a213.338 213.338 0 0 0-15.288-10.104c-24.737-14.927-44.329-24.186-48.609-23.926-5.15.3-12.111 6.515-23.321 26.505s-25.892 64.893-33.762 88.813"/>
  </g>
  <g clip-path="url(#q)" transform="matrix(1.33333 0 0 -1.33333 -55.908 1291.126)">
    <path fill="#5f0000" d="M139.277 383.237s6.889 9.117 19.45 12.764c12.561 3.647 21.678 2.634 21.678 2.634l2.837-2.229-1.621 6.079-4.457 3.444-13.575-.811-29.985-6.888-.608-3.85 2.026-6.685"/>
  </g>
  <g clip-path="url(#r)" transform="matrix(1.33333 0 0 -1.33333 -55.908 1291.126)">
    <path fill="#fff" d="M506.53 441.283H387.546l-21.364-98.13h118.985l24.381 95.597z"/>
    <path fill="#c9c9c9" d="m509.548 438.75-20.81-95.6h-118.98l20.81 95.6z"/>
    <path fill="#6c6c6c" d="M151.907 496.013c-20.877-6.645-29.083-11.073-32.172-29.608-3.09-18.536 2.827-35.343 6.733-55.899 2.767-14.558 3.875-24.112 3.875-24.112s1.03 4.462 8.581 8.238c7.552 3.776 22.79 6.115 33.774 5.772 10.984-.344 11.933-3.846 11.933-3.846s-14.188 38.564-12.607 59.798"/>
    <path d="M589.212 287.042h-93.095L454.84 392.01l3.644 3.375h88.124z"/>
    <path fill="#fff" d="M594.184 287.042h-93.095l-42.605 108.343h93.096Z"/>
    <path fill="#4d4d4d" d="M551.58 395.385h-93.095l42.604-108.343h93.095zm-1.363-2 41.032-104.343h-88.797L461.42 393.385Z"/>
    <path fill="#fab6b6" d="M652.91 318.579c-9.087 5.064-10.05 8.447-12.284 12.125-2.233 3.679-10.641 16.816-11.823 18.13-1.183 1.314-2.754 1.839-5.581 1.445-2.828-.394-26.344-4.729-28.314-5.386-1.971-.657-11.167-7.873-12.744-9.328-1.576-1.455-6.306-10.247-8.276-11.955-1.971-1.708-.658-4.073.919-4.336 0 0-.263-3.941-.525-5.517-.263-1.577.919-3.285 2.102-3.285 1.182 0 3.041 1.314 4.148 5.518 0 0 .45 2.365.712 3.942 0 0 2.521 1.159 4.02 2.287 0 0 .579-4.127.579-5.441 0-1.313.393-2.731 1.576-2.89 1.183-.159 2.628.131 3.547 2.102.92 1.971.92 5.124.92 5.124s3.284 1.839 4.861 3.416c1.576 1.576 2.517 3.153 2.517 3.153s3 0 4.314.131 3.547-1.577 5.124-4.073c1.577-2.496 8.54-14.976 15.896-17.473 7.357-2.496 8.321-1.806 14.128-5.689"/>
    <path fill="#fff" d="M212.303 576.94c.345-2.288-.723-4.349-2.385-4.604-1.662-.256-3.289 1.392-3.634 3.679-.344 2.288.724 4.349 2.386 4.605 1.662.255 3.288-1.392 3.633-3.68"/>
    <path fill="#c9c9c9" d="M515.078 324.285h-14.07l7.539-19.16h14.07z"/>
    <path fill="#fab6b6" d="M530.556 347.953h-14.07l16.851-42.828h14.07z"/>
    <path fill="#e00" d="M547.363 368.24h-14.07l24.834-63.115h14.069zm-47.641 15.5H471.93l3.375-8.577h27.792z"/>
    <path fill="none" stroke="#f56d6d" stroke-linecap="round" stroke-linejoin="round" stroke-miterlimit="10" d="M791.566 523.114c-1.144.748-2.907-.012-4.56-1.013-1.652-1-5.461-4.68-5.461-4.68s-3.197 1.336-3.492 2.441c-.294 1.105-.441 7.806-1.693 11.12"/>
    <path fill="none" stroke="#f56d6d" stroke-linecap="round" stroke-linejoin="round" stroke-miterlimit="10" d="M789.248 525.606s2.651-1.546 4.051-5.229m-18.183 6.471c-4.003-.849-6.672-2.062-8.006-1.698-1.334.364-4.731 1.455-3.275 5.337 1.456 3.882 6.186 10.554 8.128 15.406 1.94 4.852 2.432 7.625 2.432 7.625"/>
    <path fill="#fff" d="m387.546 441.283 3.022-2.533-20.81-95.6-3.576.003z"/>
    <path fill="#e00" d="M262.598 532.65c0-.001-.688-.289-1.587-3.827-1.245-4.924-8.209-4.536-12.648 3.216-3.939 6.897-5.928 9.03-5.939 9 .483-.383.968-.76 1.456-1.133.007.021 2.649-1.637 7.026-5.087 4.397-3.402 7.032-2.322 7.923-2.259.903.095 2.246.143 5.185.056"/>
    <path fill="#be0000" d="M263.316 530.75c.01.03-1.446-1.253-6.381.129-5.444 1.565-10.088 5.45-13.762 8.6-2.041 1.753-2.116 3.511-2.119 3.504.001-.001 1.072-1.752 2.387-2.508 6.859-4.122 16.263-6.185 18.698-6.466 3.064-.448 3.814-.358 4.03-.652-.001-.001-2.001-2.162-2.853-2.607"/>
    <path fill="none" stroke="#5f0000" stroke-linecap="round" stroke-linejoin="round" stroke-miterlimit="10" d="M239.723 539.809s.719 3.488 2.629 4.036"/>
    <path fill="#fff" d="M206.233 576.477s-.013-2.085.685-4.492c.698-2.407 4.951-9.598 4.951-9.598l1.948.932s-1.309 2.27-2.517 4.764c-1.102 2.277-2.12 4.781-2.007 5.115"/>
    <path fill="#fff" d="M213.817 563.32c-.074.155-.57.071-1.108-.187-.538-.257-.914-.591-.84-.746.073-.154.57-.07 1.108.187.538.258.914.592.84.746"/>
  </g>
  <g clip-path="url(#s)" transform="matrix(1.33333 0 0 -1.33333 -55.908 1291.126)">
    <path fill="#2e2e2e" d="M137.065 490.538s-14.017-5.197-12.761-26.125c1.267-21.119 10.851-40.396 15.756-73.463 4.923-33.189-22.035-13.808-22.035-13.808l-11.092 77.853 11.939 22.602 11.469 14.65 15.519 9.627"/>
  </g>
  <g clip-path="url(#t)" transform="matrix(1.33333 0 0 -1.33333 -55.908 1291.126)">
    <path fill="#2e2e2e" d="M298.342 429.213c.417-3.671.167-10.482-5.963-15.333-4.301-3.402-15.039-4.348-14.455-7.146.584-2.799 7.277-3.592 9.558-10.651 2.28-7.059 3.331-21.111 3.331-21.111s10.723 23.179 10.741 34.003"/>
  </g>
  <g clip-path="url(#u)" transform="matrix(1.33333 0 0 -1.33333 -55.908 1291.126)">
    <path fill="#6c6c6c" d="M173.496 437.07c-1.223 8.781 1.44 14.354 1.44 14.354s-2.395 4.159-4.411 3.907c-2.016-.252-2.268-11.72-2.268-11.72"/>
  </g>
</svg>

