<svg xml:space="preserve" viewBox="0 0 1311.438 1153.238" xmlns="http://www.w3.org/2000/svg">
  <defs>
    <clipPath id="a" clipPathUnits="userSpaceOnUse">
      <path d="M0 1080h1080V0H0Z"/>
    </clipPath>
    <clipPath id="b" clipPathUnits="userSpaceOnUse">
      <path d="M572.853 573.875c0-60.876 49.349-110.227 110.225-110.227 60.877 0 110.227 49.351 110.227 110.227 0 60.876-49.35 110.226-110.227 110.226-60.876 0-110.225-49.35-110.225-110.226"/>
    </clipPath>
    <clipPath id="c" clipPathUnits="userSpaceOnUse">
      <path d="M0 1080h1080V0H0Z"/>
    </clipPath>
    <clipPath id="d" clipPathUnits="userSpaceOnUse">
      <path d="M665.48 584.061h243.184v246.785H665.48Z"/>
    </clipPath>
    <clipPath id="e" clipPathUnits="userSpaceOnUse">
      <path d="M0 1080h1080V0H0Z"/>
    </clipPath>
    <clipPath id="f" clipPathUnits="userSpaceOnUse">
      <path d="M434.239 423.621c1.817-5.665 8.837-23.575 17.395-38.76 11.404-20.244 17.33-29.575 33.543-43.57 14.932-12.891 29.173-19.56 37.38-22.091.68-.212 1.328-.402 1.918-.558.022 0 .033-.01.056-.01 0 0-2.375.958-3.747 4.739-.613 1.672-1.026 3.891-.958 6.813.032 1.305.077 2.699.155 4.17.524 9.245 2.665 21.679 13.392 37.581 9.847 14.574 18.01 19.715 26.273 21.443-1.349 1.428-3.523 2.967-6.546 4.272a208.391 208.391 0 0 0-18.712-7.963c-22.982-8.452-43.164-12.248-47.225-11.273-4.061.966-20.195 13.504-33.075 29.661-4.382 5.498-8.185 11.531-11.284 17.085-2.989-.647-5.9-1.171-8.565-1.539"/>
    </clipPath>
    <clipPath id="g" clipPathUnits="userSpaceOnUse">
      <path d="M0 1080h1080V0H0Z"/>
    </clipPath>
  </defs>
  <g clip-path="url(#a)" transform="matrix(1.33333 0 0 -1.33333 -64.28 1296.617)">
    <path fill="#fddbdb" d="M456.153 769.206c65.493 28.969 95.623 71.992 138.647 131.35 43.116 59.484 121.798 86.047 184.786 64.481 63.185-21.634 104.475-83.776 99.435-174.853-4.356-78.709-4.878-142.115 34.882-190.076 39.836-48.056 93.387-146.703 96.498-239.487 3.11-92.797-25.353-187.136-114.277-234.29-88.534-46.949-216.187 3.173-284.047 50.675-67.632 47.343-113.442 139.297-240.62 173.19-126.374 33.678-157.599 32.478-225.734 77.166-67.903 44.534-93.065 127.552-73.712 190.482 19.371 62.991 68.869 114.273 201.412 120.77 89.191 4.372 143.714 13.335 182.73 30.592"/>
    <path fill="#c9c9c9" d="M1031.791 176.81H48.21l163.938 154.496h655.705z"/>
    <path fill="#8b8b8b" d="M667.858 218.376c-10.487 15.5-101.622 28.065-203.555 28.065s-176.064-12.565-165.577-28.065c10.487-15.5 101.622-28.065 203.555-28.065s176.064 12.565 165.577 28.065"/>
    <path fill="#8b8b8b" d="M827.268 215.064c-6.725 9.938-65.159 17.996-130.518 17.996-65.358 0-112.891-8.058-106.167-17.996 6.725-9.938 65.16-17.995 130.518-17.995 65.359 0 112.892 8.057 106.167 17.995"/>
    <path fill="#6c6c6c" d="M869.109 331.305H212.148v433.468h656.961z"/>
    <path fill="#dedede" d="M540.629 357.514H222.956v373.015h317.673z"/>
    <path fill="#e00" d="M471.473 442.221c-2.676 1.003-9.055 1.137-15.512.413-3.389-.38-5.04-1.004-7.95-1.863a68.14 68.14 0 0 1-9.546-3.624c-4.65-2.141-8.397-4.516-10.649-6.468"/>
    <path d="M437.431 492.71H258.907v178.25h178.524z"/>
    <path fill="#fff" d="M858.303 357.514H476.07v373.015h382.233z"/>
    <path fill="#dedede" d="M545.03 753.502h-8.8a3.718 3.718 0 0 1-3.718-3.718v-8.8a3.718 3.718 0 0 1 3.718-3.718h8.8a3.719 3.719 0 0 1 3.718 3.718v8.8a3.719 3.719 0 0 1-3.718 3.718"/>
    <path fill="#c9c9c9" d="M793.305 573.875c0 60.876-49.35 110.226-110.226 110.226-60.877 0-110.226-49.35-110.226-110.226s49.349-110.226 110.226-110.226c60.876 0 110.226 49.35 110.226 110.226"/>
  </g>
  <g clip-path="url(#b)" transform="matrix(1.33333 0 0 -1.33333 -64.28 1296.617)">
    <path fill="#c9c9c9" d="m825.2 737-142.121 2.014V477.889l142.121-2.014Z"/>
    <path fill="#fff" d="M825.2 737.001V585.982H683.076v153.033z"/>
    <path fill="#e00" d="m683.079 573.875-39.137-119.198s34.5-39.169 94.624-23.485c60.124 15.684 50.219 33.587 50.219 33.587z"/>
    <path fill="#f56d6d" d="M683.079 573.875 571.931 466.992l72.011-12.315Z"/>
  </g>
  <g clip-path="url(#c)" transform="matrix(1.33333 0 0 -1.33333 -64.28 1296.617)">
    <path fill="#fff" d="M729.192 573.875c0 25.468-20.646 46.114-46.114 46.114-25.468 0-46.114-20.646-46.114-46.114 0-25.468 20.646-46.114 46.114-46.114 25.468 0 46.114 20.646 46.114 46.114"/>
    <path fill="#fab6b6" d="M758.888 410.251H739.84v25.248h19.048z"/>
    <path fill="#e00" d="M791.23 410.251h-19.048v46.846h19.048z"/>
    <path fill="#c9c9c9" d="M823.574 410.251h-19.048v68.444h19.048z"/>
    <path d="m1031.79 176.813-12.64-23.24H60.85l-12.64 23.24z"/>
    <path fill="none" stroke="#aaa" stroke-miterlimit="10" stroke-width="2" d="M864.191 257.382H205.263l46.467 59.588h565.994z"/>
    <path d="M898.447 573.846H655.263v246.785h243.184z"/>
    <path d="M898.471 573.881H655.287v246.785h243.184z"/>
    <path d="M908.663 830.847H665.479V584.062h243.184zm-1-245.785H666.479v244.785h241.184z"/>
    <path fill="#fff" d="M908.687 584.097H665.503v246.785h243.184z"/>
    <path fill="#fff" stroke="#e00" stroke-miterlimit="10" stroke-width="2" d="M428.992 501.15H250.468V679.4h178.524z"/>
    <path fill="#e00" d="M428.992 647.16H250.468v32.24h178.524z"/>
    <path fill="none" stroke="#fff" stroke-linecap="round" stroke-linejoin="round" stroke-miterlimit="10" stroke-width="2" d="M268.452 663.28h78.695"/>
    <path fill="none" stroke="#e00" stroke-linecap="round" stroke-linejoin="round" stroke-miterlimit="10" stroke-width="3" d="M268.452 607.256h92.341m-92.341-27.589h92.341m-92.341-27.59h92.341"/>
    <path fill="#fff" d="M391.596 663.28a4.667 4.667 0 1 1-9.334 0 4.667 4.667 0 0 1 9.334 0m21.041 0a4.667 4.667 0 1 1-9.334 0 4.667 4.667 0 0 1 9.334 0"/>
    <path fill="#e00" d="M307.336 607.256a8.113 8.113 0 1 1-16.226 0 8.113 8.113 0 0 1 16.226 0m39.811-27.589a8.113 8.113 0 1 1-16.225 0 8.113 8.113 0 0 1 16.225 0m-23.586-27.59a8.113 8.113 0 1 1-16.226 0 8.113 8.113 0 0 1 16.226 0m-5.79-123.476h-60.579v10.186h60.579z"/>
    <path fill="#f56d6d" d="M400.819 406.494H257.193v10.186h143.626zm25.187 44.214H257.193v10.186h168.813z"/>
    <path fill="#e00" d="M454.208 428.601H328.379v10.186h125.829z"/>
    <path fill="#dedede" d="M908.663 584.062H665.479v46.127h243.184z"/>
  </g>
  <g clip-path="url(#d)" transform="matrix(1.33333 0 0 -1.33333 -64.28 1296.617)">
    <path fill="none" stroke="#dedede" stroke-miterlimit="10" stroke-width="2" d="M922.754 571.92H651.389v58.269h271.365z"/>
  </g>
  <g clip-path="url(#e)" transform="matrix(1.33333 0 0 -1.33333 -64.28 1296.617)">
    <path fill="none" stroke="#e00" stroke-miterlimit="10" stroke-width="2" d="M908.663 584.062H665.479v246.785h243.184z"/>
    <path stroke="#e00" stroke-linecap="round" stroke-linejoin="round" stroke-miterlimit="10" stroke-width="1.211" d="M883.26 691.82c.334 3.189-2.654 4.94-4.457 7.116l-4.145-7.666 2.524-.967s3.413-1.516 6.066 1.506"/>
    <path fill="#be0000" d="M864.95 706.618c-.179-1.707.58-5.988 4.07-9.479 2.81-2.81 6.267-4.594 8.709-5.397 0 0 2.867-2.955 5.532.078-.759-3.602-5.32-41.405-11.777-53.37-6.456-11.965-14.43-15.579-21.087-14.63-6.646.959-11.586 6.467-16.905 13.872-5.052 7.025-10.605 21.577-11.162 23.05.122.646.234 1.249.334 1.828 1.148 6.457.769 17.664.769 17.664-2.218 6.222-2.865 14.742-3.501 17.797-.647 3.056-1.45-1.382-1.294-8.898.167-7.505.803-17.318-4.337-23.585-5.152-6.279-10.617-9.334-10.617-9.334s6.758-6.914 8.04-11.575c1.284-4.672.648-14.486.648-14.486h-80.078s-.635 9.814.647 14.486c1.282 4.661.383 11.304.383 11.304s2.192 3.326-2.959 9.605c-5.141 6.267-4.505 16.08-4.338 23.585.156 7.516-.646 11.954-1.294 8.898-.636-3.055-1.282-11.575-3.501-17.797 0 0-2.844-8.352-6.457-16.325-3.601-7.985-7.973-20.519-7.973-20.519 3.803-3.803 10.449-13.683 10.449-13.683h-30.093s-6.456 5.32-6.847 14.821c-.379 9.5 11.801 46.83 17.031 58.708 2.397 5.431 4.819 10.611 8.038 15.609 1.756 2.725 3.677 5.525 6.226 7.566 2.332 1.867 4.255 2.986 7.039 3.803l2.598.669c.524.123 1.06.234 1.595.323 1.605.29 3.234.469 4.862.514 0 0 5.173.388 7.068-6.259 1.908-6.646 4.351-13.581 8.711-20.037 4.371-6.457 15.682-15.597 21-19.577 5.32-3.993 6.343-11.826 7.86-16.007 1.516-4.182.27-3.868 2.923-5.586 0 0 3.635 5.374 11.809 10.883 8.163 5.509 7.324 4.813 9.41 14.882 2.085 10.058.804 19.867 6.693 24.618 5.887 4.75 12.844 10.046 13.602 13.09.535 2.108.78 3.212.881 3.691 1.327-.234 3.022-.624 4.784-1.316 2.698-1.037 5.565-2.765 7.639-5.609 5.13-7.025 8.542-15.768 12.534-27.354 3.992-11.586 7.025-21.645 10.259-29.25 0 0 4.94 12.345 7.973 22.793 2.587 8.866 3.792 14.453 4.104 15.936"/>
    <path d="M730.365 665.548c5.151-6.278 6.909-9.333 6.909-9.333s-3.051-6.915-4.333-11.576c-1.282-4.672-.647-14.486-.647-14.486h-5.742c-.949 13.862-3.414 25.961-4.55 32.417-1.149 6.457-.77 17.664-.77 17.664 2.219 6.223 2.865 14.742 3.501 17.797.648 3.056 1.45-1.382 1.294-8.898-.167-7.505-.803-17.318 4.338-23.585"/>
    <path fill="none" stroke="#e00" stroke-linecap="round" stroke-miterlimit="10" stroke-width="1.211" d="M823.434 680.234s.379-11.207-.77-17.664a99.436 99.436 0 0 0-.334-1.828c-1.238-6.49-3.356-17.965-4.215-30.589h-91.563c-.948 13.862-3.413 25.961-4.55 32.417-1.148 6.457-.769 17.664-.769 17.664s-2.844-8.352-6.457-16.325c-3.602-7.985-7.973-20.519-7.973-20.519 3.803-3.802 9.758-13.201 9.758-13.201h-30.093s-5.765 4.838-6.156 14.339c-.379 9.5 11.57 46.254 16.8 58.132 5.241 11.878 11.862 25.469 21.534 27.554"/>
    <path d="M854.345 671.692c-1.383-5.843-6.088-12.523-6.088-12.523s-3.156 7.494-5.609 21.009c-2.443 13.493-8.843 38.349-11.33 42.509 4.471-6.703 7.638-14.932 11.297-25.548 3.992-11.586 7.025-21.645 10.258-29.25 0 0 .58 1.461 1.472 3.803"/>
    <path d="M854.345 671.692c-1.383-5.843-6.088-12.523-6.088-12.523s-3.156 7.494-5.609 21.009c-2.443 13.493-8.843 38.349-11.33 42.509 4.471-6.703 7.638-14.932 11.297-25.548 3.992-11.586 7.025-21.645 10.258-29.25 0 0 .58 1.461 1.472 3.803m28.915 20.128c-.759-3.602-5.319-41.405-11.776-53.37-6.456-11.965-14.43-15.579-21.087-14.63-1.873.267-3.624.903-5.275 1.839h.034c8.453-1.316 15.544 9.323 20.496 22.504 4.951 13.18 7.761 32.952 10.515 44.17a17.484 17.484 0 0 1 1.562-.591s1.26-1.294 2.877-1.294c.825 0 1.739.335 2.642 1.361z"/>
    <path d="M883.26 691.82c-.759-3.602-5.319-41.405-11.776-53.37-6.456-11.965-14.43-15.579-21.087-14.63-1.873.267-3.624.903-5.275 1.839h.034c8.453-1.316 15.544 9.323 20.496 22.504 4.951 13.18 7.761 32.952 10.515 44.17a17.484 17.484 0 0 1 1.562-.591s1.442-.793 3.059-.793c.826 0 1.557-.166 2.46.86zm-60.93-31.078c-1.238-6.49-3.356-17.965-4.216-30.588h-5.742s.635 9.813-.647 14.485c-1.283 4.662-8.041 11.576-8.041 11.576s5.465 3.055 10.617 9.333c5.14 6.267 4.505 16.08 4.338 23.585-.089 4.483.156 7.884.502 9.222-.379-5.698-1.428-26.718 3.189-37.613"/>
    <path fill="none" stroke="#e00" stroke-linecap="round" stroke-miterlimit="10" stroke-width="1.211" d="M864.95 706.618c-.312-1.483-1.517-7.07-4.104-15.936-3.033-10.448-7.973-22.793-7.973-22.793-3.234 7.605-6.267 17.664-10.259 29.25-3.992 11.586-7.404 20.329-12.534 27.354-2.074 2.844-4.941 4.572-7.639 5.609-1.762.692-3.457 1.082-4.784 1.316m47.337-24.555c0-.011 0-.033-.011-.044"/>
    <path fill="none" stroke="#e00" stroke-linecap="round" stroke-linejoin="round" stroke-miterlimit="10" stroke-width="1.211" d="M822.285 660.864s.011-.044.045-.123c.558-1.472 6.11-16.024 11.162-23.049 5.319-7.405 10.259-12.913 16.905-13.872 6.658-.949 14.631 2.665 21.087 14.63 6.457 11.965 11.018 49.768 11.777 53.37l-.012-.011c-.134-.067-1.427-.736-3.401-.558-.536.045-1.271.212-2.119.491-2.442.803-5.899 2.587-8.709 5.397-3.49 3.491-4.249 7.772-4.07 9.479"/>
    <path fill="none" stroke="#e00" stroke-linecap="round" stroke-miterlimit="10" stroke-width="1.211" d="M852.873 667.89c-3.613-9.111-9.69-14.62-12.154-21.087"/>
    <path fill="none" stroke="#e00" stroke-linecap="round" stroke-linejoin="round" stroke-miterlimit="10" stroke-width="1.211" d="M721.232 680.234c2.219 6.223 2.865 16.515 3.501 19.571"/>
    <path stroke="#000" stroke-miterlimit="10" stroke-width="1.079" d="M823.434 680.234c-2.219 6.223-2.865 14.742-3.501 17.797-.647 3.056-3.103-2.637-2.947-10.152.167-7.505-.331-18.083-2.685-22.331-3.935-7.104-10.616-9.334-10.616-9.334s6.758-6.914 8.04-11.575c1.283-4.672.647-14.486.647-14.486"/>
    <path fill="none" stroke="#e00" stroke-linecap="round" stroke-miterlimit="10" stroke-width="1.211" d="M718.645 730.225v-.011"/>
    <path fill="none" stroke="#dedede" stroke-miterlimit="10" stroke-width="2" d="M671.275 630.189h152.299"/>
    <path fill="#fff" d="M798.953 607.125c0 6.562-5.319 11.882-11.882 11.882-6.562 0-11.882-5.32-11.882-11.882 0-6.562 5.32-11.882 11.882-11.882 6.563 0 11.882 5.32 11.882 11.882"/>
    <path fill="#f56d6d" d="M916.643 716.19c-2.66-3.38-6.113-5.79-7.887-7.479-1.762-1.69-7.155-3.704-10.045-4.183-2.9-.48-8.606-.48-11.496-1.607-2.899-1.127-7.76-2.67-9.409-6.592a410.496 410.496 0 0 1-1.638-3.996c-2.086.898-4.579 2.389-6.686 4.496-3.244 3.244-3.964 7.219-3.808 8.836v.031c.042.25.073.375.073.375s.804 1.67 1.847 3.683c1.054 2.013 4.486 9.44 9.222 11.13 4.746 1.69 5.778 1.377 8.741 3.067 2.963 1.69 6.687 3.234 9.086 2.034 2.389-1.199.292-3.953-1.94-4.902-.845-.355-4.872-1.138-6.968-3.026 0 0 5.82-1.314 8.793-2.034 2.973-.72 4.507-.156 4.507-.156s.732-.318 5.67 1.952c4.939 2.27 12.658 8.01 14.264 5.84 1.607-2.17.323-4.099-2.326-7.469"/>
    <path fill="none" stroke="#be0000" stroke-linecap="round" stroke-miterlimit="10" stroke-width=".906" d="M916.643 716.19c-2.66-3.38-6.113-5.79-7.887-7.479-1.762-1.69-7.155-3.704-10.045-4.183-2.9-.48-8.606-.48-11.496-1.607-2.899-1.127-7.76-2.67-9.409-6.592a410.496 410.496 0 0 1-1.638-3.996c-2.086.898-4.579 2.389-6.686 4.496-3.244 3.244-3.964 7.219-3.808 8.867.042.25.073.375.073.375s.804 1.67 1.847 3.683c1.054 2.013 4.486 9.44 9.222 11.13 4.746 1.69 5.778 1.377 8.741 3.067 2.963 1.69 6.687 3.234 9.086 2.034 2.389-1.199.292-3.953-1.94-4.902-.845-.355-4.872-1.138-6.968-3.026 0 0 5.82-1.314 8.794-2.034 3.672-.889 6.884.282 10.176 1.796 4.939 2.27 12.658 8.01 14.264 5.84 1.607-2.17.323-4.099-2.326-7.469z"/>
    <path fill="#be0000" d="M915.923 715.338c-2.521-2.944-5.554-5.085-7.171-6.624-1.762-1.695-7.147-3.702-10.036-4.182-2.91-.479-8.608-.479-11.497-1.617-2.9-1.126-7.761-2.665-9.411-6.59-.591-1.394-1.149-2.777-1.64-3.992a20.963 20.963 0 0 0-3.958 2.23c.847 2.989 2.219 7.114 3.635 8.531 2.308 2.308 3.803 3.568 9.891 4.393 6.088.826 14.374.982 20.987 5.13 6.601 4.148 6.97 5.33 8.441 4.45.57-.335.792-.959.759-1.729"/>
    <path fill="none" stroke="#e00" stroke-linecap="round" stroke-linejoin="round" stroke-miterlimit="10" stroke-width="1.211" d="M877.73 691.742c-2.442.803-5.899 2.587-8.709 5.397-3.49 3.491-4.249 7.772-4.07 9.479"/>
    <path fill="none" stroke="#e00" stroke-linecap="round" stroke-linejoin="round" stroke-miterlimit="10" stroke-width="1.211" d="M883.249 691.81c-.134-.067-1.427-.736-3.401-.558-.536.045-1.271.212-2.119.491"/>
    <path fill="#be0000" d="M819.252 699.805s-2.3-26.386 3.078-39.063l8.851-8.81 8.734 25.766-9.701 22.107-5.414 9.567"/>
    <path fill="none" stroke="#e00" stroke-linecap="round" stroke-linejoin="round" stroke-miterlimit="10" stroke-width="1.211" d="M819.252 699.805s-1.693-27.956 3.685-40.632"/>
    <path fill="none" stroke="#be0000" stroke-linecap="round" stroke-miterlimit="10" stroke-width=".906" d="M900.058 712.396c2.183.282 10.563 4.93 12.888 6.338 2.324 1.409 3.31 2.462 4.789 1.831 1.477-.63.892-1.67.892-1.67"/>
    <path fill="#c9c9c9" d="M794.63 753.225c.747 5.13 1.84 13.828 1.852 19.437 0 5.743-1.551 11.251-1.551 11.251-4.148 16.493-22.604 20.619-22.604 20.619s-18.444-4.126-22.592-20.619c0 0-1.561-5.508-1.561-11.251.011-5.609 1.115-14.307 1.862-19.437 0 0 1.684-5.397 5.91-11.129 4.137-5.598 9.791-8.163 12.211-8.743 2.409-.557 2.13-.468 4.17-.468 2.052 0 1.774-.089 4.182.468 2.409.58 8.074 3.145 12.211 8.743 4.226 5.732 5.91 11.129 5.91 11.129m26.19-19.175c1.54-1.284 1.666-3.166 1.666-3.166l-.044-.112c-1.762.691-3.458 1.082-4.785 1.316-.1-.48-.345-1.584-.881-3.691-.757-3.045-2.274-13.075-8.163-17.825-5.887-4.751-3.233-10.639-5.318-20.697-2.086-10.07-5.889-15.958-14.051-21.466-8.174-5.509-13.114-13.304-13.114-13.304-2.654 1.717-5.698 6.267-7.215 10.449-1.516 4.181-5.509 10.259-10.828 14.251-5.318 3.981-15.768 16.716-20.139 23.172-4.36 6.457-3.412 15.579-5.319 22.225-1.895 6.646-4.929 6.518-4.929 6.518a30.055 30.055 0 0 1-4.862-.513 37.336 37.336 0 0 1-4.192-.982c.021.257.367 3.368 3.735 4.149 2.599.602 6.591-.199 10.248.961 3.669 1.171 7.817 7.91 9.713 8.478 0 0 0 2.342.981 4.728.803 1.963 1.651 2.777.925 4.773-.724 1.996-1.472 5.375-1.315 9.055.156 3.691 1.884 6.713 1.884 6.713s-.569 12.155.19 18.233c.758 6.077 5.13 16.281 13.292 21.399 7.048 4.427 9.847 4.471 14.018 4.661h.033c4.171-.19 6.969-.234 14.017-4.661 8.162-5.118 12.534-15.322 13.292-21.399.759-6.078.19-18.233.19-18.233s1.728-3.022 1.885-6.713c.156-3.68-.591-7.059-1.316-9.055-.726-1.996.122-2.81.925-4.773.981-2.386.981-4.728.981-4.728s2.788-5.006 6.312-6.534c4.706-2.041 7.527-1.634 10.126-2.236.875-.204 1.546-.565 2.058-.993"/>
    <path fill="#6c6c6c" d="M812.483 735.807c-2.019.669-6.056 2.944-7.962 2.197-3-1.171-4.416-3.413-5.097-6.49-1.449-6.568-3.512-12.902-6.478-18.969-6.825-14.006-19.426-13.381-25.481-10.37-13.392 6.668-16.18 19.347-16.18 19.347s6.758-9.111 11.474-12.121c4.717-3 8.699-4.494 15.924-2.141 7.238 2.363 10.238 9.746 10.238 9.757 2.832 6.98 7.192 13.136 8.865 20.574.457 2.041 1.471 5.642-.123 7.449-1.383 1.566-4.469-5.415-5.052-6.345-2.754-4.393-5.464-12.768-16.358-14.708-10.594-1.896-13.137 4.549-13.259 4.906 2.62-1.472 12.756-3.089 16.737.011 7.204 5.609 13.563 15.195 14.898 24.321.591 4.037 1.383 10.27 1.707 15.478 2.464 10.728 2.096 20.485 1.204 26.072 1.149-2.732 1.851-5.342 2.119-7.46.759-6.078.189-18.233.189-18.233s1.729-3.022 1.885-6.713c.156-3.68-.591-7.059-1.315-9.055-.726-1.996.122-2.81.924-4.772.982-2.387.982-4.729.982-4.729s2.788-5.006 6.311-6.534a46.108 46.108 0 0 1 3.848-1.472"/>
    <path fill="#fff" d="M772.35 813.375h-.033c-4.171-.19-6.97-.234-14.018-4.662-8.162-5.118-12.534-15.321-13.292-21.399-.759-6.077-.189-18.232-.189-18.232s-1.729-3.022-1.885-6.713c-.156-3.68.591-7.059 1.315-9.055.726-1.996-.122-2.81-.924-4.772-.982-2.387-.982-4.729-.982-4.729-1.895-.568-6.044-7.308-9.713-8.479-3.657-1.159-7.649-.358-10.248-.96-3.368-.781-3.714-3.892-3.735-4.149a37.78 37.78 0 0 0 4.192.982c1.617.301 3.245.479 4.863.513 0 0 3.033.128 4.928-6.518 1.505-5.264 1.227-12.077 3.212-17.887-4.294 20.385 6.88 28.037 8.407 25.57 7.038-11.364 17.664-11.655 17.664-11.655s-15.987 12.369-12.062 21.089c.371.825 4.622-3.207 7.437-4.907 3.878-2.341 6.001-2.277.273 2.725-4.774 4.899-7.523 13.088-7.523 13.088-.748 5.129-1.852 13.827-1.863 19.437 0 5.742 1.562 11.251 1.562 11.251 1.527 6.089 5.007 10.494 8.787 13.616 3.556 15.4 21.209 14.63 21.209 14.63-2.799 1.037-4.839 1.104-7.382 1.216"/>
    <path fill="#be0000" d="M793.492 767.342c0 7.806 1.784 11.999-2.107 19.738-4.003 7.94-12.936 11.419-19.058 11.419s-15.054-3.479-19.058-11.419c-3.891-7.739-2.107-11.932-2.107-19.738.012-7.605 1.394-11.765 3.356-18.311 1.918-6.4 8.375-13.225 17.809-13.225 9.435 0 15.891 6.825 17.809 13.225 1.962 6.546 3.345 10.706 3.356 18.311m2.989 5.319c-.011-5.609-1.104-14.307-1.851-19.437 0 0-1.684-5.397-5.91-11.129-4.137-5.597-9.802-8.162-12.211-8.742-2.409-.558-2.13-.469-4.182-.469-2.04 0-1.762-.089-4.17.469-2.42.58-8.074 3.145-12.211 8.742-4.226 5.732-5.91 11.129-5.91 11.129-.747 5.13-1.852 13.828-1.862 19.437 0 5.743 1.561 11.252 1.561 11.252 4.148 16.492 22.592 20.618 22.592 20.618s18.456-4.126 22.603-20.618c0 0 1.551-5.509 1.551-11.252"/>
    <path fill="#f56d6d" d="M791.385 787.08c3.892-7.739 2.107-11.932 2.107-19.738-.01-7.605-1.393-11.764-3.356-18.31-1.918-6.401-8.374-13.225-17.809-13.225-9.433 0-15.89 6.824-17.808 13.225-1.962 6.546-3.345 10.705-3.357 18.31 0 7.806-1.784 11.999 2.108 19.738 4.004 7.94 12.935 11.419 19.057 11.419 6.122 0 15.055-3.479 19.058-11.419"/>
    <path fill="#e00" d="M783.763 752.84s-1.036-1.463-2.174-2.574c-1.145-.939-2.015-6.195-9.25-6.454-7.246.258-8.116 5.516-9.263 6.454-1.135 1.111-2.172 2.574-2.172 2.574.559-.389 1.924-1.318 3.482-.742 1.554.567 4.531.848 7.953.859 3.41-.011 6.388-.292 7.941-.859 1.558-.576 2.923.353 3.483.742"/>
    <path fill="#f56d6d" d="M774.73 747.48c.983.146 1.306-.493-.176-1.307-1.481-.801-2.941-.919-4.643-.182-1.715.739-1.467 1.606-.285 1.473 1.184-.12 2.423-.405 5.104.016"/>
    <path fill="none" stroke="#6c6c6c" stroke-linecap="round" stroke-linejoin="round" stroke-miterlimit="10" stroke-width="1.211" d="M792.969 718.845s-.323 1.929 1.817 6.869c2.153 4.929 4.795 8.107 6.412 11.698"/>
    <path fill="none" stroke="#be0000" stroke-linecap="round" stroke-linejoin="round" stroke-miterlimit="10" stroke-width="1.211" d="M777.669 762.753c.379-.881.446-2.888-1.26-3.323-1.706-.435-2.364-.524-4.07-.524m-5.342 3.847c-.368-.881-.446-2.888 1.26-3.323 1.706-.435 2.364-.524 4.082-.524"/>
    <path fill="none" stroke="#6c6c6c" stroke-linecap="round" stroke-miterlimit="10" stroke-width="1.211" d="M772.327 732.885c2.052 0 1.773-.089 4.182.468 2.409.58 8.074 3.145 12.211 8.743 4.226 5.732 5.91 11.129 5.91 11.129.747 5.13 1.84 13.827 1.851 19.437 0 5.743-1.55 11.251-1.55 11.251-4.148 16.493-22.604 20.619-22.604 20.619s-18.444-4.126-22.592-20.619c0 0-1.561-5.508-1.561-11.251.01-5.61 1.115-14.307 1.862-19.437 0 0 1.684-5.397 5.91-11.129 4.137-5.598 9.791-8.163 12.211-8.743 2.408-.557 2.13-.468 4.17-.468z"/>
    <path fill="none" stroke="#c9c9c9" stroke-linecap="round" stroke-miterlimit="10" stroke-width="1.211" d="m718.645 730.214 2.598.669c.524.123 1.059.234 1.594.324 1.606.29 3.235.468 4.863.513 0 0 3.033.128 4.928-6.518 1.908-6.647.959-15.768 5.32-22.225 4.371-6.456 14.82-19.191 20.138-23.172 5.32-3.992 9.312-10.07 10.829-14.252 1.516-4.181 4.56-8.731 7.214-10.448 0 0 4.941 7.795 13.115 13.303 8.162 5.509 11.964 11.397 14.05 21.467 2.085 10.058-.569 15.946 5.319 20.696 5.888 4.751 7.405 14.781 8.163 17.826.535 2.107.78 3.211.881 3.691.045.211.067.301.067.301m-45.408 80.986c-4.171-.19-6.97-.234-14.018-4.662-8.162-5.118-12.534-15.321-13.292-21.399-.758-6.077-.189-18.232-.189-18.232s-1.729-3.022-1.885-6.713c-.156-3.68.591-7.059 1.316-9.055.725-1.996-.122-2.81-.925-4.773-.982-2.386-.982-4.728-.982-4.728-1.895-.569-6.044-7.308-9.713-8.479-3.657-1.159-7.649-.358-10.248-.96-3.368-.781-3.713-3.892-3.735-4.149m23.697 13.588c-.056-2.052.356-4.237 1.138-6.401"/>
    <path fill="none" stroke="#c9c9c9" stroke-linecap="round" stroke-miterlimit="10" stroke-width="1.211" d="M744.248 753.314c.7-2.041 1.529-4.195 2.496-6.198"/>
    <path d="M764.31 773.844c0-.603-.212-1.149-.58-1.573-1.305.168-2.665.101-3.713-.022a2.423 2.423 0 0 0-.592 1.595c0 .669.257 1.26.681 1.706.446.457 1.07.747 1.762.747.524 0 1.004-.167 1.405-.457a2.42 2.42 0 0 0 1.037-1.996"/>
    <path fill="none" stroke="#000" stroke-linecap="round" stroke-linejoin="round" stroke-miterlimit="10" stroke-width="1.05" d="M755.467 773.9s.934-.343 2.097.353c1.164.695 2.15 1.357 4.627 1.606 2.477.249 3.204-.738 4.316-2.534m22.681.575s-.933-.343-2.097.353c-1.163.695-2.15 1.357-4.627 1.606-2.476.249-3.204-.738-4.316-2.534"/>
    <path fill="#f56d6d" d="M780.751 779.799c2.324.354 4.932 1.282 7.429.497 2.509-.776 4.084-2.891 4.429-1.828 0 0-2.195 3.479-5.841 4.216-3.636.725-7.148.047-8.858.1-1.708.066-1.991-1.362-1.324-2.284.733-1.04 2.273-.998 4.165-.701"/>
    <path d="M778.856 784.155c-1.282-.075-1.614-1.247-1.191-1.904.462-.756 1.797-.604 3.631-.285 2.249.385 4.828 1.103 7.072-.134 2.259-1.232 3.457-3.827 3.884-2.865-.002-.024-1.606 4.188-4.95 5.466-3.337 1.289-7.168-.174-8.446-.278m-13.057 0c1.281-.075 1.614-1.247 1.19-1.904-.462-.756-1.796-.604-3.63-.285-2.25.385-4.828 1.103-7.073-.134-2.258-1.232-3.456-3.827-3.884-2.865.002-.024 1.606 4.188 4.951 5.466 3.337 1.289 7.167-.174 8.446-.278m14.546-10.311c0-.603.212-1.149.58-1.573 1.305.168 2.665.101 3.713-.022.368.424.591.981.591 1.595 0 .669-.256 1.26-.68 1.706a2.459 2.459 0 0 1-1.762.747 2.377 2.377 0 0 1-1.405-.457 2.418 2.418 0 0 1-1.037-1.996"/>
    <path fill="none" stroke="#c9c9c9" stroke-linecap="round" stroke-miterlimit="10" stroke-width="1.211" d="M772.316 813.375h.033c4.171-.19 6.97-.234 14.018-4.662m0 0c8.162-5.118 12.534-15.322 13.292-21.399.759-6.078.189-18.232.189-18.232s1.729-3.022 1.885-6.714c.156-3.679-.591-7.058-1.315-9.054-.726-1.997.122-2.81.925-4.773.981-2.387.981-4.728.981-4.728s2.788-5.007 6.312-6.535c4.706-2.041 7.642-2.369 10.241-2.971"/>
    <path fill="none" stroke="#c9c9c9" stroke-linecap="round" stroke-miterlimit="10" stroke-width="1.211" d="M800.418 753.314c-.552-1.607-1.342-3.008-2.214-4.288"/>
    <path fill="none" stroke="#e00" stroke-linecap="round" stroke-miterlimit="10" stroke-width="1.211" d="m716.89 729.7 4.353 1.183c.524.123 1.059.234 1.594.323 1.606.29 3.235.469 4.863.514"/>
    <path fill="none" stroke="#c9c9c9" stroke-linecap="round" stroke-miterlimit="10" stroke-width="1.211" d="M727.7 731.72s3.033.128 4.929-6.518"/>
    <path fill="#fff" d="M767.383 749.465c.716-.045 2.624.358 4.934.358 2.309 0 2.797-.626 2.797-.626s-1.084-.812-2.775-.812c-3.122 0-4.956 1.08-4.956 1.08"/>
    <path fill="#fff" d="M777.294 749.465c-.716-.045-2.623.358-4.933.358-2.31 0-2.798-.626-2.798-.626s1.085-.812 2.776-.812c3.122 0 4.955 1.08 4.955 1.08"/>
    <path fill="#dedede" d="M456.47 255.98c2.603 8.696 15.41 17.93 23.283 14.658 4.244-1.764 6.937-4.635 10.468-8.099 3.686-3.616 6.898-5.16 11.683-4.459 5.171.757 8.42 6.478 13.736 8.427 5.52 2.024 11.627.804 15.247-4.068 1.021-1.374 1.812-3.112 1.652-4.97-.996-11.592-15.263-.63-19.473-1.655-3.03-.737-5.118-3.888-7.777-5.584-3.858-2.461-8.646-1.672-12.778.059-4.136 1.732-9.725 8.189-13.665 10.498-6.381 3.74-12.704-5.731-17.052-11.324-.717-.922-1.366-2.327-.694-3.466"/>
    <path fill="#dedede" d="M456.47 255.98c2.603 8.696 15.41 17.93 23.283 14.658 4.244-1.764 6.937-4.635 10.468-8.099 3.686-3.616 6.898-5.16 11.683-4.459 5.171.757 8.42 6.478 13.736 8.427 5.52 2.024 11.627.804 15.247-4.068 1.021-1.374 1.812-3.112 1.652-4.97-.996-11.592-15.263-.63-19.473-1.655-3.03-.737-5.118-3.888-7.777-5.584-3.858-2.461-8.646-1.672-12.778.059-4.136 1.732-9.725 8.189-13.665 10.498-6.381 3.74-12.704-5.731-17.052-11.324-.717-.922-1.366-2.327-.694-3.466"/>
    <path fill="none" stroke="#f3f3f3" stroke-linecap="round" stroke-linejoin="round" stroke-miterlimit="10" d="M456.47 255.98c2.603 8.696 15.41 17.93 23.283 14.658 4.244-1.764 6.937-4.635 10.468-8.099 3.686-3.616 6.898-5.16 11.683-4.459 5.171.757 8.42 6.478 13.736 8.427 5.52 2.024 11.627.804 15.247-4.068 1.021-1.374 1.812-3.112 1.652-4.97-.095-1.106-.311-2.007-.627-2.732"/>
    <path fill="#dedede" d="M472.31 263.44c-3.282 4.658-7.589 8.667-12.157 11.821-8.279 5.716-17.781 8.253-26.885 5.77-9.339-2.547-13.147-11.315-20.541-17.775-5.018-4.384-10.742-7.842-14.998-13.123-6.131-7.608-10.506-18.837-3.833-26.982 1.631-1.992 3.764-3.509 5.959-4.853 16.57-10.146 27.551-5.587 43.91 2.4 4.691 2.291 13.832 4.45 18.451 6.886 7.655 4.035 15.957 6.964 16.186 17.297.152 6.852-2.278 13.145-6.092 18.559"/>
    <path fill="#dedede" d="M390.738 232.636c-.491-7.601 3.678-18.635 19.616-25.5 15.938-6.866 17.9-6.621 21.822-6.376 3.924.245 7.357 3.433 4.415 6.13-2.943 2.697-7.602 4.413-10.79 4.168"/>
    <path fill="#fff" d="M478.405 244.88c-.236-10.334-8.533-13.262-16.188-17.292 0 0 8.465 17.326.821 35.766-5.201 12.541-15.401 16.977-21.378 18.53 6.597-.202 12.608-2.566 18.496-6.619 4.56-3.163 8.872-7.171 12.159-11.821 3.805-5.415 6.236-11.708 6.09-18.564"/>
    <path fill="#f3f3f3" d="M478.405 244.88c-.236-10.334-8.533-13.262-16.188-17.292 0 0 8.465 17.326.821 35.766-5.201 12.541-15.401 16.977-21.378 18.53 6.597-.202 12.608-2.566 18.496-6.619 4.56-3.163 8.872-7.171 12.159-11.821 3.805-5.415 6.236-11.708 6.09-18.564"/>
    <path d="M685.034 405.037c2.386-7.404 1.93-22.959-2.419-34.646-5.509 12.077-9.512 22.292-11.586 26.429-4.16 8.308-11.899 15.667-24.912 13.214-1.628-.301-4.07-.791-7.092-1.394l23.518 6.223c.401.1.803.189 1.193.278 11.53 2.543 18.867-2.566 21.298-10.104M599.773 219.22c-.534 0-1.063.082-1.561.242l-77.943 25.07-72.76-25.039a5.104 5.104 0 0 0-1.654-.273h-2.55c-4.54 0-5.943 5.035-1.853 6.648l78.817 35.587 81.31-35.568c4.14-1.583 2.763-6.667-1.806-6.667"/>
    <path fill="none" stroke="#000" stroke-miterlimit="10" stroke-width="7" d="M520.268 351.313V251.255"/>
    <path fill="#fff" d="M823.333 220.772c-.01-.144-.009-.297-.017-.462-.074-1.932.097-3.808-.198-5.108-1.274-5.654-9.736-7.586-22.526-7.542-5.068.022-12.963.126-21.608.335-15.612.41-33.637 1.183-41.777 2.529-11.202 1.848-13.791 6.878-13.269 11.064 0 0 .29 4.718.749 6.357-.783-4.228 1.57-9.506 13.136-11.399 6.713-1.103 20.212-1.817 33.489-2.26 11.568-.369 22.97-.535 29.562-.559a117.46 117.46 0 0 1 6.307.135c2.017.096 3.88.265 5.565.517 6.018.872 9.779 2.762 10.587 6.393"/>
    <path fill="#be0000" d="M771.455 232.62c-16.408 1.141-31.576 2.267-34.648 1.972-.355-.034-.701-.067-1.035-.109-4.872-.53-9.546-1.563-10.841-5.655-1.393-4.398.501-10.219 13.03-12.269 6.691-1.094 20.117-1.815 33.35-2.251"/>
    <path fill="none" stroke="#e00" stroke-linecap="round" stroke-linejoin="round" stroke-miterlimit="10" stroke-width="1.113" d="M812.746 214.38c-1.686-.252-3.548-.421-5.565-.518a118.51 118.51 0 0 0-6.307-.135c-6.592.025-29.419 18.894-29.419 18.894-16.407 1.14-31.576 2.266-34.648 1.972a35.182 35.182 0 0 1-1.035-.109c-4.872-.53-9.546-1.563-10.841-5.655a8.526 8.526 0 0 1-.29-1.22c.016.112.025.226.045.337-.459-1.639-.748-6.358-.748-6.358-.522-4.185 2.067-9.216 13.269-11.063 8.14-1.347 26.165-2.119 41.777-2.53 8.645-.209 16.54-.313 21.608-.335 12.79-.043 21.252 1.888 22.526 7.543.295 1.3.124 3.176.198 5.107.008.165.007.319.017.463-.808-3.632-4.569-5.521-10.587-6.393z"/>
    <path fill="#fff" d="M627.654 230.059c-19.41 11.576-36.112 27.701-41.787 34.155-3.925 4.465-6.205 9.088-6.341 13.141-.075 2.198 1.94 5.407 4.461 7.322 2.521 1.916 8.22 1.559 17.748-6.428 9.528-7.986 30.165-26.638 30.165-26.638s11.324-8.691 8.671-15.879c-2.652-7.188-6.045-9.772-12.917-5.673"/>
    <path fill="#be0000" d="M640.937 237.32c-7.568-.636-18.37 2.757-25.864 8.655-12.033 9.47-25.893 22.209-29.312 28.251-3.28 5.782-2.565 9.824-.683 11.049 2.905 1.11 8.32-.04 16.657-7.031 9.528-7.979 30.166-26.632 30.166-26.632s9.742-7.472 9.036-14.292"/>
    <path fill="none" stroke="#e00" stroke-linecap="round" stroke-linejoin="round" stroke-miterlimit="10" stroke-width="1.113" d="M640.94 238.675a8.534 8.534 0 0 1-.188 1.208l-.01.037a10.55 10.55 0 0 1-.354 1.172c-.013.039-.025.077-.039.115-.138.37-.3.737-.474 1.101-.032.067-.062.133-.095.2-.171.343-.358.682-.554 1.016l-.147.248c-.196.32-.4.636-.613.945-.061.09-.123.178-.185.267a26.41 26.41 0 0 1-1.752 2.21 29.682 29.682 0 0 1-.875.962c-.191.202-.379.396-.564.583l-.255.256a33.759 33.759 0 0 1-.791.763c-.181.169-.353.326-.518.475l-.219.196a26.172 26.172 0 0 1-.62.538 21.07 21.07 0 0 1-.315.265l-.156.128-.118.095-.197.157s-5.465 4.939-12.067 10.819c-6.23 5.551-13.473 11.94-18.099 15.818a59.19 59.19 0 0 1-2.639 2.082c-.149.111-.301.228-.447.335-.33.24-.65.465-.97.685-.17.118-.342.238-.509.35a39.143 39.143 0 0 1-2.234 1.391c-.163.093-.321.18-.48.267-.269.147-.537.293-.797.424-.144.074-.282.137-.423.205-.264.128-.529.258-.783.369-.081.036-.157.063-.238.097a17.97 17.97 0 0 1-1.595.595c-.09.028-.184.064-.272.089-.205.061-.399.108-.596.157-.137.035-.278.073-.411.102-.177.038-.347.067-.516.095a9.971 9.971 0 0 1-.423.067 11.125 11.125 0 0 1-.868.071 7.235 7.235 0 0 1-.804-.014c-.12-.009-.24-.016-.354-.03a5.626 5.626 0 0 1-.389-.066c-.1-.019-.202-.034-.297-.057a5.226 5.226 0 0 1-.428-.13 4.456 4.456 0 0 1-1.275-.656c-2.521-1.916-4.535-5.125-4.461-7.322.137-4.054 2.416-8.677 6.342-13.141 5.675-6.455 22.377-22.58 41.786-34.155 6.872-4.099 10.265-1.515 12.918 5.673.193.522.304 1.053.359 1.588h.006c.002.025-.002.052 0 .078.036.39.043.782.014 1.175z"/>
    <path fill="#fab6b6" d="M614.302 304.655c-1.518-6.106-4.891-11.313-10.294-15.787-5.403-4.474-9.352-5.881-10.815-9.77-1.462-3.889-.392-8.866 5.305-13.105 5.698-4.238 8.231-5.326 12.218-9.692 3.987-4.367 5.898-9.877 10.069-13.736l16.872 16.531s-9.442 9.764-10.651 14.348c-1.208 4.585 6.158 21.011 6.158 21.011"/>
    <path fill="#f56d6d" d="M633.16 294.453s-5.29-11.81-6.16-18.19c-9.82 5.95-14.73 14.69-16.77 19.32 1.91 2.78 3.26 5.8 4.07 9.07z"/>
    <path fill="#e00" d="M609.038 242.91s9.274 12.502 15.535 18.94c6.261 6.439 11.995 4.977 11.995 4.977s6.331-3.951 12.531-13.173c6.199-9.223 6.698-15.665 5.754-20.423-.943-4.758-3.336-8.16-6.495-9.235-3.16-1.075-19.816 1.115-39.32 18.914"/>
    <path d="M659.954 313.154c-3.67-8.812-7.195-18.135-10.195-27.59 0 0-4.15-3.366-13.539-1.162-9.401 2.195-22.948 8.901-25.063 16.543-1.393 5.038-1.179 6.626 1.874 13.823 1.567 3.706 9.252 20.025 17.465 36.385.946.414 1.75.765 2.432 1.041 5.496 2.201 9.301 2.197 9.301 2.197s3.079-13.052 12.941-32.22c1.587-3.09 2.516-4.996 4.784-9.017"/>
    <path fill="#fab6b6" d="M742.361 270.985c4.786-5.259 13.142-13.709 16.977-17.186 5.026-4.56 17.689-11.396 28.766-16.335 0 0 6.3-3.985 5.337-10.907-.967-6.946-5.875-9.947-11.04-10.462-5.19-.518-9.103 1.755-9.103 1.755-3.133.978-6.536 1.854-11.385 2.17-11.67.742-20.073.065-24.721 4.013-3.189 2.7-2.762 6.351-2.171 10.678.262 2.008.568 4.171.557 6.441-.019 5.254-9.893 16.916-14.506 21.418"/>
    <path fill="none" stroke="#f56d6d" stroke-linecap="round" stroke-miterlimit="10" stroke-width="1.113" d="M793.441 226.557c-.967-6.945-5.875-9.946-11.04-10.462-5.19-.518-9.104 1.755-9.104 1.755-3.132.978-6.535 1.854-11.384 2.17-11.67.742-20.073.065-24.721 4.014-3.189 2.699-2.762 6.351-2.171 10.677.262 2.008.567 4.171.557 6.442-.019 5.253-9.893 16.916-14.506 21.418"/>
    <path fill="#f56d6d" d="M747.4 265.633c-1.57-3.21-6.19-11.47-14.82-17.17-3.3 5.24-8.51 11.19-11.51 14.11l21.29 8.41c1.43-1.57 3.18-3.43 5.04-5.35"/>
    <path fill="#e00" d="M823.893 216.727c.002-.038-.007-.064-.007-.064s.007-.087-.003-.253c-.017-.495.258-.168.183-.619.015.672-.311.454-.316.82-.055-5.238-3.611-7.033-10.343-8.135-1.701-.281-3.58-.465-5.617-.563a99.116 99.116 0 0 0-6.226-.101c-6.675.069-18.249.327-29.976.848 0 0-1.267 3.528-1.504 8.441-.092 2.068-.07 4.241.19 6.231a45.361 45.361 0 0 0 1.141 5.671c1.447 5.576 4.047 11.577 7.708 15.18l.01.013c1.786 1.759 4.603 3.396 7.591 2.796 10.156-2.041 20.318-7.299 27.207-11.674 6.937-4.423 8.428-8.108 9.464-12.051.942-3.648.572-6.078.498-6.54"/>
    <path fill="none" stroke="#e00" stroke-linecap="round" stroke-linejoin="round" stroke-miterlimit="10" stroke-width="1.113" d="M823.965 216.72c-.123-1.368-.455-2.694-1.263-3.876-.644-.945-1.55-1.682-2.536-2.253-2.056-1.192-4.446-1.733-6.76-2.115-1.7-.28-3.58-.464-5.616-.563a99.882 99.882 0 0 0-6.226-.101c-6.675.069-18.249.327-29.976.848 0 0-1.268 3.528-1.504 8.441-.093 2.069-.07 4.241.19 6.231a45.41 45.41 0 0 0 1.141 5.672c1.446 5.575 4.047 11.576 7.718 15.192 1.786 1.759 4.603 3.397 7.591 2.796 10.156-2.041 20.318-7.299 27.207-11.674 6.936-4.422 8.428-8.107 9.464-12.051.371-1.435.604-2.92.629-4.416.011-.712.004-1.427-.059-2.131z"/>
    <path fill="#fab6b6" d="M561.042 392.808c6.416 1.167 52.202 11.811 52.202 11.811s8.02 8.603 7.583 14.436c-.438 5.833-13.853 6.124-13.853 6.124s-8.895-7.582-12.394-8.311c-3.5-.729-16.331.583-28.142 1.312-17.517 1.081-30.521 4.75-30.521 4.75s-1.986 2.843-4.963 13.426c-2.966 10.582-5.62 22.76-5.62 22.76s-1.651 3.847-6.446 2.698a18.187 18.187 0 0 1-3.981-1.438c.09-.681.178-1.372.29-2.063.067-.402.123-.803.201-1.216.948-5.542 2.632-11.72 5.542-20.752 3.446-10.683 10.01-21.116 13.746-25.599 0 0 6.963-13.563 14.107-16.917 7.145-3.354 12.249-1.021 12.249-1.021"/>
    <path fill="#8f0000" d="M469.715 461.793c-25.149 37.443-43.668 60.745-67.506 69.102-14.443 5.064-34.606 4.88-42.807-.18-12.8-7.899-16.955-23.363-8.423-29.973 8.531-6.609 28.664-15.024 47.49-51.8 36.735-71.754 43.575-103.361 69.742-125.191 43.453-36.25 99.754-18.297 131.023-5.017 31.269 13.28 41.515 26.018 41.515 26.018s12.542 11.806 2.293 23.327c-10.249 11.52-56.898-19.84-87.993-17.08-31.094 2.758-65.555 13.715-81.179 50.824-15.624 37.109-4.155 59.97-4.155 59.97"/>
    <path fill="none" stroke="#fff" stroke-miterlimit="10" stroke-width="2" d="M469.715 461.793c-25.149 37.443-43.668 60.745-67.506 69.102-14.443 5.064-34.606 4.88-42.807-.18-12.8-7.899-16.955-23.363-8.423-29.973 8.531-6.609 28.664-15.024 47.49-51.8 36.735-71.754 43.575-103.361 69.742-125.191 43.453-36.25 99.754-18.297 131.023-5.017 31.269 13.28 41.515 26.018 41.515 26.018s12.542 11.806 2.293 23.327c-10.249 11.52-56.898-19.84-87.993-17.08-31.094 2.758-65.555 13.715-81.179 50.824-15.624 37.109-4.155 59.97-4.155 59.97z"/>
    <path fill="#fab6b6" d="M490.736 514.605c.23-.161.493-.279.686-.48.127-.133.248-.274.371-.412.234-.26.466-.522.694-.789.428-.501.837-1.019 1.198-1.57.812-1
.245 1.315-2.639 1.612-4.09"/>
    <path fill="#f56d6d" d="M489.54 527.897s-2.013-5.802-2.808-8.011c-5.265 4.391-12.357 12.298-12.871 20.335-.514 8.038 1.585 11.599 1.585 11.599l.625.257c.136-1.221-2.127-3.456-1.87-4.654 1.437-6.642 5.724-11.695 11.029-16.442 1.103-.978 3.173-2.249 4.31-3.084"/>
    <path fill="none" stroke="#f56d6d" stroke-linecap="round" stroke-miterlimit="10" stroke-width="1.113" d="M489.54 527.897c-.11-.503-1.083-2.695-1.839-5.186-.573-1.889-.875-3.862-.744-5.832.2-3.016 1.139-4.344 1.139-4.344"/>
    <path fill="#f56d6d" d="M439.19 517.66s6.813.881 9.969 4.673c3.156 3.78 5.308 6.055 7.828 13.883 2.532 7.828 2.886 17.548 1.627 26.945l-2.489 14.223 13.513.366s1.456-12.791-3.301-30.819c-4.756-18.028-11.634-28.726-27.147-29.271"/>
    <path d="M505.093 562.982c.654-.318 1.46-.137 2.146.412.179-.059.345-.129.5-.176 1.937-.693-2.472-2.36-4.956-1.562-2.471.798-2.093 4.395-2.093 4.395.178-.248 1.759-.883 3.447-1.518.086-.699.409-1.268.956-1.551m33.321-241.34c-1.884-.948-3.858-1.795-5.62-2.264-5.776-1.561-8.263-.747-8.263-.747s-6.753 2.142-6.608 7.914c.144 5.772 15.873 6.422 15.873 6.422"/>
    <path fill="#e00" d="M562.26 395.605h-6.306l.58-5.018h6.306z"/>
    <path d="M744.914 268.69c-1.617-2.297-4.762-5.241-10.816-8.508a54.895 54.895 0 0 0-8.476-3.702c-10.861-3.781-20.206-3.658-20.206-3.658s-2.643 1.505-7.928 6.601c-4.428 4.271-19.504 25.475-35.44 46.517-3.066 4.048-5.798 7.762-7.984 10.895-13.582 19.437-19.927 35.718-19.927 35.718s-3.089-3.067-8.754-6.279c-.702-.401-1.528-.903-2.498-1.494-6.858-4.159-21.031-12.656-51.284-19.269-13.739-3-24.812-3.892-33.187-3.87-9.066.023-14.965 1.104-17.63 1.729-1.104.267-1.65.445-1.65.445s-1.205 3.859-2.498 9.334c-2.465 10.449-5.23 26.764-.524 33.32 7.181 10.003 25.859 23.965 31.513 26.24 9.088 3.557 8.519.39 12.021.669 3.067.234 59.648 11.407 80.869 15.656.011.011.034.011.045.011 3.022.602 5.464 1.093 7.092 1.394 13.013 2.453 20.753-4.907 24.912-13.214 2.074-4.138 6.078-14.352 11.586-26.429 5.554-12.11 13.254-25.698 20.864-37.736 15.213-24.019 41.54-59.486 41.54-59.486s.49-1.873-1.64-4.884"/>
    <path fill="#e00" d="M559.646 393.378c-8.263-1.729-16.426-6.869-26.273-21.444-10.727-15.902-12.868-28.335-13.393-37.58a149.74 149.74 0 0 1-.155-4.17c-.067-2.922.345-5.141.959-6.814 1.371-3.78 3.746-4.739 3.746-4.739-.022 0-.033.011-.055.011-.591.156-1.238.346-1.918.558-8.208 2.531-22.448 9.199-37.38 22.09-16.214 13.995-22.139 23.327-33.543 43.57-8.558 15.185-15.578 33.095-17.396 38.76 2.665.368 5.576.892 8.565 1.539 3.1-5.553 6.902-11.586 11.284-17.084 12.88-16.158 29.014-28.696 33.076-29.662 4.061-.974 24.242 2.821 47.225 11.274a208.66 208.66 0 0 1 18.712 7.962c3.022-1.305 5.196-2.844 6.546-4.271"/>
  </g>
  <g clip-path="url(#f)" transform="matrix(1.33333 0 0 -1.33333 -64.28 1296.617)">
    <path d="M449.873 426.56s-.273-22.109 21.563-52.408c21.837-30.298 51.862-43.946 51.862-43.946l8.462-17.742-30.845.546-76.7 57.867-5.459 24.02 4.367 33.301.273 10.372 11.737 4.094"/>
  </g>
  <g clip-path="url(#g)" transform="matrix(1.33333 0 0 -1.33333 -64.28 1296.617)">
    <path d="M444.55 425.16a115.971 115.971 0 0 0-8.564-1.539c-7.115-1.026-12.489-.993-12.735.613 0 0 .892 3.29 4.561 6.446 2.253 1.951 6 4.327 10.65 6.467a185.043 185.043 0 0 1 3.824-7.794c.703-1.35 1.461-2.755 2.264-4.193"/>
    <path fill="#fff" d="m515.197 458.313.201-1.216c-.078.413-.134.814-.201 1.216"/>
    <path fill="#fab6b6" d="M523.7 570.125c-.285-1.666-.809-3.326-1.941-4.457-.991-.988-2.804-2.564-3.983-3.331 0 0-.526-6.027 1.168-10.26 1.684-4.232 2.25-4.362 2.018-6.205-.222-1.841-1.51-2.218-3.396-2.256-1.063-.009-4.008.909-4.008.909s.844 1.645-2.334-2.895c-3.178-4.551-5.555-6.85-7.331-10.807-1.776-3.957-3.191-5.723-5.426-6.518-1.823-.649-5.798-.645-9.387 1.907-.589.43-4.404 3.109-4.988 3.628a51.774 51.774 0 0 0-3.027 2.984c-5.135 5.502-6.192 10.176-7.921 17.764a50.187 50.187 0 0 0-.768 4.162c-.907 6.248-.756 12.572-.129 18.982.173 1.794.303 4.248.583 7.026.487-.594.844-1.319 1.136-2.075.972-2.573.123-1.089 2.329-1.694 2.205-.616 3.205-1.798 4.308.775 1.102 2.562.735 9.383 3.307 10.972 2.562 1.589 3.946 6.054 7.502 7.513 0 0 2.562 5.631.974 11.145 0 0 14.923-10.527 22.393-12.603 7.47-2.086 8.652-4.791 8.652-4.791s.593-5.711.671-8.8c.071-2.772.17-5.554-.077-8.32-.077-.855-.162-1.806-.325-2.755"/>
    <path fill="#f3f3f3" d="M505.88 537.716s1.197 1.7 2.477 2.958c0 0-3.92 1.876-5.914 2.485-1.993.608-5.912 2.886-5.912 2.886l-.575-1.046s2.194-5.549 5.28-6.675c3.086-1.127 4.644-.608 4.644-.608"/>
    <path fill="none" stroke="#000" stroke-miterlimit="10" d="M434.239 423.62c-.602 1.885-.858 2.955-.858 2.955l7.159 2.777"/>
    <path d="M512.903 574.612c2.765-1.639 3.767-2.933 4.961-2.651 0 0 .139-.993-1.388-2.261-1.542-1.268-2.68-.727-2.68-.727s-5.031 4.863-8.151 5.617c-.788.184-1.873-.005-2.663-.031-1.335-.041-2.622-.199-3.906-.414-.561-.095-1.865-.261-1.113.731.097.121.203.232.319.325.487.419 1.092.545 1.728.731 1.81.534 3.709 1.064 5.636 1.243 1.846.165 4.61-.979 7.257-2.563m-5.233-6.466c1.124-.557 1.404-2.29.615-3.857a4.007 4.007 0 0 0-1.103-1.36c-.928.336-2.194.787-3.408 1.252a4.133 4.133 0 0 0 .435 2.153c.79 1.567 2.338 2.381 3.461 1.812"/>
    <path fill="#fab6b6" d="M498.32 568.321s.264-.699 2.341-.774c2.089-.076 2.846-.286 5.458-.406 2.599-.121 3.08-.749 3.08-.749s1.214-.695 1.733.007c0 0 1.143.793-.753 2.204s-8.883 1.289-9.526 1.287c-.643-.002-2.333-1.569-2.333-1.569"/>
    <path fill="none" stroke="#000" stroke-linecap="round" stroke-linejoin="round" stroke-width="1.113" d="M500.372 567.368a6.352 6.352 0 0 1 1.242-.153c2.09-.075 2.685-.076 5.296-.196 2.6-.121 3.625-1.021 3.625-1.021"/>
    <path fill="none" stroke="#f56d6d" stroke-linecap="round" stroke-miterlimit="10" stroke-width="1.113" d="M510.12 547.29c-.904.816-1.41 1.437-1.41 1.437m13.813 20.312c-2.383-.72-4.509-2.941-4.729-6.256-.253-3.805.072-7.855 1.71-12.423.506-1.41 2.476-4.442.809-5.746-1.367-1.07-3.909-1.025-5.764-.225-.699.301-1.35.652-1.943 1.022"/>
    <path d="M523.98 583.635a428.206 428.206 0 0 1-.549 6.366s-2.93.605-10.399 2.692c-4.681 1.296-6.06 5.419-15.091 7.588-1.941.466-3.87-.259-3.707-2.249.27-3.513.586-13.004.586-13.004-3.086-.094-7.393-1.054-8.658-1.955-1.271-.912-1.771-2.912-2.725-5.474-.955-2.573-1.778-7.437-1.778-7.437-1.909.606-5.775 5.564-6.617 8.137-.253.756-.966 1.511-1.419 2.106-1.036 1.427-3.668 2.516-6.608 1.391-2.568-.98-3.74-12.272-5.14-19.598-.87-4.551-2.53-6.625-2.53-6.625-.368 4.897-1.761 7.613-3.831 17.075-1.754 8.863-3.5 18.093-1.207 26.832a6.041 6.041 0 0 1-3.735 1.244c3.234 2.369 6.302 4.257 10.297 3.939a18.773 18.773 0 0 1-3.121 4.045 11.977 11.977 0 0 0 5.401-.724 17.023 17.023 0 0 0 4.598 8.284 6.452 6.452 0 0 1-.087-5.316c4.828 5.487 7.316 5.081 13.993 8.055a11.144 11.144 0 0 1-2.043-4.406c10.13 4.798 26.552.366 35.841-2.721 8.732-2.901 15.102-2.311 17.47-.579-.745-2.313-2.054-3.585-3.447-4.698 3.801-.489 6.917.68 10.323 2.438-2.173-7.935-6.339-21.549-15.817-25.406"/>
    <path fill="#fab6b6" d="M476.709 574.105c-.271 2.339-1.996 8.564-7.708 8.34-5.711-.225-6.643-4.836-6.432-10.398.211-5.562 2.583-10.019 6.759-11.142 4.176-1.124 8.382 4.541 7.381 13.2"/>
    <path fill="#e00" d="M527.988 455.484s-.926.257-2.654.279c-2.152.022-5.542-.323-9.936-2.018l-.201 4.567c-.111.691-.2 1.382-.29 2.063-.691 5.464-.735 10.738-.635 18.165.223 16.215-1.327 21.321-3.1 25.548-1.171 2.766-2.141 4.193-4.36 5.419 8.14-2.91 13.069-6.724 15.556-16.615 2.475-9.925 2.966-26.669 5.62-37.408"/>
    <path fill="#e00" d="M534.685 410.746c-4.082-.201-9.273.798-13.466.876-21.455.379-28.123 1.003-28.123 1.003-4.673 2.52-6.568 7.316-17.039 22.593-1.539 2.23-3.067 4.594-4.583 7.003-2.677 1.004-9.056 1.137-15.512.413-3.39-.38-5.04-1.004-7.951-1.863a68.173 68.173 0 0 1-9.545-3.624c-4.651-2.141-8.397-4.516-10.65-6.468-3.669-3.156-4.561-6.445-4.561-6.445.056.379.078.792.078 1.238 0 .256-.011.524-.033.802-.011.279-.045.58-.089.892-.023.257-.067.525-.112.804-.691 4.259-3.758 13.448-6.758 21.477-4.014 10.75-7.393 18.188-9.3 29.45-1.907 11.263-1.025 22.883 4.528 29.574 5.553 6.691 13.125 7.014 16.392 7.415 3.256.402 11.229 1.774 11.229 1.774s7.349.423 26.228-12.022c18.879-12.434 26.222-19.942 26.222-19.942s2.402 6.487 2.624 15.807c.081 3.397.193 8.613-2.851 11.981-.993 1.104-2.92 2.692-3.657 3.562 3.457-2.967 6.793-3.651 11.455-5.201 2.04-.68 5.598-1.59 7.556-2.326.011 0 .034-.011.045-.011 2.219-1.227 3.189-2.654 4.36-5.42 1.773-4.226 3.323-9.333 3.1-25.548-.1-7.426-.056-12.701.636-18.165.089-.68.178-1.372.29-2.063.067-.401.122-.803.2-1.215.948-5.542 2.632-11.72 5.542-20.753 3.446-10.683 10.009-21.116 13.745-25.598"/>
    <path d="M431.808 433.579c-1.606-1.026-2.956-1.996-3.992-2.899-3.669-3.156-4.561-6.446-4.561-6.446a9.784 9.784 0 0 1 .044 2.041c-.011.279-.044.58-.089.892-.022.257-.067.524-.111.803-.692 4.26-3.758 13.448-6.758 21.478-4.014 10.749-7.393 18.187-9.3 29.45-1.907 11.263-1.026 22.882 4.527 29.573a18.948 18.948 0 0 0 3.055 2.955c-3.055-2.955-6.031-8.038-2.908-20.895 3.501-14.43 15.019-37.147 20.093-56.952"/>
    <path fill="#fff" d="m682.95 424.543-72.254-16.023.357 1.822z"/>
    <path fill="#fab6b6" d="M587.369 415.945c4.73 4.092 11.396 4.957 16.649 4.045l-.325-1.969s-6.172-1.343-9.689-4.927c-3.516-3.584-5.172-6.552-8.584-10.343a7.675 7.675 0 0 0-2.928-2.047c-.259.004-.516.02-.771.046-2.544.252-2.142 8.477 5.648 15.195"/>
    <path fill="#fab6b6" d="M587.369 415.945c-7.79-6.718-8.192-14.943-5.648-15.195.255-.026.512-.042.771-.046-2.827-1.127-5.582-.393-5.582-.393-2.997-.369-7.781-2.312-14.706-4.783l-4.654-1.331c-.6.517-.726 2.227-1.407 2.733-6.476 4.766-13.217 5.987-13.217 5.987s-4.117 1.505-8.508 8.201c.032-.015.067-.008.111-.013 1.537-.104 3.054-.184 4.551-.239 1.039-.049 2.055-.095 3.073-.119.985-.02 2.36.323 3.313.283 1.218-.067 2.417-.12 3.594-.159.527-.021 1.056-.031 1.571-.051.875-.028 1.73-.042 2.563-.052.462 0 .922-.012 1.362-.01 3.737-.033 7.02.057 9.661.231.283.015.569.04.842.056 1.538.111 2.833.258 3.817.428a10.075 10.075 0 0 1 1.327.289c.673.205 1.338.433 1.997.697.575.231 1.155.494 1.737.769.291.137.571.277.865.436 3.735 1.94 7.535 4.771 12.546 7.943 7.038 4.45 10.839 6.983 12.514 6.955 1.681-.028 5.02-.662 5.02-.662s6.053-.837 7.229-1.129c.914-.23 6.748-2.278 10.342-4.736l-7.897-10.68a3.254 3.254 0 0 0-1.107.062c-.836.214-3.192 2.275-5.694 4.11 1.831.643 3.223.911 3.767.932-1.312 1.648-4.118 2.952-7.504 3.531-5.253.912-11.919.047-16.649-4.045"/>
    <path fill="none" stroke="#f56d6d" stroke-linecap="round" stroke-miterlimit="10" stroke-width="1.113" d="M617.488 414.353c-1.146 1.442-6.853 6.188-8.689 7.702-.406.334-.855.59-1.354.758-2.532.851-7.175 1.794-7.175 1.794m22.475-9.125c-1.146 1.441-6.853 6.188-8.689 7.702-.406.334-.855.59-1.354.758-2.532.851-7.175 1.793-7.175 1.793"/>
    <path fill="#fab6b6" d="M558.14 394.11c-6.611-2.248-14.449-5.146-24.407-7.601-23.78-5.848-42.508-9.07-46.569-8.095-4.062.966-20.784 12.781-34.38 28.593-4.626 5.379-8.697 11.329-12.045 16.824a168.99 168.99 0 0 0-2.451 4.153c-1.622 2.852-2.745 4.761-3.895 7.022 2.813 1.501 8.596 4.261 12.031 5.275 2.91.859 6.149 1.974 9.538 2.353 6.457.725 12.836.591 15.512-.413 1.517-2.408 3.044-4.773 4.583-7.003 10.471-15.277 12.367-20.072 17.039-22.592 0 0 9.722.109 31.149-1.032 4.188-.227 6.095-.222 10.174-.476 4.39-6.696 8.508-8.201 8.508-8.201s6.74-1.221 13.217-5.987c.681-.507 1.396-2.303 1.996-2.82"/>
    <path fill="#f56d6d" d="m437.072 428.797-.108.144c-.062-.047-.128-.094-.187-.14.111-.003.351-.075.295-.004m-.345-.032.049.037c-.041.001-.067-.006-.049-.037"/>
    <path fill="#f56d6d" d="M471.473 442.221c-2.676 1.003-9.466 1.069-15.923.345a35.372 35.372 0 0 1-2.158-.325c-1.873-.37-3.313-.859-5.381-1.47a68.14 68.14 0 0 1-9.546-3.624 61.468 61.468 0 0 1-5.013-2.588 33.01 33.01 0 0 1 3.512-5.619c5.924 4.424 22.27 11.268 35.268 11.962-.48.758-.28.549-.759 1.319m132.22-24.201c1.242-.521 2.668-1.476 4.062-2.494-2.9-1.014-6.896-2.96-10.385-6.357 0 0 2.133-1.126 5.371-1.334 3.227-.206 3.062.506 5.741.246 2.677-.26 3.566-.121 2.525-2.819-1.03-2.7-5.127-3.729-10.067-3.135-4.939.594-7.75.874-10.89-.162-2.819-.924-5.252-1.366-7.559-1.262a7.693 7.693 0 0 1 2.929 2.047c3.412 3.791 5.067 6.76 8.584 10.343 3.517 3.584 9.689 4.927 9.689 4.927"/>
    <path fill="#fab6b6" d="M611.522 416.459c-.544-.021-1.937-.289-3.767-.932-1.394 1.018-2.82 1.973-4.062 2.494l.325 1.97c3.386-.579 6.192-1.884 7.504-3.532"/>
    <path fill="none" stroke="#f56d6d" stroke-linecap="round" stroke-miterlimit="10" stroke-width="1.113" d="M558.14 394.11c-6.611-2.248-14.449-5.146-24.407-7.601-23.78-5.848-42.508-9.07-46.569-8.096-4.062.967-20.816 12.595-34.423 28.146-4.63 5.291-8.705 11.143-12.057 16.548-.868 1.4-1.69 2.769-2.453 4.085a388.31 388.31 0 0 0-3.838 6.815"/>
    <path fill="none" stroke="#f56d6d" stroke-linecap="round" stroke-miterlimit="10" stroke-width="1.113" d="M486.543 412.773s16.273-.039 37.701-1.18c4.188-.227 37.331-.778 39.972-.605.284.015.569.04.842.056 1.538.111 2.834.258 3.817.429.115.016.219.035.324.053.394.077.732.151 1.004.235.673.205 1.338.434 1.996.698.575.23 1.156.494 1.737.769.291.137.571.276.865.436 3.736 1.939 7.535 4.771 12.547 7.942 7.037 4.451 10.838 6.983 12.513 6.956 1.682-.029 11.073-1.5 12.249-1.792.914-.23 6.748-2.277 10.342-4.735m-7.896-10.68a3.254 3.254 0 0 0-1.107.062c-.836.214-3.192 2.275-5.694 4.11-1.394 1.017-2.82 1.972-4.062 2.494 0 0-6.172-1.343-9.689-4.927-3.516-3.584-5.172-6.552-8.584-10.343a7.675 7.675 0 0 0-2.928-2.047c-2.827-1.127-5.582-.393-5.582-.393-2.997-.37-11.845-3.729-18.771-6.201"/>
    <path fill="#aaa" d="m608.984 406.139-49.588-10.875.885-4.422 49.698 10.163 55.749 14.314 17.81 4.593-.589 4.631"/>
    <path d="m609.405 404.079-49.588-10.875.464-2.362 49.698 10.163 55.749 14.314 17.81 4.593-.589 4.631"/>
    <path fill="#fab6b6" d="M574.237 399.856c-2.833-.865-6.532-2.292-11.207-3.961l-4.654-1.331c-.6.518-.726 2.227-1.407 2.733-.18.133-.361.264-.542.391"/>
    <path fill="#6c6c6c" d="m697.941 488.818-11.938-64.241-77.019-18.439 10.578 67.693 76.34 15.593z"/>
    <path fill="none" stroke="#be0000" stroke-linecap="round" stroke-linejoin="round" stroke-miterlimit="10" stroke-width="1.113" d="M456.593 480.414s1.004-4.416 0-8.709c0 0 7.817-15.456 16.627-29.484"/>
    <path d="M498.212 600.158c8.491-2.495 18.439-11.69 21.681-12.904 3.242-1.213 4.289-.58 4.289-.58l1.007 8.1-1.813 1.263"/>
    <path fill="#c9c9c9" d="m619.562 473.831 3.186-1.07 75.193 16.057-2.038.606z"/>
    <path d="m609.98 401.004-.995 5.134 73.965 18.404.589-4.631z"/>
    <path fill="none" stroke="#f56d6d" stroke-linecap="round" stroke-miterlimit="10" stroke-width="1.113" d="M576.91 400.31c-2.997-.369-11.845-3.729-18.771-6.201"/>
    <path fill="#dedede" d="M442.965 234.352c-.981-3.188 3.678-10.299 13.241-13.486 9.563-3.188 9.808-6.375 7.846-8.582-1.962-2.207-5.195-2.525-11.034 0-9.072 3.923-21.332 9.808-20.596 21.087"/>
    <path fill="#fff" d="M445.758 248.93c-.115 1.317-1.17 2.292-2.472 2.187-3.716-.302-8.937-2.05-11.136-4.179a17.05 17.05 0 0 1-1.677-1.879c-6.296 2.03-10.756 1.691-15.104.2a25.372 25.372 0 0 1-2.177 1.992c-2.273 1.846-7.514 4.219-10.8 4.484a1.843 1.843 0 0 1-1.948-1.395c-.53-2.156-1.326-6.865-1.093-10.12.325-4.547 3.264-8.449 3.264-8.449s-2.509-8.627.744-13.12c2.839-3.923 6.171-5.48 10.652-6.996 3.299-1.117 7.456-2.135 10.99-2.135 1.488 0 9.572.764 14.145 4.781 4.573 4.016 4.304 7.369 3.809 10.665-.428 2.844-1.484 5.999-2.042 7.901 1.333 1.841 3.612 5.294 4.393 8.342.7 2.731.625 5.742.452 7.721"/>
    <path fill="none" stroke="#f56d6d" stroke-linecap="round" stroke-linejoin="round" stroke-miterlimit="10" stroke-width="2" d="M424.602 216.41c.543-.171 1.327-.333 2.143-.217 1.118.159 1.713.296 2.23.553"/>
    <path fill="none" stroke="#4d4d4d" stroke-linecap="round" stroke-linejoin="round" stroke-width="1.113" d="M420.63 220.423s-3.744 3.219-9.342.449m19.929.012c2.868 3.1 7.019 1.591 7.019 1.591"/>
    <path fill="none" stroke="#fddbdb" stroke-linecap="round" stroke-linejoin="round" stroke-miterlimit="10" d="M436.556 243c1.448 1.663 3.94 3.473 6.179 3.958 0 0 1.967-3.749-2.298-10.108m-35.837-1.14s-3.701 4.026-1.404 10.185c0 0 5.016-.051 7.571-4.874"/>
    <path fill="none" stroke="#c9c9c9" stroke-linecap="round" stroke-linejoin="round" stroke-miterlimit="10" d="M438.864 219.013s3.05 1.711 7.51 1.783m-8.568-3.711c1.524.436 5.129.96 8.362-.032m-31.967-.675s-6.888 3.1-13.428.618m14.078-2.98s-4.85 1.419-10.895-1.564"/>
    <path fill="none" stroke="#f56d6d" stroke-linecap="round" stroke-linejoin="round" stroke-miterlimit="10" stroke-width="1.113" d="M509.353 540.638c-1.808 1.027-5.443 1.183-9.664 3.363-2.593 1.339-3.804 2.977-3.804 2.977l-.338-.896s1.355-4.428 4.795-7.16c2.858-2.27 5.852-1.108 5.852-1.108"/>
    <path fill="none" stroke="#f56d6d" stroke-linecap="round" stroke-linejoin="round" stroke-miterlimit="10" stroke-width="1.113" d="M497.293 548.727c-1.121-1.036-2.506-2.842-3.034-5.709"/>
    <path fill="#f56d6d" d="M497.412 537.499c.951-2.342 2.323-3.482 5.06-3.355 1.075.049-2.855-2.049-4.42-.973-1.564 1.077-.64 4.328-.64 4.328"/>
    <path fill="none" stroke="#be0000" stroke-linecap="round" stroke-linejoin="round" stroke-miterlimit="10" stroke-width="1.113" d="M515.398 485.67c-1.143-8.498-1.214-20.979 0-28.574"/>
  </g>
</svg>

