<svg id="e057e0d6-7ef5-49c4-ae5f-0dd730783e7d" data-name="Icon" xmlns="http://www.w3.org/2000/svg" viewBox="0 0 36 36">
  <defs>
    <style>
      .b92ad349-0b02-42b0-abf7-bb03617304bd {
        fill: #e00;
      }
    </style>
  </defs>
  <path class="b92ad349-0b02-42b0-abf7-bb03617304bd" d="M30.44,10.46l-12.13-7a.62.62,0,0,0-.62,0l-12.13,7a.63.63,0,0,0-.31.54V25a.63.63,0,0,0,.31.54l12.13,7a.64.64,0,0,0,.62,0l12.13-7a.63.63,0,0,0,.31-.54V11A.63.63,0,0,0,30.44,10.46ZM29.5,24.64,18,31.28,6.5,24.64V11.36L18,4.72l11.5,6.64Z"/>
</svg>
