<?xml version="1.0" encoding="UTF-8"?><svg id="a" xmlns="http://www.w3.org/2000/svg" viewBox="0 0 1080 1080"><defs><style>.b{fill:#e00;}</style></defs><rect class="b" x="874.8855" y="540.9688" width="7.4074" height="7.4077" rx="3.7036" ry="3.7036"/><path class="b" d="m878.5892,622.4505h.0001c2.0454-.0002,3.7036-1.6584,3.7036-3.7039s-1.6581-3.7036-3.7036-3.7036h-.0001c-2.0455,0-3.7037,1.6582-3.7037,3.7036s1.6582,3.7039,3.7037,3.7039Z"/><path class="b" d="m878.5892,659.4873h.0001c2.0454,0,3.7036-1.6582,3.7036-3.7036s-1.6581-3.7036-3.7036-3.7036h-.0001c-2.0455,0-3.7037,1.6582-3.7037,3.7036s1.6582,3.7036,3.7037,3.7036Z"/><path class="b" d="m841.5521,437.2652h.0001c2.0454,0,3.7036-1.6582,3.7036-3.7036s-1.6581-3.7036-3.7036-3.7036h-.0001c-2.0455,0-3.7037,1.6582-3.7037,3.7036s1.6582,3.7036,3.7037,3.7036Z"/><path class="b" d="m860.0706,455.7837c2.0455,0,3.7037-1.6582,3.7037-3.7036s-1.6582-3.7036-3.7037-3.7036-3.7037,1.6582-3.7037,3.7036,1.6582,3.7036,3.7037,3.7036Z"/><path class="b" d="m860.0706,492.8208c2.0455,0,3.7037-1.6582,3.7037-3.7036s-1.6582-3.7041-3.7037-3.7041-3.7037,1.6582-3.7037,3.7041,1.6582,3.7036,3.7037,3.7036Z"/><path class="b" d="m860.0706,529.8579c2.0455,0,3.7037-1.6582,3.7037-3.7036s-1.6582-3.7041-3.7037-3.7041-3.7037,1.6582-3.7037,3.7041,1.6582,3.7036,3.7037,3.7036Z"/><path class="b" d="m860.0706,640.9688c2.0455,0,3.7037-1.6582,3.7037-3.7036s-1.6582-3.7036-3.7037-3.7036-3.7037,1.6582-3.7037,3.7036,1.6582,3.7036,3.7037,3.7036Z"/><path class="b" d="m841.5521,659.4873h.0001c2.0454,0,3.7036-1.6582,3.7036-3.7036s-1.6581-3.7036-3.7036-3.7036h-.0001c-1.1409,0-2.1486.5269-2.8279,1.3379-.2496.7891-.4968,1.5791-.7518,2.3657-.0314.0969-.063.1938-.0946.291.1508,1.907,1.7285,3.4126,3.6744,3.4126Z"/><path class="b" d="m860.0706,678.0059c2.0455,0,3.7037-1.6582,3.7037-3.7036s-1.6582-3.7036-3.7037-3.7036-3.7037,1.6582-3.7037,3.7036,1.6582,3.7036,3.7037,3.7036Z"/><path class="b" d="m841.5521,696.5244h.0001c2.0454,0,3.7036-1.6582,3.7036-3.7036s-1.6581-3.7036-3.7036-3.7039h-.0001c-2.0455,0-3.7037,1.6582-3.7037,3.7039s1.6582,3.7036,3.7037,3.7036Z"/><path class="b" d="m860.0706,715.043c2.0455,0,3.7037-1.6582,3.7037-3.7036s-1.6582-3.7039-3.7037-3.7039-3.7037,1.6582-3.7037,3.7039,1.6582,3.7036,3.7037,3.7036Z"/><rect class="b" x="837.8484" y="726.1541" width="7.4074" height="7.4075" rx="3.7036" ry="3.7036"/><path class="b" d="m823.0336,715.043c2.0455,0,3.7037-1.6582,3.7037-3.7036s-1.6582-3.7039-3.7037-3.7039-3.7037,1.6582-3.7037,3.7039,1.6582,3.7036,3.7037,3.7036Z"/><path class="b" d="m804.5152,733.5615c2.0454-.0002,3.7036-1.6582,3.7036-3.7036v-.0002c0-1.5032-.8992-2.7908-2.1858-3.3711-.5016.8469-1.0093,1.6899-1.5178,2.5322-.1685.2791-.3336.5603-.5029.8389-.5884.9688-1.1848,1.9319-1.7823,2.8945.631.499,1.418.8093,2.285.8093h.0001Z"/><path class="b" d="m823.0336,752.0801c2.0455,0,3.7037-1.6582,3.7037-3.7039s-1.6582-3.7036-3.7037-3.7036-3.7037,1.6582-3.7037,3.7036,1.6582,3.7039,3.7037,3.7039Z"/><path class="b" d="m804.5151,770.5986h.0001c2.0454-.0002,3.7036-1.6584,3.7036-3.7039s-1.6581-3.7036-3.7036-3.7036h-.0001c-2.0455,0-3.7037,1.6582-3.7037,3.7036s1.6582,3.7039,3.7037,3.7039Z"/><path class="b" d="m823.0336,789.117c2.0455,0,3.7037-1.6582,3.7037-3.7036s-1.6582-3.7039-3.7037-3.7039-3.7037,1.6582-3.7037,3.7039,1.6582,3.7036,3.7037,3.7036Z"/><path class="b" d="m804.5151,807.6355h.0001c2.0454,0,3.7036-1.6582,3.7036-3.7036s-1.6581-3.7036-3.7036-3.7039h-.0001c-2.0455,0-3.7037,1.6582-3.7037,3.7039s1.6582,3.7036,3.7037,3.7036Z"/><path class="b" d="m785.9966,789.117c2.0455,0,3.7037-1.6582,3.7037-3.7036s-1.6582-3.7039-3.7037-3.7039-3.7037,1.6582-3.7037,3.7039,1.6582,3.7036,3.7037,3.7036Z"/><path class="b" d="m785.9966,826.1541c2.0455,0,3.7037-1.6582,3.7037-3.7036s-1.6582-3.7039-3.7037-3.7039-3.7037,1.6582-3.7037,3.7039,1.6582,3.7036,3.7037,3.7036Z"/><path class="b" d="m767.4782,837.2652h-.0002c-2.0455,0-3.7037,1.6582-3.7037,3.7036s1.6582,3.7039,3.7037,3.7039h.0002c2.0455-.0002,3.7036-1.6582,3.7036-3.7039s-1.6581-3.7034-3.7036-3.7036Z"/><path class="b" d="m748.9596,818.7466c-2.0455,0-3.7037,1.6582-3.7037,3.7039s1.6582,3.7036,3.7037,3.7036,3.7037-1.6582,3.7037-3.7036-1.6582-3.7039-3.7037-3.7039Z"/><path class="b" d="m730.4412,837.2652h-.0002c-2.0455,0-3.7037,1.6582-3.7037,3.7036s1.6582,3.7039,3.7037,3.7039h.0002c2.0455-.0002,3.7036-1.6582,3.7036-3.7039s-1.6581-3.7034-3.7036-3.7036Z"/><path class="b" d="m748.9596,855.7837c-2.0455,0-3.7037,1.6582-3.7037,3.7036s1.6582,3.7039,3.7037,3.7039,3.7037-1.6582,3.7037-3.7039-1.6582-3.7036-3.7037-3.7036Z"/><path class="b" d="m711.9225,855.7837c-2.0455,0-3.7037,1.6582-3.7037,3.7036s1.6582,3.7039,3.7037,3.7039,3.7037-1.6582,3.7037-3.7039-1.6582-3.7036-3.7037-3.7036Z"/><path class="b" d="m693.4041,874.3023h-.0002c-2.0455,0-3.7037,1.6582-3.7037,3.7036s1.6582,3.7036,3.7037,3.7036h.0002c2.0455,0,3.7036-1.6582,3.7036-3.7036s-1.6581-3.7036-3.7036-3.7036Z"/><path class="b" d="m674.8855,855.7837c-2.0455,0-3.7037,1.6582-3.7037,3.7036s1.6582,3.7039,3.7037,3.7039,3.7037-1.6582,3.7037-3.7039-1.6582-3.7036-3.7037-3.7036Z"/><path class="b" d="m656.367,874.3023c-2.0457,0-3.7039,1.6582-3.7039,3.7036s1.6582,3.7036,3.7039,3.7036,3.7036-1.6582,3.7036-3.7036-1.6582-3.7036-3.7036-3.7036Z"/><path class="b" d="m674.8855,892.8208c-2.0455,0-3.7037,1.6582-3.7037,3.7036s1.6582,3.7036,3.7037,3.7036,3.7037-1.6582,3.7037-3.7036-1.6582-3.7036-3.7037-3.7036Z"/><path class="b" d="m637.8485,900.228c2.0454,0,3.7036-1.6582,3.7036-3.7036s-1.6582-3.7036-3.7036-3.7036-3.7037,1.6582-3.7037,3.7036,1.6582,3.7036,3.7037,3.7036Z"/><path class="b" d="m619.3299,911.3394c-2.0455,0-3.7037,1.658-3.7037,3.7036s1.6582,3.7036,3.7037,3.7036h.0001c2.0454,0,3.7035-1.6582,3.7035-3.7036s-1.6581-3.7036-3.7035-3.7036h-.0001Z"/><path class="b" d="m600.8114,892.8208c-2.0454,0-3.7036,1.6582-3.7036,3.7036s1.6582,3.7036,3.7036,3.7036,3.7037-1.6582,3.7037-3.7036-1.6582-3.7036-3.7037-3.7036Z"/><path class="b" d="m582.293,911.3394h-.0002c-2.0454,0-3.7036,1.658-3.7036,3.7036s1.6582,3.7036,3.7036,3.7036h.0002c2.0454,0,3.7036-1.6582,3.7036-3.7036s-1.6582-3.7036-3.7036-3.7036Z"/><path class="b" d="m471.182,911.3394h-.0002c-2.0454,0-3.7036,1.658-3.7036,3.7036s1.6582,3.7036,3.7036,3.7036h.0002c2.0454,0,3.7035-1.6582,3.7035-3.7036s-1.6581-3.7036-3.7035-3.7036Z"/><path class="b" d="m448.9596,896.5244c0,2.0454,1.6582,3.7036,3.7036,3.7036,1.8926,0,3.4358-1.4246,3.6587-3.2568-2.4429-.3154-4.8772-.6572-7.3042-1.0222-.0298.1887-.0581.3782-.0581.5754Z"/><path class="b" d="m434.1449,911.3394h-.0001c-2.0455,0-3.7037,1.658-3.7037,3.7036s1.6582,3.7036,3.7037,3.7036h.0001c2.0454,0,3.7036-1.6582,3.7036-3.7036s-1.6582-3.7036-3.7036-3.7036Z"/><circle class="b" cx="415.6262" cy="896.5244" r="3.7037"/><path class="b" d="m360.0709,874.3023h-.0002c-2.0454,0-3.7036,1.6582-3.7036,3.7036s1.6582,3.7036,3.7036,3.7036h.0002c2.0454,0,3.7035-1.6582,3.7035-3.7036s-1.6581-3.7036-3.7035-3.7036Z"/><path class="b" d="m341.5521,863.1912c.7915,0,1.5212-.2527,2.123-.6758-1.9526-.981-3.8921-1.9839-5.8239-2.9998.0155,2.0322,1.6649,3.6755,3.7008,3.6755Z"/><path class="b" d="m429.6402,377.7642l-118.9409-25.2817c-.8286-.1768-1.689.0791-2.2876.6777s-.854,1.459-.6777,2.2871l25.2817,118.9414c.1904.8965.8564,1.6172,1.7354,1.877.2339.0693.4727.1035.71.1035.6533,0,1.292-.2568,1.7676-.7324l93.6592-93.6592c.6484-.6484.8896-1.5996.6294-2.478-.2603-.8789-.9805-1.5449-1.877-1.7354Zm-92.6909,91.0811l-23.5244-110.6714,110.6719,23.5234-87.1475,87.1479Z"/><path class="b" d="m742.7716,475.6367c.4756.4756,1.1143.7324,1.7676.7324.2373,0,.4761-.0342.71-.1035.8789-.2598,1.5449-.9805,1.7354-1.877l25.2817-118.9414c.1763-.8281-.0791-1.6885-.6777-2.2871-.5991-.5986-1.4604-.8555-2.2876-.6777l-118.9409,25.2817c-.8965.1904-1.6167.8564-1.877,1.7354-.2603.8784-.019,1.8296.6294,2.478l93.6592,93.6592Zm23.8037-117.4629l-23.5244,110.6714-87.1475-87.1479,110.6719-23.5234Z"/><path class="b" d="m995.7955,582.3037l-86.1222-18.3062c-8.2479-74.0669-39.4141-141.2046-86.2296-194.1938-9.7623-12.8452-20.4142-25.0786-31.9626-36.627-32.6611-32.6616-70.6953-58.3047-113.0459-76.2178-36.5345-15.4526-74.9709-24.5156-114.5461-27.1221l-21.4436-100.8838c-.2451-1.1543-1.2651-1.9805-2.4453-1.9805s-2.2002.8262-2.4453,1.9805l-21.4431,100.8838c-39.5754,2.6064-78.0118,11.6694-114.5466,27.1221-42.3506,17.9131-80.3848,43.5562-113.0459,76.2178-32.6611,32.6611-58.3047,70.6953-76.2173,113.0459-15.4622,36.5566-24.5276,75.0181-27.1277,114.6191l-100.9695,21.4619c-1.1548.2451-1.9805,1.2646-1.9805,2.4453s.8257,2.1997,1.9805,2.4453l100.9823,21.4639c2.6163,39.5354,11.6766,77.9341,27.1149,114.4343,17.9126,42.3506,43.5562,80.3848,76.2173,113.0461,10.9255,10.9255,22.4658,21.0464,34.5543,30.3748,53.2988,47.7874,121.1921,79.6233,196.1871,87.9622l-3.1882-15,21.4824,101.0686c.2451,1.1545,1.2651,1.9802,2.4453,1.9802s2.2002-.8257,2.4453-1.9802l17.8318-83.8918c193.8135-.8381,350.7618-157.7988,351.5801-351.6167l83.9382-17.8413c1.1548-.2456,1.9805-1.2651,1.9805-2.4453s-.8257-2.2002-1.9805-2.4453Zm-207.8501-245.5918c6.2538,6.2539,12.2266,12.7124,17.9437,19.3418-.4255-.1704-.8874-.27-1.3738-.27h-.0001c-1.7676,0-3.2407,1.2407-3.6097,2.897.1703.27.347.5361.5167.8066.7426,1.1851,1.4618,2.3857,2.1907,3.5801.2903.0732.5894.1235.9024.1235h.0001c2.0454,0,3.7036-1.6582,3.7036-3.7036,0-.2827-.0381-.5557-.0982-.8203,4.4799,5.2979,8.7873,10.708,12.9219,16.2246-1.0274.6582-1.7126,1.8037-1.7126,3.1143,0,2.0454,1.6582,3.7036,3.7037,3.7036.9073,0,1.7287-.3345,2.3684-.877,3.5607,4.9644,6.9786,10.0127,10.2614,15.1357-.9166.6738-1.5186,1.7515-1.5186,2.9766,0,2.0454,1.6582,3.7036,3.7037,3.7036h.0001c.6243,0,1.2036-.1689,1.7196-.4419,19.5756,32.0186,33.7891,66.8896,42.1688,103.4995-.6516-1.0605-1.8119-1.7739-3.1476-1.7744h-.0001c-2.0455,0-3.7037,1.6582-3.7037,3.7041s1.6582,3.7036,3.7037,3.7036h.0001c1.9277-.0005,3.4929-1.478,3.6689-3.3599,3.7566,16.9321,6.256,34.2305,7.4792,51.7803l-267.8209-56.9277-56.9459-267.9067c84.2552,5.8901,162.6683,41.48,222.9747,101.7866Zm-495.8906,0c60.3065-60.3066,138.7195-95.897,222.9753-101.7866l-56.9446,267.9067-267.8228,56.9277c5.8746-84.2832,41.4678-162.7241,101.792-223.0479Zm201.0793,595.4763c-.5463-1.364-1.8746-2.3303-3.4338-2.3303-1.1831,0-2.2246.5652-2.9026,1.4287-36.7009-5.5513-71.981-16.8289-104.7728-33.4026.1693-.4204.2679-.8772.2679-1.3596,0-2.0454-1.6582-3.7036-3.7036-3.7036-1.2942,0-2.4299.666-3.092,1.6714-30.3406-16.1521-58.4484-36.895-83.4424-61.8892-60.2803-60.28-95.8657-138.6504-101.7795-222.8633l267.8103,56.9236,52.1326,245.2698c-.5774-.3721-1.2612-.5938-1.9991-.5938h-.0001c-2.0455,0-3.7037,1.658-3.7037,3.7036s1.6582,3.7036,3.7037,3.7036h.0001c1.2943,0,2.4299-.666,3.0922-1.6719l3.6797,17.3125c-7.3318-.5132-14.6216-1.2388-21.8567-2.199Zm348.7902-168.96c-.1241-.0125-.2446-.0371-.372-.0371h-.0001c-2.0455,0-3.7037,1.6582-3.7037,3.7036,0,.7495.2325,1.438.617,2.0173-14.1558,22.8408-31.0428,44.2139-50.52,63.6909-16.694,16.6941-34.783,31.4819-53.9914,44.2842-.4764-1.4949-1.8599-2.585-3.5128-2.585h-.0002c-2.0455,0-3.7037,1.6582-3.7037,3.7036,0,1.1033.4921,2.083,1.2576,2.7615-21.4446,13.6702-44.2263,24.8918-68.0007,33.5259-.3467-1.6858-1.8387-2.9539-3.6272-2.9539-2.0457,0-3.7039,1.658-3.7039,3.7036,0,.6084.1501,1.179.4114,1.6826-16.7615,5.6882-33.9858,10.1155-51.564,13.207-.2271-.0439-.459-.0747-.6992-.0747-.6626,0-1.2766.1843-1.8118.49-10.4169,1.7542-20.9526,3.0444-31.5847,3.8613.0377-.2107.0632-.4258.0632-.6477,0-1.281-.6506-2.4094-1.6392-3.0745l56.0776-263.8237,267.8083-56.9236c-3.8452,54.7559-20.2292,107.0408-47.8006,153.4885Zm34.5267-178.5032l-336.4509-.0674v443.3418l-77.3613-363.9639c-.1027-.4834-.3433-.9138-.6787-1.249l78.04-78.1289H97.1776l363.5359-77.2725c.9653-.2051,1.7202-.9595,1.9253-1.9253l6.7277-31.6519c.538.3057,1.1517.4941,1.8153.4941h.0002c2.0454,0,3.7035-1.6582,3.7035-3.7036s-1.6581-3.7036-3.7035-3.7041h-.0002c-.1194,0-.2349.0151-.3513.0264l18.1292-85.2925c.2397.0493.4861.0811.7407.0811,2.0454,0,3.7036-1.6582,3.7036-3.7036,0-1.771-1.2451-3.2471-2.9065-3.6128l18.1345-85.3174c1.8486-.2085,3.2905-1.7583,3.2905-3.6626,0-1.3608-.7422-2.5376-1.8359-3.1812l18.3037-86.1133c1.2114-.6089,2.0508-1.8496,2.0508-3.2979,0-.894-.3229-1.7075-.8516-2.3442l10.4106-48.9785v443.1597l78.0018-78.002c.3412.3594.7822.6221,1.2872.7295l363.9508,77.3608-102.5135-.0205-4.2755-.0005Zm2.1384-6.7192h-.0001"/><path class="b" d="m526.7374,226.1543c-2.0457,0-3.7039,1.6582-3.7039,3.7036s1.6582,3.7036,3.7039,3.7036,3.7036-1.6582,3.7036-3.7036-1.6582-3.7036-3.7036-3.7036Z"/><path class="b" d="m526.7374,263.1909c-2.0457,0-3.7039,1.6582-3.7039,3.7036s1.6582,3.7041,3.7039,3.7041,3.7036-1.6582,3.7036-3.7041-1.6582-3.7036-3.7036-3.7036Z"/><path class="b" d="m526.7374,300.228c-2.0457,0-3.7039,1.6582-3.7039,3.7036s1.6582,3.7041,3.7039,3.7041,3.7036-1.6582,3.7036-3.7041-1.6582-3.7036-3.7036-3.7036Z"/><path class="b" d="m508.219,318.7466h-.0001c-2.0455,0-3.7037,1.6582-3.7037,3.7036s1.6582,3.7041,3.7037,3.7041h.0001c2.0455-.0005,3.7035-1.6587,3.7035-3.7041s-1.658-3.7036-3.7035-3.7036Z"/><path class="b" d="m526.7374,337.2652c-2.0457,0-3.7039,1.6582-3.7039,3.7036s1.6582,3.7041,3.7039,3.7041,3.7036-1.6582,3.7036-3.7041-1.6582-3.7036-3.7036-3.7036Z"/><path class="b" d="m508.219,355.7837h-.0001c-2.0455,0-3.7037,1.6582-3.7037,3.7036s1.6582,3.7036,3.7037,3.7036h.0001c2.0455,0,3.7035-1.6582,3.7035-3.7036s-1.658-3.7036-3.7035-3.7036Z"/><path class="b" d="m526.7374,374.3023c-2.0457,0-3.7039,1.6582-3.7039,3.7036s1.6582,3.7036,3.7039,3.7036,3.7036-1.6582,3.7036-3.7036-1.6582-3.7036-3.7036-3.7036Z"/><path class="b" d="m508.219,392.8208h-.0001c-2.0455,0-3.7037,1.6582-3.7037,3.7036s1.6582,3.7036,3.7037,3.7036h.0001c2.0455,0,3.7035-1.6582,3.7035-3.7036s-1.658-3.7036-3.7035-3.7036Z"/><path class="b" d="m526.7374,411.3394c-2.0457,0-3.7039,1.6582-3.7039,3.7036s1.6582,3.7036,3.7039,3.7036,3.7036-1.6582,3.7036-3.7036-1.6582-3.7036-3.7036-3.7036Z"/><path class="b" d="m508.219,429.8579h-.0001c-2.0455,0-3.7037,1.6582-3.7037,3.7036s1.6582,3.7036,3.7037,3.7036h.0001c2.0455,0,3.7035-1.6582,3.7035-3.7036s-1.658-3.7036-3.7035-3.7036Z"/><path class="b" d="m526.7374,448.3765c-2.0457,0-3.7039,1.6582-3.7039,3.7036s1.6582,3.7036,3.7039,3.7036,3.7036-1.6582,3.7036-3.7036-1.6582-3.7036-3.7036-3.7036Z"/><path class="b" d="m508.219,466.8945h-.0001c-2.0455,0-3.7037,1.6582-3.7037,3.7041s1.6582,3.7036,3.7037,3.7036h.0001c2.0455,0,3.7035-1.6582,3.7035-3.7036s-1.658-3.7036-3.7035-3.7041Z"/><path class="b" d="m526.7374,485.4131c-2.0457,0-3.7039,1.6582-3.7039,3.7041s1.6582,3.7036,3.7039,3.7036,3.7036-1.6582,3.7036-3.7036-1.6582-3.7041-3.7036-3.7041Z"/><path class="b" d="m508.219,503.9317h-.0001c-2.0455,0-3.7037,1.6582-3.7037,3.7041s1.6582,3.7036,3.7037,3.7036h.0001c2.0455-.0005,3.7035-1.6582,3.7035-3.7036s-1.658-3.7036-3.7035-3.7041Z"/><path class="b" d="m526.7374,522.4502c-2.0457,0-3.7039,1.6582-3.7039,3.7041s1.6582,3.7036,3.7039,3.7036,3.7036-1.6582,3.7036-3.7036-1.6582-3.7041-3.7036-3.7041Z"/><path class="b" d="m508.2186,540.9688h.0001c2.0441,0,3.7037,1.6596,3.7037,3.7037v.0002c0,2.0441-1.6596,3.7037-3.7037,3.7037h-.0001c-2.044,0-3.7035-1.6595-3.7035-3.7035v-.0007c0-2.044,1.6595-3.7035,3.7035-3.7035Z"/><path class="b" d="m526.7374,559.4873c-2.0457,0-3.7039,1.6582-3.7039,3.7036s1.6582,3.7036,3.7039,3.7036,3.7036-1.6582,3.7036-3.7036-1.6582-3.7036-3.7036-3.7036Z"/><circle class="b" cx="489.7003" cy="415.043" r="3.7036"/><circle class="b" cx="489.7003" cy="452.0801" r="3.7036"/><path class="b" d="m489.7003,485.4131c-2.0454,0-3.7036,1.6582-3.7036,3.7041s1.6582,3.7036,3.7036,3.7036,3.7036-1.6582,3.7036-3.7036-1.6582-3.7041-3.7036-3.7041Z"/><path class="b" d="m471.182,503.9317h-.0002c-2.0454,0-3.7036,1.6582-3.7036,3.7041s1.6582,3.7036,3.7036,3.7036h.0002c2.0454-.0005,3.7035-1.6582,3.7035-3.7036s-1.6581-3.7036-3.7035-3.7041Z"/><path class="b" d="m489.7003,522.4502c-2.0454,0-3.7036,1.6582-3.7036,3.7041s1.6582,3.7036,3.7036,3.7036,3.7036-1.6582,3.7036-3.7036-1.6582-3.7041-3.7036-3.7041Z"/><polygon class="b" points="540.0001 39.9756 479.5526 100.4229 600.4475 100.4229 540.0001 39.9756"/><path class="b" d="m650.3599,791.7332l118.9409,25.2817c.1729.0369.3472.0547.52.0547.6558,0,1.2939-.2585,1.7676-.7322.5986-.5986.854-1.4595.6777-2.2876l-25.2817-118.9412c-.1904-.8965-.8564-1.6169-1.7354-1.8772-.877-.2603-1.8296-.0193-2.4775.6292l-93.6592,93.6594c-.6484.6482-.8896,1.5991-.6294,2.4778.2603.8789.9805,1.5449,1.877,1.7354Zm92.6909-91.0811l23.5244,110.6716-110.6719-23.5239,87.1475-87.1477Z"/><path class="b" d="m431.5172,789.9978c.2603-.8787.019-1.8296-.6294-2.4778l-93.6592-93.6594c-.6484-.6484-1.6001-.8894-2.4775-.6292-.8789.2603-1.5449.9807-1.7354,1.8772l-25.2817,118.9412c-.1763.8281.0791,1.689.6777,2.2876.4736.4736,1.1113.7322,1.7676.7322.1729,0,.3472-.0178.52-.0547l118.9409-25.2817c.8965-.1904,1.6167-.8564,1.877-1.7354Zm-118.0923,21.3259l23.5244-110.6716,87.1475,87.1477-110.6719,23.5239Z"/></svg>