<svg id="a7b4df03-3110-483c-b89e-fa0d4d6c1dae" data-name="Icon" xmlns="http://www.w3.org/2000/svg" viewBox="0 0 36 36">
  <defs>
    <style>
      .f27d5b92-8543-42a6-a431-3df5a3d426da {
        fill: #e00;
      }
    </style>
  </defs>
  <g>
    <path class="f27d5b92-8543-42a6-a431-3df5a3d426da" d="M4.7,15.55l13,7.22a.6.6,0,0,0,.6,0l13-7.22a.63.63,0,0,0,0-1.1l-13-7.22a.64.64,0,0,0-.6,0l-13,7.22a.63.63,0,0,0,0,1.1ZM18,8.49,29.71,15,18,21.51,6.29,15Z"/>
    <path class="f27d5b92-8543-42a6-a431-3df5a3d426da" d="M30.7,20.23,18,27.29,5.3,20.23a.62.62,0,1,0-.6,1.09l13,7.23a.68.68,0,0,0,.6,0l13-7.23a.62.62,0,1,0-.6-1.09Z"/>
  </g>
</svg>
