<svg xmlns="http://www.w3.org/2000/svg" xmlns:xlink="http://www.w3.org/1999/xlink" viewBox="0 0 1080 1080"><defs><style>.cls-1,.cls-11,.cls-13,.cls-14,.cls-18,.cls-22,.cls-24,.cls-26,.cls-34,.cls-39{fill:none;}.cls-2{isolation:isolate;}.cls-17,.cls-3,.cls-37,.cls-9{fill:#dedede;}.cls-10,.cls-27,.cls-4,.cls-7{fill:#e00;}.cls-10,.cls-11,.cls-12,.cls-26,.cls-27,.cls-4{stroke:#e00;}.cls-12,.cls-4,.cls-6,.cls-9{stroke-miterlimit:10;}.cls-10,.cls-11,.cls-13,.cls-16,.cls-18,.cls-20,.cls-21,.cls-33,.cls-34,.cls-36,.cls-37,.cls-38,.cls-39,.cls-4,.cls-6,.cls-8,.cls-9{stroke-width:2px;}.cls-5{clip-path:url(#clip-path);}.cls-12,.cls-15,.cls-6,.cls-8{fill:#fff;}.cls-18,.cls-37,.cls-6,.cls-8,.cls-9{stroke:#dedede;}.cls-10,.cls-11,.cls-13,.cls-14,.cls-16,.cls-18,.cls-20,.cls-21,.cls-22,.cls-24,.cls-25,.cls-26,.cls-27,.cls-33,.cls-34,.cls-36,.cls-37,.cls-38,.cls-39,.cls-8{stroke-linecap:round;stroke-linejoin:round;}.cls-12{stroke-width:6px;}.cls-13{stroke:#c9c9c9;}.cls-14,.cls-16,.cls-22,.cls-34,.cls-38{stroke:#000;}.cls-17{mix-blend-mode:multiply;}.cls-19{clip-path:url(#clip-path-2);}.cls-20,.cls-28{fill:#fddbdb;}.cls-20{stroke:#fddbdb;}.cls-21,.cls-29{fill:#fab6b6;}.cls-21{stroke:#fab6b6;}.cls-22,.cls-24,.cls-25,.cls-26,.cls-27{stroke-width:1.5px;}.cls-23{opacity:0.7;}.cls-24,.cls-25{stroke:#f56d6d;}.cls-25{fill:#f56d6d;}.cls-30{fill:#6c6c6c;}.cls-31{clip-path:url(#clip-path-3);}.cls-32{clip-path:url(#clip-path-4);}.cls-33{fill:#8f0000;stroke:#8f0000;}.cls-35{clip-path:url(#clip-path-5);}.cls-36,.cls-38{fill:#be0000;}.cls-36,.cls-39{stroke:#be0000;}.cls-40{clip-path:url(#clip-path-6);}</style><clipPath id="clip-path"><path class="cls-1" d="M152.14,559.46c-18.42-20.42-40.3-37.54-53-63.07-15.66-31.4-16.6-71.81.28-103.15,0,0,16.53-30.46,55.68-58.3s108.77-69.61,128.78-131.38S443.08,35.63,569.24,92.18c0,0,45.24,19.15,47.85,102.67,0,0,2.61,47.86,20,73.09,0,0,31.32,41.77,168.79,73.09,0,0,203.6,27,194.9,194,0,0-6.09,154.88-142.69,228,0,0-117.46,74.83-195.77,153.14S531,1006.65,497.89,1005.78s-125.29,2.61-149.65-96.58l-47.85-87.28L209.77,656.6c-12.92-23.58-25.33-47.43-38.37-70.94A142.75,142.75,0,0,0,152.14,559.46Z"/></clipPath><clipPath id="clip-path-2"><rect class="cls-1" x="368.25" y="485.96" width="253.46" height="251.2"/></clipPath><clipPath id="clip-path-3"><polyline class="cls-1" points="738.86 489.57 738.86 737.17 368.29 737.17 368.29 489.57 738.86 489.57"/></clipPath><clipPath id="clip-path-4"><rect class="cls-1" x="621.4" y="489.4" width="120.51" height="82.4"/></clipPath><clipPath id="clip-path-5"><rect class="cls-1" x="621.4" y="572.17" width="120.51" height="82.4"/></clipPath><clipPath id="clip-path-6"><rect class="cls-1" x="621.4" y="655.9" width="120.51" height="82.4"/></clipPath></defs><g class="cls-2"><g id="Layer_1" data-name="Layer 1"><path class="cls-3" d="M154,557.9c-7.05-6.82-15.15-12.44-22.52-19.26-20.92-19.37-37.48-44.32-42.67-72.7-4.07-22.32-3.09-55.17,11.91-73.5,27.69-33.83,67.76-52.74,106.3-71.28,22.9-11,46.82-21.62,66.22-38.39,22.73-19.65,30.08-46.67,45.62-71.31,36-57.12,89.59-92.43,155-98.74,34.8-3.36,71.79.42,102.86,17.47,51.32,28.15,29.23,96.24,60.37,137.75,0,0,31.32,41.77,168.79,73.09,0,0,203.6,27,194.9,194,0,0-6.09,154.88-142.69,228,0,0-117.46,74.83-195.77,153.14S531,1006.65,497.89,1005.78s-125.29,2.61-149.65-96.58L304,828.52l-86.5-157.8-35.62-65c-6.39-11.66-11-25.25-18.49-36.69A64.59,64.59,0,0,0,154,557.9Z"/><path class="cls-4" d="M804.94,443.82a39.69,39.69,0,0,0,2.53-79.3,80.83,80.83,0,0,0,1.34-14.66c0-52.43-50.31-94.93-112.37-94.93-53.42,0-98.11,31.51-109.51,73.73A59.12,59.12,0,0,0,515.77,366a39.71,39.71,0,1,0-11.12,77.82Z"/><g class="cls-5"><rect class="cls-6" x="666.41" y="342.77" width="370.5" height="102.35" transform="translate(1703.32 787.89) rotate(-180)"/><rect class="cls-6" x="666.41" y="444.73" width="370.5" height="102.35" transform="translate(1703.32 991.82) rotate(-180)"/><rect class="cls-7" x="773.63" y="386.58" width="236.74" height="18.75" transform="translate(1784 791.91) rotate(-180)"/><circle class="cls-7" cx="714.01" cy="395.95" r="9.38"/><circle class="cls-7" cx="714.01" cy="495.91" r="9.38"/><rect class="cls-7" x="773.63" y="486.56" width="236.74" height="18.75" transform="translate(1784 991.88) rotate(-180)"/><rect class="cls-6" x="666.41" y="547.09" width="370.5" height="102.35" transform="translate(1703.32 1196.52) rotate(-180)"/><circle class="cls-7" cx="714.01" cy="598.26" r="9.38"/><rect class="cls-7" x="773.63" y="589.35" width="236.74" height="18.75" transform="translate(1784 1197.45) rotate(-180)"/><rect class="cls-6" x="666.41" y="649.44" width="370.5" height="102.35" transform="translate(1703.32 1401.23) rotate(-180)"/><circle class="cls-7" cx="714.01" cy="700.61" r="9.38"/><rect class="cls-7" x="773.63" y="691.7" width="236.74" height="18.75" transform="translate(1784 1402.16) rotate(-180)"/></g><line class="cls-8" x1="666.41" y1="342.77" x2="832.01" y2="342.77"/><rect class="cls-6" x="164.84" y="443.51" width="161.84" height="247.98"/><rect class="cls-9" x="180.72" y="427.31" width="145.95" height="247.98"/><rect class="cls-6" x="186.84" y="421.51" width="161.84" height="247.98"/><rect class="cls-9" x="200.4" y="421.01" width="148.28" height="234.91"/><rect class="cls-6" x="206.41" y="401.94" width="161.84" height="247.98"/><path class="cls-10" d="M287.33,486h46.49a46.49,46.49,0,0,0-46.49-46.49Z"/><circle class="cls-11" cx="287.33" cy="485.96" r="46.49"/><path class="cls-10" d="M322.49,516.36A46.31,46.31,0,0,0,333.82,486H287.33Z"/><line class="cls-11" x1="240.83" y1="559.42" x2="333.82" y2="559.42"/><line class="cls-11" x1="240.83" y1="577.7" x2="333.82" y2="577.7"/><line class="cls-11" x1="240.83" y1="595.97" x2="302.12" y2="595.97"/><line class="cls-11" x1="240.83" y1="614.24" x2="302.12" y2="614.24"/><line class="cls-11" x1="621.71" y1="489.57" x2="621.71" y2="737.17"/><line class="cls-11" x1="621.71" y1="572.1" x2="738.86" y2="572.1"/><line class="cls-11" x1="621.71" y1="654.64" x2="738.86" y2="654.64"/><path class="cls-12" d="M155.37,694.1H426.54a0,0,0,0,1,0,0v68.39a0,0,0,0,1,0,0H155.37a8,8,0,0,1-8-8V702.1A8,8,0,0,1,155.37,694.1Z"/><path class="cls-7" d="M155.37,694.1h13.3a0,0,0,0,1,0,0v68.39a0,0,0,0,1,0,0h-13.3a8,8,0,0,1-8-8V702.1A8,8,0,0,1,155.37,694.1Z"/><line class="cls-13" x1="186.84" y1="722.13" x2="426.54" y2="722.13"/><line class="cls-13" x1="316.67" y1="738.95" x2="426.54" y2="738.95"/><rect x="168.68" y="697.17" width="190.15" height="3.83"/><path class="cls-12" d="M136.13,762.49H407.3a0,0,0,0,1,0,0v68.39a0,0,0,0,1,0,0H136.13a8,8,0,0,1-8-8V770.49A8,8,0,0,1,136.13,762.49Z"/><path class="cls-7" d="M136.13,762.49h13.3a0,0,0,0,1,0,0v68.39a0,0,0,0,1,0,0h-13.3a8,8,0,0,1-8-8V770.49A8,8,0,0,1,136.13,762.49Z"/><line class="cls-13" x1="186.84" y1="790.52" x2="407.3" y2="790.52"/><line class="cls-13" x1="240.83" y1="807.34" x2="407.3" y2="807.34"/><rect x="149.44" y="765.3" width="218.85" height="3.83"/><polygon class="cls-14" points="757.18 471.25 349.98 471.25 349.98 755.48 757.18 755.48 757.18 471.25 757.18 471.25"/><path d="M757.18,471.25H350V755.48h407.2V471.25Z"/><polygon class="cls-15" points="757.18 755.48 553.58 755.48 349.98 755.48 263.55 896.44 553.58 896.44 843.61 896.44 757.18 755.48"/><path class="cls-3" d="M606.65,843.07H500.5a4.25,4.25,0,0,0-4.07,3l-9.49,31.31a4.26,4.26,0,0,0,4.07,5.5H616.14a4.26,4.26,0,0,0,4.07-5.5l-9.48-31.31A4.27,4.27,0,0,0,606.65,843.07Z"/><path class="cls-16" d="M263.55,896.44v8.09A10.46,10.46,0,0,0,274,915H833.14a10.47,10.47,0,0,0,10.47-10.47v-8.09Z"/><path class="cls-3" d="M747.89,821.52l-40.49-66H399.76l-40.49,66a2.91,2.91,0,0,0,2.48,4.44H745.4A2.92,2.92,0,0,0,747.89,821.52Z"/><polyline class="cls-15" points="738.86 489.57 738.86 737.17 368.29 737.17 368.29 489.57 738.86 489.57"/><polygon class="cls-17" points="765.55 769.13 757.18 755.48 553.58 755.48 349.98 755.48 341.64 769.08 765.55 769.13"/><polygon class="cls-18" points="757.18 755.48 553.58 755.48 349.98 755.48 263.55 896.44 553.58 896.44 843.61 896.44 757.18 755.48"/><g class="cls-19"><path class="cls-20" d="M430.29,664.22s13.28,5.74,25.16-7.56V626l47.81-3.81s-1.88,21.35,2.26,30.6l12-.23,3.93,18.34-4.76,49.21-93.45-1.28Z"/><path class="cls-20" d="M430.29,664.22s13.28,5.74,25.16-7.56V626l47.81-3.81s-1.88,21.35,2.26,30.6l12-.23,3.93,18.34-4.76,49.21-93.45-1.28Z"/><path class="cls-21" d="M466.28,634.77s34.61,12.17,28.75,84l24.5,6.6L529,671.1l-11-15.05-9.24-22.23-7-14.5Z"/><path class="cls-10" d="M432.66,698.33s24.86,31.71,72.86,5.2a362.27,362.27,0,0,0,1.65,85l-80.12-19.18s-5.22-14.54,2.92-59.45Z"/><path class="cls-16" d="M508.71,548.87s9.14,17.34,12.24,26.25,6.19,49.42,1.11,65.08c0,0-3.09,9.09-4.58,12.31,0,0-13.74,5.08-16.59-5.57,0,0-.25-9.66,0-14.62l.38-6.43s6.45-10.84,7.44-21.09a5.07,5.07,0,0,0,5.13-.87c2.4-2.07,2.44-7.48,2.25-9.85a27.41,27.41,0,0,1,.32-5.92c.19-1.4,1.52-6.29-3.2-6.92C513.21,581.24,505.14,555.57,508.71,548.87Z"/><path class="cls-20" d="M507.32,608.79c-2.78,13.33-6.54,17.82-6.54,17.82-7.21,11.75-21,11.7-21,11.7-11,.87-22.24-9.74-22.24-9.74a54.81,54.81,0,0,1-8.87-14.48s-8.18,6.11-12.07-12.8-.63-18.07,2.23-20.3,1.31-31.19,24-38.06,41.66,7.37,45.88,22.39S507.32,608.79,507.32,608.79Z"/><path d="M481.87,572.23c1.72-.65,3.4-1.21,5.15-1.69a42.15,42.15,0,0,1,5.34-1.14,13.42,13.42,0,0,1,2.85-.11,10.7,10.7,0,0,1,2.83.65,10.39,10.39,0,0,1,4.52,3.33.5.5,0,0,1-.09.71.51.51,0,0,1-.66,0l0,0a8.81,8.81,0,0,0-2-1.44,9.09,9.09,0,0,0-2.27-.92,9.55,9.55,0,0,0-2.36-.3,15,15,0,0,0-2.42.34,37.2,37.2,0,0,0-4.91,1.47c-1.61.61-3.25,1.25-4.8,1.93h0a1.49,1.49,0,0,1-1.2-2.73Z"/><path d="M464.71,576c-1-.19-2-.35-3-.5s-2-.31-3-.43a50.91,50.91,0,0,0-6-.38h.07a5.71,5.71,0,0,0-1.48.47,7,7,0,0,0-1.43.86,8.12,8.12,0,0,0-1.23,1.19,9.17,9.17,0,0,0-1,1.44l0,0a.51.51,0,0,1-.69.18.52.52,0,0,1-.22-.63,10.38,10.38,0,0,1,.89-1.76,8.27,8.27,0,0,1,1.26-1.57,8.68,8.68,0,0,1,1.62-1.26,7.42,7.42,0,0,1,2-.83h.07a38.65,38.65,0,0,1,6.35-.22c1,0,2.09.08,3.14.16s2.08.19,3.14.33a1.49,1.49,0,1,1-.37,2.95h-.11Z"/><path class="cls-22" d="M452.53,584.65s6.69-6.32,15.42-.62"/><path class="cls-22" d="M483.68,582.23s5.51-6,14.61-1.42"/><path d="M462.55,581.89a2.56,2.56,0,0,1,.28,1.17,2.64,2.64,0,1,1-5.27,0,2.59,2.59,0,0,1,.31-1.24Z"/><path d="M493.22,579a2.63,2.63,0,1,1-4.68.22Z"/><g class="cls-23"><path class="cls-24" d="M467.27,597.71s-.68,3,1.3,3.9"/><path class="cls-24" d="M484.79,595.54s1.3,2.85,0,4.12"/><path class="cls-24" d="M473,582.26l.62,11.08s-4.45,5.89,1.86,9.42"/></g><path class="cls-25" d="M465.36,614s13.44,11.71,27.15-2.4C492.51,611.58,481.54,616.69,465.36,614Z"/><path class="cls-26" d="M490.32,612.41a45,45,0,0,0,4.71-2.08"/><path class="cls-26" d="M467.25,614.26a16.13,16.13,0,0,1-4.42-.91"/><path class="cls-27" d="M465.36,614s6.7-4.25,11.37-2.3a4.37,4.37,0,0,0,1.81,0s3.56-2.95,14-.09C492.51,611.58,482.11,616.94,465.36,614Z"/><path class="cls-20" d="M511.41,581.82A3.12,3.12,0,0,1,516,583c1.73,3-.62,7.25,0,10.47s.16,13.92-7.29,11.36"/><path class="cls-16" d="M465.36,531s-15.74-1.16-27.75,28.43-2.6,32.28-4.34,54-1,43.49,4.83,51.67c0,0,16.25.24,19.46-8.55s0-26.66,0-26.66-7.45-8.89-10.19-18.23c0,0-5.49.77-6.74-2.4a13,13,0,0,1-1.52-4.83c-.22-2.6-.45-5.63-1-7.11s-2.84-6.66,0-9.44l1.61-1.3,9.54-37,10.28-8.55Z"/><path class="cls-16" d="M468.57,545.89s11.89-1.24,19.07,3.59,18.74,18.61,21.07,32.34,5.55-3.27,5.55-9.63-.24-19.12-11-30.64-22.74-15.11-31.18-9.16C472.06,532.39,471,543.29,468.57,545.89Z"/><path class="cls-8" d="M507.7,792.69c-12.67-95.35,9.78-140.18,9.78-140.18s6.57-.55,10,1.21a85.59,85.59,0,0,0,19.57,6.22"/><path class="cls-28" d="M615.19,750.83c-3.84-7.55-11-28.23-19.94-46.19s-15.48-43.34-16.1-46.81.75-12.13,1-14.36,2.73-14.61,3.22-16.22,1.86-6,2.23-7.31.37-3,.74-9.61-.24-10.2-1.6-10.67a3.52,3.52,0,0,0-4.22,1.63c-1.11,1.79-.64,5.64-1.23,10.08-1.45,10.77-2.8,11.74-2.8,11.74l1.09-9.3a7,7,0,0,0,.06-.92l-.09-9.54c.62-6.94-2.23-7.31-3.84-7.31s-2.47,1.24-2.84,3.51-.75,10-.75,12.15-2,10-2,10l-1.11-.12s.37-8.42.49-10,.37-6,.87-10,.37-6.31-2.48-6.07-4.21,4.34-4.46,6.07-.74,6.07-1.11,8.72S559.09,622,559.09,622h-1.36s0-8.66,1.36-14.11.5-6.32-.62-6.64-2.72,0-4,1.81-4.3,10.15-4.54,12.63-.25,6.69-.25,9.41-3.47,7.55-3.47,7.55c-.12-.86-.37-8.79-.37-8.79,1.12-3.59.25-9.41-1.24-12.53s-4.83-4.31-5.2-2a56.41,56.41,0,0,1-1.36,6.75c-.53,1.73-.24,11.58-.61,17.28s.36,14.24,4.94,20.28,7.06,10.06,11.4,19.34c4.22,9.06,7,19,10.09,28.44a494.53,494.53,0,0,1,17.4,66.42"/><path class="cls-29" d="M546.42,632.62a22.92,22.92,0,0,1,3.88.17,17.17,17.17,0,0,1,3.86,1c.64.23,1.29.5,1.94.79a8.07,8.07,0,0,1,.92.6,6.61,6.61,0,0,1,.77.81,4.48,4.48,0,0,1,.78,4.3.19.19,0,0,1-.23.1.15.15,0,0,1-.06,0h0a19.8,19.8,0,0,0-2.65-2.28c-.82-.57-1.52-1.48-2.52-2.11a21.49,21.49,0,0,0-3.2-1.67,31.31,31.31,0,0,0-3.51-1.32h0a.15.15,0,0,1-.1-.19A.16.16,0,0,1,546.42,632.62Z"/><path class="cls-30" d="M547.47,719.52c1.62,5.94,3.08,11.9,4.54,17.86l2.11,9,2,9c.65,3,1.43,6,2.17,9a55.83,55.83,0,0,1,1.43,9.09,81.87,81.87,0,0,1,.17,9.28,46.43,46.43,0,0,1-1.24,9.46.42.42,0,0,1-.51.3.42.42,0,0,1-.28-.22h0a65.64,65.64,0,0,1-3.57-8.75q-1.46-4.4-2.48-8.88a58.77,58.77,0,0,1-1.35-9.06c-.2-3.06-.35-6.13-.66-9.17l-.91-9.15-.8-9.16c-.49-6.11-1-12.23-1.38-18.37a.4.4,0,0,1,.38-.42A.39.39,0,0,1,547.47,719.52Z"/><path class="cls-8" d="M343.49,726.56c3-1,13.13-6.93,16.6-11.14s21.79-26.26,27-33.69,20.56-14.86,34.43-16.71,16.59,0,16.59,0-1.73,22.91-5.44,33.31-9.91,57.21-4.71,75"/><path class="cls-20" d="M440.58,587.74s-2.72-1.61-3.71,2.23,1.36,6.13,1.85,9.69-.54,13.22,8.65,11.92"/><path class="cls-16" d="M472.06,532.39s-1.26,11.64-3.49,13.5c0,0-13.62,2.84-18,12.13s-8,28.38-7.41,36.05-4.6-1.88-4.35-13.08S448.79,522.11,472.06,532.39Z"/></g><g class="cls-31"><g class="cls-32"><path class="cls-33" d="M670.87,550.07a50.43,50.43,0,0,0,.7-12l21.24,4.14s.28,7.26.7,9.5v11.86L674,566Z"/><path class="cls-33" d="M669,523.87s-.74-1.86-2.18-.69.85,7.17,1.09,8.23a2.89,2.89,0,0,0,2.47,2.18A20.55,20.55,0,0,0,675,543.78c4.09,4.84,7.86,4.62,10,4.2s7.86-4.83,9.08-8a23.25,23.25,0,0,0,1.44-6s2-.42,2.18-2.12,1.11-2.55,1.32-3.93.59-5.18-1.17-5.16L693.25,509l-10.48-2-9.25,2.44Z"/><path class="cls-16" d="M669.39,528a32.85,32.85,0,0,1-1.8-9.18c-.05-4.36-.05-8.13.58-9.51s4.83-5.42,6.27-6.21a18.18,18.18,0,0,1,9.24-1.81,14.27,14.27,0,0,1,9.48,4.25c1.83,1.86,5.28,6.05,5.28,9.72s-.37,9.66-2,12.16c0,0-2.28-9-2-13.33,0,0,0-2.44-3.93-2.39s-8.6,1.75-12.79,1-5,1.11-5.37,2.28S669.39,528,669.39,528Z"/><path class="cls-10" d="M636,576.09a25,25,0,0,1,15.08-19.24c4.35-1.81,19.11-7.76,19.11-7.76a34.86,34.86,0,0,0,11.53,10.62s9.28-4.24,12.47-8.92c0,0,14.66,6.27,18.9,8.29s10.62,7.58,13.49,17Z"/><path class="cls-34" d="M676.41,545.3c3.52,3.26,6.68,3.05,8.59,2.68,2.18-.43,7.86-4.83,9.08-8a23.25,23.25,0,0,0,1.44-6s2-.42,2.18-2.12,1.11-2.55,1.32-3.93.59-5.18-1.17-5.16l-2.09-6.27"/></g><g class="cls-35"><rect class="cls-36" x="668.69" y="617.55" width="25.22" height="27.45"/><path class="cls-37" d="M642.11,657.09s1.39-17,6.37-19.34,21.32-7.87,21.32-7.87l2.86,4.36s5.2,6.29,8.89,7.39c0,0,7.14-1.64,9.89-7.39l9.13-4.76s13.25,6.87,15,9.26S719,657,719,657Z"/><path class="cls-16" d="M691.21,622.42c1.1,8.27,0,13.33,0,13.33-3.18,12.85,3,21.29,3,21.29l12.15.05c4.68-17.81-1.79-27.81-4-30.2s-2.19-6.57-3.28-21.71-7.87-17.43-7.87-17.43l0-.18c.26-1.89-1.7-3.33-8.65-3.11-18.52.6-19.62,15.54-20.41,20.42s-5.18,10.66-12.25,25,7.87,27.21,7.87,27.21l17.52-.05s-7.17-11.33-4.18-17.2,1.4-13.85-.3-16.64"/><path class="cls-38" d="M684.14,595.12s6.27,1.79,8.07,4.48,2,9.16,2,9.16c3.68-.1.59,6.78.59,6.78a2.58,2.58,0,0,1-1.69,1.29A12.88,12.88,0,0,1,689,624.6c-2.2,2.18-5.28,4.28-8.37,4.38-4.4.14-9.4-4.22-10.92-8.06-2.27-5.77-2.94-12.89-1-18.83C671.39,593.72,684.14,595.12,684.14,595.12Z"/><path class="cls-39" d="M688.17,591.33c-.9,2.09-3.8,4.48-5.51,5.75"/></g><g class="cls-40"><path class="cls-10" d="M733.17,781.29s-2.38-5.82-3.54-21.26-4.76-24.06-6.74-27.88-9.54-6.95-12.08-7.91-12.57-5.71-12.57-5.71L667.62,716s-13.55,4.75-16.4,6-11.26,4.25-13.93,9.81-5.59,20.68-6.78,23.42-4,13.17-4,13.17Z"/><path class="cls-20" d="M668.93,691l1.15-11.72,4.65-6.65,13.47-1.83,8.15,7.15,2,11.8c.3-.31,1.6-1,1.82,1.65a20.08,20.08,0,0,1-1,7c-.4,1.18-2.21,1.05-2.21,1.05a6.2,6.2,0,0,1-.33,1.42,23.13,23.13,0,0,1-3.74,6.73,10.78,10.78,0,0,1-8.95,4.72c-3.35.11-6.27-2.55-8.46-4.21s-4.62-7.81-4.62-7.81c-.93.57-2.69-.43-3.19-2s-1.28-5.58-.56-6.71A1.37,1.37,0,0,1,668.93,691Z"/><path class="cls-16" d="M669.16,693.81a54.89,54.89,0,0,0,1.7-8.66c.09-2.83,2.38-7.73,6-8.45s6.27.3,9.33-.77,4.41-.49,5-.17,4.77,2.71,5.19,6.77.12,9.9.74,12.39c0,0,2.22-6.34,2.38-10.34s.4-9-3.86-11c0,0,1.08-3.25-1.57-4.62s-7.27-3.17-15.54-.19-8.31,2.45-9.46,5.41-3.31,5-2.11,8.57S669.16,693.81,669.16,693.81Z"/><path class="cls-20" d="M672.29,715.33c.23-1.73.25-11.43.25-11.43l21.71,1.75s.27,8.76.54,10.58c0,0-6.45,9.77-10.92,12.7l-9.38-10.44Z"/><path class="cls-16" d="M675.84,729.91a45.77,45.77,0,0,0,.76-4.86A5.61,5.61,0,0,1,678,722.3s-5.57-4.95-6.66-9.95c0,0-3,1.53-3.69,3.62s2.19,7.19,4.33,9.22A31.45,31.45,0,0,1,675.84,729.91Z"/><path class="cls-16" d="M692.81,729.42a5.3,5.3,0,0,1-1.71-2.87,11.42,11.42,0,0,0-1-3.67s2.71-3.54,3.68-5.09,1.52-2.4,2.11-3.43,2.08,2.83,2.32,4.17S695.29,726,692.81,729.42Z"/><path class="cls-34" d="M678,722.3s5.11,6,5.9,6.63,6.26-6,6.26-6"/><path class="cls-34" d="M683.87,728.93s.27,43.29.32,48.32"/></g><path class="cls-34" d="M688.2,670.84l8.15,7.15,2,11.8c.3-.31,1.6-1,1.82,1.65a20.08,20.08,0,0,1-1,7c-.4,1.18-2.21,1.05-2.21,1.05a6.2,6.2,0,0,1-.33,1.42,23.13,23.13,0,0,1-3.74,6.73,10.78,10.78,0,0,1-8.95,4.72c-2.38.08-4.54-1.24-6.37-2.6"/><line class="cls-11" x1="621.71" y1="477.54" x2="621.71" y2="744.01"/><line class="cls-11" x1="621.71" y1="572.1" x2="738.86" y2="572.1"/><line class="cls-11" x1="621.71" y1="654.64" x2="738.86" y2="654.64"/></g></g></g></svg>